<svg id="Layer_1" data-name="Layer 1" xmlns="http://www.w3.org/2000/svg" xmlns:xlink="http://www.w3.org/1999/xlink" viewBox="0 0 650 650"><defs><style>.cls-1{fill:url(#linear-gradient);}.cls-2{opacity:0.1;}.cls-3{fill:#fffdfd;}</style><linearGradient id="linear-gradient" x1="325" y1="650" x2="325" gradientUnits="userSpaceOnUse"><stop offset="0.03" stop-color="#fff"/><stop offset="0.09" stop-color="#ccd0d3"/><stop offset="0.15" stop-color="#9ca4aa"/><stop offset="0.21" stop-color="#737f87"/><stop offset="0.27" stop-color="#51606b"/><stop offset="0.34" stop-color="#374854"/><stop offset="0.4" stop-color="#253744"/><stop offset="0.47" stop-color="#1a2d3b"/><stop offset="0.55" stop-color="#162a38"/></linearGradient></defs><rect class="cls-1" width="650" height="650"/><g class="cls-2"><path class="cls-3" d="M274,309.5l-1.21-.69a5.15,5.15,0,0,0-3.18-.58l-2.05.26a6.91,6.91,0,0,0-3.18,1.41l-1.21.93a3.82,3.82,0,0,0-1.59,2.86v12.58a2.63,2.63,0,0,0,1.59,2.33l1.21.66a5.73,5.73,0,0,0,3.18.47l2.05-.26a6.9,6.9,0,0,0,3.18-1.3l1.21-1a3.59,3.59,0,0,0,1.6-2.74V311.88A2.85,2.85,0,0,0,274,309.5Z"/><path class="cls-3" d="M338.83,379.36l1.22.87a6.5,6.5,0,0,0,3.2,1l2.06.08a6,6,0,0,0,3.2-.75l1.22-.77a2.91,2.91,0,0,0,1.6-2.47V364.75a3.54,3.54,0,0,0-1.6-2.65l-1.22-.89a5.86,5.86,0,0,0-3.2-1.13l-2.06-.08a5.92,5.92,0,0,0-3.2.87l-1.22.71a3.14,3.14,0,0,0-1.6,2.6v12.58A3.22,3.22,0,0,0,338.83,379.36Z"/><path class="cls-3" d="M205.13,273.81c0-.92-.57-1.2-1.7-.86l-2.6.81v2.74l2.6-.8C204.56,275.35,205.13,274.72,205.13,273.81Z"/><path class="cls-3" d="M244.75,232.41a4.9,4.9,0,0,0,4.08-1.43,10.18,10.18,0,0,0,2.1-2.84c0-.08.09-.17.14-.26l0,0s0-.08.07-.07c0,1-.08,2.09-.16,3.09a12.18,12.18,0,0,1-.7,3.37,8.31,8.31,0,0,1-5.05,5.24c-1,.33-2,.58-2.95.86-.11,0-.15.08-.16.21s-.07.49-.11.76h20.29c-.07-.3-.14-.6-.23-.89,0,0-.09-.06-.14-.07a24.13,24.13,0,0,1-3.38-1c-3-1.2-4.95-3.6-6-7.06a23.45,23.45,0,0,1-.78-4.32,1.58,1.58,0,0,0,0-.19l.22.33a11,11,0,0,0,3,3.32,4.64,4.64,0,0,0,5.15.44,5.5,5.5,0,0,0,2.76-4.73,8.79,8.79,0,0,0-1.55-5.63,27.29,27.29,0,0,0-3.19-3.81c-1.24-1.3-2.49-2.59-3.67-4a20,20,0,0,1-4.22-8.16,1.67,1.67,0,0,1-.06-.2c-.12.59-.22,1.14-.34,1.69a16.86,16.86,0,0,1-2.77,6.26c-1.09,1.54-2.3,2.93-3.5,4.34a24.28,24.28,0,0,0-2.82,3.85,8.53,8.53,0,0,0-1,4.93C240,229.52,242.14,232.07,244.75,232.41Z"/><path class="cls-3" d="M410,223.28a124.26,124.26,0,0,1-10.05-17.89,144.44,144.44,0,0,1-12,17.89A113.3,113.3,0,0,1,398,240.75,131.85,131.85,0,0,1,410,223.28Z"/><path class="cls-3" d="M348.82,255.75l-2.14-.12v3.67l2.14.12a2.5,2.5,0,0,0,1.65-.35,1.53,1.53,0,0,0,.58-1.34,1.77,1.77,0,0,0-.58-1.43A2.82,2.82,0,0,0,348.82,255.75Z"/><path class="cls-3" d="M222.25,275.82a2.19,2.19,0,0,0,1.56.08,3.22,3.22,0,0,0,1.54-.86,3.85,3.85,0,0,0,.92-1.64,8.8,8.8,0,0,0,.3-2.46,7.25,7.25,0,0,0-.3-2.32,2,2,0,0,0-.92-1.18,2.14,2.14,0,0,0-1.54-.1,3.24,3.24,0,0,0-1.56.87,4.14,4.14,0,0,0-.92,1.64,8.82,8.82,0,0,0-.31,2.48,7.12,7.12,0,0,0,.31,2.3A2.09,2.09,0,0,0,222.25,275.82Z"/><path class="cls-3" d="M298.32,258.43l-.65-2.47h-.05c-.26,1-.38,1.51-.64,2.53-.32,1.19-.6,2.19-.85,3.12l3-.19Z"/><path class="cls-3" d="M369.91,257.57l-2.46-.27v3.33l2.46.27a2.34,2.34,0,0,0,1.51-.22,1.31,1.31,0,0,0,.5-1.21,1.67,1.67,0,0,0-.5-1.33A2.58,2.58,0,0,0,369.91,257.57Z"/><path class="cls-3" d="M285.58,381.27l1.21.71a6,6,0,0,0,3.2.6l2.05-.17a6.67,6.67,0,0,0,3.19-1.16l1.22-.92a3.42,3.42,0,0,0,1.6-2.68V365.07a3,3,0,0,0-1.6-2.44l-1.22-.74a5.27,5.27,0,0,0-3.19-.73l-2.05.18a6.61,6.61,0,0,0-3.2,1.28l-1.21.87a3.65,3.65,0,0,0-1.6,2.8v12.58A2.77,2.77,0,0,0,285.58,381.27Z"/><path class="cls-3" d="M379.39,438a6,6,0,0,0,4.34-1,8.51,8.51,0,0,0,2.83-3.24l.07-.12a.15.15,0,0,1,0,.09,16.84,16.84,0,0,1-.51,3,7.6,7.6,0,0,1-3.42,4.59,7.88,7.88,0,0,1-2.14.84c-.62.16-1.24.29-1.86.44-.05,0-.12,0-.13.08-.07.19-.11.38-.17.58h16c0-.17-.06-.33-.08-.49s-.06-.16-.17-.18c-.8-.2-1.61-.37-2.39-.62a6.22,6.22,0,0,1-4.08-4,8.38,8.38,0,0,1-.45-2.29c0-.67-.06-1.35-.09-2h.06l0,.1a7.6,7.6,0,0,0,1.43,2.3,5.76,5.76,0,0,0,5.07,2,5,5,0,0,0,3.52-1.93,5.84,5.84,0,0,0,1.17-5.2,4.35,4.35,0,0,0-4.55-3.47,4.26,4.26,0,0,0-2.59.9l-.07.05a1,1,0,0,1,.08-.14,8.41,8.41,0,0,0,.9-1.57,4.95,4.95,0,0,0-5.38-7,5.43,5.43,0,0,0-3.53,2,5.11,5.11,0,0,0-1.15,3.83,5.74,5.74,0,0,0,.72,2.23c.11.2.22.38.33.59-.19-.14-.36-.27-.54-.39a3.82,3.82,0,0,0-2.08-.57,4.73,4.73,0,0,0-4.36,2.4,5.71,5.71,0,0,0-.55,5A4.53,4.53,0,0,0,379.39,438Z"/><path class="cls-3" d="M245.43,372.09v-.38a2.42,2.42,0,0,0-.83-1.86l-1.35-1.09a4.29,4.29,0,0,0-3.53-.54c-2.52.53-3.78.81-6.29,1.39v9.56c2.51-.57,3.77-.85,6.29-1.39a7.25,7.25,0,0,0,3.53-2.09l1.35-1.33A3.13,3.13,0,0,0,245.43,372.09Z"/><path class="cls-3" d="M266.19,420.32a4.46,4.46,0,0,0-3.1,2,7.15,7.15,0,0,0-1,2.46.76.76,0,0,0-.05.16,1.44,1.44,0,0,0-.07-.16,9.27,9.27,0,0,0-1-2,5,5,0,0,0-5.17-2.34,4,4,0,0,0-3.34,3.11,5.7,5.7,0,0,0,.28,3.59,10.06,10.06,0,0,0,1.45,2.6c.75,1,1.53,2,2.3,3,1.39,1.75,2.78,3.49,4.05,5.32a18.65,18.65,0,0,1,2.28,4.41l.2.6a.67.67,0,0,0,.07-.18,17,17,0,0,1,2.07-5.05c1-1.64,2.06-3.21,3.18-4.76a31.66,31.66,0,0,0,2.21-3.38,9.14,9.14,0,0,0,1.25-4.45,4.69,4.69,0,0,0-.46-2.1A4.82,4.82,0,0,0,266.19,420.32Z"/><path class="cls-3" d="M439,381.47,466.67,371l-8.11-15.1c-1.51-2.82-2.31-4.3-3.75-7-1.34-3.64-2.28-6.17-3.35-9a13.71,13.71,0,0,0,5.05-11v-9.5a18.53,18.53,0,0,0-4.38-12c-1.8-2.1-2.81-3.28-4.41-5.13l10.36-6.49V267.23l-4.14-1.34q-16-5.2-32.45-9.12l3.79-53.6a10.93,10.93,0,0,0-2.69-8.27,8,8,0,0,0-5.92-2.63H233.33a8,8,0,0,0-5.92,2.63,10.93,10.93,0,0,0-2.69,8.27l3.77,53.25q-17.18,4-34,9.47l-4.15,1.34v28.44l4,3c-1.26.4-2.52.78-3.77,1.19l-6.16,2,2.9,10.95v39l-4,17.56h0L211,379.92v21.84L207,418h0l34,14.54,1.25,17.63a8.37,8.37,0,0,0,8.26,7.61H399.54a8.36,8.36,0,0,0,8.26-7.61l1.35-19,33.9-14.5-4.07-16Zm10.64-62.15v9.5a6.83,6.83,0,0,1-2.72,5.85l-3.91,2.2c2.22,5.93,3.32,8.91,5.53,14.87,1.59,2.94,2.39,4.42,4,7.37-8-2.58-12-3.78-20-6-.39-2.54-.58-3.81-1-6.36-1.57-4.16-2.36-6.23-3.94-10.37-2.74-.71-4.11-1.05-6.86-1.71v9.41c.6,2.56.9,3.84,1.49,6.39-7.76-1.89-11.66-2.74-19.48-4.26.6-2.3.91-3.44,1.51-5.73V299.84c-.6-2.53-.91-3.79-1.51-6.32,10.9,2.07,21.83,4.65,32.5,7.66a13.94,13.94,0,0,1,6.59,4.68c2,2.35,3.06,3.53,5.09,5.91A11.58,11.58,0,0,1,449.62,319.32Zm-2.83-38.84a4.26,4.26,0,0,0-1.12-.77l-2.5-1.34a17.36,17.36,0,0,1-2.28-1.45,6.53,6.53,0,0,1-1.68-1.85,4.73,4.73,0,0,1-.63-2.47,3.67,3.67,0,0,1,.8-2.45,3.52,3.52,0,0,1,2.33-1.13,8.88,8.88,0,0,1,3.67.46,14.29,14.29,0,0,1,3.8,1.77,12.56,12.56,0,0,1,2.9,2.74l-2,2.39a13.58,13.58,0,0,0-2.17-2.07,8.1,8.1,0,0,0-2.54-1.28,3.85,3.85,0,0,0-1.13-.21.91.91,0,0,0-.63.2.62.62,0,0,0-.19.48,1,1,0,0,0,.44.74,7.89,7.89,0,0,0,1.24.8l2.28,1.24a11,11,0,0,1,3.38,2.64,5,5,0,0,1,1.11,3.18,3.65,3.65,0,0,1-.85,2.63,3.42,3.42,0,0,1-2.32,1,9.32,9.32,0,0,1-3.35-.46,17,17,0,0,1-2.88-1.17,16.54,16.54,0,0,1-2.57-1.63,12.4,12.4,0,0,1-2-1.94l2-2.56a10.29,10.29,0,0,0,1.51,1.52,13.89,13.89,0,0,0,1.89,1.32,9.09,9.09,0,0,0,1.94.87,4,4,0,0,0,1.08.2.88.88,0,0,0,.6-.17.69.69,0,0,0,.18-.51A1.13,1.13,0,0,0,446.79,280.48Zm-21.65-16.64a10.43,10.43,0,0,1,4.33,2.09A9.11,9.11,0,0,1,432,269.7c-1.74.19-2.62.29-4.36.5a3.46,3.46,0,0,0-.88-1.84,3.35,3.35,0,0,0-1.61-.89,2.36,2.36,0,0,0-1.64.07,2,2,0,0,0-1,1.19,6.61,6.61,0,0,0-.33,2.29,8.2,8.2,0,0,0,.36,2.6,3.78,3.78,0,0,0,1.1,1.7,4.34,4.34,0,0,0,1.82.91,4.18,4.18,0,0,0,1,.13,2.05,2.05,0,0,0,.81-.18,1.1,1.1,0,0,0,.54-.5,1.65,1.65,0,0,0,.19-.85v-.11l-3-.77v-3c2.78.7,4.17,1.06,6.94,1.8v8.5l-3.15-.84c-.07-.75-.12-1.33-.17-1.89a2.8,2.8,0,0,1-1.12.92,5.08,5.08,0,0,1-3.24.05,9.33,9.33,0,0,1-3.57-1.76,8.65,8.65,0,0,1-2.47-3.24,10.84,10.84,0,0,1-.9-4.53,7.8,7.8,0,0,1,.94-4.08,4.54,4.54,0,0,1,2.68-2.08A7.84,7.84,0,0,1,425.14,263.84ZM227.71,203a7.93,7.93,0,0,1,1.89-6,5,5,0,0,1,3.73-1.68H416.67A5,5,0,0,1,420.4,197a7.93,7.93,0,0,1,1.89,6l-3.76,53.13a419.18,419.18,0,0,0-187.08-.35ZM400.2,267.31V274c-1.66-.31-2.48-.46-4.14-.75V257.86c2.08.36,3.11.55,5.19.95l4.18,8.42,1,2.27h0l-.1-3v-6.65c1.66.33,2.49.51,4.15.86V276c-2.07-.44-3.11-.66-5.19-1.07-1.67-3.38-2.51-5.06-4.18-8.42l-1-2.25h0C400.14,265.48,400.16,266.09,400.2,267.31ZM388.55,256.6V272c-1.9-.3-2.85-.45-4.76-.72V255.88Zm-10.93,13.79c-2.09-.28-3.14-.41-5.23-.65-1.22-2.32-1.95-3.71-3-5.67l-1.95-.21v5.33c-1.88-.2-2.82-.29-4.7-.47V253.37c3.18.3,4.76.46,7.93.82a7.58,7.58,0,0,1,4.47,1.84,5,5,0,0,1,1.58,3.7,4,4,0,0,1-1.55,3.51,4.33,4.33,0,0,1-1.47.6Zm-21.75-12.32a4.92,4.92,0,0,1-.74,2.81,4.21,4.21,0,0,1-2.14,1.64,8.08,8.08,0,0,1-3.39.39l-2.92-.17v4.8c-1.92-.11-2.88-.15-4.8-.24V252c3.09.13,4.63.21,7.72.4a8.62,8.62,0,0,1,3.39.84,5.14,5.14,0,0,1,2.14,1.95A5.5,5.5,0,0,1,355.87,258.07Zm-29.07-1.49a5.56,5.56,0,0,0,1.28.43l2.36.57a8,8,0,0,1,3.51,1.63,3.73,3.73,0,0,1,1.15,2.86,4.62,4.62,0,0,1-.88,2.88,5.18,5.18,0,0,1-2.42,1.7,9.86,9.86,0,0,1-3.46.53,15.45,15.45,0,0,1-3-.32,12.87,12.87,0,0,1-2.65-.87,8.61,8.61,0,0,1-2.07-1.35l2.07-3.15a6.92,6.92,0,0,0,1.56,1.08,10.39,10.39,0,0,0,2,.76,8,8,0,0,0,2,.29,3.91,3.91,0,0,0,1.12-.12,1.19,1.19,0,0,0,.63-.35.87.87,0,0,0,.18-.55.81.81,0,0,0-.3-.65,3.2,3.2,0,0,0-1.16-.44c-1-.25-1.55-.37-2.59-.6a12.45,12.45,0,0,1-2.35-.77,4.29,4.29,0,0,1-1.73-1.36,3.68,3.68,0,0,1-.65-2.29,4.52,4.52,0,0,1,.82-2.68,5.45,5.45,0,0,1,2.4-1.82,9.89,9.89,0,0,1,3.8-.63,12.16,12.16,0,0,1,3.93.65,8.47,8.47,0,0,1,3,1.88l-2.09,3a9,9,0,0,0-2.25-1.42,6.61,6.61,0,0,0-2.63-.54,4.15,4.15,0,0,0-1.17.13,1.3,1.3,0,0,0-.65.38.8.8,0,0,0-.2.55A.68.68,0,0,0,326.8,256.58Zm-21,10.76-4.95.25c-.33-1.21-.61-2.2-.87-3.14-1.67.09-3,.18-4.72.3-.27,1-.55,2-.9,3.26-1.91.13-2.87.21-4.79.37,2.09-6.32,3.13-9.47,5.22-15.76,2.3-.16,3.45-.24,5.76-.37C302.66,258.27,303.71,261.29,305.81,267.34Zm-29.23-9.45c-2,.23-3,.35-5,.6v-3.56c5.86-.75,8.79-1.07,14.67-1.61v3.56c-2,.18-3,.27-4.92.48v11.79c-1.92.2-2.88.31-4.79.53ZM265,271.19c-1.91.27-2.86.42-4.77.72,0-6.15,0-9.22,0-15.36,1.91-.29,2.86-.44,4.77-.71Zm-22.59-2.74v6.65c-1.65.33-2.48.5-4.13.85V260.6c2.07-.44,3.1-.65,5.17-1.06l4.18,6.79,1,1.89h0l-.1-3v-6.66c1.67-.31,2.5-.46,4.17-.75v15.35c-2.09.37-3.13.56-5.21,1-1.68-2.73-2.51-4.09-4.18-6.79l-1-1.88h0C242.35,266.64,242.37,267.24,242.41,268.45Zm-25.29.65a9.35,9.35,0,0,1,2.63-3.41,10.33,10.33,0,0,1,4.06-2,7.39,7.39,0,0,1,4.06-.06,4.53,4.53,0,0,1,2.61,2.1,7.87,7.87,0,0,1,.91,4,10.53,10.53,0,0,1-.91,4.47,8.94,8.94,0,0,1-2.61,3.32,10.43,10.43,0,0,1-4.06,1.94,7.83,7.83,0,0,1-4.06.1,4.38,4.38,0,0,1-2.63-2,7.7,7.7,0,0,1-.92-4A10.74,10.74,0,0,1,217.12,269.1Zm69.34,6a314,314,0,0,1,75.54,0,321.59,321.59,0,0,1,74.3,18.26l3.58,1.35s-59.83-18.48-115.65-18.48c-56.39,0-115.65,18.48-115.65,18.48l3.58-1.35A321.59,321.59,0,0,1,286.46,275.09Zm32.07,63.47c-7.54.07-11.31.19-18.84.61l1.45-5.28v-35.7l-1.45-5.12c7.53-.41,11.3-.53,18.84-.61-.62,2.09-.92,3.13-1.53,5.22v13.86c4.61-5.58,6.91-8.33,11.52-13.78.36-2.11.54-3.16.91-5.26,8.76.14,13.13.32,21.87.92-2.49,2.39-3.74,3.6-6.24,6-4.27,4.87-6.4,7.33-10.67,12.3,5.09,8.64,7.64,13,12.72,21.79,1.65,2.39,2.47,3.58,4.12,6-8.5-.58-12.75-.77-21.27-.91.1-2.08.14-3.12.23-5.2-2.71-4.45-4.07-6.66-6.78-11.06-2.57,3.13-3.85,4.7-6.41,7.87v3.16C317.61,335.45,317.91,336.49,318.53,338.56Zm-50.32,25.67a9.09,9.09,0,0,1,2.65-6.17c1.94-2.07,2.91-3.1,4.85-5.15a10.16,10.16,0,0,1,6.37-3.22c7.14-.77,10.72-1.08,17.87-1.54a9,9,0,0,1,6.4,2.12c1.95,1.71,2.93,2.57,4.88,4.3a7.67,7.67,0,0,1,2.67,5.71v20.49a8,8,0,0,1-2.67,5.89c-2,1.88-2.93,2.83-4.88,4.73a10.06,10.06,0,0,1-6.4,2.86c-7.15.46-10.73.77-17.87,1.54a8.21,8.21,0,0,1-6.37-1.75c-1.94-1.57-2.91-2.34-4.85-3.89a6.89,6.89,0,0,1-2.65-5.43Zm-8.53-21a8,8,0,0,1-6.35-1.48c-1.93-1.48-2.9-2.22-4.83-3.68a6.62,6.62,0,0,1-2.63-5.32V312.31A9.56,9.56,0,0,1,248.5,306c1.93-2.15,2.9-3.22,4.83-5.35a10.59,10.59,0,0,1,6.35-3.5c7.11-1.08,10.67-1.54,17.81-2.31a8.7,8.7,0,0,1,6.38,1.85c1.94,1.62,2.92,2.44,4.87,4.09a7.36,7.36,0,0,1,2.66,5.6V326.9a8.31,8.31,0,0,1-2.66,6c-1.95,2-2.93,3-4.87,4.94a10.58,10.58,0,0,1-6.38,3.13C270.35,341.74,266.79,342.2,259.68,343.28Zm61.69,16.83a8,8,0,0,1,2.66-5.83c2-1.82,2.93-2.73,4.89-4.53a8.94,8.94,0,0,1,6.4-2.41c7.17.14,10.75.29,17.91.73a10.25,10.25,0,0,1,6.4,2.93c1.95,2,2.92,2.94,4.87,4.93a8.81,8.81,0,0,1,2.66,6v20.49A6.92,6.92,0,0,1,364.5,388c-1.95,1.64-2.93,2.46-4.87,4.12a8.93,8.93,0,0,1-6.4,2c-7.16-.45-10.74-.59-17.91-.73a9.26,9.26,0,0,1-6.4-2.56c-2-1.82-2.93-2.72-4.89-4.51a7.93,7.93,0,0,1-2.67-5.77C321.37,372.4,321.37,368.3,321.37,360.11Zm34-20.29c.58-2,.86-3.05,1.44-5.08V299c-.58-2.13-.86-3.19-1.44-5.32,12.74,1.2,25.18,2.75,37.83,4.7.84,5.51,1.26,8.26,2.11,13.77-2.14-.92-3.22-1.37-5.36-2.26-6.92-1.12-10.39-1.61-17.33-2.45v5.2c5.82.7,8.73,1.1,14.53,2,1.55-.12,2.32-.18,3.86-.28v13.1c-1.54-.61-2.31-.92-3.86-1.52-5.8-.9-8.71-1.3-14.53-2v5.5c7.19.86,10.78,1.37,17.93,2.54,2.66-.1,4-.15,6.64-.21-1.14,5.16-1.72,7.74-2.86,12.9C381.34,342.67,368.53,341.06,355.41,339.82Zm-31.76-54.24c-49.21,0-85.37,9.12-85.37,9.12s35.22-12.85,85.19-12.85c48,0,73.76,10.61,73.76,10.61S372.86,285.58,323.65,285.58ZM196.38,271.82c3.18-1,4.78-1.53,8-2.5,1.88-.55,3.28-.61,4.19-.18a2.63,2.63,0,0,1,1.35,2.66,4.47,4.47,0,0,1-.78,2.51,5.65,5.65,0,0,1-2.46,1.93v0a3.38,3.38,0,0,1,2.74.41,2.59,2.59,0,0,1,.89,2.16,4.83,4.83,0,0,1-1.36,3.44,9.12,9.12,0,0,1-4.09,2.26c-3.39,1-5.08,1.55-8.46,2.65Zm-3.66,87.29,1.47-6.5V311.94l-1.47-5.55c10.56-3.48,21.4-6.54,32.23-9.07a7.57,7.57,0,0,1,6.65,1.25c2.07,1.62,3.11,2.44,5.18,4.08a7.59,7.59,0,0,1,2.78,6.14v10.54a11.49,11.49,0,0,1-2.78,7.28c-2.07,2.51-3.11,3.77-5.18,6.31a12.35,12.35,0,0,1-6.65,4.32c-5.83,1.39-8.73,2.14-14.52,3.74v6.78c.6,2.24.89,3.37,1.49,5.62C204.2,355.48,200.36,356.63,192.72,359.11ZM240,389.32c-2.64.56-4,.85-6.59,1.45v8l1.5,4.85c-7.4,1.67-11.08,2.59-18.42,4.59.57-2.24.85-3.35,1.41-5.58V366.91c-.56-1.92-.84-2.89-1.41-4.81,12.21-3.33,18.36-4.76,30.72-7.16a8.7,8.7,0,0,1,6.4,1.3c1.93,1.13,2.9,1.7,4.83,2.86a6.2,6.2,0,0,1,2.64,5.44v8.82a8.75,8.75,0,0,1-2.64,6.23c-1.45,1.44-2.17,2.17-3.62,3.63,2.08,4.09,3.12,6.15,5.21,10.27l3.93,4.65c-7.81,1.19-11.7,1.88-19.45,3.43-.33-2-.5-3.06-.83-5.1C242.23,393.6,241.49,392.17,240,389.32Zm164.79,60.59a5.32,5.32,0,0,1-5.27,4.82H250.46a5.32,5.32,0,0,1-5.27-4.82l-2.79-39.4c71.72-14.49,134-6.94,165.27-1ZM433.51,407c-7.17-1.88-10.77-2.74-18-4.29l1.42-4.89V378.8c-4.37,5.46-6.57,8.22-11,13.8l-2.71-.51c-4.4-7.23-6.6-10.81-11-17.92v19.06c.58,2.17.86,3.25,1.44,5.42-7.28-1.17-10.93-1.67-18.25-2.51.58-2,.87-3,1.44-5V355.4c-.57-2.14-.86-3.22-1.44-5.36,7.59.87,11.38,1.4,18.93,2.62,4.11,7.36,6.16,11.06,10.25,18.51,4.13-5.91,6.19-8.84,10.3-14.66,7.47,1.6,11.19,2.48,18.6,4.42l-1.42,4.83v35.7Z"/><path class="cls-3" d="M431.14,314a6.2,6.2,0,0,0-3.72-2.55c-2.68-.69-4-1-6.71-1.67v12.5c2.69.65,4,1,6.71,1.67a4.36,4.36,0,0,0,3.72-.61l1.34-1.07a3.13,3.13,0,0,0,.89-2.47v-.75a5.4,5.4,0,0,0-.82-2.86C432,315.31,431.7,314.88,431.14,314Z"/><path class="cls-3" d="M205.09,280.88a1.67,1.67,0,0,0,.43-1.16.91.91,0,0,0-.43-.9,1.89,1.89,0,0,0-1.32.05l-2.94.91v2.77l2.94-.91A2.8,2.8,0,0,0,205.09,280.88Z"/><path class="cls-3" d="M220.84,323.48l1.35-1.77a4.86,4.86,0,0,0,.89-2.93V317a3.55,3.55,0,0,0-.82-2.43l-1.42-1.46a3.76,3.76,0,0,0-3.72-.63c-2.68.69-4,1.05-6.69,1.79V327.8c2.67-.74,4-1.1,6.69-1.79A7.23,7.23,0,0,0,220.84,323.48Z"/></g></svg>