<svg id="Layer_1" data-name="Layer 1" xmlns="http://www.w3.org/2000/svg" viewBox="0 0 600 185.83"><defs><style>.cls-1{fill:#ebf8ff;}</style></defs><path class="cls-1" d="M0,272.17a55.67,55.67,0,0,0,10.13,10.95c11.95,9.8,26.78,13,41.92,11.42s30.61-7.8,43.8-16.85A99.32,99.32,0,0,0,116.4,259c11-13.39,20.21-18.18,26.93-18.28a11.85,11.85,0,0,1,6.68,1.79,11.26,11.26,0,0,1,4.1,4.72,13.45,13.45,0,0,1-.94,13,21.58,21.58,0,0,0-3.63,13.37,11.83,11.83,0,0,0,2.22,6.14,8.72,8.72,0,0,0,5.29,3.3c3,.65,6.95.07,11.8-2.24,4.42-2.12,9.91-6.2,16.19-10.87,20.54-15.26,49.47-36.75,78.07-17.13,32.33,22.17,48.47,13.85,62.88,6.42,2.09-1.08,4.13-2.13,6.21-3.08,22.49-10.32,28.07-3.71,36.74,6.58,5.71,6.77,12.78,15.14,27.06,21.24a37.51,37.51,0,0,0,20,2.63c7-.94,14.34-3.7,21.92-8.25,24.36-14.65,53.72,2.53,82.32,19.26,13,7.58,25.78,15.07,37.87,19.45,14,5.08,28.81-.32,41.9-9.23v.73c-13.15,8.87-28,14.2-42.12,9.08-12.13-4.39-25-11.9-38-19.5-28.44-16.64-57.64-33.72-81.69-19.26-7.65,4.6-15.06,7.38-22.16,8.33a38.15,38.15,0,0,1-20.32-2.67c-14.42-6.15-21.53-14.59-27.28-21.41-8.49-10.07-14-16.54-36-6.42-2,.94-4.09,2-6.18,3.07-14.57,7.51-30.88,15.92-63.52-6.46-28.24-19.36-57,2-77.35,17.12-6.3,4.68-11.81,8.78-16.3,10.92-5,2.39-9,3-12.19,2.3a9.33,9.33,0,0,1-5.66-3.53,12.67,12.67,0,0,1-2.34-6.46,22.23,22.23,0,0,1,3.73-13.77,12.86,12.86,0,0,0,.9-12.36,10.67,10.67,0,0,0-3.87-4.45,11.27,11.27,0,0,0-6.35-1.7c-6.55.1-15.61,4.83-26.45,18A99.77,99.77,0,0,1,96.2,278.2c-13.27,9.11-28.83,15.41-44.09,17S21.83,293.51,9.73,283.6A55.9,55.9,0,0,1,0,273.24Z" transform="translate(0 -240.73)"/><path class="cls-1" d="M0,278.12a54.81,54.81,0,0,0,8.84,9.48C20.58,297.45,35.1,300.56,50,299S80,291,93.1,282a104.85,104.85,0,0,0,20.6-18.59c11.06-13.17,20.32-17.8,27-17.79a11.87,11.87,0,0,1,6.6,1.87,11.13,11.13,0,0,1,4,4.72,13.33,13.33,0,0,1-1.16,12.87A19.57,19.57,0,0,0,146.65,278,11.26,11.26,0,0,0,149,283.8a9,9,0,0,0,5.29,3.12c3.34.68,7.75-.08,13.19-3,4.26-2.26,9.34-6,15-10.11,20.65-15,49.31-35.92,76.54-15.65,32.48,24.18,49,15.63,66.16,6.72l3.05-1.58h0c24-11.59,30-4.88,39.43,5.62,5.68,6.33,12.62,14.05,25.6,19.89h0A34.27,34.27,0,0,0,414,291.78h0c7.16-1.13,14.65-4.32,22-9.72h0c8.78-6.27,18.57-8,28.81-6.68s20.85,5.51,31.35,11.1c6.89,3.67,13.85,8.06,20.83,12.47,14.25,9,28.62,18.08,42.68,21.13h0c13.68,3.89,27.73-1,40.23-9.1v.72c-12.54,8-26.63,12.89-40.38,9-14.16-3.06-28.58-12.17-42.88-21.2-7-4.41-13.93-8.8-20.79-12.45-10.44-5.56-21-9.77-31.14-11s-19.73.4-28.37,6.56c-7.47,5.46-15.05,8.69-22.31,9.84h0a35,35,0,0,1-21.11-3h0c-13.09-5.9-20.08-13.67-25.8-20-9.25-10.29-15.17-16.87-38.69-5.49h0l-3.06,1.58c-17.37,9-34,17.64-66.81-6.77-26.86-20-55.31.72-75.81,15.65-5.71,4.17-10.81,7.88-15.1,10.16-5.58,3-10.13,3.73-13.6,3a9.59,9.59,0,0,1-5.65-3.34,11.86,11.86,0,0,1-2.46-6.13,20.28,20.28,0,0,1,3.59-13.35,12.7,12.7,0,0,0,1.12-12.26A10.53,10.53,0,0,0,147,248a11.17,11.17,0,0,0-6.25-1.77c-6.52,0-15.61,4.57-26.53,17.57a105.48,105.48,0,0,1-20.72,18.7C80.3,291.57,65,298,50,299.57s-29.69-1.52-41.57-11.49A55.43,55.43,0,0,1,0,279.16Z" transform="translate(0 -240.73)"/><path class="cls-1" d="M324.57,270.42c25.26-12.73,31.76-5.9,41.92,4.8,5.61,5.9,12.34,13,24.05,18.55h0A31.86,31.86,0,0,0,412,297c7.33-1.33,15-5,22.21-11.19h0c8-6.62,17.1-9.07,26.71-8.65,11.27.5,23.19,5,34.67,11.32,6.53,3.62,13.14,8.11,19.83,12.64,15,10.16,30.35,20.58,45.95,22h0c13.28,2.78,26.64-1.75,38.56-9v.72c-12,7.25-25.34,11.73-38.67,8.94-15.75-1.47-31.18-11.93-46.22-22.13-6.68-4.53-13.28-9-19.78-12.6-11.4-6.31-23.23-10.75-34.4-11.25-9.46-.41-18.44,2-26.28,8.5-7.31,6.31-15.08,10-22.51,11.33a32.56,32.56,0,0,1-21.88-3.28c-11.8-5.62-18.58-12.75-24.22-18.68-10-10.53-16.39-17.25-41.47-4.53v-.7Zm0,.7ZM0,284a53.63,53.63,0,0,0,7.57,8.05C19.09,302,33.3,305,47.85,303.37s29.53-8.09,42.49-17.09A110.82,110.82,0,0,0,111,267.77c11.14-12.94,20.44-17.42,27.09-17.3a11.82,11.82,0,0,1,6.51,1.95,11,11,0,0,1,3.89,4.72,13.19,13.19,0,0,1-1.38,12.78,17.89,17.89,0,0,0-3.37,12.47,10.49,10.49,0,0,0,2.41,5.52,9.17,9.17,0,0,0,5.28,3c3.67.71,8.57-.24,14.62-3.74,3.95-2.28,8.51-5.55,13.51-9.14,20.87-14.95,49.46-35.44,75.38-14.38,15.9,12.93,28.12,17.49,38.91,17.4s20.18-4.81,30.42-10.46h0l.29-.15v.7h0c-10.31,5.68-19.78,10.45-30.72,10.53s-23.27-4.5-39.3-17.54c-25.56-20.76-53.92-.43-74.62,14.41-5,3.59-9.58,6.87-13.57,9.17-6.19,3.58-11.25,4.55-15,3.81a9.81,9.81,0,0,1-5.64-3.18,11.28,11.28,0,0,1-2.56-5.84,18.56,18.56,0,0,1,3.48-12.92,12.55,12.55,0,0,0,1.32-12.17,10.31,10.31,0,0,0-3.67-4.45,11.15,11.15,0,0,0-6.17-1.85c-6.49-.11-15.61,4.3-26.61,17.09a111,111,0,0,1-20.78,18.61c-13,9-28.08,15.51-42.77,17.19s-29.09-1.39-40.76-11.43A54,54,0,0,1,0,285.05v-1Zm324.57-12.91Z" transform="translate(0 -240.73)"/><path class="cls-1" d="M0,289.91a52.81,52.81,0,0,0,6.31,6.65c11.31,10,25.19,13,39.45,11.23s29-8.22,41.79-17.19a117.08,117.08,0,0,0,20.75-18.45c11.22-12.72,20.54-17,27.17-16.81a11.77,11.77,0,0,1,6.42,2,11,11,0,0,1,3.79,4.72,13.08,13.08,0,0,1-1.6,12.69,16.38,16.38,0,0,0-3.27,12,10,10,0,0,0,2.48,5.27,9.42,9.42,0,0,0,5.29,2.84c4,.75,9.4-.41,16.08-4.56,3.48-2.18,7.35-4.92,11.52-7.87,21.21-15,50-35.46,74.67-13.41,14.61,13,26.34,18.53,37.23,19.1S309,284.4,320.31,277.8h0c27.12-14.36,34.12-7.34,45.1,3.67,5.46,5.48,11.91,11.95,22.4,17.23h0c6,3.82,13.89,5.19,22.14,3.5,7.51-1.53,15.34-5.59,22.42-12.64h0a37.35,37.35,0,0,1,27.21-10.36c11.55.18,23.83,4.66,35.38,11.29a231.13,231.13,0,0,1,19.33,13c15.53,11.23,31.73,22.94,48.73,22.69h0c12.84,1.78,25.53-2.44,36.88-9v.71c-11.38,6.56-24.08,10.73-37,9-17.19.24-33.47-11.52-49.08-22.8a231.48,231.48,0,0,0-19.26-13c-11.47-6.59-23.65-11-35.09-11.21A36.8,36.8,0,0,0,432.84,290h0c-7.17,7.14-15.11,11.26-22.72,12.81-8.41,1.72-16.43.32-22.59-3.57C377,293.93,370.47,287.42,365,281.91c-10.77-10.81-17.64-17.7-44.36-3.56h0c-11.37,6.64-21.54,11-32.57,10.44s-22.88-6.11-37.6-19.26c-24.31-21.71-52.87-1.46-73.9,13.45-4.18,3-8.06,5.72-11.56,7.9-6.82,4.24-12.39,5.42-16.52,4.64a10.12,10.12,0,0,1-5.63-3,10.64,10.64,0,0,1-2.63-5.59,17,17,0,0,1,3.38-12.48,12.45,12.45,0,0,0,1.53-12.08,10.25,10.25,0,0,0-3.58-4.46,11.11,11.11,0,0,0-6.08-1.92c-6.46-.21-15.6,4-26.68,16.61a119,119,0,0,1-20.86,18.54c-12.92,9-27.68,15.55-42.08,17.3S17.36,307.13,5.9,297A52.1,52.1,0,0,1,0,290.9Z" transform="translate(0 -240.73)"/><path class="cls-1" d="M0,295.75A51.13,51.13,0,0,0,5.06,301c11.1,10,24.66,13,38.6,11.19S72,303.88,84.74,295a126.46,126.46,0,0,0,20.86-18.41c11.31-12.5,20.65-16.64,27.25-16.32a11.59,11.59,0,0,1,6.32,2.1,10.77,10.77,0,0,1,3.7,4.73,13,13,0,0,1-1.82,12.59,15.13,15.13,0,0,0-3.19,11.58,9.34,9.34,0,0,0,7.83,7.75c4.31.79,10.26-.57,17.57-5.43,2.79-1.85,5.75-3.94,8.86-6.15,21.73-15.37,51.12-36.16,74.65-12.88,13.3,13.16,24.55,19.57,35.53,20.79S304,292.58,316.35,285h0c28.83-15.87,36.33-8.63,48.07,2.68,5.25,5.06,11.36,11,20.67,15.91h0c5.9,4.2,14.15,5.74,22.8,3.78,7.69-1.74,15.7-6.24,22.65-14.1h0a37.22,37.22,0,0,1,27.69-12.07c11.84-.14,24.48,4.33,36.12,11.26a207.19,207.19,0,0,1,19,13.52c16,12.26,33,25.25,51.31,23.26h0c12.38.85,24.42-3.12,35.21-9.1v.7c-10.8,5.94-22.84,9.87-35.23,9-18.59,2-35.63-11.06-51.72-23.39a206.17,206.17,0,0,0-19-13.48c-11.54-6.87-24.08-11.31-35.8-11.17a36.61,36.61,0,0,0-27.23,11.87c-7.05,8-15.17,12.53-23,14.3-8.82,2-17.25.42-23.29-3.87-9.37-5-15.51-10.92-20.78-16-11.54-11.11-18.91-18.22-47.33-2.58-12.43,7.61-23.3,11.59-34.44,10.35s-22.49-7.7-35.9-21c-23.16-22.92-52.3-2.3-73.85,12.95-3.14,2.22-6.13,4.33-8.88,6.16-7.45,4.95-13.56,6.34-18,5.52a10,10,0,0,1-8.33-8.24,15.74,15.74,0,0,1,3.3-12.07,12.35,12.35,0,0,0,1.75-12,10.19,10.19,0,0,0-3.49-4.45,11.08,11.08,0,0,0-6-2c-6.44-.32-15.6,3.78-26.76,16.11a126.48,126.48,0,0,1-21,18.51c-12.78,9-27.26,15.58-41.35,17.39s-27.85-1.17-39.1-11.35A52.7,52.7,0,0,1,0,296.72Z" transform="translate(0 -240.73)"/><path class="cls-1" d="M0,301.56a49.71,49.71,0,0,0,3.82,4c10.89,10.11,24.11,13,37.75,11.16s27.75-8.47,40.32-17.36a136.27,136.27,0,0,0,21-18.4c11.39-12.26,20.75-16.25,27.32-15.82a11.6,11.6,0,0,1,6.24,2.17,10.66,10.66,0,0,1,3.6,4.73,12.86,12.86,0,0,1-2,12.5c-2.85,3.7-3.81,7.76-3.12,11.15a9.27,9.27,0,0,0,2.57,4.82h0a9.93,9.93,0,0,0,5.3,2.61c4.65.83,11.15-.75,19.1-6.35,1.68-1.18,3.41-2.42,5.19-3.69,22.48-16.09,53.11-38,75.62-13.1,12,13.29,22.76,20.62,33.84,22.5s22.51-1.68,35.87-10.18h0c30.61-17.46,38.64-10,51.11,1.68,5,4.66,10.69,10,18.85,14.61h0l0,0,0,0h0c5.38,4.24,13.26,6,21.62,4.41s17.27-6.6,24.61-15.85l.08-.1h0a37.36,37.36,0,0,1,28.14-13.79c12.13-.47,25.15,4,36.89,11.24,6.13,3.77,12.39,8.83,18.84,14.05,16.43,13.28,34.08,27.55,53.78,23.8h.05c11.9,0,23.3-3.76,33.54-9.2v.69c-10.24,5.41-21.62,9.15-33.5,9.13-20,3.79-37.73-10.56-54.26-23.93-6.43-5.2-12.67-10.24-18.78-14-11.63-7.17-24.54-11.62-36.54-11.15a36.73,36.73,0,0,0-27.68,13.57h0l-.07.09c-7.45,9.39-16.46,14.45-25,16.08s-16.61-.18-22.13-4.54h0c-8.22-4.67-13.94-10-18.94-14.68-12.27-11.46-20.17-18.83-50.37-1.61h0c-13.5,8.58-25.07,12.17-36.31,10.26s-22.1-9.3-34.2-22.69c-22.14-24.5-52.51-2.77-74.8,13.18-1.78,1.28-3.52,2.53-5.19,3.7-8.11,5.7-14.77,7.31-19.57,6.46a10.58,10.58,0,0,1-5.62-2.78h0a9.83,9.83,0,0,1-2.75-5.15c-.72-3.56.27-7.8,3.24-11.65a12.24,12.24,0,0,0,1.95-11.89,10.05,10.05,0,0,0-3.39-4.46,11,11,0,0,0-5.91-2c-6.4-.42-15.59,3.52-26.82,15.62a137.11,137.11,0,0,1-21.11,18.49c-12.65,8.94-26.83,15.6-40.6,17.47S14.44,316.23,3.4,306Q1.66,304.36,0,302.5Z" transform="translate(0 -240.73)"/><path class="cls-1" d="M0,307.33c.85.94,1.71,1.83,2.59,2.67,10.69,10.18,23.56,13,36.87,11.14S66.57,312.57,79,303.73a149.39,149.39,0,0,0,21.2-18.43c11.47-12,20.85-15.85,27.39-15.33a11.59,11.59,0,0,1,6.15,2.25,10.54,10.54,0,0,1,3.51,4.74,12.77,12.77,0,0,1-2.26,12.4c-2.85,3.57-3.77,7.47-3.06,10.74a8.85,8.85,0,0,0,2.6,4.62,10.08,10.08,0,0,0,5.3,2.51c5,.86,12-.94,20.64-7.3,11.72-8.67,25.79-19.06,39.65-23.93s27.63-4.2,38.48,9.38c10.7,13.4,21,21.66,32.15,24.2s23.28-.64,37.68-10.09h0c32.5-19.15,41.06-11.33,54.25.7a104.15,104.15,0,0,0,16.95,13.28h0l0,0c.49.42,1,.83,1.54,1.22,5,3.59,12.18,5.06,19.77,3.71s15.69-5.58,22.57-13.37a50.72,50.72,0,0,0,3.36-4.25h0a37.7,37.7,0,0,1,28.55-15.52c12.44-.8,25.85,3.7,37.68,11.22,6.08,3.87,12.3,9.14,18.73,14.61,16.83,14.29,35.16,29.86,56.18,24.31h.06c11.38-.71,22.16-4.36,31.86-9.33v.69c-9.69,4.93-20.44,8.54-31.79,9.26-21.32,5.61-39.77-10.06-56.71-24.45-6.42-5.45-12.61-10.71-18.66-14.55-11.73-7.46-25-11.92-37.31-11.13a37.11,37.11,0,0,0-28.09,15.28h0a51.31,51.31,0,0,1-3.4,4.29c-7,7.91-15.17,12.18-22.92,13.57s-15.07-.13-20.24-3.82a17,17,0,0,1-1.56-1.24,105.36,105.36,0,0,1-17-13.34c-13-11.85-21.41-19.54-53.5-.64h0c-14.56,9.55-26.82,12.75-38.17,10.17s-21.71-10.9-32.5-24.41c-10.64-13.33-24.09-14-37.79-9.18s-27.79,15.19-39.48,23.83c-8.75,6.48-16,8.31-21.11,7.43a10.74,10.74,0,0,1-5.62-2.68,9.43,9.43,0,0,1-2.79-4.94c-.75-3.44.21-7.53,3.19-11.26a12.19,12.19,0,0,0,2.16-11.8,9.88,9.88,0,0,0-3.3-4.45,10.91,10.91,0,0,0-5.83-2.13c-6.38-.51-15.57,3.27-26.89,15.14a149.42,149.42,0,0,1-21.29,18.5c-12.5,8.9-26.37,15.61-39.81,17.53s-26.55-1-37.39-11.31c-.73-.7-1.45-1.43-2.16-2.2Z" transform="translate(0 -240.73)"/><path class="cls-1" d="M0,313.07c.45.48.91.95,1.37,1.4,10.48,10.26,23,13.08,36,11.15S63.79,317,76.06,308.17a164.93,164.93,0,0,0,21.45-18.49c11.54-11.78,20.94-15.45,27.44-14.82a11.52,11.52,0,0,1,6.08,2.31,10.44,10.44,0,0,1,3.41,4.74A12.7,12.7,0,0,1,132,294.22c-2.84,3.45-3.75,7.2-3,10.34a8.53,8.53,0,0,0,2.63,4.44,10.43,10.43,0,0,0,5.31,2.43c5.31.89,13-1.15,22.2-8.31,12.1-9.36,26.15-19.26,39.57-23.42s26.32-2.59,35.86,11.12c9.4,13.52,19.18,22.7,30.46,25.9s24.06.4,39.51-10h0c34.49-20.94,43.61-12.73,57.45-.27a115.82,115.82,0,0,0,15,11.95l0,0,0,0a18.53,18.53,0,0,0,2.8,2.23c4.75,3.08,11.28,4.34,18.23,3.17a38.13,38.13,0,0,0,20.84-11.38,50.36,50.36,0,0,0,6.27-7.89h0c7.59-11,17.88-16.26,28.95-17.24,12.75-1.13,26.55,3.38,38.49,11.2,6,4,12.22,9.45,18.65,15.17,17.22,15.3,36.21,32.17,58.55,24.82h.06A94.27,94.27,0,0,0,600,329v.68a94.84,94.84,0,0,1-30.08,9.41c-22.66,7.44-41.78-9.55-59.12-25-6.41-5.7-12.58-11.18-18.58-15.11-11.84-7.75-25.49-12.22-38.09-11.1-10.9,1-21,6.12-28.5,17a51,51,0,0,1-6.34,8,38.83,38.83,0,0,1-21.19,11.57c-7.11,1.18-13.79-.11-18.66-3.27a19,19,0,0,1-2.88-2.28,116.92,116.92,0,0,1-15-12c-13.63-12.27-22.62-20.36-56.7.33-15.61,10.51-28.57,13.31-40,10.07s-21.32-12.5-30.8-26.13c-9.34-13.44-21.93-15-35.17-10.89s-27.32,14-39.37,23.32c-9.41,7.28-17.22,9.34-22.69,8.43a11.07,11.07,0,0,1-5.62-2.58,9.1,9.1,0,0,1-2.81-4.76c-.78-3.32.17-7.27,3.14-10.88a12,12,0,0,0,2.37-11.7,9.79,9.79,0,0,0-3.2-4.46,11,11,0,0,0-5.76-2.19c-6.34-.6-15.55,3-26.94,14.65a164.74,164.74,0,0,1-21.53,18.56c-12.34,8.85-25.88,15.6-39,17.55s-25.86-.9-36.5-11.32c-.31-.3-.62-.62-.93-.94Z" transform="translate(0 -240.73)"/><path class="cls-1" d="M0,318.78l.15.15c10.27,10.34,22.44,13.14,35.05,11.18S61,321.4,73.06,312.68a184.38,184.38,0,0,0,21.75-18.61c11.61-11.55,21-15.05,27.5-14.33a11.55,11.55,0,0,1,6,2.38h0a10.26,10.26,0,0,1,3.31,4.75,12.59,12.59,0,0,1-2.69,12.21c-2.84,3.33-3.72,6.94-3,9.95a8.09,8.09,0,0,0,2.64,4.28,10.56,10.56,0,0,0,5.31,2.34c5.65.92,13.88-1.35,23.79-9.34,12.47-10.05,26.51-19.45,39.48-22.91s25-1,33.26,12.87c8.1,13.63,17.39,23.74,28.76,27.58S284,325.3,300.52,314h0c36.58-22.83,46.27-14.15,60.71-1.21a130.47,130.47,0,0,0,13,10.59l0,0,0,0a17.54,17.54,0,0,0,3.89,3.12A25.56,25.56,0,0,0,395,329.24a37,37,0,0,0,19.34-9.74,49.87,49.87,0,0,0,8.92-11.18h0c.27-.44.55-.86.82-1.26,7.93-11.77,18.95-17.17,30.73-17.89s24.25,3.22,35.2,10.13c.65.41,1.28.83,1.9,1.24,6,4.05,12.17,9.76,18.61,15.73,17.58,16.3,37.22,34.5,60.88,25.33l0,0h0A111.46,111.46,0,0,0,600,331.94v.69a112.12,112.12,0,0,1-28.37,9.54c-24,9.3-43.78-9-61.5-25.46-6.42-5.94-12.56-11.64-18.53-15.66-.63-.43-1.26-.84-1.88-1.23-10.84-6.85-23.22-10.75-34.84-10s-22.43,6-30.25,17.62c-.28.41-.55.83-.8,1.23a50.42,50.42,0,0,1-9,11.33,37.68,37.68,0,0,1-19.67,9.9,26.21,26.21,0,0,1-17.3-2.84,18.45,18.45,0,0,1-4-3.2,128.8,128.8,0,0,1-13-10.62c-14.24-12.75-23.79-21.31-60,1.27h0c-16.67,11.47-30.32,13.88-41.87,10s-20.93-14.1-29.1-27.85c-8-13.55-19.77-16-32.56-12.59s-26.84,12.79-39.25,22.79c-10.07,8.12-18.48,10.42-24.27,9.48a11.37,11.37,0,0,1-5.63-2.49,8.82,8.82,0,0,1-2.84-4.6c-.78-3.2.14-7,3.12-10.5A12,12,0,0,0,131,287.07a9.77,9.77,0,0,0-3.12-4.47h0a10.81,10.81,0,0,0-5.67-2.24c-6.31-.71-15.54,2.76-27,14.15a184.76,184.76,0,0,1-21.82,18.67C61.25,322,48.06,328.75,35.3,330.73S10.37,329.92,0,319.66Z" transform="translate(0 -240.73)"/><path class="cls-1" d="M0,324.45c9.83,9.54,21.23,12.08,33,10.18,12.28-2,25-8.74,36.94-17.39a212.59,212.59,0,0,0,22.13-18.79c11.69-11.3,21.13-14.65,27.56-13.83a11.54,11.54,0,0,1,5.92,2.45,10.23,10.23,0,0,1,3.22,4.76,12.53,12.53,0,0,1-2.91,12.11c-2.83,3.21-3.7,6.69-3,9.58a7.88,7.88,0,0,0,2.66,4.13,10.84,10.84,0,0,0,5.32,2.26c6,.94,14.81-1.57,25.38-10.41,8.33-7,17.14-13.15,25.73-17.4,7.69-3.8,15.21-6,22-5.88h0a23,23,0,0,1,17.87,8.59,34.56,34.56,0,0,1,4.42,6.9c6.8,13.75,15.6,24.78,27.08,29.28s25.61,2.49,43.14-9.81h0c38.79-24.85,49.05-15.6,64-2.1,3.29,3,6.8,6.13,10.89,9.17l0,0,0,0a17,17,0,0,0,4.85,3.9,25.34,25.34,0,0,0,15.7,2.42,36.08,36.08,0,0,0,18-8.35,49.25,49.25,0,0,0,11.39-14.22h0c.69-1.2,1.42-2.34,2.17-3.43,7.66-11.05,18.11-16.4,29.3-17.45s23.05,2.19,33.61,8.32c1.62.94,3.22,2,4.77,3,6,4.14,12.14,10.07,18.59,16.29,17.95,17.3,38.23,36.85,63.2,25.83h0A134.72,134.72,0,0,0,600,334.87v.69a135.69,135.69,0,0,1-26.65,9.68c-25.34,11.16-45.77-8.53-63.86-26-6.44-6.2-12.57-12.12-18.51-16.23q-2.31-1.6-4.73-3C475.8,294,464,290.76,453,291.79S431.7,298.1,424.17,309q-1.12,1.61-2.16,3.39h0a50,50,0,0,1-11.53,14.39,36.69,36.69,0,0,1-18.32,8.49,26,26,0,0,1-16.08-2.49,17.7,17.7,0,0,1-5-4c-4.11-3.06-7.62-6.23-10.9-9.19-14.76-13.31-24.87-22.43-63.27,2.16-17.72,12.43-32.07,14.44-43.72,9.87s-20.54-15.7-27.41-29.58a33.64,33.64,0,0,0-4.34-6.78A22.42,22.42,0,0,0,204,286.84c-6.7-.16-14.12,2.06-21.72,5.82C173.77,296.88,165,303.05,156.7,310c-10.72,9-19.75,11.5-25.88,10.54a11.47,11.47,0,0,1-5.62-2.39,8.48,8.48,0,0,1-2.86-4.45c-.79-3.09.12-6.77,3.1-10.15A12,12,0,0,0,128.22,292a9.6,9.6,0,0,0-3-4.47,10.87,10.87,0,0,0-5.61-2.31c-6.27-.8-15.52,2.51-27,13.66a212.9,212.9,0,0,1-22.2,18.85c-12,8.7-24.81,15.5-37.2,17.49-11.83,1.9-23.25-.57-33.14-9.92Z" transform="translate(0 -240.73)"/><path class="cls-1" d="M0,330.09c12,11.12,26.12,11.64,40.43,6.54,17.07-6.09,34.45-20.15,49-33.8,11.76-11.05,21.22-14.24,27.62-13.33a11.4,11.4,0,0,1,5.84,2.52,10.13,10.13,0,0,1,3.13,4.77,12.5,12.5,0,0,1-3.13,12c-2.82,3.1-3.69,6.45-2.94,9.23a7.6,7.6,0,0,0,2.66,4,11.11,11.11,0,0,0,5.33,2.18c6.31.95,15.77-1.8,27-11.5,9.81-8.49,20-15.3,29.61-19.1,6.41-2.54,12.52-3.72,18-3.15a21.22,21.22,0,0,1,14.31,7.45,31.92,31.92,0,0,1,5.42,9.26,78.37,78.37,0,0,0,8.84,16.64c5,7.05,11.23,12.52,18.72,15.21s16.27,2.61,26.46-1.43a77.69,77.69,0,0,0,16.34-9.17h0c41.15-27,52-17,67.36-2.92,2.72,2.5,5.58,5.13,8.78,7.7l0,0,0,0a16.56,16.56,0,0,0,5.69,4.63A25.31,25.31,0,0,0,389.14,340a35.47,35.47,0,0,0,16.78-7.16,49,49,0,0,0,13.73-17.05h0a52.45,52.45,0,0,1,3.43-5.56c7.44-10.45,17.44-15.75,28.15-17.05s22.06,1.38,32.28,6.87a66.37,66.37,0,0,1,7.2,4.48c6,4.23,12.11,10.38,18.58,16.85h0c18.31,18.3,39.21,39.2,65.5,26.34h.05A169.77,169.77,0,0,0,600,337.84v.69a171,171,0,0,1-25,9.78c-26.68,13-47.75-8-66.19-26.47h0c-6.45-6.45-12.58-12.58-18.5-16.79a66.73,66.73,0,0,0-7.14-4.43c-10.1-5.44-21.36-8.09-31.91-6.8s-20.39,6.49-27.71,16.79a52.2,52.2,0,0,0-3.4,5.49,49.61,49.61,0,0,1-13.91,17.25,36,36,0,0,1-17.07,7.29,25.82,25.82,0,0,1-15-2.22,17.14,17.14,0,0,1-5.89-4.77c-3.2-2.59-6.07-5.21-8.78-7.71-15.16-13.92-25.85-23.74-66.6,3h0a78.86,78.86,0,0,1-16.46,9.24c-10.35,4.1-19.28,4.17-26.9,1.43s-13.92-8.28-19-15.42a79.43,79.43,0,0,1-8.9-16.78,31.63,31.63,0,0,0-5.32-9.08,20.61,20.61,0,0,0-13.9-7.24c-5.38-.56-11.4.61-17.71,3.11-9.5,3.77-19.67,10.55-29.43,19-11.39,9.85-21,12.63-27.49,11.66a11.78,11.78,0,0,1-5.63-2.32,8.13,8.13,0,0,1-2.87-4.31c-.8-3,.11-6.53,3.08-9.81a11.88,11.88,0,0,0,3-11.42,9.37,9.37,0,0,0-2.93-4.47,10.81,10.81,0,0,0-5.53-2.37c-6.24-.89-15.5,2.26-27.11,13.17-14.58,13.69-32,27.8-49.19,33.92-14.37,5.13-28.53,4.67-40.64-6.27Z" transform="translate(0 -240.73)"/><path class="cls-1" d="M0,335.7c11.66,10.26,25,10.4,38.65,5.23,16.56-6.3,33.47-20.41,48.06-33.72,11.84-10.8,21.3-13.82,27.67-12.82a11.34,11.34,0,0,1,5.77,2.58,10,10,0,0,1,3,4.77c1.09,3.77.08,8.29-3.34,11.92-2.81,3-3.67,6.22-2.93,8.89a7.32,7.32,0,0,0,2.67,3.86,11.41,11.41,0,0,0,5.34,2.11c6.63,1,16.72-2,28.6-12.63,11-9.85,22.34-16.92,32.44-19.95a31.82,31.82,0,0,1,14.64-1.28,19.66,19.66,0,0,1,11.49,6.41,30.1,30.1,0,0,1,6.08,11.54,68.11,68.11,0,0,0,9.68,20.3c4.36,6,9.82,10.82,16.4,13.43s14.29,3.06,23.17.39c6.46-1.93,13.53-5.51,21.23-11.09h0c43.67-29.29,55.08-18.47,70.73-3.64,2.11,2,4.3,4.08,6.65,6.12l0,0,0,0a16.22,16.22,0,0,0,6.46,5.3,25.09,25.09,0,0,0,13.66,1.93,34.62,34.62,0,0,0,15.65-6.14c6-4.2,11.68-10.62,16-19.7h0a53.35,53.35,0,0,1,4.61-7.64,40.2,40.2,0,0,1,27.21-16.69c10.29-1.5,21.24.73,31.16,5.68a65.25,65.25,0,0,1,9.29,5.65c5.95,4.34,12.09,10.7,18.58,17.42,18.66,19.29,40.19,41.57,67.8,26.84h0A219.71,219.71,0,0,0,600,340.85v.69a220.11,220.11,0,0,1-23.24,9.83c-28,14.93-49.72-7.53-68.52-27-6.47-6.7-12.6-13-18.5-17.35a65.1,65.1,0,0,0-9.2-5.6c-9.81-4.89-20.63-7.1-30.79-5.62A39.55,39.55,0,0,0,423,312.28a52.86,52.86,0,0,0-4.57,7.55h0c-4.34,9.19-10.06,15.69-16.17,19.94A35.38,35.38,0,0,1,386.28,346a25.6,25.6,0,0,1-14-2,16.73,16.73,0,0,1-6.69-5.48c-2.36-2.06-4.54-4.12-6.64-6.11-15.44-14.63-26.69-25.3-69.94,3.7h0c-7.77,5.62-14.9,9.23-21.42,11.19-9,2.71-16.88,2.25-23.58-.41s-12.24-7.53-16.67-13.64a68.92,68.92,0,0,1-9.78-20.49,29.41,29.41,0,0,0-5.94-11.3,19.08,19.08,0,0,0-11.14-6.22,31.26,31.26,0,0,0-14.35,1.26c-10,3-21.23,10-32.21,19.82-12,10.74-22.31,13.76-29.09,12.78a11.92,11.92,0,0,1-5.64-2.23,7.92,7.92,0,0,1-2.89-4.18c-.8-2.88.11-6.32,3.08-9.48,3.25-3.47,4.22-7.76,3.19-11.32a9.27,9.27,0,0,0-2.84-4.48,10.63,10.63,0,0,0-5.46-2.44c-6.2-1-15.47,2-27.15,12.67C72.5,321,55.53,335.18,38.87,341.51c-13.67,5.19-27.12,5.12-38.87-5Z" transform="translate(0 -240.73)"/><path class="cls-1" d="M0,341.27c11.28,9.42,24,9.18,36.88,4,16-6.49,32.49-20.66,47.13-33.62,11.91-10.55,21.39-13.42,27.71-12.33a11.33,11.33,0,0,1,5.7,2.65,9.85,9.85,0,0,1,3,4.78c1,3.76-.08,8.23-3.56,11.82-2.8,2.9-3.66,6-2.93,8.57a7.11,7.11,0,0,0,2.67,3.73,11.54,11.54,0,0,0,5.37,2c7,1,17.68-2.28,30.21-13.78,12.09-11.1,24.17-18.14,34.48-20.25a26.72,26.72,0,0,1,11.81,0,18.33,18.33,0,0,1,9.25,5.48c3,3.24,5.18,7.8,6.41,13.79a60.75,60.75,0,0,0,10,23.51,36.1,36.1,0,0,0,14.46,12.05,33,33,0,0,0,20.29,1.79c7.67-1.57,16.29-5.52,25.87-12.55h0c46.37-31.76,58.34-19.88,74.1-4.23,1.45,1.44,2.94,2.92,4.51,4.41l0,0,0,0a16,16,0,0,0,7.17,5.93,25,25,0,0,0,12.76,1.75,34.31,34.31,0,0,0,14.61-5.26c6.89-4.37,13.41-11.57,18.12-22.22h0a54.2,54.2,0,0,1,5.74-9.7,40.71,40.71,0,0,1,26.43-16.37c9.95-1.65,20.54.2,30.19,4.69a62.42,62.42,0,0,1,11.11,6.64c5.94,4.43,12.09,11,18.6,18,19,20.29,41.15,44,70.08,27.36h0c7.89-3.23,15.15-6.6,21.79-9.95v.69c-6.57,3.32-13.75,6.63-21.53,9.83-29.35,16.83-51.68-7-70.83-27.49-6.49-6.94-12.62-13.48-18.52-17.89a62.17,62.17,0,0,0-11-6.58c-9.55-4.44-20-6.27-29.83-4.64a40.14,40.14,0,0,0-26,16.13,54.17,54.17,0,0,0-5.67,9.58c-4.76,10.78-11.36,18.06-18.35,22.5a34.92,34.92,0,0,1-14.88,5.35,25.59,25.59,0,0,1-13.07-1.8,16.53,16.53,0,0,1-7.42-6.13c-1.54-1.47-3-3-4.49-4.4-15.55-15.44-27.36-27.17-73.31,4.3-9.65,7.08-18.35,11.07-26.1,12.66a33.57,33.57,0,0,1-20.67-1.83A36.81,36.81,0,0,1,223.57,342a61.5,61.5,0,0,1-10.1-23.76c-1.21-5.87-3.36-10.33-6.26-13.49a17.76,17.76,0,0,0-8.93-5.3,26,26,0,0,0-11.55,0c-10.19,2.09-22.17,9.08-34.18,20.1-12.69,11.64-23.61,14.92-30.71,13.94a12.17,12.17,0,0,1-5.66-2.16,7.59,7.59,0,0,1-2.89-4.06c-.8-2.78.11-6.1,3.08-9.17,3.32-3.43,4.35-7.67,3.39-11.22a9.18,9.18,0,0,0-2.75-4.49,10.72,10.72,0,0,0-5.39-2.49c-6.17-1.07-15.45,1.77-27.2,12.17-14.68,13-31.17,27.21-47.31,33.74-13,5.26-25.74,5.55-37.11-3.71Z" transform="translate(0 -240.73)"/><path class="cls-1" d="M0,346.8c17.16,13.52,37.06,4.25,56.42-10.24,7.46-5.58,14.86-11.95,22-18.09l2.9-2.49c12-10.29,21.47-13,27.76-11.82a11.32,11.32,0,0,1,5.63,2.71,9.65,9.65,0,0,1,2.85,4.8c.94,3.73-.22,8.16-3.76,11.71-2.8,2.8-3.66,5.78-2.94,8.26a6.85,6.85,0,0,0,2.67,3.62,11.88,11.88,0,0,0,5.39,2c7.27,1,18.65-2.55,31.83-15,13-12.22,25.62-19,35.89-20.2a23.14,23.14,0,0,1,9.48.76,17.26,17.26,0,0,1,7.44,4.66c3.38,3.59,5.63,8.92,6.43,16,1.06,9.37,4.4,19,10,26.44a35.15,35.15,0,0,0,12.79,10.91,31.82,31.82,0,0,0,17.75,2.84c8.73-1,18.83-5.13,30.27-13.61h0c49.33-34.46,61.81-21.23,77.46-4.63L360.6,348l0,0,0,0a15.76,15.76,0,0,0,7.81,6.53,25.07,25.07,0,0,0,11.93,1.59A33.62,33.62,0,0,0,394,351.66c7.74-4.47,15.12-12.38,20.19-24.61h0A55.78,55.78,0,0,1,421,315.3a41.4,41.4,0,0,1,25.78-16.08c9.67-1.77,19.94-.23,29.37,3.86a61.21,61.21,0,0,1,12.72,7.49c5.93,4.53,12.08,11.31,18.63,18.51,19.33,21.29,42.1,46.36,72.35,27.88h0c7.27-3.35,14-6.67,20.11-9.88v.7c-6.07,3.17-12.68,6.44-19.83,9.74-30.68,18.73-53.64-6.54-73.12-28-6.53-7.18-12.66-13.94-18.55-18.44a60.39,60.39,0,0,0-12.59-7.41,50.45,50.45,0,0,0-29-3.82,40.86,40.86,0,0,0-25.4,15.84,55.93,55.93,0,0,0-6.73,11.61h0c-5.13,12.38-12.6,20.39-20.44,24.92a34.47,34.47,0,0,1-13.89,4.57,25.66,25.66,0,0,1-12.23-1.63,16.47,16.47,0,0,1-8.09-6.76l-2.36-2.49c-15.45-16.39-27.77-29.44-76.65,4.71h0c-11.53,8.55-21.73,12.74-30.57,13.73a32.44,32.44,0,0,1-18.09-2.9,35.77,35.77,0,0,1-13-11.1c-5.62-7.57-9-17.27-10.06-26.74-.79-7-3-12.18-6.28-15.67a16.46,16.46,0,0,0-7.17-4.49,22.25,22.25,0,0,0-9.22-.74c-10.14,1.14-22.66,7.91-35.53,20-13.34,12.56-24.92,16.1-32.34,15.13a12.51,12.51,0,0,1-5.67-2.08,7.41,7.41,0,0,1-2.9-4c-.79-2.69.12-5.89,3.09-8.87,3.38-3.39,4.49-7.59,3.6-11.12a9.07,9.07,0,0,0-2.67-4.5,10.66,10.66,0,0,0-5.32-2.55c-6.13-1.15-15.43,1.54-27.25,11.68l-2.89,2.49c-7.13,6.14-14.53,12.51-22,18.12C37.34,351.61,17.33,361,0,347.6Z" transform="translate(0 -240.73)"/><path class="cls-1" d="M0,352.3c16.22,12,34.44,3.17,52.59-10.52,6.29-4.74,12.57-10.06,18.75-15.29,2.41-2.05,4.81-4.08,7.27-6.13,12-10,21.55-12.58,27.8-11.31a11.18,11.18,0,0,1,5.56,2.77,9.53,9.53,0,0,1,2.76,4.81c.87,3.71-.36,8.1-4,11.61-2.78,2.71-3.64,5.58-2.93,8a6.55,6.55,0,0,0,2.67,3.51,12,12,0,0,0,5.42,1.9c7.58.94,19.61-2.82,33.44-16.16,9.87-9.52,19.38-15.54,27.69-18.25,5.74-1.87,10.92-2.16,15.26-.93a16.71,16.71,0,0,1,10.21,8.24c2.06,3.71,3.25,8.54,3.38,14.45.21,10.17,3.47,21,9.63,29.19a34.37,34.37,0,0,0,11.32,9.91,31.12,31.12,0,0,0,15.48,3.59c9.66-.2,21.18-4.37,34.47-14.33h0c52.59-37.42,65.5-22.46,80.78-4.76l.31.35,0,0v0a15.66,15.66,0,0,0,8.41,7.09,25,25,0,0,0,11.16,1.46,33.41,33.41,0,0,0,12.72-3.82c8.53-4.5,16.79-13.08,22.18-26.91h0A57.44,57.44,0,0,1,420.22,317a42,42,0,0,1,25.23-15.8,50.24,50.24,0,0,1,28.65,3.15,59.32,59.32,0,0,1,14.16,8.21c5.93,4.64,12.09,11.62,18.66,19.06C526.59,353.91,550,380.41,581.55,360h0c6.63-3.39,12.77-6.65,18.42-9.73v.7q-8.36,4.56-18.12,9.58c-32,20.65-55.6-6.06-75.42-28.53-6.55-7.42-12.7-14.38-18.58-19a58.73,58.73,0,0,0-14-8.12,49.63,49.63,0,0,0-28.29-3.12,41.4,41.4,0,0,0-24.87,15.57A57,57,0,0,0,413,331h0c-5.46,14-13.82,22.67-22.47,27.23a34.12,34.12,0,0,1-13,3.89,25.69,25.69,0,0,1-11.44-1.5,16.29,16.29,0,0,1-8.71-7.35l-.27-.32c-15.09-17.47-27.83-32.23-80,4.86h0c-13.39,10-25,14.25-34.82,14.45a31.68,31.68,0,0,1-15.79-3.66A35.25,35.25,0,0,1,215,358.54c-6.23-8.32-9.54-19.27-9.75-29.55-.12-5.81-1.29-10.55-3.31-14.17a16,16,0,0,0-9.83-7.94c-4.22-1.19-9.27-.91-14.9.92-8.22,2.68-17.65,8.65-27.45,18.11-14,13.49-26.21,17.29-33.95,16.33a12.53,12.53,0,0,1-5.69-2,7.16,7.16,0,0,1-2.92-3.85c-.77-2.6.14-5.7,3.1-8.58,3.45-3.36,4.63-7.52,3.81-11a9,9,0,0,0-2.58-4.5,10.69,10.69,0,0,0-5.26-2.62c-6.1-1.23-15.4,1.3-27.28,11.19-2.35,2-4.8,4-7.27,6.12-6.19,5.25-12.48,10.57-18.77,15.32C34.72,356,16.39,364.94,0,353.09Z" transform="translate(0 -240.73)"/><path class="cls-1" d="M0,357.75c15.18,10.5,31.73,2.24,48.57-10.56,5.46-4.14,11-8.77,16.43-13.39,3.65-3.07,7.3-6.15,10.91-9.06C88,315,97.53,312.58,103.75,313.93a11.13,11.13,0,0,1,5.49,2.84,9.38,9.38,0,0,1,2.67,4.82c.8,3.7-.5,8-4.18,11.51-2.74,2.58-3.62,5.31-3,7.59a6.34,6.34,0,0,0,2.7,3.51,12.43,12.43,0,0,0,5.61,1.86c7.92.84,20.53-3.23,34.9-17.41,10.31-10.17,20.07-16.16,28.37-18.46,5.25-1.46,9.93-1.45,13.8-.09a15.86,15.86,0,0,1,9,8c2.15,4.14,3.12,9.64,2.66,16.35-.75,10.85,2.39,22.9,9.12,31.8a34.13,34.13,0,0,0,10,9,30.67,30.67,0,0,0,13.46,4.09c10.47.73,23.35-3.33,38.46-14.77h0c27-19.53,44.06-25.71,56.14-24.77s19.21,9.05,26.18,18.06l0,0,0,0a15.54,15.54,0,0,0,9,7.64,25,25,0,0,0,10.44,1.34,33.08,33.08,0,0,0,11.87-3.24c9.29-4.46,18.42-13.67,24.11-29.11h0a58.63,58.63,0,0,1,8.83-15.8,42.76,42.76,0,0,1,24.77-15.55,49.85,49.85,0,0,1,28,2.54,58.31,58.31,0,0,1,15.46,8.86c5.93,4.73,12.09,11.91,18.7,19.6,20,23.27,44,51.2,76.89,28.93h0q9-5.06,16.74-9.49v.72q-7.61,4.35-16.42,9.31c-33.36,22.56-57.55-5.59-77.71-29.06-6.58-7.66-12.73-14.82-18.61-19.51A57.19,57.19,0,0,0,472,306.31a49.08,49.08,0,0,0-27.67-2.52,42.11,42.11,0,0,0-24.41,15.33,58.07,58.07,0,0,0-8.74,15.63c-5.75,15.6-15,24.92-24.42,29.45a34,34,0,0,1-12.1,3.31,25.73,25.73,0,0,1-10.7-1.38,16.26,16.26,0,0,1-9.29-7.93c-6.87-8.89-13.84-16.87-25.71-17.8S300,345.63,273.2,365.05c-15.24,11.54-28.26,15.63-38.87,14.89a31.11,31.11,0,0,1-13.73-4.17,34.85,34.85,0,0,1-10.19-9.16c-6.82-9-10-21.23-9.24-32.22.46-6.59-.5-12-2.59-16a15.31,15.31,0,0,0-8.65-7.69c-3.75-1.31-8.31-1.32-13.43.11-8.21,2.27-17.87,8.21-28.1,18.3-14.53,14.33-27.34,18.44-35.4,17.59a13.14,13.14,0,0,1-5.9-2,7,7,0,0,1-2.95-3.86c-.7-2.5.23-5.46,3.15-8.21,3.51-3.32,4.76-7.43,4-10.93a8.86,8.86,0,0,0-2.5-4.51,10.58,10.58,0,0,0-5.19-2.67c-6.06-1.32-15.37,1.06-27.32,10.69-3.64,2.93-7.26,6-10.9,9-5.49,4.62-11,9.25-16.46,13.41C32,360.56,15.34,368.89,0,358.53Z" transform="translate(0 -240.73)"/><path class="cls-1" d="M0,363.17c14.06,9,29,1.44,44.38-10.38,4.9-3.76,9.86-8,14.86-12.17,4.62-3.9,9.27-7.82,14-11.49,12.18-9.5,21.7-11.75,27.87-10.31a11.13,11.13,0,0,1,5.43,2.89,9.31,9.31,0,0,1,2.59,4.84c.72,3.68-.66,8-4.41,11.41-2.68,2.46-3.57,5.05-3,7.22a6.08,6.08,0,0,0,2.73,3.52,13,13,0,0,0,5.83,1.81c8.24.73,21.44-3.66,36.33-18.67,10.68-10.76,20.61-16.67,28.84-18.59,4.83-1.12,9.08-.88,12.57.57a15.27,15.27,0,0,1,8,7.8c2.2,4.59,2.9,10.79,1.72,18.26a47.23,47.23,0,0,0,3.36,25.54A37.51,37.51,0,0,0,214.38,382c6,4,13.43,6,22.29,4.85,9.24-1.18,20-5.75,32.21-15.06h0c27.53-20.26,45.27-27.06,57.7-26.54s19.61,8.43,25.85,17.54l0,0v0c1.66,3.8,5.08,6.64,9.48,8.18a25.21,25.21,0,0,0,9.77,1.23,32.91,32.91,0,0,0,11.07-2.74c10-4.39,20-14.18,26-31.22h0a60.11,60.11,0,0,1,9.8-17.81,43.4,43.4,0,0,1,24.37-15.32,49.37,49.37,0,0,1,27.47,2A56.73,56.73,0,0,1,487,316.59c5.93,4.83,12.11,12.21,18.74,20.13,20.32,24.27,44.92,53.64,79.16,29.47l0,0,15-9.12v.73q-6.87,4.14-14.73,8.92c-34.69,24.49-59.49-5.12-80-29.58-6.61-7.9-12.77-15.26-18.65-20.05a56.32,56.32,0,0,0-16.46-9.33,48.77,48.77,0,0,0-27.12-2,42.75,42.75,0,0,0-24,15.11,59.5,59.5,0,0,0-9.69,17.62c-6,17.23-16.15,27.14-26.32,31.59a33.38,33.38,0,0,1-11.28,2.79,25.72,25.72,0,0,1-10-1.27,16.1,16.1,0,0,1-9.82-8.48c-6.14-9-13.13-16.73-25.35-17.25s-29.92,6.26-57.31,26.42c-12.29,9.38-23.16,14-32.5,15.17-9,1.14-16.63-.9-22.71-4.94a38,38,0,0,1-13.56-16.84,47.92,47.92,0,0,1-3.4-25.89c1.15-7.33.48-13.41-1.67-17.9a14.64,14.64,0,0,0-7.67-7.48c-3.37-1.4-7.49-1.63-12.19-.54-8.13,1.89-18,7.75-28.54,18.42-15,15.16-28.44,19.59-36.82,18.84a13.37,13.37,0,0,1-6.12-1.9,6.71,6.71,0,0,1-3-3.88c-.62-2.4.33-5.21,3.2-7.84,3.57-3.28,4.89-7.35,4.2-10.83a8.69,8.69,0,0,0-2.4-4.52,10.58,10.58,0,0,0-5.14-2.72c-6-1.41-15.34.82-27.35,10.19-4.66,3.64-9.32,7.57-13.94,11.47-5,4.23-10,8.42-14.9,12.19C29.22,365.18,14.21,372.81,0,363.93Z" transform="translate(0 -240.73)"/><path class="cls-1" d="M0,368.54c12.86,7.54,26.14.76,40.09-10,4.54-3.5,9.16-7.44,13.86-11.45,5.41-4.61,10.93-9.31,16.56-13.56,12.25-9.23,21.76-11.32,27.9-9.8a11.08,11.08,0,0,1,5.37,3,9.26,9.26,0,0,1,2.5,4.86c.65,3.66-.8,7.91-4.61,11.3-2.64,2.35-3.55,4.8-3,6.88a5.79,5.79,0,0,0,2.74,3.51,13.2,13.2,0,0,0,6,1.76c8.57.62,22.36-4.09,37.77-19.94,11-11.28,21-17.1,29.14-18.66a18.36,18.36,0,0,1,11.54,1.1,14.8,14.8,0,0,1,7.16,7.66c2.23,5.07,2.58,12,.57,20.2a45.3,45.3,0,0,0,2.29,27.33,37.46,37.46,0,0,0,12.6,16.46,31.79,31.79,0,0,0,21.26,5.67c9.92-.73,21.7-5.41,35.18-15.78h0c28.08-21,46.5-28.41,59.28-28.31s20,7.81,25.51,17l0,0v0a14.37,14.37,0,0,0,6.28,7,23.87,23.87,0,0,0,14.66,2.65,35.89,35.89,0,0,0,17.41-7.22c7.52-5.64,14.41-14.77,18.85-28.21h0a61.73,61.73,0,0,1,10.75-19.82,44.08,44.08,0,0,1,24-15.11,49.06,49.06,0,0,1,27,1.56,55.72,55.72,0,0,1,17.74,10c5.93,4.93,12.12,12.5,18.78,20.65,20.65,25.26,45.85,56.1,81.42,30h0q7.13-4.65,13.37-8.64v.74q-6.11,3.9-13,8.42c-36,26.42-61.44-4.66-82.25-30.12-6.64-8.13-12.81-15.69-18.7-20.58a55.22,55.22,0,0,0-17.54-9.83,48.48,48.48,0,0,0-26.63-1.55,43.55,43.55,0,0,0-23.7,14.91,61.21,61.21,0,0,0-10.63,19.61h0c-4.48,13.57-11.46,22.8-19.07,28.52a36.41,36.41,0,0,1-17.71,7.33,24.54,24.54,0,0,1-15.05-2.72,15,15,0,0,1-6.52-7.32c-5.41-9-12.42-16.59-25-16.7s-30.95,7.29-58.9,28.19h0c-13.58,10.45-25.47,15.16-35.51,15.9a32.3,32.3,0,0,1-21.66-5.79,38,38,0,0,1-12.81-16.72A46,46,0,0,1,193,345.18c2-8.06,1.63-14.86-.54-19.8a14.2,14.2,0,0,0-6.86-7.35,17.74,17.74,0,0,0-11.16-1c-8,1.54-17.92,7.3-28.8,18.49-15.57,16-29.55,20.75-38.26,20.12a13.9,13.9,0,0,1-6.34-1.85,6.45,6.45,0,0,1-3-3.89c-.55-2.3.42-5,3.24-7.5,3.64-3.24,5-7.26,4.41-10.73a8.53,8.53,0,0,0-2.32-4.52,10.44,10.44,0,0,0-5.08-2.79c-6-1.48-15.3.59-27.37,9.7-5.63,4.24-11.14,8.93-16.54,13.54-4.7,4-9.32,7.94-13.88,11.47C26.41,369.88,13,376.73,0,369.28Z" transform="translate(0 -240.73)"/><path class="cls-1" d="M0,373.85c11.63,6.16,23.36.18,35.79-9.5,4.32-3.37,8.73-7.19,13.25-11.1,6-5.23,12.28-10.62,18.78-15.36,12.3-9,21.82-10.9,27.92-9.3a11.07,11.07,0,0,1,5.31,3,9.11,9.11,0,0,1,2.41,4.87c.58,3.65-.95,7.84-4.82,11.2-2.59,2.24-3.52,4.58-3.09,6.56a5.59,5.59,0,0,0,2.77,3.5,13.43,13.43,0,0,0,6.25,1.7c8.9.5,23.28-4.53,39.22-21.22,11.23-11.74,21.32-17.47,29.31-18.7A16.57,16.57,0,0,1,183.78,321a14.49,14.49,0,0,1,6.47,7.58c2.23,5.56,2.17,13.27-.76,22.16s-2.5,19.74,1.14,29.08a37.6,37.6,0,0,0,12,16.37,31.69,31.69,0,0,0,20.33,6.41c10.56-.24,23.31-5,38.06-16.4h0c28.63-21.72,47.72-29.76,60.84-30.07s20.41,7.18,25.18,16.49v0h0a14.32,14.32,0,0,0,6.5,7.49,23.92,23.92,0,0,0,14.43,2.62,35.92,35.92,0,0,0,17.16-6.88c8-5.83,15.43-15.56,20-30.16h0a63.17,63.17,0,0,1,11.66-21.82A44.84,44.84,0,0,1,440.52,309a48.93,48.93,0,0,1,26.54,1.15,55.13,55.13,0,0,1,18.75,10.42c5.93,5,12.13,12.8,18.83,21.18,21,26.25,46.77,58.56,83.67,30.55h0q6.18-4.32,11.68-8V365c-3.57,2.42-7.33,5-11.32,7.79-37.39,28.37-63.39-4.2-84.53-30.66-6.67-8.36-12.86-16.1-18.75-21.09a54.48,54.48,0,0,0-18.53-10.31,48.4,48.4,0,0,0-26.21-1.14,44.25,44.25,0,0,0-23.4,14.71A62.48,62.48,0,0,0,405.71,346h0c-4.63,14.74-12.11,24.57-20.24,30.48a36.63,36.63,0,0,1-17.47,7,24.6,24.6,0,0,1-14.8-2.7,15,15,0,0,1-6.77-7.8c-4.68-9.11-11.7-16.44-24.6-16.13s-32,8.31-60.49,29.94h0c-14.85,11.51-27.74,16.29-38.41,16.53a32.24,32.24,0,0,1-20.73-6.54,38.28,38.28,0,0,1-12.15-16.63c-3.69-9.48-4.18-20.35-1.16-29.51,2.9-8.74,3-16.3.79-21.73a13.93,13.93,0,0,0-6.19-7.27,16.07,16.07,0,0,0-10.29-1.45c-7.87,1.21-17.83,6.88-28.95,18.52-16.1,16.84-30.68,21.92-39.71,21.41A14.21,14.21,0,0,1,98,358.28a6.25,6.25,0,0,1-3.06-3.91c-.48-2.2.51-4.76,3.29-7.16,3.7-3.2,5.16-7.19,4.61-10.63A8.46,8.46,0,0,0,100.6,332a10.47,10.47,0,0,0-5-2.85c-5.94-1.56-15.27.37-27.4,9.2-6.47,4.72-12.7,10.11-18.73,15.33-4.53,3.92-8.94,7.74-13.28,11.12-12.55,9.77-24.4,15.83-36.17,9.75Z" transform="translate(0 -240.73)"/><path class="cls-1" d="M0,379.11c10.38,4.87,20.65-.33,31.57-8.91,4.2-3.3,8.48-7.08,12.89-11a245,245,0,0,1,20.66-16.94c12.36-8.69,21.88-10.47,27.94-8.79a11,11,0,0,1,5.26,3.08,8.92,8.92,0,0,1,2.31,4.89c.51,3.62-1.08,7.77-5,11.09-2.55,2.14-3.49,4.36-3.12,6.26a5.35,5.35,0,0,0,2.78,3.49,13.94,13.94,0,0,0,6.46,1.64c9.22.38,24.2-5,40.68-22.52,11.42-12.16,21.54-17.8,29.39-18.74a15.19,15.19,0,0,1,10,1.88,14.26,14.26,0,0,1,5.89,7.54c2.2,6.07,1.69,14.59-2.27,24.14-3.88,9.36-3.77,20.82-.07,30.79a37.88,37.88,0,0,0,11.37,16.31,31.7,31.7,0,0,0,19.51,7.07c11.14.28,24.84-4.47,40.82-16.93h0C286.2,371,306,362.35,319.43,361.63s20.8,6.55,24.84,16h0a14.3,14.3,0,0,0,6.72,7.93h0a24,24,0,0,0,14.22,2.61,36,36,0,0,0,16.94-6.58c8.54-6,16.43-16.31,21.14-32.08h0c3-9.89,7.35-17.76,12.57-23.82A45.66,45.66,0,0,1,439.35,311a48.91,48.91,0,0,1,26.15.8h0a54.42,54.42,0,0,1,19.69,10.86c5.94,5.12,12.16,13.08,18.89,21.7,21.28,27.24,47.68,61,85.92,31.1h0c3.5-2.6,6.82-5,10-7.28v.76c-3,2.19-6.26,4.52-9.62,7h0c-38.73,30.31-65.34-3.75-86.79-31.21-6.71-8.59-12.91-16.52-18.8-21.61a53.8,53.8,0,0,0-19.47-10.73h0a48.2,48.2,0,0,0-25.82-.79,45,45,0,0,0-23.16,14.53c-5.17,6-9.47,13.79-12.44,23.59h0c-4.76,15.92-12.74,26.33-21.38,32.4a36.51,36.51,0,0,1-17.24,6.69,24.55,24.55,0,0,1-14.59-2.68h0a15,15,0,0,1-7-8.26c-3.94-9.18-11-16.3-24.23-15.58s-33,9.35-62.07,31.71h0c-16.11,12.56-29.95,17.34-41.21,17.06a32.28,32.28,0,0,1-19.89-7.21,38.4,38.4,0,0,1-11.56-16.57c-3.76-10.12-3.87-21.75.08-31.25s4.41-17.75,2.25-23.69a13.7,13.7,0,0,0-5.62-7.22,14.61,14.61,0,0,0-9.57-1.79c-7.71.92-17.69,6.5-29,18.55-16.62,17.69-31.79,23.1-41.16,22.71A14.78,14.78,0,0,1,95,362.83a6,6,0,0,1-3.07-3.91c-.42-2.11.59-4.55,3.33-6.86C99,348.9,100.5,345,100,341.53A8.4,8.4,0,0,0,97.86,337a10.35,10.35,0,0,0-5-2.9c-5.91-1.64-15.24.14-27.42,8.7a243.68,243.68,0,0,0-20.6,16.9c-4.44,3.92-8.73,7.71-12.92,11-11,8.68-21.44,14-32,9.15Z" transform="translate(0 -240.73)"/><path class="cls-1" d="M0,384.31c9.15,3.69,18.05-.79,27.52-8.29,4.08-3.25,8.28-7.06,12.65-11,6.9-6.26,14.23-12.91,22.25-18.34,12.42-8.42,21.94-10.05,28-8.29a10.94,10.94,0,0,1,5.21,3.14,8.89,8.89,0,0,1,2.22,4.9c.44,3.61-1.23,7.71-5.23,11-2.51,2.05-3.47,4.17-3.15,6a5.14,5.14,0,0,0,2.79,3.47h0a14.33,14.33,0,0,0,6.66,1.57c9.55.27,25.14-5.42,42.14-23.82,11.59-12.54,21.72-18.1,29.42-18.78A14.05,14.05,0,0,1,179.8,328a14.23,14.23,0,0,1,5.39,7.55c2.16,6.61,1.14,16-3.92,26.13-4.81,9.67-5.09,21.89-1.33,32.49a38.21,38.21,0,0,0,10.86,16.28,31.82,31.82,0,0,0,18.78,7.64c11.66.83,26.28-3.89,43.47-17.39h0c21.41-16.68,38-26.17,50.76-30.6,8.74-3,15.69-3.7,21.19-2.68a19.87,19.87,0,0,1,12.48,7.46,26.55,26.55,0,0,1,4.06,7.67h0a14.26,14.26,0,0,0,6.92,8.36,23.94,23.94,0,0,0,14,2.6,36,36,0,0,0,16.75-6.31c9-6.15,17.41-17,22.24-34,3.11-10.83,7.79-19.36,13.46-25.81a46.28,46.28,0,0,1,23.25-14.56,48.8,48.8,0,0,1,25.8.48,53.75,53.75,0,0,1,20.57,11.27c5.95,5.22,12.18,13.37,18.95,22.21,2.91,3.8,5.91,7.74,9,11.61,20.05,24.9,44.87,47.63,79.13,20h0q4.32-3.41,8.3-6.41v.78c-2.54,1.93-5.17,4-7.92,6.12h0c-34.7,27.93-59.77,5-80-20.14-3.13-3.89-6.14-7.82-9.05-11.63-6.74-8.81-13-16.94-18.85-22.12A53.21,53.21,0,0,0,463.83,314a48.32,48.32,0,0,0-25.48-.48,45.73,45.73,0,0,0-22.94,14.37c-5.61,6.38-10.24,14.83-13.32,25.57-4.87,17.09-13.36,28.08-22.49,34.3a36.71,36.71,0,0,1-17,6.42,24.56,24.56,0,0,1-14.39-2.68,14.84,14.84,0,0,1-7.21-8.72h0a26.23,26.23,0,0,0-4-7.48A19.25,19.25,0,0,0,324.9,368c-5.4-1-12.25-.34-20.88,2.66-12.7,4.4-29.22,13.86-50.58,30.5h0c-17.33,13.6-32.1,18.36-43.91,17.52a32.44,32.44,0,0,1-19.13-7.79,38.78,38.78,0,0,1-11.05-16.55c-3.81-10.75-3.52-23.15,1.37-33,5-10,6-19.19,3.88-25.66a12.75,12.75,0,0,0-14.11-9.29c-7.56.66-17.54,6.17-29,18.58-17.14,18.56-32.92,24.29-42.61,24a15.16,15.16,0,0,1-7-1.66h0a5.76,5.76,0,0,1-3.09-3.9c-.36-2,.67-4.37,3.36-6.57,3.83-3.13,5.43-7,5-10.44a8.2,8.2,0,0,0-2.07-4.56,10.37,10.37,0,0,0-4.91-3c-5.87-1.71-15.2-.09-27.44,8.21-8,5.41-15.29,12-22.18,18.29-4.37,4-8.58,7.79-12.69,11C18.31,384.11,9.28,388.67,0,385Z" transform="translate(0 -240.73)"/><path class="cls-1" d="M0,389.44c8,2.64,15.58-1.19,23.67-7.66,4-3.21,8.13-7.07,12.46-11.12C43.3,363.94,51,356.72,59.72,351c12.47-8.14,22-9.62,28-7.79a11,11,0,0,1,5.15,3.2A8.75,8.75,0,0,1,95,351.38c.37,3.59-1.37,7.64-5.43,10.88-2.47,2-3.44,4-3.18,5.72a5,5,0,0,0,2.8,3.44A14.82,14.82,0,0,0,96,372.93c9.88.14,26.08-5.88,43.61-25.14,11.73-12.88,21.84-18.38,29.4-18.83a13.13,13.13,0,0,1,8.86,2.43,14.25,14.25,0,0,1,5,7.59c2.09,7.16.53,17.4-5.69,28.13-5.77,10-6.46,22.93-2.65,34.16a38.57,38.57,0,0,0,10.41,16.27,32,32,0,0,0,18.12,8.16c12.17,1.39,27.67-3.27,46-17.78,25.44-20.07,44.39-30.27,58.19-33.95,7-1.86,12.65-2.05,17.19-1a18,18,0,0,1,10.43,6.43,22.12,22.12,0,0,1,3.91,8.1,14.33,14.33,0,0,0,7.11,8.79,24.07,24.07,0,0,0,13.87,2.59,36.17,36.17,0,0,0,16.57-6.06c9.5-6.29,18.38-17.73,23.3-35.81,3.21-11.8,8.22-21,14.34-27.82a47,47,0,0,1,23.05-14.39,48.86,48.86,0,0,1,25.49.2A53.33,53.33,0,0,1,484,326.62c6,5.32,12.2,13.66,19,22.72,4,5.38,8.25,11,12.74,16.44,19.78,23.94,44.28,43.37,77.68,15.77q3.43-2.82,6.62-5.38v.8c-2,1.61-4.08,3.29-6.22,5.06C560,410,535.2,390.36,515.21,366.17c-4.46-5.4-8.7-11.06-12.75-16.46-6.77-9-13-17.35-18.91-22.62a52.54,52.54,0,0,0-21.16-11.51,48.29,48.29,0,0,0-25.17-.2,46.42,46.42,0,0,0-22.75,14.21c-6.05,6.77-11,15.86-14.2,27.56-5,18.25-13.94,29.8-23.56,36.17a36.75,36.75,0,0,1-16.86,6.16,24.68,24.68,0,0,1-14.22-2.66,15,15,0,0,1-7.41-9.18,21.43,21.43,0,0,0-3.8-7.87,17.33,17.33,0,0,0-10.08-6.21c-4.44-1-10-.82-16.89,1-13.73,3.66-32.6,13.83-58,33.84C231,423,215.3,427.73,203,426.32A32.53,32.53,0,0,1,184.51,418a39.13,39.13,0,0,1-10.58-16.53c-3.87-11.39-3.16-24.55,2.7-34.67,6.13-10.58,7.68-20.64,5.63-27.65a13.56,13.56,0,0,0-4.74-7.26,12.49,12.49,0,0,0-8.45-2.31c-7.41.44-17.37,5.88-29,18.63C122.42,367.63,106,373.69,96,373.55A15.55,15.55,0,0,1,88.87,372a5.54,5.54,0,0,1-3.11-3.89c-.3-2,.74-4.19,3.4-6.31,3.89-3.09,5.55-6.94,5.21-10.33a8.18,8.18,0,0,0-2-4.58,10.37,10.37,0,0,0-4.86-3c-5.83-1.79-15.17-.32-27.46,7.71-8.65,5.65-16.35,12.86-23.5,19.55-4.34,4.06-8.47,7.93-12.51,11.16-8.21,6.57-16,10.47-24,7.87Z" transform="translate(0 -240.73)"/></svg>