<svg xmlns="http://www.w3.org/2000/svg" viewBox="0 0 180 300"><defs><style>.cls-1{isolation:isolate;}.cls-2{fill:#054c19;}.cls-3,.cls-4{fill:#053f13;}.cls-4{mix-blend-mode:multiply;}</style></defs><g class="cls-1"><g id="Layer_1" data-name="Layer 1"><polygon class="cls-2" points="155.53 0 136.97 0 146.25 9.52 155.53 0"/><polygon class="cls-2" points="56.25 59.71 46.97 69.23 56.25 78.75 65.53 69.23 56.25 59.71"/><polygon class="cls-2" points="45 117.4 35.72 126.92 45 136.44 54.28 126.92 45 117.4"/><polygon class="cls-2" points="67.5 71.25 58.22 80.77 67.5 90.29 76.78 80.77 67.5 71.25"/><polygon class="cls-2" points="56.25 128.94 46.97 138.46 56.25 147.98 65.53 138.46 56.25 128.94"/><polygon class="cls-2" points="45 48.17 35.72 57.69 45 67.21 54.28 57.69 45 48.17"/><polygon class="cls-2" points="22.5 117.4 13.22 126.92 22.5 136.44 31.78 126.92 22.5 117.4"/><polygon class="cls-2" points="69.47 300 69.47 300 88.03 300 88.03 300 78.75 290.48 69.47 300"/><polygon class="cls-2" points="90 94.33 80.72 103.84 90 113.37 99.28 103.85 90 94.33"/><polygon class="cls-2" points="101.25 105.86 91.97 115.38 101.25 124.91 110.53 115.38 101.25 105.86"/><polygon class="cls-2" points="33.75 105.86 24.47 115.38 33.75 124.91 43.03 115.38 33.75 105.86"/><polygon class="cls-2" points="78.75 82.79 69.47 92.31 78.75 101.83 88.03 92.31 78.75 82.79"/><polygon class="cls-2" points="1.97 300 1.97 300 20.53 300 20.53 300 11.25 290.48 1.97 300"/><polygon class="cls-2" points="22.5 255.86 13.22 265.38 22.5 274.9 31.78 265.38 22.5 255.86"/><polygon class="cls-2" points="157.5 186.63 148.22 196.15 157.5 205.67 166.78 196.15 157.5 186.63"/><polygon class="cls-2" points="78.75 152.02 69.47 161.54 78.75 171.06 88.03 161.54 78.75 152.02"/><polygon class="cls-2" points="168.75 198.17 159.47 207.69 168.75 217.21 178.03 207.69 168.75 198.17"/><polygon class="cls-2" points="67.5 278.94 58.22 288.46 67.5 297.98 76.78 288.46 67.5 278.94"/><polygon class="cls-2" points="33.75 36.63 24.47 46.15 33.75 55.67 43.03 46.15 33.75 36.63"/><polygon class="cls-2" points="90 163.56 80.72 173.08 90 182.6 99.28 173.08 90 163.56"/><polygon class="cls-2" points="146.25 175.09 136.97 184.62 146.25 194.13 155.53 184.62 146.25 175.09"/><polygon class="cls-2" points="0 255.86 0 274.9 9.28 265.38 0 255.86"/><polygon class="cls-2" points="22.5 25.09 13.22 34.62 22.5 44.13 31.78 34.62 22.5 25.09"/><polygon class="cls-2" points="67.5 140.48 58.22 150 67.5 159.52 76.78 150 67.5 140.48"/><polygon class="cls-2" points="33.75 128.94 24.47 138.46 33.75 147.98 43.03 138.46 33.75 128.94"/><polygon class="cls-2" points="11.25 13.56 1.97 23.08 11.25 32.6 20.53 23.08 11.25 13.56"/><polygon class="cls-2" points="135 140.48 125.72 150 135 159.52 144.28 150 135 140.48"/><polygon class="cls-2" points="22.5 209.71 13.22 219.23 22.5 228.75 31.78 219.23 22.5 209.71"/><polygon class="cls-2" points="11.25 82.79 1.97 92.31 11.25 101.83 20.53 92.31 11.25 82.79"/><polygon class="cls-2" points="1.97 0 11.25 9.52 20.53 0 1.97 0"/><polygon class="cls-2" points="146.25 244.32 136.97 253.85 146.25 263.37 155.53 253.85 146.25 244.32"/><polygon class="cls-2" points="22.5 278.94 13.22 288.46 22.5 297.98 31.78 288.46 22.5 278.94"/><polygon class="cls-2" points="180 182.6 180 182.6 180 163.56 170.72 173.08 180 182.6"/><polygon class="cls-2" points="178.03 0 159.47 0 168.75 9.52 178.03 0"/><polygon class="cls-2" points="157.5 21.06 166.78 11.54 157.5 2.02 148.22 11.54 157.5 21.06"/><polygon class="cls-2" points="157.5 255.86 148.22 265.38 157.5 274.9 166.78 265.38 157.5 255.86"/><polygon class="cls-2" points="24.47 300 24.47 300 43.03 300 43.03 300 33.75 290.48 24.47 300"/><polygon class="cls-2" points="168.75 32.6 178.03 23.08 168.75 13.56 159.47 23.08 168.75 32.6"/><polygon class="cls-2" points="157.5 278.94 148.22 288.46 157.5 297.98 166.78 288.46 157.5 278.94"/><polygon class="cls-2" points="168.75 267.4 159.47 276.92 168.75 286.44 178.03 276.92 168.75 267.4"/><polygon class="cls-2" points="123.75 128.94 114.47 138.46 123.75 147.98 133.03 138.46 123.75 128.94"/><polygon class="cls-2" points="135 163.56 125.72 173.08 135 182.6 144.28 173.08 135 163.56"/><polygon class="cls-2" points="170.72 196.15 180 205.67 180 186.63 180 186.63 170.72 196.15"/><polygon class="cls-2" points="11.25 198.17 1.97 207.69 11.25 217.21 20.53 207.69 11.25 198.17"/><polygon class="cls-2" points="22.5 94.33 13.22 103.84 22.5 113.37 31.78 103.85 22.5 94.33"/><polygon class="cls-2" points="11.25 105.86 1.97 115.38 11.25 124.91 20.53 115.38 11.25 105.86"/><polygon class="cls-2" points="112.5 117.4 103.22 126.92 112.5 136.44 121.78 126.92 112.5 117.4"/><polygon class="cls-2" points="146.25 152.02 136.97 161.54 146.25 171.06 155.53 161.54 146.25 152.02"/><polygon class="cls-2" points="180 297.98 180 278.94 170.72 288.46 180 297.98"/><polygon class="cls-2" points="168.75 175.09 159.47 184.62 168.75 194.13 178.03 184.62 168.75 175.09"/><polygon class="cls-2" points="159.47 300 159.47 300 178.03 300 178.03 300 168.75 290.48 159.47 300"/><polygon class="cls-2" points="11.25 267.4 1.97 276.92 11.25 286.44 20.53 276.92 11.25 267.4"/><polygon class="cls-2" points="157.5 163.56 148.22 173.08 157.5 182.6 166.78 173.08 157.5 163.56"/><polygon class="cls-2" points="22.5 71.25 13.22 80.77 22.5 90.29 31.78 80.77 22.5 71.25"/><polygon class="cls-2" points="22.5 232.79 13.22 242.31 22.5 251.83 31.78 242.31 22.5 232.79"/><polygon class="cls-2" points="123.75 175.09 114.47 184.62 123.75 194.14 133.03 184.62 123.75 175.09"/><polygon class="cls-2" points="112.5 163.56 103.22 173.08 112.5 182.6 121.78 173.08 112.5 163.56"/><polygon class="cls-2" points="168.75 244.32 159.47 253.85 168.75 263.37 178.03 253.85 168.75 244.32"/><polygon class="cls-2" points="101.25 152.02 91.97 161.54 101.25 171.06 110.53 161.54 101.25 152.02"/><polygon class="cls-2" points="112.5 209.71 103.22 219.23 112.5 228.75 121.78 219.23 112.5 209.71"/><polygon class="cls-2" points="157.5 232.79 148.22 242.31 157.5 251.83 166.78 242.31 157.5 232.79"/><polygon class="cls-2" points="45 278.94 35.72 288.46 45 297.98 54.28 288.46 45 278.94"/><polygon class="cls-2" points="135 186.63 125.72 196.15 135 205.67 144.28 196.15 135 186.63"/><polygon class="cls-2" points="78.75 175.09 69.47 184.62 78.75 194.13 88.03 184.62 78.75 175.09"/><polygon class="cls-2" points="157.5 209.71 148.22 219.23 157.5 228.75 166.78 219.23 157.5 209.71"/><polygon class="cls-2" points="170.72 265.38 180 274.9 180 255.86 180 255.86 170.72 265.38"/><polygon class="cls-2" points="146.25 198.17 136.97 207.69 146.25 217.21 155.53 207.69 146.25 198.17"/><polygon class="cls-2" points="11.25 221.25 1.97 230.77 11.25 240.29 20.53 230.77 11.25 221.25"/><polygon class="cls-2" points="45 94.33 35.72 103.85 45 113.37 54.28 103.85 45 94.33"/><polygon class="cls-2" points="101.25 198.17 91.97 207.69 101.25 217.21 110.53 207.69 101.25 198.17"/><polygon class="cls-2" points="11.25 59.71 1.97 69.23 11.25 78.75 20.53 69.23 11.25 59.71"/><polygon class="cls-2" points="168.75 221.25 159.47 230.77 168.75 240.29 178.03 230.77 168.75 221.25"/><polygon class="cls-2" points="33.75 82.79 24.47 92.31 33.75 101.83 43.03 92.31 33.75 82.79"/><polygon class="cls-2" points="90 140.48 80.72 150 90 159.52 99.28 150 90 140.48"/><polygon class="cls-2" points="56.25 105.86 46.97 115.38 56.25 124.91 65.53 115.38 56.25 105.86"/><polygon class="cls-2" points="90 186.63 80.72 196.15 90 205.67 99.28 196.15 90 186.63"/><polygon class="cls-2" points="46.97 300 46.97 300 65.53 300 65.53 300 56.25 290.48 46.97 300"/><polygon class="cls-2" points="78.75 128.94 69.47 138.46 78.75 147.98 88.03 138.46 78.75 128.94"/><polygon class="cls-2" points="180 251.83 180 251.83 180 232.79 170.72 242.31 180 251.83"/><polygon class="cls-2" points="67.5 117.4 58.22 126.92 67.5 136.44 76.78 126.92 67.5 117.4"/><polygon class="cls-2" points="101.25 175.09 91.97 184.62 101.25 194.13 110.53 184.62 101.25 175.09"/><polygon class="cls-2" points="78.75 105.86 69.47 115.38 78.75 124.91 88.03 115.38 78.75 105.86"/><polygon class="cls-2" points="56.25 267.4 46.97 276.92 56.25 286.44 65.53 276.92 56.25 267.4"/><polygon class="cls-2" points="90 117.4 80.72 126.92 90 136.44 99.28 126.92 90 117.4"/><polygon class="cls-2" points="45 140.48 35.72 150 45 159.52 54.28 150 45 140.48"/><polygon class="cls-2" points="33.75 267.4 24.47 276.92 33.75 286.44 43.03 276.92 33.75 267.4"/><polygon class="cls-2" points="123.75 198.17 114.47 207.69 123.75 217.21 133.03 207.69 123.75 198.17"/><polygon class="cls-2" points="9.28 288.46 0 278.94 0 297.98 0 297.98 9.28 288.46"/><polygon class="cls-2" points="112.5 186.63 103.22 196.15 112.5 205.67 121.78 196.15 112.5 186.63"/><polygon class="cls-2" points="135 232.79 125.72 242.31 135 251.83 144.28 242.31 135 232.79"/><polygon class="cls-2" points="123.75 152.02 114.47 161.54 123.75 171.06 133.03 161.54 123.75 152.02"/><polygon class="cls-2" points="101.25 128.94 91.97 138.46 101.25 147.98 110.53 138.46 101.25 128.94"/><polygon class="cls-2" points="112.5 140.48 103.22 150 112.5 159.52 121.78 150 112.5 140.48"/><polygon class="cls-2" points="67.5 94.33 58.22 103.85 67.5 113.37 76.78 103.84 67.5 94.33"/><polygon class="cls-2" points="67.5 163.56 58.22 173.08 67.5 182.6 76.78 173.08 67.5 163.56"/><polygon class="cls-2" points="135 209.71 125.72 219.23 135 228.75 144.28 219.23 135 209.71"/><polygon class="cls-2" points="11.25 36.63 1.97 46.15 11.25 55.67 20.53 46.15 11.25 36.63"/><polygon class="cls-2" points="45 255.86 35.72 265.38 45 274.9 54.28 265.38 45 255.86"/><polygon class="cls-2" points="22.5 48.17 13.22 57.69 22.5 67.21 31.78 57.69 22.5 48.17"/><polygon class="cls-2" points="33.75 244.32 24.47 253.85 33.75 263.37 43.03 253.85 33.75 244.32"/><polygon class="cls-2" points="180 228.75 180 209.71 170.72 219.23 180 228.75"/><polygon class="cls-2" points="146.25 221.25 136.97 230.77 146.25 240.29 155.53 230.77 146.25 221.25"/><polygon class="cls-2" points="33.75 59.71 24.47 69.23 33.75 78.75 43.03 69.23 33.75 59.71"/><polygon class="cls-2" points="56.25 82.79 46.97 92.31 56.25 101.83 65.53 92.31 56.25 82.79"/><polygon class="cls-2" points="56.25 152.02 46.97 161.54 56.25 171.06 65.53 161.54 56.25 152.02"/><polygon class="cls-2" points="45 71.25 35.72 80.77 45 90.29 54.28 80.77 45 71.25"/><polygon class="cls-2" points="123.75 221.25 114.47 230.77 123.75 240.29 133.03 230.77 123.75 221.25"/><polygon class="cls-2" points="67.5 21.06 76.78 11.54 67.5 2.02 58.22 11.54 67.5 21.06"/><polygon class="cls-2" points="22.5 2.02 13.22 11.54 22.5 21.06 31.78 11.54 22.5 2.02"/><polygon class="cls-2" points="135 278.94 125.72 288.46 135 297.98 144.28 288.46 135 278.94"/><polygon class="cls-2" points="45 25.09 35.72 34.62 45 44.13 54.28 34.62 45 25.09"/><polygon class="cls-2" points="67.5 48.17 58.22 57.69 67.5 67.21 76.78 57.69 67.5 48.17"/><polygon class="cls-2" points="136.97 300 136.97 300 155.53 300 155.53 300 146.25 290.48 136.97 300"/><polygon class="cls-2" points="56.25 221.25 46.97 230.77 56.25 240.29 65.53 230.77 56.25 221.25"/><polygon class="cls-2" points="67.5 232.79 58.22 242.31 67.5 251.83 76.78 242.31 67.5 232.79"/><polygon class="cls-2" points="33.75 13.56 24.47 23.08 33.75 32.6 43.03 23.08 33.75 13.56"/><polygon class="cls-2" points="56.25 36.63 46.97 46.15 56.25 55.67 65.53 46.15 56.25 36.63"/><polygon class="cls-2" points="45 163.56 35.72 173.08 45 182.6 54.28 173.08 45 163.56"/><polygon class="cls-2" points="78.75 244.32 69.47 253.85 78.75 263.37 88.03 253.85 78.75 244.32"/><polygon class="cls-2" points="112.5 94.33 103.22 103.85 112.5 113.37 121.78 103.84 112.5 94.33"/><polygon class="cls-2" points="123.75 267.4 114.47 276.92 123.75 286.44 133.03 276.92 123.75 267.4"/><polygon class="cls-2" points="78.75 59.71 69.47 69.23 78.75 78.75 88.03 69.23 78.75 59.71"/><polygon class="cls-2" points="9.28 173.08 0 163.56 0 163.56 0 182.6 0 182.6 9.28 173.08"/><polygon class="cls-2" points="90 71.25 80.72 80.77 90 90.29 99.28 80.77 90 71.25"/><polygon class="cls-2" points="78.75 55.67 88.03 46.15 78.75 36.63 69.47 46.15 78.75 55.67"/><polygon class="cls-2" points="33.75 152.02 24.47 161.54 33.75 171.06 43.03 161.54 33.75 152.02"/><polygon class="cls-2" points="90 67.21 99.28 57.69 90 48.17 80.72 57.69 90 67.21"/><polygon class="cls-2" points="43.03 0 24.47 0 33.75 9.52 43.03 0"/><polygon class="cls-2" points="112.5 255.86 103.22 265.38 112.5 274.9 121.78 265.38 112.5 255.86"/><polygon class="cls-2" points="101.25 78.75 110.53 69.23 101.25 59.71 91.97 69.23 101.25 78.75"/><polygon class="cls-2" points="112.5 90.29 121.78 80.77 112.5 71.25 103.22 80.77 112.5 90.29"/><polygon class="cls-2" points="11.25 175.09 1.97 184.62 11.25 194.13 20.53 184.62 11.25 175.09"/><polygon class="cls-2" points="22.5 186.63 13.22 196.15 22.5 205.67 31.78 196.15 22.5 186.63"/><polygon class="cls-2" points="45 21.06 54.28 11.54 45 2.02 35.72 11.54 45 21.06"/><polygon class="cls-2" points="11.25 128.94 1.97 138.46 11.25 147.98 20.53 138.46 11.25 128.94"/><polygon class="cls-2" points="45 209.71 35.72 219.23 45 228.75 54.28 219.23 45 209.71"/><polygon class="cls-2" points="22.5 140.48 13.22 150 22.5 159.52 31.78 150 22.5 140.48"/><polygon class="cls-2" points="56.25 32.6 65.53 23.08 56.25 13.56 46.97 23.08 56.25 32.6"/><polygon class="cls-2" points="67.5 44.13 76.78 34.62 67.5 25.09 58.22 34.62 67.5 44.13"/><polygon class="cls-2" points="33.75 198.17 24.47 207.69 33.75 217.21 43.03 207.69 33.75 198.17"/><polygon class="cls-2" points="101.25 82.79 91.97 92.31 101.25 101.83 110.53 92.31 101.25 82.79"/><polygon class="cls-2" points="170.72 11.54 180 21.06 180 21.06 180 2.02 180 2.02 170.72 11.54"/><polygon class="cls-2" points="170.72 57.69 180 67.21 180 48.17 180 48.17 170.72 57.69"/><polygon class="cls-2" points="11.25 152.02 1.97 161.54 11.25 171.06 20.53 161.54 11.25 152.02"/><polygon class="cls-2" points="9.28 103.84 0 94.33 0 94.33 0 113.37 0 113.37 9.28 103.84"/><polygon class="cls-2" points="170.72 103.85 180 113.37 180 94.33 180 94.33 170.72 103.85"/><polygon class="cls-2" points="180 90.29 180 90.29 180 71.25 170.72 80.77 180 90.29"/><polygon class="cls-2" points="9.28 126.92 0 117.4 0 117.4 0 136.44 0 136.44 9.28 126.92"/><polygon class="cls-2" points="67.5 209.71 58.22 219.23 67.5 228.75 76.78 219.23 67.5 209.71"/><polygon class="cls-2" points="170.72 34.62 180 44.13 180 44.13 180 25.09 180 25.09 170.72 34.62"/><polygon class="cls-2" points="45 186.63 35.72 196.15 45 205.67 54.28 196.15 45 186.63"/><polygon class="cls-2" points="9.28 57.69 0 48.17 0 48.17 0 67.21 0 67.21 9.28 57.69"/><polygon class="cls-2" points="9.28 34.62 0 25.09 0 25.09 0 44.13 0 44.13 9.28 34.62"/><polygon class="cls-2" points="56.25 198.17 46.97 207.69 56.25 217.21 65.53 207.69 56.25 198.17"/><polygon class="cls-2" points="9.28 80.77 0 71.25 0 71.25 0 90.29 0 90.29 9.28 80.77"/><polygon class="cls-2" points="22.5 163.56 13.22 173.08 22.5 182.6 31.78 173.08 22.5 163.56"/><polygon class="cls-2" points="9.28 11.54 0 2.02 0 2.02 0 21.06 0 21.06 9.28 11.54"/><polygon class="cls-2" points="157.5 140.48 148.22 150 157.5 159.52 166.78 150 157.5 140.48"/><polygon class="cls-2" points="146.25 128.94 136.97 138.46 146.25 147.98 155.53 138.46 146.25 128.94"/><polygon class="cls-2" points="101.25 244.32 91.97 253.85 101.25 263.37 110.53 253.85 101.25 244.32"/><polygon class="cls-2" points="123.75 105.86 114.47 115.38 123.75 124.91 133.03 115.38 123.75 105.86"/><polygon class="cls-2" points="90 255.86 80.72 265.38 90 274.9 99.28 265.38 90 255.86"/><polygon class="cls-2" points="101.25 267.4 91.97 276.92 101.25 286.44 110.53 276.92 101.25 267.4"/><polygon class="cls-2" points="33.75 175.09 24.47 184.62 33.75 194.13 43.03 184.62 33.75 175.09"/><polygon class="cls-2" points="135 117.4 125.72 126.92 135 136.44 144.28 126.92 135 117.4"/><polygon class="cls-2" points="180 136.44 180 117.4 170.72 126.92 180 136.44"/><polygon class="cls-2" points="78.75 221.25 69.47 230.77 78.75 240.29 88.03 230.77 78.75 221.25"/><polygon class="cls-2" points="168.75 152.02 159.47 161.54 168.75 171.06 178.03 161.54 168.75 152.02"/><polygon class="cls-2" points="112.5 278.94 103.22 288.46 112.5 297.98 121.78 288.46 112.5 278.94"/><polygon class="cls-2" points="114.47 300 114.47 300 133.03 300 133.03 300 123.75 290.48 114.47 300"/><polygon class="cls-2" points="90 232.79 80.72 242.31 90 251.83 99.28 242.31 90 232.79"/><polygon class="cls-2" points="180 159.52 180 140.48 170.72 150 180 159.52"/><polygon class="cls-2" points="9.28 150 0 140.48 0 140.48 0 159.52 0 159.52 9.28 150"/><polygon class="cls-2" points="135 90.29 144.28 80.77 135 71.25 125.72 80.77 135 90.29"/><polygon class="cls-2" points="168.75 124.91 178.03 115.38 168.75 105.86 159.47 115.38 168.75 124.91"/><polygon class="cls-2" points="123.75 244.32 114.47 253.85 123.75 263.37 133.03 253.85 123.75 244.32"/><polygon class="cls-2" points="135 67.21 144.28 57.69 135 48.17 125.72 57.69 135 67.21"/><polygon class="cls-2" points="157.5 90.29 166.78 80.77 157.5 71.25 148.22 80.77 157.5 90.29"/><polygon class="cls-2" points="135 255.86 125.72 265.38 135 274.9 144.28 265.38 135 255.86"/><polygon class="cls-2" points="67.5 255.86 58.22 265.38 67.5 274.9 76.78 265.38 67.5 255.86"/><polygon class="cls-2" points="56.25 244.32 46.97 253.85 56.25 263.37 65.53 253.85 56.25 244.32"/><polygon class="cls-2" points="146.25 78.75 155.53 69.23 146.25 59.71 136.97 69.23 146.25 78.75"/><polygon class="cls-2" points="9.28 242.31 0 232.79 0 232.79 0 251.83 0 251.83 9.28 242.31"/><polygon class="cls-2" points="90 21.06 99.28 11.54 90 2.02 80.72 11.54 90 21.06"/><polygon class="cls-2" points="88.03 0 69.47 0 78.75 9.52 88.03 0"/><polygon class="cls-2" points="123.75 55.67 133.03 46.15 123.75 36.63 114.47 46.15 123.75 55.67"/><polygon class="cls-2" points="112.5 232.79 103.22 242.31 112.5 251.83 121.78 242.31 112.5 232.79"/><polygon class="cls-2" points="112.5 44.13 121.78 34.62 112.5 25.09 103.22 34.62 112.5 44.13"/><polygon class="cls-2" points="101.25 32.6 110.53 23.08 101.25 13.56 91.97 23.08 101.25 32.6"/><polygon class="cls-2" points="168.75 101.83 178.03 92.31 168.75 82.79 159.47 92.31 168.75 101.83"/><polygon class="cls-2" points="168.75 78.75 178.03 69.23 168.75 59.71 159.47 69.23 168.75 78.75"/><polygon class="cls-2" points="135 21.06 144.28 11.54 135 2.02 125.72 11.54 135 21.06"/><polygon class="cls-2" points="133.03 0 114.47 0 123.75 9.52 133.03 0"/><polygon class="cls-2" points="146.25 32.6 155.53 23.08 146.25 13.56 136.97 23.08 146.25 32.6"/><polygon class="cls-2" points="168.75 55.67 178.03 46.15 168.75 36.63 159.47 46.15 168.75 55.67"/><polygon class="cls-2" points="157.5 44.13 166.78 34.62 157.5 25.09 148.22 34.62 157.5 44.13"/><polygon class="cls-2" points="146.25 267.4 136.97 276.92 146.25 286.44 155.53 276.92 146.25 267.4"/><polygon class="cls-2" points="135 44.13 144.28 34.62 135 25.09 125.72 34.62 135 44.13"/><polygon class="cls-2" points="112.5 21.06 121.78 11.54 112.5 2.02 103.22 11.54 112.5 21.06"/><polygon class="cls-2" points="123.75 32.6 133.03 23.08 123.75 13.56 114.47 23.08 123.75 32.6"/><polygon class="cls-2" points="110.53 0 91.97 0 101.25 9.52 110.53 0"/><polygon class="cls-2" points="157.5 67.21 166.78 57.69 157.5 48.17 148.22 57.69 157.5 67.21"/><polygon class="cls-2" points="45 232.79 35.72 242.31 45 251.83 54.28 242.31 45 232.79"/><polygon class="cls-2" points="123.75 101.83 133.03 92.31 123.75 82.79 114.47 92.31 123.75 101.83"/><polygon class="cls-2" points="146.25 55.67 155.53 46.15 146.25 36.63 136.97 46.15 146.25 55.67"/><polygon class="cls-2" points="78.75 32.6 88.03 23.08 78.75 13.56 69.47 23.08 78.75 32.6"/><polygon class="cls-2" points="157.5 136.44 166.78 126.92 157.5 117.4 148.22 126.92 157.5 136.44"/><polygon class="cls-2" points="90 209.71 80.72 219.23 90 228.75 99.28 219.23 90 209.71"/><polygon class="cls-2" points="90 44.13 99.28 34.62 90 25.09 80.72 34.62 90 44.13"/><polygon class="cls-2" points="101.25 55.67 110.53 46.15 101.25 36.63 91.97 46.15 101.25 55.67"/><polygon class="cls-2" points="146.25 124.91 155.53 115.38 146.25 105.86 136.97 115.38 146.25 124.91"/><polygon class="cls-2" points="9.28 196.15 0 186.63 0 186.63 0 205.67 0 205.67 9.28 196.15"/><polygon class="cls-2" points="90 278.94 80.72 288.46 90 297.98 99.28 288.46 90 278.94"/><polygon class="cls-2" points="78.75 198.17 69.47 207.69 78.75 217.21 88.03 207.69 78.75 198.17"/><polygon class="cls-2" points="65.53 0 46.97 0 56.25 9.52 65.53 0"/><polygon class="cls-2" points="11.25 244.32 1.97 253.85 11.25 263.37 20.53 253.85 11.25 244.32"/><polygon class="cls-2" points="67.5 186.63 58.22 196.15 67.5 205.67 76.78 196.15 67.5 186.63"/><polygon class="cls-2" points="9.28 219.23 0 209.71 0 209.71 0 228.75 0 228.75 9.28 219.23"/><polygon class="cls-2" points="56.25 175.09 46.97 184.62 56.25 194.13 65.53 184.62 56.25 175.09"/><polygon class="cls-2" points="146.25 101.83 155.53 92.31 146.25 82.79 136.97 92.31 146.25 101.83"/><polygon class="cls-2" points="135 113.37 144.28 103.85 135 94.33 125.72 103.84 135 113.37"/><polygon class="cls-2" points="91.97 300 91.97 300 110.53 300 110.53 300 101.25 290.48 91.97 300"/><polygon class="cls-2" points="157.5 113.37 166.78 103.85 157.5 94.33 148.22 103.85 157.5 113.37"/><polygon class="cls-2" points="112.5 67.21 121.78 57.69 112.5 48.17 103.22 57.69 112.5 67.21"/><polygon class="cls-2" points="101.25 221.25 91.97 230.77 101.25 240.29 110.53 230.77 101.25 221.25"/><polygon class="cls-2" points="168.75 147.98 178.03 138.46 168.75 128.94 159.47 138.46 168.75 147.98"/><polygon class="cls-2" points="33.75 221.25 24.47 230.77 33.75 240.29 43.03 230.77 33.75 221.25"/><polygon class="cls-2" points="78.75 267.4 69.47 276.92 78.75 286.44 88.03 276.92 78.75 267.4"/><polygon class="cls-2" points="123.75 78.75 133.03 69.23 123.75 59.71 114.47 69.23 123.75 78.75"/><polygon class="cls-3" points="0 2.02 0 2.02 0 2.02 0 2.02"/><polygon class="cls-3" points="0 25.09 0 25.09 0 25.09 0 25.09"/><polygon class="cls-3" points="9.28 11.54 0 21.06 1.97 23.08 11.25 13.56 9.28 11.54"/><polygon class="cls-3" points="20.53 0 20.53 0 11.25 9.52 13.22 11.54 22.5 2.02 20.53 0"/><polygon class="cls-3" points="31.78 11.54 22.5 21.06 24.47 23.08 33.75 13.56 31.78 11.54"/><polygon class="cls-3" points="35.72 11.54 45 2.02 43.03 0 43.03 0 33.75 9.52 35.72 11.54"/><polygon class="cls-3" points="9.28 34.62 0 44.13 1.97 46.15 11.25 36.63 9.28 34.62"/><polygon class="cls-3" points="20.53 23.08 11.25 32.6 13.22 34.62 22.5 25.09 20.53 23.08"/><polygon class="cls-3" points="0 48.17 0 48.17 0 48.17 0 48.17"/><polygon class="cls-3" points="58.22 11.54 67.5 2.02 65.53 0 65.53 0 56.25 9.52 58.22 11.54"/><polygon class="cls-3" points="31.78 34.62 22.5 44.13 24.47 46.15 33.75 36.63 31.78 34.62"/><polygon class="cls-3" points="46.97 23.08 56.25 13.56 54.28 11.54 45 21.06 46.97 23.08"/><polygon class="cls-3" points="43.03 23.08 33.75 32.6 35.72 34.62 45 25.09 43.03 23.08"/><polygon class="cls-3" points="20.53 46.15 11.25 55.67 13.22 57.69 22.5 48.17 20.53 46.15"/><polygon class="cls-3" points="9.28 57.69 0 67.21 1.97 69.23 11.25 59.71 9.28 57.69"/><polygon class="cls-3" points="0 71.25 0 71.25 0 71.25 0 71.25"/><polygon class="cls-3" points="20.53 69.23 11.25 78.75 13.22 80.77 22.5 71.25 20.53 69.23"/><polygon class="cls-3" points="54.28 34.62 45 44.13 46.97 46.15 56.25 36.63 54.28 34.62"/><polygon class="cls-3" points="43.03 46.15 33.75 55.67 35.72 57.69 45 48.17 43.03 46.15"/><polygon class="cls-3" points="58.22 34.62 67.5 25.09 65.53 23.08 56.25 32.6 58.22 34.62"/><polygon class="cls-3" points="9.28 80.77 0 90.29 1.97 92.31 11.25 82.79 9.28 80.77"/><polygon class="cls-3" points="69.47 23.08 78.75 13.56 76.78 11.54 67.5 21.06 69.47 23.08"/><polygon class="cls-3" points="31.78 57.69 22.5 67.21 24.47 69.23 33.75 59.71 31.78 57.69"/><polygon class="cls-3" points="80.72 11.54 90 2.02 88.03 0 88.03 0 78.75 9.52 80.72 11.54"/><polygon class="cls-3" points="0 94.33 0 94.33 0 94.33 0 94.33"/><polygon class="cls-3" points="20.53 92.31 11.25 101.83 13.22 103.84 22.5 94.33 20.53 92.31"/><polygon class="cls-3" points="43.03 69.23 33.75 78.75 35.72 80.77 45 71.25 43.03 69.23"/><polygon class="cls-3" points="103.22 11.54 112.5 2.02 110.53 0 110.53 0 101.25 9.52 103.22 11.54"/><polygon class="cls-3" points="65.53 46.15 56.25 55.67 58.22 57.69 67.5 48.17 65.53 46.15"/><polygon class="cls-3" points="0 117.4 0 117.4 0 117.4 0 117.4"/><polygon class="cls-3" points="80.72 34.62 90 25.09 88.03 23.08 78.75 32.6 80.72 34.62"/><polygon class="cls-3" points="9.28 103.84 0 113.37 1.97 115.38 11.25 105.86 9.28 103.84"/><polygon class="cls-3" points="69.47 46.15 78.75 36.63 76.78 34.62 67.5 44.13 69.47 46.15"/><polygon class="cls-3" points="54.28 57.69 45 67.21 46.97 69.23 56.25 59.71 54.28 57.69"/><polygon class="cls-3" points="31.78 80.77 22.5 90.29 24.47 92.31 33.75 82.79 31.78 80.77"/><polygon class="cls-3" points="91.97 23.08 101.25 13.56 99.28 11.54 90 21.06 91.97 23.08"/><polygon class="cls-3" points="31.78 103.85 22.5 113.37 24.47 115.38 33.75 105.86 31.78 103.85"/><polygon class="cls-3" points="76.78 57.69 67.5 67.21 69.47 69.23 78.75 59.71 76.78 57.69"/><polygon class="cls-3" points="103.22 34.62 112.5 25.09 110.53 23.08 101.25 32.6 103.22 34.62"/><polygon class="cls-3" points="80.72 57.69 90 48.17 88.03 46.15 78.75 55.67 80.72 57.69"/><polygon class="cls-3" points="125.72 11.54 135 2.02 133.03 0 133.03 0 123.75 9.52 125.72 11.54"/><polygon class="cls-3" points="9.28 126.92 0 136.44 1.97 138.46 11.25 128.94 9.28 126.92"/><polygon class="cls-3" points="65.53 69.23 56.25 78.75 58.22 80.77 67.5 71.25 65.53 69.23"/><polygon class="cls-3" points="0 140.48 0 140.48 0 140.48 0 140.48"/><polygon class="cls-3" points="114.47 23.08 123.75 13.56 121.78 11.54 112.5 21.06 114.47 23.08"/><polygon class="cls-3" points="91.97 46.15 101.25 36.63 99.28 34.62 90 44.13 91.97 46.15"/><polygon class="cls-3" points="54.28 80.77 45 90.29 46.97 92.31 56.25 82.79 54.28 80.77"/><polygon class="cls-3" points="20.53 115.38 11.25 124.91 13.22 126.92 22.5 117.4 20.53 115.38"/><polygon class="cls-3" points="43.03 92.31 33.75 101.83 35.72 103.85 45 94.33 43.03 92.31"/><polygon class="cls-3" points="148.22 11.54 157.5 2.02 155.53 0 155.53 0 146.25 9.52 148.22 11.54"/><polygon class="cls-3" points="76.78 80.77 67.5 90.29 69.47 92.31 78.75 82.79 76.78 80.77"/><polygon class="cls-3" points="103.22 57.69 112.5 48.17 110.53 46.15 101.25 55.67 103.22 57.69"/><polygon class="cls-3" points="9.28 150 0 159.52 1.97 161.54 11.25 152.02 9.28 150"/><polygon class="cls-3" points="20.53 138.46 11.25 147.98 13.22 150 22.5 140.48 20.53 138.46"/><polygon class="cls-3" points="65.53 92.31 56.25 101.83 58.22 103.85 67.5 94.33 65.53 92.31"/><polygon class="cls-3" points="88.03 69.23 78.75 78.75 80.72 80.77 90 71.25 88.03 69.23"/><polygon class="cls-3" points="43.03 115.38 33.75 124.91 35.72 126.92 45 117.4 43.03 115.38"/><polygon class="cls-3" points="136.97 23.08 146.25 13.56 144.28 11.54 135 21.06 136.97 23.08"/><polygon class="cls-3" points="54.28 103.85 45 113.37 46.97 115.38 56.25 105.86 54.28 103.85"/><polygon class="cls-3" points="0 163.56 0 163.56 0 163.56 0 163.56"/><polygon class="cls-3" points="125.72 34.62 135 25.09 133.03 23.08 123.75 32.6 125.72 34.62"/><polygon class="cls-3" points="31.78 126.92 22.5 136.44 24.47 138.46 33.75 128.94 31.78 126.92"/><polygon class="cls-3" points="91.97 69.23 101.25 59.71 99.28 57.69 90 67.21 91.97 69.23"/><polygon class="cls-3" points="114.47 46.15 123.75 36.63 121.78 34.62 112.5 44.13 114.47 46.15"/><polygon class="cls-3" points="136.97 46.15 146.25 36.63 144.28 34.62 135 44.13 136.97 46.15"/><polygon class="cls-3" points="65.53 115.38 56.25 124.91 58.22 126.92 67.5 117.4 65.53 115.38"/><polygon class="cls-3" points="114.47 69.23 123.75 59.71 121.78 57.69 112.5 67.21 114.47 69.23"/><polygon class="cls-3" points="9.28 173.08 0 182.6 1.97 184.62 11.25 175.09 9.28 173.08"/><polygon class="cls-3" points="170.72 11.54 180 2.02 178.03 0 178.03 0 168.75 9.52 170.72 11.54"/><polygon class="cls-3" points="159.47 23.08 168.75 13.56 166.78 11.54 157.5 21.06 159.47 23.08"/><polygon class="cls-3" points="148.22 34.62 157.5 25.09 155.53 23.08 146.25 32.6 148.22 34.62"/><polygon class="cls-3" points="0 186.63 0 186.63 0 186.63 0 186.63"/><polygon class="cls-3" points="88.03 92.31 78.75 101.83 80.72 103.84 90 94.33 88.03 92.31"/><polygon class="cls-3" points="125.72 57.69 135 48.17 133.03 46.15 123.75 55.67 125.72 57.69"/><polygon class="cls-3" points="103.22 80.77 112.5 71.25 110.53 69.23 101.25 78.75 103.22 80.77"/><polygon class="cls-3" points="31.78 150 22.5 159.52 24.47 161.54 33.75 152.02 31.78 150"/><polygon class="cls-3" points="99.28 80.77 90 90.29 91.97 92.31 101.25 82.79 99.28 80.77"/><polygon class="cls-3" points="43.03 138.46 33.75 147.98 35.72 150 45 140.48 43.03 138.46"/><polygon class="cls-3" points="76.78 103.84 67.5 113.37 69.47 115.38 78.75 105.86 76.78 103.84"/><polygon class="cls-3" points="20.53 161.54 11.25 171.06 13.22 173.08 22.5 163.56 20.53 161.54"/><polygon class="cls-3" points="54.28 126.92 45 136.44 46.97 138.46 56.25 128.94 54.28 126.92"/><polygon class="cls-3" points="99.28 103.85 90 113.37 91.97 115.38 101.25 105.86 99.28 103.85"/><polygon class="cls-3" points="125.72 80.77 135 71.25 133.03 69.23 123.75 78.75 125.72 80.77"/><polygon class="cls-3" points="148.22 57.69 157.5 48.17 155.53 46.15 146.25 55.67 148.22 57.69"/><polygon class="cls-3" points="159.47 46.15 168.75 36.63 166.78 34.62 157.5 44.13 159.47 46.15"/><polygon class="cls-3" points="114.47 92.31 123.75 82.79 121.78 80.77 112.5 90.29 114.47 92.31"/><polygon class="cls-3" points="180 21.06 180 21.06 180 21.06 180 21.06"/><polygon class="cls-3" points="170.72 34.62 180 25.09 178.03 23.08 168.75 32.6 170.72 34.62"/><polygon class="cls-3" points="110.53 92.31 101.25 101.83 103.22 103.85 112.5 94.33 110.53 92.31"/><polygon class="cls-3" points="136.97 69.23 146.25 59.71 144.28 57.69 135 67.21 136.97 69.23"/><polygon class="cls-3" points="0 209.71 0 209.71 0 209.71 0 209.71"/><polygon class="cls-3" points="9.28 196.15 0 205.67 1.97 207.69 11.25 198.17 9.28 196.15"/><polygon class="cls-3" points="20.53 184.62 11.25 194.13 13.22 196.15 22.5 186.63 20.53 184.62"/><polygon class="cls-3" points="43.03 161.54 33.75 171.06 35.72 173.08 45 163.56 43.03 161.54"/><polygon class="cls-3" points="65.53 138.46 56.25 147.98 58.22 150 67.5 140.48 65.53 138.46"/><polygon class="cls-3" points="76.78 126.92 67.5 136.44 69.47 138.46 78.75 128.94 76.78 126.92"/><polygon class="cls-3" points="88.03 115.38 78.75 124.91 80.72 126.92 90 117.4 88.03 115.38"/><polygon class="cls-3" points="54.28 150 45 159.52 46.97 161.54 56.25 152.02 54.28 150"/><polygon class="cls-3" points="31.78 173.08 22.5 182.6 24.47 184.62 33.75 175.09 31.78 173.08"/><polygon class="cls-3" points="180 44.13 180 44.13 180 44.13 180 44.13"/><polygon class="cls-3" points="9.28 219.23 0 228.75 1.97 230.77 11.25 221.25 9.28 219.23"/><polygon class="cls-3" points="125.72 103.84 135 94.33 133.03 92.31 123.75 101.83 125.72 103.84"/><polygon class="cls-3" points="148.22 80.77 157.5 71.25 155.53 69.23 146.25 78.75 148.22 80.77"/><polygon class="cls-3" points="54.28 173.08 45 182.6 46.97 184.62 56.25 175.09 54.28 173.08"/><polygon class="cls-3" points="65.53 161.54 56.25 171.06 58.22 173.08 67.5 163.56 65.53 161.54"/><polygon class="cls-3" points="43.03 184.62 33.75 194.13 35.72 196.15 45 186.63 43.03 184.62"/><polygon class="cls-3" points="31.78 196.15 22.5 205.67 24.47 207.69 33.75 198.17 31.78 196.15"/><polygon class="cls-3" points="0 232.79 0 232.79 0 232.79 0 232.79"/><polygon class="cls-3" points="20.53 207.69 11.25 217.21 13.22 219.23 22.5 209.71 20.53 207.69"/><polygon class="cls-3" points="136.97 92.31 146.25 82.79 144.28 80.77 135 90.29 136.97 92.31"/><polygon class="cls-3" points="121.78 103.84 112.5 113.37 114.47 115.38 123.75 105.86 121.78 103.84"/><polygon class="cls-3" points="110.53 115.38 101.25 124.91 103.22 126.92 112.5 117.4 110.53 115.38"/><polygon class="cls-3" points="99.28 126.92 90 136.44 91.97 138.46 101.25 128.94 99.28 126.92"/><polygon class="cls-3" points="88.03 138.46 78.75 147.98 80.72 150 90 140.48 88.03 138.46"/><polygon class="cls-3" points="76.78 150 67.5 159.52 69.47 161.54 78.75 152.02 76.78 150"/><polygon class="cls-3" points="170.72 57.69 180 48.17 178.03 46.15 168.75 55.67 170.72 57.69"/><polygon class="cls-3" points="159.47 69.23 168.75 59.71 166.78 57.69 157.5 67.21 159.47 69.23"/><polygon class="cls-3" points="20.53 230.77 11.25 240.29 13.22 242.31 22.5 232.79 20.53 230.77"/><polygon class="cls-3" points="133.03 115.38 123.75 124.91 125.72 126.92 135 117.4 133.03 115.38"/><polygon class="cls-3" points="136.97 115.38 146.25 105.86 144.28 103.85 135 113.37 136.97 115.38"/><polygon class="cls-3" points="76.78 173.08 67.5 182.6 69.47 184.62 78.75 175.09 76.78 173.08"/><polygon class="cls-3" points="88.03 161.54 78.75 171.06 80.72 173.08 90 163.56 88.03 161.54"/><polygon class="cls-3" points="159.47 92.31 168.75 82.79 166.78 80.77 157.5 90.29 159.47 92.31"/><polygon class="cls-3" points="43.03 207.69 33.75 217.21 35.72 219.23 45 209.71 43.03 207.69"/><polygon class="cls-3" points="148.22 103.85 157.5 94.33 155.53 92.31 146.25 101.83 148.22 103.85"/><polygon class="cls-3" points="54.28 196.15 45 205.67 46.97 207.69 56.25 198.17 54.28 196.15"/><polygon class="cls-3" points="9.28 242.31 0 251.83 1.97 253.85 11.25 244.32 9.28 242.31"/><polygon class="cls-3" points="65.53 184.62 56.25 194.13 58.22 196.15 67.5 186.63 65.53 184.62"/><polygon class="cls-3" points="121.78 126.92 112.5 136.44 114.47 138.46 123.75 128.94 121.78 126.92"/><polygon class="cls-3" points="31.78 219.23 22.5 228.75 24.47 230.77 33.75 221.25 31.78 219.23"/><polygon class="cls-3" points="110.53 138.46 101.25 147.98 103.22 150 112.5 140.48 110.53 138.46"/><polygon class="cls-3" points="168.75 78.75 170.72 80.77 180 71.25 180 71.25 178.03 69.23 168.75 78.75"/><polygon class="cls-3" points="99.28 150 90 159.52 91.97 161.54 101.25 152.02 99.28 150"/><polygon class="cls-3" points="99.28 173.08 90 182.6 91.97 184.62 101.25 175.09 99.28 173.08"/><polygon class="cls-3" points="65.53 207.69 56.25 217.21 58.22 219.23 67.5 209.71 65.53 207.69"/><polygon class="cls-3" points="88.03 184.62 78.75 194.13 80.72 196.15 90 186.63 88.03 184.62"/><polygon class="cls-3" points="159.47 115.38 168.75 105.86 166.78 103.85 157.5 113.37 159.47 115.38"/><polygon class="cls-3" points="54.28 219.23 45 228.75 46.97 230.77 56.25 221.25 54.28 219.23"/><polygon class="cls-3" points="180 90.29 180 90.29 180 90.29 180 90.29"/><polygon class="cls-3" points="133.03 138.46 123.75 147.98 125.72 150 135 140.48 133.03 138.46"/><polygon class="cls-3" points="31.78 242.31 22.5 251.83 24.47 253.85 33.75 244.32 31.78 242.31"/><polygon class="cls-3" points="121.78 150 112.5 159.52 114.47 161.54 123.75 152.02 121.78 150"/><polygon class="cls-3" points="148.22 126.92 157.5 117.4 155.53 115.38 146.25 124.91 148.22 126.92"/><polygon class="cls-3" points="144.28 126.92 135 136.44 136.97 138.46 146.25 128.94 144.28 126.92"/><polygon class="cls-3" points="11.25 267.4 9.28 265.38 0 274.9 1.97 276.92 11.25 267.4"/><polygon class="cls-3" points="43.03 230.77 33.75 240.29 35.72 242.31 45 232.79 43.03 230.77"/><polygon class="cls-3" points="76.78 196.15 67.5 205.67 69.47 207.69 78.75 198.17 76.78 196.15"/><polygon class="cls-3" points="110.53 161.54 101.25 171.06 103.22 173.08 112.5 163.56 110.53 161.54"/><polygon class="cls-3" points="20.53 253.85 11.25 263.37 13.22 265.38 22.5 255.86 20.53 253.85"/><polygon class="cls-3" points="170.72 103.85 180 94.33 178.03 92.31 168.75 101.83 170.72 103.85"/><rect class="cls-4" x="0.98" y="299.02" height="1.97"/><polygon class="cls-3" points="54.28 242.31 45 251.83 46.97 253.85 56.25 244.32 54.28 242.31"/><polygon class="cls-3" points="43.03 253.85 33.75 263.37 35.72 265.38 45 255.86 43.03 253.85"/><polygon class="cls-3" points="88.03 207.69 78.75 217.21 80.72 219.23 90 209.71 88.03 207.69"/><polygon class="cls-3" points="121.78 173.08 112.5 182.6 114.47 184.62 123.75 175.09 121.78 173.08"/><polygon class="cls-3" points="31.78 265.38 22.5 274.9 24.47 276.92 33.75 267.4 31.78 265.38"/><polygon class="cls-3" points="133.03 161.54 123.75 171.06 125.72 173.08 135 163.56 133.03 161.54"/><polygon class="cls-3" points="99.28 196.15 90 205.67 91.97 207.69 101.25 198.17 99.28 196.15"/><polygon class="cls-3" points="65.53 230.77 56.25 240.29 58.22 242.31 67.5 232.79 65.53 230.77"/><polygon class="cls-3" points="168.75 124.91 170.72 126.92 180 117.4 180 117.4 178.03 115.38 168.75 124.91"/><polygon class="cls-3" points="155.53 138.46 146.25 147.98 148.22 150 157.5 140.48 155.53 138.46"/><polygon class="cls-3" points="144.28 150 135 159.52 136.97 161.54 146.25 152.02 144.28 150"/><polygon class="cls-3" points="159.47 138.46 168.75 128.94 166.78 126.92 157.5 136.44 159.47 138.46"/><polygon class="cls-3" points="20.53 276.92 11.25 286.44 13.22 288.46 22.5 278.94 20.53 276.92"/><polygon class="cls-3" points="9.28 288.46 0 297.98 1.97 300 11.25 290.48 9.28 288.46"/><polygon class="cls-3" points="76.78 219.23 67.5 228.75 69.47 230.77 78.75 221.25 76.78 219.23"/><polygon class="cls-3" points="110.53 184.62 101.25 194.13 103.22 196.15 112.5 186.63 110.53 184.62"/><polygon class="cls-4" points="20.53 300 20.53 300 20.53 300 20.53 300 24.47 300 24.47 300 20.53 300"/><polygon class="cls-3" points="133.03 184.62 123.75 194.14 125.72 196.15 135 186.63 133.03 184.62"/><polygon class="cls-3" points="76.78 242.31 67.5 251.83 69.47 253.85 78.75 244.32 76.78 242.31"/><polygon class="cls-3" points="166.78 150 157.5 159.52 159.47 161.54 168.75 152.02 166.78 150"/><polygon class="cls-3" points="121.78 196.15 112.5 205.67 114.47 207.69 123.75 198.17 121.78 196.15"/><polygon class="cls-3" points="43.03 276.92 33.75 286.44 35.72 288.46 45 278.94 43.03 276.92"/><polygon class="cls-3" points="31.78 288.46 22.5 297.98 24.47 300 33.75 290.48 31.78 288.46"/><polygon class="cls-3" points="110.53 207.69 101.25 217.21 103.22 219.23 112.5 209.71 110.53 207.69"/><polygon class="cls-3" points="144.28 173.08 135 182.6 136.97 184.62 146.25 175.09 144.28 173.08"/><polygon class="cls-3" points="155.53 161.54 146.25 171.06 148.22 173.08 157.5 163.56 155.53 161.54"/><polygon class="cls-3" points="54.28 265.38 45 274.9 46.97 276.92 56.25 267.4 54.28 265.38"/><polygon class="cls-3" points="65.53 253.85 56.25 263.37 58.22 265.38 67.5 255.86 65.53 253.85"/><polygon class="cls-3" points="88.03 230.77 78.75 240.29 80.72 242.31 90 232.79 88.03 230.77"/><polygon class="cls-3" points="99.28 219.23 90 228.75 91.97 230.77 101.25 221.25 99.28 219.23"/><polygon class="cls-3" points="168.75 147.98 170.72 150 180 140.48 178.03 138.46 168.75 147.98"/><polygon class="cls-4" points="43.03 300 43.03 300 43.03 300 43.03 300 46.97 300 46.97 300 43.03 300"/><polygon class="cls-3" points="65.53 276.92 56.25 286.44 58.22 288.46 67.5 278.94 65.53 276.92"/><polygon class="cls-3" points="144.28 196.15 135 205.67 136.97 207.69 146.25 198.17 144.28 196.15"/><polygon class="cls-3" points="121.78 219.23 112.5 228.75 114.47 230.77 123.75 221.25 121.78 219.23"/><polygon class="cls-3" points="133.03 207.69 123.75 217.21 125.72 219.23 135 209.71 133.03 207.69"/><polygon class="cls-3" points="168.75 171.06 170.72 173.08 180 163.56 180 163.56 178.03 161.54 168.75 171.06"/><polygon class="cls-3" points="155.53 184.62 146.25 194.13 148.22 196.15 157.5 186.63 155.53 184.62"/><polygon class="cls-3" points="76.78 265.38 67.5 274.9 69.47 276.92 78.75 267.4 76.78 265.38"/><polygon class="cls-3" points="54.28 288.46 45 297.98 46.97 300 56.25 290.48 54.28 288.46"/><polygon class="cls-3" points="99.28 242.31 90 251.83 91.97 253.85 101.25 244.32 99.28 242.31"/><polygon class="cls-3" points="88.03 253.85 78.75 263.37 80.72 265.38 90 255.86 88.03 253.85"/><polygon class="cls-3" points="110.53 230.77 101.25 240.29 103.22 242.31 112.5 232.79 110.53 230.77"/><polygon class="cls-3" points="166.78 173.08 157.5 182.6 159.47 184.62 168.75 175.09 166.78 173.08"/><polygon class="cls-4" points="65.53 300 65.53 300 65.53 300 65.53 300 69.47 300 69.47 300 65.53 300"/><polygon class="cls-3" points="76.78 288.46 67.5 297.98 69.47 300 78.75 290.48 76.78 288.46"/><polygon class="cls-3" points="180 182.6 180 182.6 180 182.6 180 182.6"/><polygon class="cls-3" points="133.03 230.77 123.75 240.29 125.72 242.31 135 232.79 133.03 230.77"/><polygon class="cls-3" points="178.03 184.62 168.75 194.13 170.72 196.15 180 186.63 178.03 184.62"/><polygon class="cls-3" points="155.53 207.69 146.25 217.21 148.22 219.23 157.5 209.71 155.53 207.69"/><polygon class="cls-3" points="144.28 219.23 135 228.75 136.97 230.77 146.25 221.25 144.28 219.23"/><polygon class="cls-3" points="99.28 265.38 90 274.9 91.97 276.92 101.25 267.4 99.28 265.38"/><polygon class="cls-3" points="121.78 242.31 112.5 251.83 114.47 253.85 123.75 244.32 121.78 242.31"/><polygon class="cls-3" points="88.03 276.92 78.75 286.44 80.72 288.46 90 278.94 88.03 276.92"/><polygon class="cls-3" points="166.78 196.15 157.5 205.67 159.47 207.69 168.75 198.17 166.78 196.15"/><polygon class="cls-3" points="110.53 253.85 101.25 263.37 103.22 265.38 112.5 255.86 110.53 253.85"/><polygon class="cls-4" points="88.03 300 88.03 300 88.03 300 88.03 300 91.97 300 91.97 300 88.03 300"/><polygon class="cls-3" points="121.78 265.38 112.5 274.9 114.47 276.92 123.75 267.4 121.78 265.38"/><polygon class="cls-3" points="99.28 288.46 90 297.98 91.97 300 101.25 290.48 99.28 288.46"/><polygon class="cls-3" points="110.53 276.92 101.25 286.44 103.22 288.46 112.5 278.94 110.53 276.92"/><polygon class="cls-3" points="133.03 253.85 123.75 263.37 125.72 265.38 135 255.86 133.03 253.85"/><polygon class="cls-3" points="166.78 219.23 157.5 228.75 159.47 230.77 168.75 221.25 166.78 219.23"/><polygon class="cls-3" points="155.53 230.77 146.25 240.29 148.22 242.31 157.5 232.79 155.53 230.77"/><polygon class="cls-3" points="168.75 217.21 170.72 219.23 180 209.71 180 209.71 178.03 207.69 168.75 217.21"/><polygon class="cls-3" points="144.28 242.31 135 251.83 136.97 253.85 146.25 244.32 144.28 242.31"/><polygon class="cls-4" points="110.53 300 110.53 300 110.53 300 110.53 300 114.47 300 114.47 300 110.53 300"/><polygon class="cls-3" points="121.78 288.46 112.5 297.98 114.47 300 123.75 290.48 121.78 288.46"/><polygon class="cls-3" points="168.75 240.29 170.72 242.31 180 232.79 180 232.79 178.03 230.77 168.75 240.29"/><polygon class="cls-3" points="133.03 276.92 123.75 286.44 125.72 288.46 135 278.94 133.03 276.92"/><polygon class="cls-3" points="155.53 253.85 146.25 263.37 148.22 265.38 157.5 255.86 155.53 253.85"/><polygon class="cls-3" points="144.28 265.38 135 274.9 136.97 276.92 146.25 267.4 144.28 265.38"/><polygon class="cls-3" points="166.78 242.31 157.5 251.83 159.47 253.85 168.75 244.32 166.78 242.31"/><polygon class="cls-4" points="133.03 300 133.03 300 133.03 300 133.03 300 136.97 300 136.97 300 133.03 300"/><polygon class="cls-3" points="178.03 253.85 168.75 263.37 170.72 265.38 180 255.86 178.03 253.85"/><polygon class="cls-3" points="166.78 265.38 157.5 274.9 159.47 276.92 168.75 267.4 166.78 265.38"/><polygon class="cls-3" points="180 251.83 180 251.83 180 251.83 180 251.83"/><polygon class="cls-3" points="144.28 288.46 135 297.98 136.97 300 146.25 290.48 144.28 288.46"/><polygon class="cls-3" points="155.53 276.92 146.25 286.44 148.22 288.46 157.5 278.94 155.53 276.92"/><polygon class="cls-4" points="155.53 300 155.53 300 155.53 300 155.53 300 159.47 300 159.47 300 155.53 300"/><polygon class="cls-3" points="166.78 288.46 157.5 297.98 159.47 300 168.75 290.48 166.78 288.46"/><polygon class="cls-3" points="168.75 286.44 170.72 288.46 180 278.94 180 278.94 178.03 276.92 168.75 286.44"/><polygon class="cls-4" points="178.03 300 178.03 300 178.03 300 178.03 300 180 300 180 300 178.03 300"/><polygon class="cls-3" points="180 2.02 180 2.02 180 0 178.03 0 180 2.02"/><polygon class="cls-3" points="170.72 11.54 168.75 9.52 159.47 0 159.47 0 155.53 0 157.5 2.02 166.78 11.54 168.75 13.56 178.03 23.08 180 25.09 180 25.09 180 21.06 180 21.06 170.72 11.54"/><polygon class="cls-3" points="170.72 34.62 168.75 32.6 159.47 23.08 157.5 21.06 148.22 11.54 146.25 9.52 136.97 0 136.97 0 133.03 0 135 2.02 144.28 11.54 146.25 13.56 155.53 23.08 157.5 25.09 166.78 34.62 168.75 36.63 178.03 46.15 180 48.17 180 48.17 180 44.13 180 44.13 170.72 34.62"/><polygon class="cls-3" points="168.75 55.67 159.47 46.15 157.5 44.13 148.22 34.62 146.25 32.6 136.97 23.08 135 21.06 125.72 11.54 123.75 9.52 114.47 0 114.47 0 110.53 0 112.5 2.02 121.78 11.54 123.75 13.56 133.03 23.08 135 25.09 144.28 34.62 146.25 36.63 155.53 46.15 157.5 48.17 166.78 57.69 168.75 59.71 178.03 69.23 180 71.25 180 67.21 170.72 57.69 168.75 55.67"/><polygon class="cls-3" points="170.72 80.77 168.75 78.75 159.47 69.23 157.5 67.21 148.22 57.69 146.25 55.67 136.97 46.15 135 44.13 125.72 34.62 123.75 32.6 114.47 23.08 112.5 21.06 103.22 11.54 101.25 9.52 91.97 0 91.97 0 88.03 0 90 2.02 99.28 11.54 101.25 13.56 110.53 23.08 112.5 25.09 121.78 34.62 123.75 36.63 133.03 46.15 135 48.17 144.28 57.69 146.25 59.71 155.53 69.23 157.5 71.25 166.78 80.77 168.75 82.79 178.03 92.31 180 94.33 180 94.33 180 90.29 180 90.29 170.72 80.77"/><polygon class="cls-3" points="168.75 101.83 159.47 92.31 157.5 90.29 148.22 80.77 146.25 78.75 136.97 69.23 135 67.21 125.72 57.69 123.75 55.67 114.47 46.15 112.5 44.13 103.22 34.62 101.25 32.6 91.97 23.08 90 21.06 80.72 11.54 78.75 9.52 69.47 0 69.47 0 65.53 0 67.5 2.02 76.78 11.54 78.75 13.56 88.03 23.08 90 25.09 99.28 34.62 101.25 36.63 110.53 46.15 112.5 48.17 121.78 57.69 123.75 59.71 133.03 69.23 135 71.25 144.28 80.77 146.25 82.79 155.53 92.31 157.5 94.33 166.78 103.85 168.75 105.86 178.03 115.38 180 117.4 180 113.37 170.72 103.85 168.75 101.83"/><polygon class="cls-3" points="168.75 124.91 159.47 115.38 157.5 113.37 148.22 103.85 146.25 101.83 136.97 92.31 135 90.29 125.72 80.77 123.75 78.75 114.47 69.23 112.5 67.21 103.22 57.69 101.25 55.67 91.97 46.15 90 44.13 80.72 34.62 78.75 32.6 69.47 23.08 67.5 21.06 58.22 11.54 56.25 9.52 46.97 0 46.97 0 43.03 0 45 2.02 54.28 11.54 56.25 13.56 65.53 23.08 67.5 25.09 76.78 34.62 78.75 36.63 88.03 46.15 90 48.17 99.28 57.69 101.25 59.71 110.53 69.23 112.5 71.25 121.78 80.77 123.75 82.79 133.03 92.31 135 94.33 144.28 103.85 146.25 105.86 155.53 115.38 157.5 117.4 166.78 126.92 168.75 128.94 178.03 138.46 180 140.48 180 136.44 170.72 126.92 168.75 124.91"/><polygon class="cls-3" points="168.75 147.98 159.47 138.46 157.5 136.44 148.22 126.92 146.25 124.91 136.97 115.38 135 113.37 125.72 103.84 123.75 101.83 114.47 92.31 112.5 90.29 103.22 80.77 101.25 78.75 91.97 69.23 90 67.21 80.72 57.69 78.75 55.67 69.47 46.15 67.5 44.13 58.22 34.62 56.25 32.6 46.97 23.08 45 21.06 35.72 11.54 33.75 9.52 24.47 0 24.47 0 20.53 0 22.5 2.02 31.78 11.54 33.75 13.56 43.03 23.08 45 25.09 54.28 34.62 56.25 36.63 65.53 46.15 67.5 48.17 76.78 57.69 78.75 59.71 88.03 69.23 90 71.25 99.28 80.77 101.25 82.79 110.53 92.31 112.5 94.33 121.78 103.84 123.75 105.86 133.03 115.38 135 117.4 144.28 126.92 146.25 128.94 155.53 138.46 157.5 140.48 166.78 150 168.75 152.02 178.03 161.54 180 163.56 180 159.52 170.72 150 168.75 147.98"/><polygon class="cls-3" points="9.28 11.54 11.25 13.56 20.53 23.08 22.5 25.09 31.78 34.62 33.75 36.63 43.03 46.15 45 48.17 54.28 57.69 56.25 59.71 65.53 69.23 67.5 71.25 76.78 80.77 78.75 82.79 88.03 92.31 90 94.33 99.28 103.85 101.25 105.86 110.53 115.38 112.5 117.4 121.78 126.92 123.75 128.94 133.03 138.46 135 140.48 144.28 150 146.25 152.02 155.53 161.54 157.5 163.56 166.78 173.08 168.75 175.09 178.03 184.62 180 186.63 180 186.63 180 182.6 180 182.6 170.72 173.08 168.75 171.06 159.47 161.54 157.5 159.52 148.22 150 146.25 147.98 136.97 138.46 135 136.44 125.72 126.92 123.75 124.91 114.47 115.38 112.5 113.37 103.22 103.85 101.25 101.83 91.97 92.31 90 90.29 80.72 80.77 78.75 78.75 69.47 69.23 67.5 67.21 58.22 57.69 56.25 55.67 46.97 46.15 45 44.13 35.72 34.62 33.75 32.6 24.47 23.08 22.5 21.06 13.22 11.54 11.25 9.52 1.97 0 1.97 0 0 0 0 2.02 0 2.02 9.28 11.54"/><polygon class="cls-3" points="9.28 34.62 11.25 36.63 20.53 46.15 22.5 48.17 31.78 57.69 33.75 59.71 43.03 69.23 45 71.25 54.28 80.77 56.25 82.79 65.53 92.31 67.5 94.33 76.78 103.84 78.75 105.86 88.03 115.38 90 117.4 99.28 126.92 101.25 128.94 110.53 138.46 112.5 140.48 121.78 150 123.75 152.02 133.03 161.54 135 163.56 144.28 173.08 146.25 175.09 155.53 184.62 157.5 186.63 166.78 196.15 168.75 198.17 178.03 207.69 180 209.71 180 205.67 170.72 196.15 168.75 194.13 159.47 184.62 157.5 182.6 148.22 173.08 146.25 171.06 136.97 161.54 135 159.52 125.72 150 123.75 147.98 114.47 138.46 112.5 136.44 103.22 126.92 101.25 124.91 91.97 115.38 90 113.37 80.72 103.84 78.75 101.83 69.47 92.31 67.5 90.29 58.22 80.77 56.25 78.75 46.97 69.23 45 67.21 35.72 57.69 33.75 55.67 24.47 46.15 22.5 44.13 13.22 34.62 11.25 32.6 1.97 23.08 0 21.06 0 21.06 0 21.06 0 25.09 0 25.09 9.28 34.62"/><polygon class="cls-3" points="9.28 57.69 11.25 59.71 20.53 69.23 22.5 71.25 31.78 80.77 33.75 82.79 43.03 92.31 45 94.33 54.28 103.85 56.25 105.86 65.53 115.38 67.5 117.4 76.78 126.92 78.75 128.94 88.03 138.46 90 140.48 99.28 150 101.25 152.02 110.53 161.54 112.5 163.56 121.78 173.08 123.75 175.09 133.03 184.62 135 186.63 144.28 196.15 146.25 198.17 155.53 207.69 157.5 209.71 166.78 219.23 168.75 221.25 178.03 230.77 180 232.79 180 228.75 170.72 219.23 168.75 217.21 159.47 207.69 157.5 205.67 148.22 196.15 146.25 194.13 136.97 184.62 135 182.6 125.72 173.08 123.75 171.06 114.47 161.54 112.5 159.52 103.22 150 101.25 147.98 91.97 138.46 90 136.44 80.72 126.92 78.75 124.91 69.47 115.38 67.5 113.37 58.22 103.85 56.25 101.83 46.97 92.31 45 90.29 35.72 80.77 33.75 78.75 24.47 69.23 22.5 67.21 13.22 57.69 11.25 55.67 1.97 46.15 0 44.13 0 44.13 0 44.14 0 48.17 0 48.17 9.28 57.69"/><polygon class="cls-3" points="9.28 80.77 11.25 82.79 20.53 92.31 22.5 94.33 31.78 103.85 33.75 105.86 43.03 115.38 45 117.4 54.28 126.92 56.25 128.94 65.53 138.46 67.5 140.48 76.78 150 78.75 152.02 88.03 161.54 90 163.56 99.28 173.08 101.25 175.09 110.53 184.62 112.5 186.63 121.78 196.15 123.75 198.17 133.03 207.69 135 209.71 144.28 219.23 146.25 221.25 155.53 230.77 157.5 232.79 166.78 242.31 168.75 244.32 178.03 253.85 180 255.86 180 255.86 180 251.83 180 251.83 170.72 242.31 168.75 240.29 159.47 230.77 157.5 228.75 148.22 219.23 146.25 217.21 136.97 207.69 135 205.67 125.72 196.15 123.75 194.14 114.47 184.62 112.5 182.6 103.22 173.08 101.25 171.06 91.97 161.54 90 159.52 80.72 150 78.75 147.98 69.47 138.46 67.5 136.44 58.22 126.92 56.25 124.91 46.97 115.38 45 113.37 35.72 103.85 33.75 101.83 24.47 92.31 22.5 90.29 13.22 80.77 11.25 78.75 1.97 69.23 0 67.21 0 67.21 0 67.21 0 71.25 0 71.25 9.28 80.77"/><polygon class="cls-3" points="9.28 103.84 11.25 105.86 20.53 115.38 22.5 117.4 31.78 126.92 33.75 128.94 43.03 138.46 45 140.48 54.28 150 56.25 152.02 65.53 161.54 67.5 163.56 76.78 173.08 78.75 175.09 88.03 184.62 90 186.63 99.28 196.15 101.25 198.17 110.53 207.69 112.5 209.71 121.78 219.23 123.75 221.25 133.03 230.77 135 232.79 144.28 242.31 146.25 244.32 155.53 253.85 157.5 255.86 166.78 265.38 168.75 267.4 178.03 276.92 180 278.94 180 274.9 170.72 265.38 168.75 263.37 159.47 253.85 157.5 251.83 148.22 242.31 146.25 240.29 136.97 230.77 135 228.75 125.72 219.23 123.75 217.21 114.47 207.69 112.5 205.67 103.22 196.15 101.25 194.13 91.97 184.62 90 182.6 80.72 173.08 78.75 171.06 69.47 161.54 67.5 159.52 58.22 150 56.25 147.98 46.97 138.46 45 136.44 35.72 126.92 33.75 124.91 24.47 115.38 22.5 113.37 13.22 103.84 11.25 101.83 1.97 92.31 0 90.29 0 90.29 0 90.29 0 94.33 0 94.33 9.28 103.84"/><polygon class="cls-3" points="9.28 126.92 11.25 128.94 20.53 138.46 22.5 140.48 31.78 150 33.75 152.02 43.03 161.54 45 163.56 54.28 173.08 56.25 175.09 65.53 184.62 67.5 186.63 76.78 196.15 78.75 198.17 88.03 207.69 90 209.71 99.28 219.23 101.25 221.25 110.53 230.77 112.5 232.79 121.78 242.31 123.75 244.32 133.03 253.85 135 255.86 144.28 265.38 146.25 267.4 155.53 276.92 157.5 278.94 166.78 288.46 168.75 290.48 178.03 300 178.03 300 180 300 180 297.98 170.72 288.46 168.75 286.44 159.47 276.92 157.5 274.9 148.22 265.38 146.25 263.37 136.97 253.85 135 251.83 125.72 242.31 123.75 240.29 114.47 230.77 112.5 228.75 103.22 219.23 101.25 217.21 91.97 207.69 90 205.67 80.72 196.15 78.75 194.13 69.47 184.62 67.5 182.6 58.22 173.08 56.25 171.06 46.97 161.54 45 159.52 35.72 150 33.75 147.98 24.47 138.46 22.5 136.44 13.22 126.92 11.25 124.91 1.97 115.38 0 113.37 0 113.37 0 113.37 0 117.4 0 117.4 9.28 126.92"/><polygon class="cls-3" points="9.28 150 11.25 152.02 20.53 161.54 22.5 163.56 31.78 173.08 33.75 175.09 43.03 184.62 45 186.63 54.28 196.15 56.25 198.17 65.53 207.69 67.5 209.71 76.78 219.23 78.75 221.25 88.03 230.77 90 232.79 99.28 242.31 101.25 244.32 110.53 253.85 112.5 255.86 121.78 265.38 123.75 267.4 133.03 276.92 135 278.94 144.28 288.46 146.25 290.48 155.53 300 155.53 300 159.47 300 159.47 300 159.47 300 159.47 300 157.5 297.98 148.22 288.46 146.25 286.44 136.97 276.92 135 274.9 125.72 265.38 123.75 263.37 114.47 253.85 112.5 251.83 103.22 242.31 101.25 240.29 91.97 230.77 90 228.75 80.72 219.23 78.75 217.21 69.47 207.69 67.5 205.67 58.22 196.15 56.25 194.13 46.97 184.62 45 182.6 35.72 173.08 33.75 171.06 24.47 161.54 22.5 159.52 13.22 150 11.25 147.98 1.97 138.46 0 136.44 0 136.44 0 136.44 0 140.48 0 140.48 9.28 150"/><polygon class="cls-3" points="9.28 173.08 11.25 175.09 20.53 184.62 22.5 186.63 31.78 196.15 33.75 198.17 43.03 207.69 45 209.71 54.28 219.23 56.25 221.25 65.53 230.77 67.5 232.79 76.78 242.31 78.75 244.32 88.03 253.85 90 255.86 99.28 265.38 101.25 267.4 110.53 276.92 112.5 278.94 121.78 288.46 123.75 290.48 133.03 300 133.03 300 136.97 300 136.97 300 136.97 300 136.97 300 135 297.98 125.72 288.46 123.75 286.44 114.47 276.92 112.5 274.9 103.22 265.38 101.25 263.37 91.97 253.85 90 251.83 80.72 242.31 78.75 240.29 69.47 230.77 67.5 228.75 58.22 219.23 56.25 217.21 46.97 207.69 45 205.67 35.72 196.15 33.75 194.13 24.47 184.62 22.5 182.6 13.22 173.08 11.25 171.06 1.97 161.54 0 159.52 0 159.52 0 159.52 0 163.56 0 163.56 9.28 173.08"/><polygon class="cls-3" points="9.28 196.15 11.25 198.17 20.53 207.69 22.5 209.71 31.78 219.23 33.75 221.25 43.03 230.77 45 232.79 54.28 242.31 56.25 244.32 65.53 253.85 67.5 255.86 76.78 265.38 78.75 267.4 88.03 276.92 90 278.94 99.28 288.46 101.25 290.48 110.53 300 110.53 300 114.47 300 114.47 300 114.47 300 114.47 300 112.5 297.98 103.22 288.46 101.25 286.44 91.97 276.92 90 274.9 80.72 265.38 78.75 263.37 69.47 253.85 67.5 251.83 58.22 242.31 56.25 240.29 46.97 230.77 45 228.75 35.72 219.23 33.75 217.21 24.47 207.69 22.5 205.67 13.22 196.15 11.25 194.13 1.97 184.62 0 182.6 0 182.6 0 182.6 0 186.63 0 186.63 9.28 196.15"/><polygon class="cls-3" points="9.28 219.23 11.25 221.25 20.53 230.77 22.5 232.79 31.78 242.31 33.75 244.32 43.03 253.85 45 255.86 54.28 265.38 56.25 267.4 65.53 276.92 67.5 278.94 76.78 288.46 78.75 290.48 88.03 300 88.03 300 91.97 300 91.97 300 91.97 300 91.97 300 90 297.98 80.72 288.46 78.75 286.44 69.47 276.92 67.5 274.9 58.22 265.38 56.25 263.37 46.97 253.85 45 251.83 35.72 242.31 33.75 240.29 24.47 230.77 22.5 228.75 13.22 219.23 11.25 217.21 1.97 207.69 0 205.67 0 205.67 0 205.67 0 209.71 0 209.71 9.28 219.23"/><polygon class="cls-3" points="9.28 242.31 11.25 244.32 20.53 253.85 22.5 255.86 31.78 265.38 33.75 267.4 43.03 276.92 45 278.94 54.28 288.46 56.25 290.48 65.53 300 65.53 300 69.47 300 69.47 300 69.47 300 69.47 300 67.5 297.98 58.22 288.46 56.25 286.44 46.97 276.92 45 274.9 35.72 265.38 33.75 263.37 24.47 253.85 22.5 251.83 13.22 242.31 11.25 240.29 1.97 230.77 0 228.75 0 228.75 0 228.75 0 232.79 0 232.79 9.28 242.31"/><polygon class="cls-3" points="11.25 267.4 20.53 276.92 22.5 278.94 31.78 288.46 33.75 290.48 43.03 300 43.03 300 46.97 300 46.97 300 46.97 300 46.97 300 45 297.98 35.72 288.46 33.75 286.44 24.47 276.92 22.5 274.9 13.22 265.38 11.25 263.37 1.97 253.85 0 251.83 0 251.83 0 251.83 0 255.86 9.28 265.38 11.25 267.4"/><polygon class="cls-3" points="11.25 290.48 20.53 300 20.53 300 24.47 300 24.47 300 24.47 300 24.47 300 22.5 297.98 13.22 288.46 11.25 286.44 1.97 276.92 0 274.9 0 278.94 9.28 288.46 11.25 290.48"/><polygon class="cls-4" points="1.97 300 1.97 300 1.97 300 0 297.98 0 297.98 0 297.98 0 300 0 300 1.97 300 1.97 300"/></g></g></svg>