<svg id="Layer_1" data-name="Layer 1" xmlns="http://www.w3.org/2000/svg" viewBox="0 0 258.52 141.97"><defs><style>.cls-1{fill:#fffdfd;}</style></defs><path class="cls-1" d="M37.05,36.78v0a3.93,3.93,0,0,0,2.5-1.21,3.47,3.47,0,0,0,.8-2.28A3.58,3.58,0,0,0,39,30.21a7.28,7.28,0,0,0-4.27-1.06H26.54V44.5h8.65a6.92,6.92,0,0,0,4.17-1,3.58,3.58,0,0,0,1.39-3.05A3.4,3.4,0,0,0,39.84,38,4.45,4.45,0,0,0,37.05,36.78Zm-6-4.28h2.66c1.16,0,1.74.46,1.74,1.37s-.58,1.38-1.74,1.38H31.09Zm4.35,8.43a2.08,2.08,0,0,1-1.34.36h-3V38.52h3a2.15,2.15,0,0,1,1.34.35,1.4,1.4,0,0,1,0,2.06Z" transform="translate(-25.13 -28.92)"/><path class="cls-1" d="M58.55,29.86a8.34,8.34,0,0,0-4.1-.94,8.49,8.49,0,0,0-4.11.94,6.44,6.44,0,0,0-2.66,2.71,9.05,9.05,0,0,0-.93,4.26,9,9,0,0,0,.93,4.25,6.38,6.38,0,0,0,2.66,2.71,8.49,8.49,0,0,0,4.11,1,8.34,8.34,0,0,0,4.1-1,6.32,6.32,0,0,0,2.63-2.71,9.11,9.11,0,0,0,.92-4.25,9.18,9.18,0,0,0-.92-4.26A6.37,6.37,0,0,0,58.55,29.86Zm-1.61,9.35A2.77,2.77,0,0,1,56,40.63a2.5,2.5,0,0,1-1.56.48,2.47,2.47,0,0,1-1.57-.48A2.9,2.9,0,0,1,52,39.21a7.61,7.61,0,0,1-.32-2.38,7.61,7.61,0,0,1,.32-2.4A2.91,2.91,0,0,1,52.88,33a2.53,2.53,0,0,1,1.57-.47A2.56,2.56,0,0,1,56,33a2.78,2.78,0,0,1,.93,1.41,8,8,0,0,1,.3,2.4A8,8,0,0,1,56.94,39.21Z" transform="translate(-25.13 -28.92)"/><polygon class="cls-1" points="54.21 6.89 54.3 9.91 54.28 9.91 53.28 7.84 49.09 0.23 43.91 0.23 43.91 15.59 48.05 15.59 48.05 8.93 47.95 5.91 48 5.91 48.98 7.98 53.16 15.59 58.37 15.59 58.37 0.23 54.21 0.23 54.21 6.89"/><rect class="cls-1" x="65.86" y="0.23" width="4.75" height="15.35"/><polygon class="cls-1" points="77.19 3.79 82.12 3.79 82.12 15.59 86.87 15.59 86.87 3.79 91.75 3.79 91.75 0.23 77.19 0.23 77.19 3.79"/><path class="cls-1" d="M125.3,29.15,120.14,44.5h4.74l.88-3.18h4.68l.86,3.18h4.88L131,29.15Zm1.31,9.1.85-3.07.63-2.49h0l.65,2.51.82,3Z" transform="translate(-25.13 -28.92)"/><path class="cls-1" d="M157.3,32.62a3.82,3.82,0,0,1,1.17-.14,6.43,6.43,0,0,1,2.59.5,8.7,8.7,0,0,1,2.22,1.38l2.07-3.05a8.34,8.34,0,0,0-3-1.8,12,12,0,0,0-3.89-.59,9.71,9.71,0,0,0-3.74.65,5.35,5.35,0,0,0-2.38,1.81,4.59,4.59,0,0,0-.81,2.68,3.74,3.74,0,0,0,.64,2.29,4.21,4.21,0,0,0,1.71,1.36,11.7,11.7,0,0,0,2.32.77l2.56.58a2.92,2.92,0,0,1,1.14.43.8.8,0,0,1,.31.64.9.9,0,0,1-.19.56,1.26,1.26,0,0,1-.62.36,4.09,4.09,0,0,1-1.1.13,7.75,7.75,0,0,1-2-.28,9.57,9.57,0,0,1-1.93-.76,6.7,6.7,0,0,1-1.53-1.08l-2,3.14a8,8,0,0,0,2,1.36,11.43,11.43,0,0,0,2.61.87,14.38,14.38,0,0,0,2.94.31,9.36,9.36,0,0,0,3.42-.59,5.16,5.16,0,0,0,2.39-1.74,4.72,4.72,0,0,0,.87-2.91A3.62,3.62,0,0,0,164,36.68a7.63,7.63,0,0,0-3.47-1.57l-2.32-.54a5.21,5.21,0,0,1-1.27-.42.68.68,0,0,1-.45-.6.81.81,0,0,1,.2-.55A1.28,1.28,0,0,1,157.3,32.62Z" transform="translate(-25.13 -28.92)"/><path class="cls-1" d="M182.81,29.77a8.23,8.23,0,0,0-3.36-.62h-7.63V44.5h4.74V39.71h2.89a8.24,8.24,0,0,0,3.36-.61,4.7,4.7,0,0,0,2.12-1.8,5.3,5.3,0,0,0,.73-2.87,5.3,5.3,0,0,0-.73-2.87A4.68,4.68,0,0,0,182.81,29.77Zm-2.5,6a2.55,2.55,0,0,1-1.63.46h-2.12V32.59h2.12a2.55,2.55,0,0,1,1.63.46,1.93,1.93,0,0,1,0,2.76Z" transform="translate(-25.13 -28.92)"/><path class="cls-1" d="M204.8,37.66A4.47,4.47,0,0,0,206.34,34a4.34,4.34,0,0,0-1.57-3.5,6.71,6.71,0,0,0-4.43-1.32h-7.87V44.5h4.66V39.18h1.94l3,5.32h5.19l-3.87-6A4.82,4.82,0,0,0,204.8,37.66Zm-7.67-5h2.44a2.44,2.44,0,0,1,1.5.39,1.55,1.55,0,0,1,.5,1.28,1.52,1.52,0,0,1-.5,1.27,2.51,2.51,0,0,1-1.5.38h-2.44Z" transform="translate(-25.13 -28.92)"/><rect class="cls-1" x="188.24" y="0.23" width="4.75" height="15.35"/><polygon class="cls-1" points="210.78 6.89 210.87 9.91 210.84 9.91 209.84 7.84 205.66 0.23 200.47 0.23 200.47 15.59 204.61 15.59 204.61 8.93 204.52 5.91 204.56 5.91 205.54 7.98 209.73 15.59 214.94 15.59 214.94 0.23 210.78 0.23 210.78 6.89"/><path class="cls-1" d="M253.17,33a2.84,2.84,0,0,1,1.67-.47,2.7,2.7,0,0,1,1.62.47,2.55,2.55,0,0,1,.89,1.62L261.77,33a6.39,6.39,0,0,0-2.57-3.09,8.52,8.52,0,0,0-4.39-1,8.72,8.72,0,0,0-4.18.94,6.41,6.41,0,0,0-2.71,2.72,9.06,9.06,0,0,0-.95,4.29,9.46,9.46,0,0,0,.91,4.33,6.16,6.16,0,0,0,2.49,2.65,7.25,7.25,0,0,0,3.6.89,5.63,5.63,0,0,0,3.28-.88,3.92,3.92,0,0,0,1.13-1.2l.18,1.84h3.18V36h-7v3.05h3v.12a2,2,0,0,1-.18.89,1.7,1.7,0,0,1-.55.64,2.76,2.76,0,0,1-.83.39,4.08,4.08,0,0,1-1,.12,3.51,3.51,0,0,1-1.84-.45,2.71,2.71,0,0,1-1.1-1.43,7.37,7.37,0,0,1-.36-2.51,7.7,7.7,0,0,1,.32-2.38A2.88,2.88,0,0,1,253.17,33Z" transform="translate(-25.13 -28.92)"/><path class="cls-1" d="M277.4,35.11l-2.33-.54a5.36,5.36,0,0,1-1.27-.42.68.68,0,0,1-.45-.6.87.87,0,0,1,.2-.55,1.27,1.27,0,0,1,.64-.38,3.7,3.7,0,0,1,1.16-.14,6.4,6.4,0,0,1,2.59.5,8.59,8.59,0,0,1,2.23,1.38l2.07-3.05a8.47,8.47,0,0,0-3-1.8,11.91,11.91,0,0,0-3.89-.59,9.78,9.78,0,0,0-3.74.65,5.26,5.26,0,0,0-2.37,1.81,4.52,4.52,0,0,0-.82,2.68,3.74,3.74,0,0,0,.64,2.29,4.28,4.28,0,0,0,1.71,1.36,11.58,11.58,0,0,0,2.33.77l2.56.58a3.06,3.06,0,0,1,1.14.43.79.79,0,0,1,.3.64.85.85,0,0,1-.19.56,1.27,1.27,0,0,1-.61.36,4.22,4.22,0,0,1-1.11.13,7.81,7.81,0,0,1-2-.28,9.81,9.81,0,0,1-1.93-.76,6.93,6.93,0,0,1-1.53-1.08l-2,3.14a8.22,8.22,0,0,0,2,1.36,11.35,11.35,0,0,0,2.62.87,14.23,14.23,0,0,0,2.94.31,9.43,9.43,0,0,0,3.42-.59,5.18,5.18,0,0,0,2.38-1.74A4.72,4.72,0,0,0,282,39.5a3.62,3.62,0,0,0-1.14-2.82A7.59,7.59,0,0,0,277.4,35.11Z" transform="translate(-25.13 -28.92)"/><path class="cls-1" d="M71.85,72.89V83.38a11.12,11.12,0,0,1-2.77,7.18C67,93,66,94.25,63.93,96.73a11.91,11.91,0,0,1-6.63,4.14c-5.81,1.25-8.7,1.92-14.48,3.35V111c.59,2.26.89,3.38,1.48,5.64-7.7,1.88-11.54,2.91-19.17,5.12.58-2.56.88-3.85,1.46-6.42V74.83c-.58-2.23-.88-3.34-1.46-5.57,10.7-3,21.34-5.65,32.17-8.11a7.71,7.71,0,0,1,6.63,1.4C66,64.21,67,65,69.08,66.73A7.67,7.67,0,0,1,71.85,72.89ZM55.44,80.66a3.64,3.64,0,0,0-.82-2.44l-1.41-1.48A3.83,3.83,0,0,0,49.49,76c-2.67.62-4,.94-6.67,1.6V91.1c2.67-.66,4-1,6.67-1.6a7,7,0,0,0,3.72-2.42c.53-.69.8-1,1.34-1.72a4.81,4.81,0,0,0,.89-2.9Z" transform="translate(-25.13 -28.92)"/><path class="cls-1" d="M85.57,106l-4.81-3.75a6.66,6.66,0,0,1-2.62-5.34V76.52a9.32,9.32,0,0,1,2.62-6.21c1.92-2.1,2.88-3.15,4.81-5.24a10.36,10.36,0,0,1,6.31-3.38c7.06-1,10.61-1.37,17.7-2.06a8.67,8.67,0,0,1,6.34,1.9c1.93,1.64,2.9,2.46,4.83,4.12a7.38,7.38,0,0,1,2.65,5.59V91.62a8.23,8.23,0,0,1-2.65,6c-1.93,1.94-2.9,2.91-4.83,4.87a10.32,10.32,0,0,1-6.34,3c-7.09.69-10.64,1.1-17.7,2.06A7.94,7.94,0,0,1,85.57,106Zm16.17-12a6.81,6.81,0,0,0,3.16-1.25l1.21-.95a3.56,3.56,0,0,0,1.58-2.71V76.53a2.88,2.88,0,0,0-1.58-2.38l-1.21-.7a5.16,5.16,0,0,0-3.16-.62l-2,.23a6.88,6.88,0,0,0-3.16,1.36l-1.2.91a3.74,3.74,0,0,0-1.58,2.83V90.67A2.66,2.66,0,0,0,95.34,93l1.2.67a5.76,5.76,0,0,0,3.16.51Z" transform="translate(-25.13 -28.92)"/><path class="cls-1" d="M178.72,98.27c1.63,2.37,2.45,3.55,4.08,5.93-8.44-.52-12.66-.68-21.11-.81.09-2.07.14-3.11.23-5.17-2.7-4.42-4-6.62-6.74-11-2.54,3.12-3.82,4.68-6.36,7.83v3.15c.61,2.06.91,3.09,1.51,5.16-7.48.06-11.22.17-18.69.54.58-2.1.86-3.15,1.44-5.24V63.12c-.58-2-.86-3.06-1.44-5.1,7.47-.37,11.21-.48,18.69-.54-.6,2.07-.9,3.11-1.51,5.18V76.45c4.57-5.54,6.86-8.28,11.43-13.71.37-2.09.55-3.14.91-5.23,8.69.12,13,.29,21.72.82-2.48,2.4-3.72,3.61-6.2,6-4.24,4.86-6.36,7.31-10.6,12.27C171.14,85.23,173.67,89.55,178.72,98.27Z" transform="translate(-25.13 -28.92)"/><path class="cls-1" d="M228.53,96l-2.85,12.89q-19.26-3-38.72-4.38c.58-2,.86-3,1.44-5.06V63.88c-.58-2.11-.86-3.17-1.44-5.28q18.87,1.34,37.6,4.2l2.1,13.67c-2.13-.88-3.2-1.31-5.33-2.16-6.88-1-10.33-1.44-17.24-2.19V77.3c5.79.62,8.69,1,14.46,1.79,1.53-.15,2.3-.22,3.83-.35v13c-1.53-.59-2.3-.88-3.83-1.45-5.77-.81-8.67-1.17-14.46-1.79V94c7.15.77,10.72,1.23,17.84,2.28C224.57,96.14,225.89,96.07,228.53,96Z" transform="translate(-25.13 -28.92)"/><path class="cls-1" d="M283.65,121.72c-8-2.31-12-3.37-20-5.32-.38-2.52-.58-3.79-1-6.31l-3.93-10.22c-2.73-.63-4.1-.94-6.84-1.52v9.36c.59,2.53.89,3.79,1.49,6.32-7.74-1.69-11.62-2.45-19.41-3.81l1.5-5.73V64L234,57.75c10.9,2,21.61,4.31,32.39,6.85A13.45,13.45,0,0,1,273,69.07c2,2.28,3,3.42,5.09,5.72a11.24,11.24,0,0,1,2.72,7.44v9.44a7,7,0,0,1-2.72,5.91l-3.91,2.31c2.21,5.84,3.32,8.76,5.53,14.63C281.27,117.39,282.06,118.84,283.65,121.72ZM251.92,86c2.68.57,4,.87,6.69,1.49a4.4,4.4,0,0,0,3.71-.7l1.33-1.1a3.19,3.19,0,0,0,.89-2.48v-.75a5.36,5.36,0,0,0-.81-2.83c-.57-.85-.85-1.28-1.41-2.13A6,6,0,0,0,258.61,75c-2.67-.62-4-.92-6.69-1.49Z" transform="translate(-25.13 -28.92)"/><path class="cls-1" d="M93.76,161.9C86,163,82.13,163.57,74.41,165c-.33-2-.49-3.05-.82-5.09l-3.66-7.19c-2.63.5-4,.76-6.57,1.3v7.94c.6,2,.89,2.92,1.49,4.87-7.37,1.49-11,2.31-18.36,4.1.56-2.21.85-3.31,1.41-5.52V129.85c-.56-1.93-.85-2.9-1.41-4.83,10.09-2.51,20.37-4.66,30.62-6.4A8.72,8.72,0,0,1,83.47,120L88.28,123a6.31,6.31,0,0,1,2.63,5.46v8.77a8.54,8.54,0,0,1-2.63,6.15l-3.61,3.55,5.18,10.31C91.42,159.08,92.2,160,93.76,161.9Zm-30.4-19.46c2.5-.52,3.76-.77,6.27-1.25a7.13,7.13,0,0,0,3.51-2l1.35-1.3a3.07,3.07,0,0,0,.82-2.24v-.38a2.48,2.48,0,0,0-.82-1.87l-1.35-1.11a4.34,4.34,0,0,0-3.51-.62c-2.51.48-3.77.73-6.27,1.25Z" transform="translate(-25.13 -28.92)"/><path class="cls-1" d="M105.43,158c-1.93-1.59-2.89-2.37-4.82-3.94A7,7,0,0,1,98,148.6V128.21a8.92,8.92,0,0,1,2.63-6.1c1.93-2,2.89-3,4.82-5a9.94,9.94,0,0,1,6.33-3.14c7.1-.69,10.65-1,17.75-1.38a9,9,0,0,1,6.36,2.15l4.84,4.3a7.68,7.68,0,0,1,2.65,5.69v20.39a7.88,7.88,0,0,1-2.65,5.85l-4.84,4.69a9.94,9.94,0,0,1-6.36,2.8c-7.1.42-10.65.69-17.75,1.38A8.23,8.23,0,0,1,105.43,158Zm16.22-11.41a6.45,6.45,0,0,0,3.18-1.13l1.21-.9a3.38,3.38,0,0,0,1.59-2.65V129.37a3.06,3.06,0,0,0-1.59-2.45l-1.21-.74a5.26,5.26,0,0,0-3.18-.74l-2,.15a6.63,6.63,0,0,0-3.18,1.24l-1.2.86a3.57,3.57,0,0,0-1.59,2.77V143a2.8,2.8,0,0,0,1.59,2.4l1.2.72a5.91,5.91,0,0,0,3.18.63Z" transform="translate(-25.13 -28.92)"/><path class="cls-1" d="M158.28,155.15l-4.85-4.49a7.89,7.89,0,0,1-2.65-5.74V124.53a7.93,7.93,0,0,1,2.65-5.8c1.94-1.81,2.91-2.71,4.85-4.5a8.88,8.88,0,0,1,6.36-2.41c7.11.13,10.67.26,17.78.65a10.13,10.13,0,0,1,6.35,2.87l4.83,4.86a8.7,8.7,0,0,1,2.65,6v20.39a7,7,0,0,1-2.65,5.55c-1.93,1.65-2.9,2.47-4.83,4.14a8.82,8.82,0,0,1-6.35,2.07c-7.11-.39-10.67-.52-17.78-.65A9.17,9.17,0,0,1,158.28,155.15Zm16.27-9.55a6,6,0,0,0,3.18-.76l1.21-.77a2.94,2.94,0,0,0,1.59-2.47V129.08a3.47,3.47,0,0,0-1.59-2.62l-1.21-.88a5.73,5.73,0,0,0-3.18-1.11l-2-.08a5.94,5.94,0,0,0-3.18.88c-.49.28-.73.43-1.21.72a3.1,3.1,0,0,0-1.59,2.58v12.52a3.2,3.2,0,0,0,1.59,2.58l1.21.86a6.42,6.42,0,0,0,3.18,1Z" transform="translate(-25.13 -28.92)"/><path class="cls-1" d="M260.87,164.34c.56,2.2.85,3.3,1.41,5.5-7.15-1.67-10.74-2.44-17.94-3.83l1.42-4.9v-19c-4.36,5.53-6.55,8.32-10.92,14l-2.7-.45c-4.37-7.11-6.56-10.64-10.95-17.65v19c.57,2.15.85,3.22,1.43,5.37-7.25-1-10.88-1.49-18.15-2.25.58-2,.86-3,1.44-5V119.56c-.58-2.13-.86-3.2-1.44-5.33,7.54.79,11.31,1.26,18.82,2.35,4.09,7.25,6.13,10.9,10.2,18.24,4.11-6,6.16-8.92,10.25-14.8,7.44,1.43,11.15,2.22,18.54,4-.56,1.94-.85,2.91-1.41,4.84Z" transform="translate(-25.13 -28.92)"/></svg>