<svg id="Layer_1" data-name="Layer 1" xmlns="http://www.w3.org/2000/svg" viewBox="0 0 94.37 51.82"><defs><style>.cls-1{fill:#fff;}</style></defs><path class="cls-1" d="M7.17,7.09h0a1.45,1.45,0,0,0,.91-.44,1.25,1.25,0,0,0,.29-.84,1.28,1.28,0,0,0-.5-1.11A2.7,2.7,0,0,0,6.31,4.3h-3V9.9H6.49A2.45,2.45,0,0,0,8,9.52a1.29,1.29,0,0,0,.51-1.11,1.23,1.23,0,0,0-.33-.88A1.56,1.56,0,0,0,7.17,7.09ZM5,5.52H6c.43,0,.64.17.64.5s-.21.51-.64.51H5ZM6.58,8.6a.74.74,0,0,1-.49.13H5v-1H6.09a.74.74,0,0,1,.49.13.43.43,0,0,1,.16.37A.45.45,0,0,1,6.58,8.6Z" transform="translate(-2.82 -4.22)"/><path class="cls-1" d="M15,4.56a3.08,3.08,0,0,0-1.5-.34,3.08,3.08,0,0,0-1.5.34,2.37,2.37,0,0,0-1,1,3.25,3.25,0,0,0-.34,1.55,3.27,3.27,0,0,0,.34,1.56,2.37,2.37,0,0,0,1,1,3.48,3.48,0,0,0,3,0,2.35,2.35,0,0,0,1-1,3.39,3.39,0,0,0,.33-1.56A3.38,3.38,0,0,0,16,5.55,2.35,2.35,0,0,0,15,4.56ZM14.43,8a1,1,0,0,1-.34.52,1,1,0,0,1-1.14,0A1,1,0,0,1,12.61,8a2.68,2.68,0,0,1-.12-.87,2.64,2.64,0,0,1,.12-.87A1,1,0,0,1,13,5.71a1,1,0,0,1,1.14,0,1,1,0,0,1,.34.52,3,3,0,0,1,.11.87A3,3,0,0,1,14.43,8Z" transform="translate(-2.82 -4.22)"/><polygon class="cls-1" points="19.79 2.51 19.82 3.62 19.81 3.62 19.45 2.86 17.92 0.09 16.03 0.09 16.03 5.69 17.54 5.69 17.54 3.26 17.5 2.16 17.52 2.16 17.88 2.91 19.41 5.69 21.31 5.69 21.31 0.09 19.79 0.09 19.79 2.51"/><rect class="cls-1" x="24.04" y="0.08" width="1.73" height="5.6"/><polygon class="cls-1" points="28.18 1.38 29.98 1.38 29.98 5.69 31.71 5.69 31.71 1.38 33.49 1.38 33.49 0.09 28.18 0.09 28.18 1.38"/><path class="cls-1" d="M39.38,4.3,37.5,9.9h1.73l.32-1.16h1.71l.31,1.16h1.79l-1.9-5.6Zm.48,3.32.31-1.12.23-.91h0l.24.92L41,7.62Z" transform="translate(-2.82 -4.22)"/><path class="cls-1" d="M51.07,5.57a1.17,1.17,0,0,1,.42-.06,2.44,2.44,0,0,1,.95.19,3.48,3.48,0,0,1,.81.5L54,5.09a3.14,3.14,0,0,0-1.08-.66,4.46,4.46,0,0,0-1.42-.21,3.74,3.74,0,0,0-1.37.23,1.84,1.84,0,0,0-.86.67,1.62,1.62,0,0,0-.3,1,1.42,1.42,0,0,0,.23.84,1.65,1.65,0,0,0,.63.5,5.17,5.17,0,0,0,.84.28l.94.21a1.14,1.14,0,0,1,.41.15.29.29,0,0,1,.12.24.32.32,0,0,1-.07.2.42.42,0,0,1-.23.13,1.45,1.45,0,0,1-.4,0,2.66,2.66,0,0,1-.72-.1A3.39,3.39,0,0,1,50,8.31a2.64,2.64,0,0,1-.56-.39l-.74,1.14a2.67,2.67,0,0,0,.74.5,4,4,0,0,0,1,.32,5.39,5.39,0,0,0,1.07.11,3.49,3.49,0,0,0,1.25-.21,1.91,1.91,0,0,0,.87-.64,1.73,1.73,0,0,0,.32-1.06,1.31,1.31,0,0,0-.42-1,2.85,2.85,0,0,0-1.26-.58l-.85-.19a2.75,2.75,0,0,1-.46-.15c-.11-.06-.17-.13-.17-.22a.29.29,0,0,1,.07-.2A.46.46,0,0,1,51.07,5.57Z" transform="translate(-2.82 -4.22)"/><path class="cls-1" d="M60.38,4.53a3,3,0,0,0-1.23-.23H56.36V9.9H58.1V8.16h1a3,3,0,0,0,1.23-.23,1.76,1.76,0,0,0,.77-.65,2,2,0,0,0,.27-1,1.93,1.93,0,0,0-.27-1.05A1.7,1.7,0,0,0,60.38,4.53Zm-.92,2.2a.94.94,0,0,1-.59.17H58.1V5.56h.77a.94.94,0,0,1,.59.16.61.61,0,0,1,.22.51A.61.61,0,0,1,59.46,6.73Z" transform="translate(-2.82 -4.22)"/><path class="cls-1" d="M68.4,7.41A1.63,1.63,0,0,0,69,6.06a1.59,1.59,0,0,0-.57-1.28,2.45,2.45,0,0,0-1.62-.48H63.9V9.9h1.7V8h.71L67.39,9.9h1.9L67.87,7.69A1.78,1.78,0,0,0,68.4,7.41ZM65.6,5.57h.89a.84.84,0,0,1,.55.14.57.57,0,0,1,.18.47.55.55,0,0,1-.18.46.91.91,0,0,1-.55.14H65.6Z" transform="translate(-2.82 -4.22)"/><rect class="cls-1" x="68.71" y="0.08" width="1.73" height="5.6"/><polygon class="cls-1" points="76.94 2.51 76.97 3.62 76.96 3.62 76.6 2.86 75.07 0.09 73.18 0.09 73.18 5.69 74.69 5.69 74.69 3.26 74.65 2.16 74.67 2.16 75.03 2.91 76.56 5.69 78.46 5.69 78.46 0.09 76.94 0.09 76.94 2.51"/><path class="cls-1" d="M86.06,5.71a1,1,0,0,1,.61-.17,1,1,0,0,1,.59.17.92.92,0,0,1,.32.59l1.62-.6a2.37,2.37,0,0,0-.94-1.13,3.14,3.14,0,0,0-1.6-.35,3.2,3.2,0,0,0-1.53.34,2.36,2.36,0,0,0-1,1,3.34,3.34,0,0,0-.34,1.57,3.45,3.45,0,0,0,.33,1.58,2.25,2.25,0,0,0,.91,1,2.67,2.67,0,0,0,1.31.32,2.1,2.1,0,0,0,1.2-.32A1.56,1.56,0,0,0,88,9.23L88,9.9h1.16V6.81H86.62V7.92h1.11V8a.72.72,0,0,1-.07.33.63.63,0,0,1-.2.23,1,1,0,0,1-.3.14,1.44,1.44,0,0,1-.37.05,1.32,1.32,0,0,1-.68-.17,1,1,0,0,1-.4-.52,2.64,2.64,0,0,1-.13-.92,2.66,2.66,0,0,1,.12-.86A1,1,0,0,1,86.06,5.71Z" transform="translate(-2.82 -4.22)"/><path class="cls-1" d="M94.9,6.47l-.85-.19a3.11,3.11,0,0,1-.46-.15c-.11-.06-.17-.13-.17-.22a.3.3,0,0,1,.08-.2.43.43,0,0,1,.23-.14,1.27,1.27,0,0,1,.43-.06,2.39,2.39,0,0,1,.94.19,3.11,3.11,0,0,1,.81.5l.76-1.11a3.19,3.19,0,0,0-1.09-.66,4.38,4.38,0,0,0-1.42-.21,3.68,3.68,0,0,0-1.36.23,1.93,1.93,0,0,0-.87.67,1.62,1.62,0,0,0-.3,1,1.35,1.35,0,0,0,.24.84,1.55,1.55,0,0,0,.62.5,5,5,0,0,0,.85.28l.93.21a1.13,1.13,0,0,1,.42.15.3.3,0,0,1,.11.24.27.27,0,0,1-.07.2.39.39,0,0,1-.22.13,1.53,1.53,0,0,1-.41,0,2.66,2.66,0,0,1-.72-.1,3.3,3.3,0,0,1-.7-.28,2.41,2.41,0,0,1-.56-.39l-.75,1.14a2.89,2.89,0,0,0,.75.5,3.93,3.93,0,0,0,.95.32,5.49,5.49,0,0,0,1.08.11,3.43,3.43,0,0,0,1.24-.21,1.91,1.91,0,0,0,.87-.64,1.67,1.67,0,0,0,.32-1.06,1.33,1.33,0,0,0-.41-1A2.84,2.84,0,0,0,94.9,6.47Z" transform="translate(-2.82 -4.22)"/><path class="cls-1" d="M19.87,20.27V24.1a4,4,0,0,1-1,2.62c-.75.89-1.13,1.34-1.88,2.25a4.39,4.39,0,0,1-2.42,1.51c-2.12.45-3.18.7-5.28,1.22v2.46c.21.83.32,1.24.54,2.06-2.81.69-4.22,1.06-7,1.87.21-.94.32-1.4.53-2.34V21l-.53-2c3.9-1.08,7.79-2.06,11.74-3a2.82,2.82,0,0,1,2.42.51L18.86,18A2.79,2.79,0,0,1,19.87,20.27Zm-6,2.83a1.32,1.32,0,0,0-.3-.89l-.51-.54a1.4,1.4,0,0,0-1.36-.27L9.28,22v4.92l2.43-.58a2.58,2.58,0,0,0,1.36-.88c.19-.26.29-.38.49-.63a1.76,1.76,0,0,0,.32-1.06Z" transform="translate(-2.82 -4.22)"/><path class="cls-1" d="M24.88,32.35,23.13,31a2.43,2.43,0,0,1-1-1.95V21.59a3.35,3.35,0,0,1,1-2.26l1.75-1.92a3.79,3.79,0,0,1,2.3-1.23c2.58-.35,3.88-.5,6.46-.75a3.14,3.14,0,0,1,2.32.69l1.76,1.5a2.69,2.69,0,0,1,1,2V27.1a3,3,0,0,1-1,2.18C37,30,36.66,30.34,36,31.06a3.83,3.83,0,0,1-2.32,1.11c-2.58.25-3.88.4-6.46.75A2.91,2.91,0,0,1,24.88,32.35ZM30.78,28a2.45,2.45,0,0,0,1.16-.46l.44-.35a1.3,1.3,0,0,0,.58-1V21.6a1.07,1.07,0,0,0-.58-.88l-.44-.25a1.93,1.93,0,0,0-1.16-.23l-.74.09a2.28,2.28,0,0,0-1.15.5c-.18.13-.27.19-.44.33a1.35,1.35,0,0,0-.58,1v4.57a1,1,0,0,0,.58.85l.44.25A2.06,2.06,0,0,0,30,28Z" transform="translate(-2.82 -4.22)"/><path class="cls-1" d="M58.88,29.53c.6.86.9,1.3,1.49,2.17-3.08-.19-4.62-.25-7.7-.3,0-.76,0-1.13.08-1.89-1-1.61-1.48-2.42-2.46-4-.93,1.13-1.39,1.7-2.32,2.85V29.5l.55,1.88c-2.73,0-4.09.07-6.82.2.21-.76.31-1.15.52-1.91v-13c-.21-.75-.31-1.12-.52-1.86,2.73-.14,4.09-.18,6.82-.2L48,16.53v5c1.67-2,2.5-3,4.17-5,.13-.76.2-1.14.33-1.91,3.18,0,4.76.11,7.93.3l-2.26,2.2c-1.55,1.78-2.32,2.68-3.87,4.49C56.12,24.77,57,26.35,58.88,29.53Z" transform="translate(-2.82 -4.22)"/><path class="cls-1" d="M77.07,28.69c-.42,1.88-.63,2.82-1,4.7q-7-1.1-14.14-1.59c.21-.74.32-1.11.52-1.85V17c-.2-.77-.31-1.16-.52-1.93q6.89.5,13.72,1.53c.31,2,.46,3,.77,5l-1.94-.78c-2.52-.37-3.77-.53-6.29-.8v1.88c2.11.23,3.16.36,5.27.66l1.4-.13v4.76l-1.4-.53c-2.11-.29-3.16-.42-5.27-.65v2c2.6.28,3.91.44,6.5.83C75.62,28.75,76.1,28.73,77.07,28.69Z" transform="translate(-2.82 -4.22)"/><path class="cls-1" d="M97.18,38.09c-2.9-.84-4.36-1.23-7.29-1.94-.15-.92-.22-1.38-.36-2.3-.57-1.5-.86-2.24-1.43-3.73-1-.24-1.5-.35-2.5-.56V33l.55,2.3c-2.83-.61-4.25-.89-7.09-1.39l.55-2.09V17l-.55-2.29c4,.75,7.89,1.57,11.83,2.5a4.93,4.93,0,0,1,2.4,1.63L95.14,21a4.09,4.09,0,0,1,1,2.71v3.45a2.57,2.57,0,0,1-1,2.16l-1.42.84c.8,2.13,1.21,3.2,2,5.34ZM85.6,25c1,.21,1.47.32,2.44.55a1.61,1.61,0,0,0,1.36-.26l.49-.4a1.17,1.17,0,0,0,.32-.91v-.27a1.9,1.9,0,0,0-.3-1l-.51-.78A2.21,2.21,0,0,0,88,21.05c-1-.23-1.46-.34-2.44-.55Z" transform="translate(-2.82 -4.22)"/><path class="cls-1" d="M27.87,52.76c-2.83.38-4.24.61-7.06,1.12L20.51,52l-1.34-2.63c-1,.18-1.44.28-2.4.48v2.9l.55,1.77c-2.69.55-4,.84-6.7,1.5.2-.81.3-1.21.51-2v-13c-.21-.71-.31-1.06-.51-1.77,3.68-.91,7.43-1.69,11.17-2.33a3.22,3.22,0,0,1,2.33.51l1.75,1.07a2.32,2.32,0,0,1,1,2v3.2a3.09,3.09,0,0,1-1,2.24l-1.32,1.3c.76,1.5,1.14,2.25,1.89,3.76Zm-11.1-7.11,2.29-.45a2.61,2.61,0,0,0,1.28-.73l.49-.48a1.1,1.1,0,0,0,.31-.82V43a.92.92,0,0,0-.31-.69l-.49-.4a1.59,1.59,0,0,0-1.28-.23l-2.29.46Z" transform="translate(-2.82 -4.22)"/><path class="cls-1" d="M32.13,51.33l-1.76-1.44a2.55,2.55,0,0,1-1-2V40.46a3.29,3.29,0,0,1,1-2.23l1.76-1.84a3.66,3.66,0,0,1,2.31-1.15c2.59-.25,3.89-.35,6.48-.5a3.29,3.29,0,0,1,2.32.78L45,37.1a2.78,2.78,0,0,1,1,2.07v7.44a2.9,2.9,0,0,1-1,2.14l-1.77,1.71a3.53,3.53,0,0,1-2.32,1c-2.59.16-3.89.26-6.48.51A3,3,0,0,1,32.13,51.33Zm5.92-4.17a2.37,2.37,0,0,0,1.16-.41l.44-.33a1.22,1.22,0,0,0,.58-1V40.88a1.12,1.12,0,0,0-.58-.89l-.44-.27a1.87,1.87,0,0,0-1.16-.27l-.74,0a2.41,2.41,0,0,0-1.16.46l-.44.31a1.3,1.3,0,0,0-.58,1v4.57a1,1,0,0,0,.58.88l.44.26a2.14,2.14,0,0,0,1.16.23Z" transform="translate(-2.82 -4.22)"/><path class="cls-1" d="M51.42,50.29l-1.77-1.64a2.86,2.86,0,0,1-1-2.09V39.12a2.89,2.89,0,0,1,1-2.12l1.77-1.64a3.2,3.2,0,0,1,2.32-.88c2.6,0,3.9.09,6.49.23a3.72,3.72,0,0,1,2.32,1l1.77,1.78a3.18,3.18,0,0,1,1,2.18v7.45a2.52,2.52,0,0,1-1,2L62.55,50.7a3.23,3.23,0,0,1-2.32.76c-2.59-.15-3.89-.19-6.49-.24A3.36,3.36,0,0,1,51.42,50.29Zm5.94-3.48a2.12,2.12,0,0,0,1.16-.28l.44-.28a1.08,1.08,0,0,0,.58-.9V40.78a1.26,1.26,0,0,0-.58-1l-.44-.32a2.11,2.11,0,0,0-1.16-.41l-.75,0a2.1,2.1,0,0,0-1.16.32l-.44.26a1.14,1.14,0,0,0-.58.94v4.57a1.17,1.17,0,0,0,.58.94l.44.32a2.45,2.45,0,0,0,1.16.36Z" transform="translate(-2.82 -4.22)"/><path class="cls-1" d="M88.87,53.65c.21.8.31,1.2.51,2-2.61-.62-3.92-.9-6.55-1.4.21-.72.32-1.08.52-1.79V45.55c-1.59,2-2.39,3-4,5.09l-1-.16c-1.59-2.6-2.39-3.89-4-6.44V51l.53,2c-2.65-.38-4-.54-6.63-.82l.53-1.83v-13c-.21-.78-.32-1.17-.53-1.94,2.76.28,4.13.46,6.87.85,1.49,2.65,2.24,4,3.73,6.66,1.49-2.17,2.24-3.25,3.74-5.4,2.71.52,4.07.81,6.76,1.44-.2.71-.3,1.06-.51,1.77Z" transform="translate(-2.82 -4.22)"/></svg>