<svg id="Layer_1" data-name="Layer 1" xmlns="http://www.w3.org/2000/svg" xmlns:xlink="http://www.w3.org/1999/xlink" viewBox="0 0 155.85 146.02"><defs><style>.cls-1{fill:none;}.cls-2{fill:url(#radial-gradient);}.cls-3{fill:url(#radial-gradient-2);}.cls-4{fill:url(#linear-gradient);}.cls-5{fill:url(#linear-gradient-2);}.cls-6{fill:url(#linear-gradient-3);}.cls-7{fill:url(#linear-gradient-4);}.cls-8{fill:url(#linear-gradient-5);}.cls-9{fill:url(#linear-gradient-6);}.cls-10{fill:url(#linear-gradient-7);}.cls-11{fill:url(#linear-gradient-8);}.cls-12{fill:#15fbff;}.cls-13{fill:url(#linear-gradient-9);}.cls-14{fill:url(#linear-gradient-10);}.cls-15{fill:url(#linear-gradient-11);}.cls-16{fill:url(#linear-gradient-12);}.cls-17{fill:url(#radial-gradient-3);}.cls-18,.cls-19{fill:#161821;stroke:#e8e8e8;stroke-miterlimit:10;}.cls-19{stroke-width:0.5px;}.cls-20{clip-path:url(#clip-path);}.cls-21{fill:url(#linear-gradient-13);}.cls-22{fill:url(#linear-gradient-14);}</style><radialGradient id="radial-gradient" cx="63.7" cy="17.99" r="70.63" gradientTransform="matrix(0.01, -1, 0.68, 0.01, 50.91, 81.58)" gradientUnits="userSpaceOnUse"><stop offset="0.01" stop-color="#15fbff"/><stop offset="0.02" stop-color="#15fbff" stop-opacity="0.97"/><stop offset="0.18" stop-color="#15fbff" stop-opacity="0.72"/><stop offset="0.33" stop-color="#15fbff" stop-opacity="0.5"/><stop offset="0.47" stop-color="#15fbff" stop-opacity="0.32"/><stop offset="0.61" stop-color="#15fbff" stop-opacity="0.18"/><stop offset="0.74" stop-color="#15fbff" stop-opacity="0.08"/><stop offset="0.85" stop-color="#15fbff" stop-opacity="0.02"/><stop offset="0.95" stop-color="#15fbff" stop-opacity="0"/></radialGradient><radialGradient id="radial-gradient-2" cx="40.71" cy="-23.86" r="75.02" gradientTransform="translate(23.67 41.06) scale(0.98 0.93)" gradientUnits="userSpaceOnUse"><stop offset="0.11" stop-color="#15fbff"/><stop offset="0.63" stop-color="#15fbff" stop-opacity="0.34"/><stop offset="0.91" stop-color="#15fbff" stop-opacity="0"/></radialGradient><linearGradient id="linear-gradient" x1="141.45" y1="102.97" x2="149.48" y2="93.24" gradientUnits="userSpaceOnUse"><stop offset="0" stop-color="#24214a"/><stop offset="0.11" stop-color="#24264e"/><stop offset="0.24" stop-color="#23365b"/><stop offset="0.39" stop-color="#214f70"/><stop offset="0.55" stop-color="#1e728e"/><stop offset="0.72" stop-color="#1ba0b3"/><stop offset="0.89" stop-color="#18d7e1"/><stop offset="0.99" stop-color="#15fbff"/></linearGradient><linearGradient id="linear-gradient-2" x1="133.1" y1="131.77" x2="133.1" y2="117.53" xlink:href="#linear-gradient"/><linearGradient id="linear-gradient-3" x1="8.67" y1="104.01" x2="8.67" y2="91.4" xlink:href="#linear-gradient"/><linearGradient id="linear-gradient-4" x1="22.78" y1="132.51" x2="22.78" y2="118.13" xlink:href="#linear-gradient"/><linearGradient id="linear-gradient-5" x1="8.53" y1="17.99" x2="118.88" y2="17.99" gradientUnits="userSpaceOnUse"><stop offset="0.01" stop-color="#b9b9b9"/><stop offset="0.25" stop-color="#fff"/><stop offset="0.33" stop-color="#eee"/><stop offset="0.47" stop-color="#c1c1c1"/><stop offset="0.6" stop-color="#979797"/><stop offset="0.86" stop-color="#f3f3f3"/><stop offset="0.87" stop-color="#f6f6f6"/><stop offset="1" stop-color="#fff"/></linearGradient><linearGradient id="linear-gradient-6" x1="63.28" y1="8.73" x2="63.28" y2="-9.55" gradientUnits="userSpaceOnUse"><stop offset="0.23" stop-color="#24214a"/><stop offset="0.31" stop-color="#24264e"/><stop offset="0.42" stop-color="#23365b"/><stop offset="0.53" stop-color="#214f70"/><stop offset="0.66" stop-color="#1e728e"/><stop offset="0.79" stop-color="#1ba0b3"/><stop offset="0.92" stop-color="#18d7e1"/><stop offset="1" stop-color="#15fbff"/></linearGradient><linearGradient id="linear-gradient-7" x1="-10.34" y1="-11.99" x2="136.91" y2="-11.99" xlink:href="#linear-gradient-5"/><linearGradient id="linear-gradient-8" x1="63.71" y1="69.11" x2="63.71" y2="-4.14" xlink:href="#linear-gradient-5"/><linearGradient id="linear-gradient-9" x1="23.2" y1="-28.05" x2="23.2" y2="-47.8" xlink:href="#linear-gradient-5"/><linearGradient id="linear-gradient-10" x1="104.39" y1="-28.36" x2="104.39" y2="-47.8" xlink:href="#linear-gradient-5"/><linearGradient id="linear-gradient-11" x1="97.78" y1="83.01" x2="97.78" y2="70.02" xlink:href="#linear-gradient-5"/><linearGradient id="linear-gradient-12" x1="29.04" y1="82.88" x2="29.04" y2="70.38" xlink:href="#linear-gradient-5"/><radialGradient id="radial-gradient-3" cx="-223.29" cy="18.04" r="56.36" gradientTransform="translate(247.73 -2.51) scale(0.83 1.1)" gradientUnits="userSpaceOnUse"><stop offset="0.01" stop-color="#15fbff"/><stop offset="0.02" stop-color="#15fbff" stop-opacity="0.97"/><stop offset="0.17" stop-color="#15fbff" stop-opacity="0.72"/><stop offset="0.31" stop-color="#15fbff" stop-opacity="0.5"/><stop offset="0.45" stop-color="#15fbff" stop-opacity="0.32"/><stop offset="0.58" stop-color="#15fbff" stop-opacity="0.18"/><stop offset="0.7" stop-color="#15fbff" stop-opacity="0.08"/><stop offset="0.82" stop-color="#15fbff" stop-opacity="0.02"/><stop offset="0.91" stop-color="#15fbff" stop-opacity="0"/></radialGradient><clipPath id="clip-path" transform="translate(14.22 55.02)"><path class="cls-1" d="M.69,25.67c3.18-.88,4.78-1.29,8-2.05a6.84,6.84,0,0,0,3.66-2.38c1.14-1.4,1.71-2.09,2.85-3.47a6.3,6.3,0,0,0,1.53-4V8a4.18,4.18,0,0,0-1.53-3.38L12.33,2.35a4.15,4.15,0,0,0-3.66-.69C2.72,3.05-3.25,4.73-9.06,6.65c.33,1.22.49,1.83.81,3V32.07c-.32,1.43-.48,2.15-.81,3.58,4.2-1.37,6.32-2,10.56-3.16C1.18,31.26,1,30.64.69,29.4ZM.69,11c1.47-.41,2.2-.61,3.68-1a2.07,2.07,0,0,1,2,.35l.78.8a2,2,0,0,1,.45,1.34v1a2.7,2.7,0,0,1-.49,1.62l-.74,1a4,4,0,0,1-2,1.39c-1.48.38-2.21.58-3.68,1ZM21.63,24.1l2.65,2a4.39,4.39,0,0,0,3.49.81c3.91-.59,5.87-.85,9.8-1.27A5.77,5.77,0,0,0,41.08,24l2.68-2.72a4.58,4.58,0,0,0,1.46-3.3V6.66a4.05,4.05,0,0,0-1.46-3.08c-1.07-.91-1.61-1.36-2.68-2.25a4.77,4.77,0,0,0-3.51-1c-3.93.43-5.89.68-9.8,1.27a5.9,5.9,0,0,0-3.49,1.93L21.63,6.45a5.24,5.24,0,0,0-1.45,3.46V21.18A3.62,3.62,0,0,0,21.63,24.1Zm7.18-13.43a2.13,2.13,0,0,1,.88-1.58l.66-.51A3.89,3.89,0,0,1,32.1,7.8l1.13-.14A2.81,2.81,0,0,1,35,8l.67.38a1.57,1.57,0,0,1,.88,1.31v6.92a2,2,0,0,1-.88,1.51l-.67.53a3.77,3.77,0,0,1-1.75.71l-1.13.15a3.2,3.2,0,0,1-1.75-.26l-.66-.36a1.46,1.46,0,0,1-.88-1.28ZM59.3,21.49c.34,1.14.51,1.71.84,2.85-4.14,0-6.21.11-10.35.34.31-1.16.47-1.74.79-2.9V2.14C50.26,1,50.1.45,49.79-.68,53.93-.91,56-1,60.14-1c-.33,1.14-.5,1.72-.84,2.87V9.48c2.54-3.07,3.8-4.58,6.34-7.58L66.14-1c4.82.08,7.22.18,12,.51-1.37,1.31-2.06,2-3.43,3.31-2.35,2.67-3.52,4-5.87,6.76,2.8,4.75,4.2,7.15,7,12l2.26,3.29c-4.67-.32-7-.42-11.69-.5,0-1.14.07-1.72.12-2.86-1.49-2.44-2.24-3.66-3.73-6.08-1.41,1.72-2.12,2.58-3.53,4.32ZM81.23,2.6l-.8-2.92c7,.66,13.85,1.51,20.81,2.58.46,3,.69,4.55,1.16,7.58-1.18-.51-1.77-.75-3-1.24-3.8-.62-5.71-.89-9.53-1.35v2.86c3.2.38,4.8.6,8,1.1l2.12-.16v7.21c-.84-.34-1.27-.5-2.12-.83-3.19-.5-4.79-.72-8-1.11v3c4,.47,5.93.75,9.86,1.4,1.47-.06,2.2-.08,3.66-.12l-1.58,7.1c-7.17-1.12-14.21-2-21.43-2.69l.8-2.8Zm26.05,22.82-.82,3.15c4.3.84,6.44,1.31,10.71,2.35l-.82-3.52V22.23c1.51.36,2.27.55,3.77.93l2.17,5.71c.21,1.4.32,2.1.53,3.5,4.43,1.2,6.63,1.86,11,3.28-.87-1.63-1.31-2.44-2.18-4-1.22-3.29-1.83-4.92-3-8.19l2.15-1.21A3.76,3.76,0,0,0,132.25,19V13.76a6.39,6.39,0,0,0-1.49-4.15c-1.12-1.31-1.68-2-2.8-3.25a7.7,7.7,0,0,0-3.63-2.58C118.46,2.13,112.45.71,106.46-.43c.33,1.39.49,2.09.82,3.48Zm9.07-16.91c1.48.36,2.22.54,3.69.92a3.41,3.41,0,0,1,2,1.41l.77,1.2a3,3,0,0,1,.45,1.57V14a1.7,1.7,0,0,1-.49,1.35l-.73.59a2.39,2.39,0,0,1-2,.34c-1.47-.38-2.21-.57-3.69-.92ZM25.11,48.91l2-2a4.79,4.79,0,0,0,1.46-3.43V38.64a3.43,3.43,0,0,0-1.46-3l-2.65-1.57a4.84,4.84,0,0,0-3.52-.72c-6.8,1.32-10.19,2.11-16.9,3.94l.78,2.65V59.58L4,62.65c4-1.1,6.06-1.61,10.13-2.52-.33-1.07-.49-1.61-.82-2.67v-4.4c1.45-.33,2.17-.49,3.62-.8l2,3.93L19.44,59c4.27-.85,6.41-1.23,10.7-1.88L28,54.56C26.83,52.29,26.26,51.16,25.11,48.91Zm-5.17-6.12A1.76,1.76,0,0,1,19.48,44l-.74.73a4.09,4.09,0,0,1-1.94,1.15c-1.39.29-2.08.45-3.46.76V41.42c1.38-.32,2.07-.47,3.46-.76a2.34,2.34,0,0,1,1.94.3l.74.59a1.36,1.36,0,0,1,.46,1Zm36.19-9.64-2.68-2.37a5,5,0,0,0-3.52-1.16c-3.94.25-5.91.42-9.83.85a5.56,5.56,0,0,0-3.51,1.77l-2.67,2.83a5,5,0,0,0-1.45,3.39V49.73a3.82,3.82,0,0,0,1.45,3l2.67,2.14a4.55,4.55,0,0,0,3.51,1C44,55.4,46,55.23,49.93,55a5.48,5.48,0,0,0,3.52-1.57l2.68-2.6a4.37,4.37,0,0,0,1.47-3.24V36.29A4.25,4.25,0,0,0,56.13,33.15Zm-7.25,12.7A1.89,1.89,0,0,1,48,47.32l-.67.5a3.65,3.65,0,0,1-1.76.64l-1.12.1a3.18,3.18,0,0,1-1.76-.34L42,47.83a1.51,1.51,0,0,1-.88-1.32V39.6A2,2,0,0,1,42,38.06l.67-.48a3.67,3.67,0,0,1,1.76-.71l1.12-.09a2.86,2.86,0,0,1,1.76.4l.67.4a1.68,1.68,0,0,1,.88,1.35ZM82.75,31.19a5.61,5.61,0,0,0-3.52-1.62c-3.93-.24-5.9-.32-9.85-.4a4.93,4.93,0,0,0-3.52,1.33L63.17,33a4.37,4.37,0,0,0-1.46,3.21V47.47a4.33,4.33,0,0,0,1.46,3.17l2.69,2.48a5.08,5.08,0,0,0,3.52,1.41c4,.08,5.92.16,9.85.4a4.92,4.92,0,0,0,3.52-1.12c1.07-.91,1.61-1.37,2.68-2.26a3.82,3.82,0,0,0,1.46-3.06V37.22a4.82,4.82,0,0,0-1.46-3.32C84.36,32.81,83.82,32.26,82.75,31.19ZM78.19,45.67A1.62,1.62,0,0,1,77.31,47l-.67.42a3.35,3.35,0,0,1-1.76.42l-1.14,0A3.57,3.57,0,0,1,72,47.26l-.67-.47a1.78,1.78,0,0,1-.88-1.44V38.44A1.73,1.73,0,0,1,71.31,37l.67-.4a3.3,3.3,0,0,1,1.76-.47l1.14,0a3.34,3.34,0,0,1,1.76.62l.67.49a2,2,0,0,1,.88,1.46Zm44.42-6.37V58.94c.31,1.23.47,1.84.78,3.06-3.94-1-5.93-1.5-9.9-2.35.31-1.08.47-1.62.78-2.69V46.48c-2.41,3-3.61,4.52-6,7.59l-1.49-.28c-2.42-4-3.63-5.95-6.06-9.86V54.41c.32,1.2.48,1.79.79,3-4-.64-6-.92-10-1.39l.8-2.76V33.61l-.8-2.95c4.18.48,6.26.77,10.42,1.44,2.26,4,3.38,6.08,5.64,10.18,2.27-3.25,3.4-4.86,5.66-8.06,4.11.88,6.15,1.36,10.23,2.43Z"/></clipPath><linearGradient id="linear-gradient-13" x1="61.12" y1="-11.05" x2="61.12" y2="13.21" gradientUnits="userSpaceOnUse"><stop offset="0.01" stop-color="#15fbff"/><stop offset="0.18" stop-color="#15fbff" stop-opacity="0.79"/><stop offset="0.54" stop-color="#15fbff" stop-opacity="0.37"/><stop offset="0.79" stop-color="#15fbff" stop-opacity="0.1"/><stop offset="0.91" stop-color="#15fbff" stop-opacity="0"/></linearGradient><linearGradient id="linear-gradient-14" x1="61.12" y1="27.87" x2="61.12" y2="44.5" gradientUnits="userSpaceOnUse"><stop offset="0" stop-color="#15fbff"/><stop offset="0" stop-color="#15fbff" stop-opacity="0.99"/><stop offset="0.08" stop-color="#15fbff" stop-opacity="0.79"/><stop offset="0.15" stop-color="#15fbff" stop-opacity="0.6"/><stop offset="0.24" stop-color="#15fbff" stop-opacity="0.44"/><stop offset="0.32" stop-color="#15fbff" stop-opacity="0.31"/><stop offset="0.41" stop-color="#15fbff" stop-opacity="0.19"/><stop offset="0.51" stop-color="#15fbff" stop-opacity="0.11"/><stop offset="0.61" stop-color="#15fbff" stop-opacity="0.05"/><stop offset="0.73" stop-color="#15fbff" stop-opacity="0.01"/><stop offset="0.91" stop-color="#15fbff" stop-opacity="0"/></linearGradient></defs><path class="cls-2" d="M107.9,82.45l-5.4-5.6,6.19-5.54.1-1.38-5.33-5.67,6.13-5.61.06-.85-6.59,6-5.73-6.1L104,51.48l5.66,6.18.06-.89L104.47,51l6.06-5.68.06-.9-6.53,6.13-5.87-6.42L105,37.58l5.6,6.28.06-.94-5.17-5.81,6-5.74.07-.95-6.48,6.22-6-6.76,7.05-6.94,5.52,6.38.07-1-5.09-5.88,5.91-5.81.07-1L106.22,22l-6.16-7.13,7.25-7.32L112.75,14l.08-1-5-5.95,5.83-5.88.08-1-6.35,6.4-6.32-7.53,7.47-7.73,5.36,6.57L114-3.35l-4.9-6,5.74-6,.08-1.11-6.27,6.5-6.49-8,7.71-8.18,5.26,6.67.09-1.17-4.8-6.09,5.65-6,.09-1.18-6.21,6.6-6.65-8.44,7.94-8.68,5.18,6.76.09-1.24L111.79-45l5.28-5.76a4.47,4.47,0,0,0-.31-.82l-5.44,6-5.93-7.76h-1.06L110.75-45l-8,8.69L95.94-45l7.47-8.39h-1.06l-6.9,7.76-6.13-7.76H88.26L94.89-45l-7.73,8.69L80.08-45l7.27-8.39H86.29l-6.71,7.76-6.32-7.76H72.2L79-45l-7.52,8.69L64.23-45l7-8.39H70.22l-6.51,7.76-6.52-7.76H56.13l7,8.39-7.29,8.69L48.37-45l6.85-8.39H54.16l-6.33,7.76-6.71-7.76H40.06L47.33-45l-7.08,8.69L32.52-45l6.63-8.39H38.09L32-45.61l-6.9-7.76H24L31.47-45l-6.86,8.69L16.66-45l6.42-8.39H22l-5.93,7.76-5.44-6a4.47,4.47,0,0,0-.31.82L15.61-45l-4.69,6.14L11-37.6l5.17-6.76,8,8.68-6.66,8.44-6.21-6.6.09,1.18,5.65,6-4.8,6.09.09,1.17,5.26-6.67,7.71,8.18-6.49,8-6.27-6.5.08,1.11,5.74,6-4.9,6,.08,1.1,5.36-6.57,7.47,7.73L20,6.45,13.67,0l.08,1.06L19.58,7l-5,5.95.08,1L20.1,7.5l7.25,7.32L21.19,22l-6.41-6.31.07,1,5.91,5.81-5.09,5.88.07,1,5.52-6.38,7,6.94-6,6.76-6.48-6.22.07.95,6,5.74-5.17,5.81.06.94,5.6-6.28,6.85,6.58-5.87,6.42-6.53-6.13.06.9L22.94,51l-5.25,5.74.06.89,5.66-6.18,6.67,6.25-5.73,6.1-6.59-6,.06.85L24,64.26l-5.33,5.67.1,1.38,6.19,5.54-5.4,5.6.06.93,6.25,5.47-.49.49h.82l.11-.1.13.1h.82l-.56-.49,5.48-5.53,6.18,5.53-.5.49h.82l.11-.1.12.1h.83l-.55-.49,5.62-5.53,6,5.53-.51.49h.82l.11-.1.12.1h.83l-.54-.49,5.76-5.53,5.9,5.53-.52.49h.82l.12-.1.11.1h.82l-.52-.49L70,83.32l5.76,5.53-.54.49h.83l.12-.1.11.1h.82l-.51-.49,6-5.53,5.62,5.53-.55.49h.83l.12-.1.11.1h.82l-.5-.49,6.18-5.53,5.48,5.53-.56.49H101l.13-.1.1.1h.83l-.49-.49,6.25-5.47Zm.7-11.82-6.49,5.82L96.5,70.63l6.5-5.94Zm-76.84,0,5.75-5.94,6.34,5.94L38.1,76.45Zm5.94,6.22-5.62,5.68-6.33-5.68,5.61-5.8ZM70.51,44.62,76.7,51l-6.35,6.26L64.15,51Zm-6.8,6-6.36-6.42,6.36-6.58,6.35,6.58ZM71,44.16l6.52-6.58,6.2,6.58-6.52,6.42Zm-.44-.46-6.36-6.59,6.53-6.75L77,37.11Zm-6.81-7.06-6.53-6.76,6.53-6.94,6.52,6.94Zm7.44-6.76,6.7-6.94,6.35,6.94-6.69,6.76Zm-.45-.49-6.53-6.94,6.7-7.12,6.53,7.12Zm-7-7.44L57,14.82,63.71,7.5l6.7,7.32Zm7.64-7.13L78.24,7.5l6.52,7.32L77.88,22Zm-.46-.51L64.19,7,71.07-.54,77.77,7Zm.68-15.39,7.08-7.73,6.7,7.73L78.27,6.45Zm-.48-.54L64.2-9.36l7.09-8,6.88,8Zm-.5.54L63.71,6.45,56.82-1.08,63.7-8.81ZM56.32-1.62,49.24-9.36l6.88-8,7.09,8Zm-.48.54-6.7,7.53L42.06-1.08l6.7-7.73Zm.5.54L63.23,7l-6.71,7.33L49.64,7Zm-.28,15.36L49.53,22l-6.88-7.13L49.17,7.5Zm.48.51,6.7,7.12-6.53,6.94L50,22.45Zm-.28,14.55L49.9,36.64l-6.69-6.76,6.35-6.94Zm.46.48,6.53,6.75L56.89,43.7l-6.52-6.59Zm-.27,13.8-6.2,6.42-6.52-6.42,6.2-6.58Zm.45.46L63.26,51l-6.2,6.26L50.71,51Zm-.27,13.11-6,6.1-6.36-6.1,6-6.25Zm.44.43,6.2,6.1-6,6-6.2-6Zm.44-.43,6.2-6.25,6.19,6.25-6.2,6.1Zm12.83.43,6,6.1-6.2,6-6-6Zm.44-.43,6.36-6.25,6,6.25-6.36,6.1Zm12.82.43,5.89,6.1-6.35,6-5.89-6Zm.45-.43,6.52-6.25,5.88,6.25-6.51,6.1Zm-.42-.44-6-6.26,6.52-6.41,6,6.41Zm1-13.13,6.68-6.58,6,6.58-6.68,6.42Zm-.44-.46L78,37.11l6.7-6.75,6.18,6.75Zm1-13.82L92,22.94l6.18,6.94-6.87,6.76Zm-.45-.49-6.35-6.94,6.88-7.12,6.35,7.12Zm1-14.57L92.78,7.5l6.33,7.32L92.05,22Zm-.46-.51L78.73,7,85.81-.54,92.32,7ZM86.32-1.08,93.6-8.81l6.5,7.73L92.83,6.45Zm-.47-.54L79.16-9.36l7.28-8,6.69,8ZM87-17.89l7.5-8.18,6.67,8.18-7.49,8Zm-.48-.57-6.88-8.2,7.51-8.42L94-26.66Zm-.52.57-7.29,8-6.89-8,7.3-8.18ZM71.3-18.46l-7.09-8.2,7.3-8.42,7.08,8.42Zm-.51.57-7.09,8-7.08-8,7.09-8.18Zm-14.68-.57-7.29-8.2,7.08-8.42,7.3,8.42Zm-.49.57-6.89,8-7.29-8,6.89-8.18Zm-14.7-.57-7.5-8.2,6.88-8.42,7.5,8.42Zm-.48.57-6.68,8-7.49-8L33-26.07Zm.53.57,7.28,8L41.56-1.62,34.28-9.36Zm.12,16.24L34.58,6.45,27.31-1.08l6.5-7.73Zm.51.54L48.68,7l-6.52,7.33L35.09,7Zm.1,15.36L35.36,22,28.3,14.82,34.63,7.5Zm.5.51,6.88,7.12-6.35,6.94-6.88-6.94Zm.08,14.55L36.1,36.64l-6.87-6.76,6.18-6.94Zm.48.48,6.7,6.75L43.27,43.7l-6.69-6.59Zm.07,13.8-6,6.42-6.68-6.42,6-6.58Zm.47.46L49.82,51l-6,6.26L37.27,51Zm.06,13.11-5.89,6.1L31,57.73l5.88-6.25Zm.45.43,6.35,6.1-5.89,6-6.35-6Zm.49,12.89,6.19,5.8-5.76,5.68-6.19-5.68Zm.41-.42,5.9-5.94,6.19,5.94-5.9,5.82Zm12.53.42,6,5.8-5.9,5.68-6.05-5.68Zm.42-.42,6-5.94,6,5.94-6,5.82Zm12.51.42,5.91,5.8-6,5.68-5.9-5.68Zm.44-.42,6.19-5.94,5.9,5.94-6.19,5.82Zm12.5.42,5.76,5.8-6.19,5.68-5.76-5.68Zm.45-.42,6.34-5.94,5.75,5.94-6.34,5.82Zm12.49.42,5.61,5.8-6.33,5.68-5.62-5.68Zm6.55-6.79-6.5,6-5.74-6,6.5-6.1Zm1-13.23-6.67,6.26L91,51l6.68-6.41Zm1-13.92L97.77,43.7l-6-6.59,6.87-6.75Zm1.1-14.66-7,6.94-6.18-6.94,7.06-7.12ZM106.87,7l-7.25,7.33L93.28,7l7.27-7.52Zm1.22-16.34-7.47,7.74-6.5-7.74,7.49-8Zm1.29-17.3-7.7,8.2L95-26.66l7.72-8.42Zm-14-17.7,6.85,8.68-7.72,8.44-6.87-8.44Zm-15.84,0,7.07,8.68-7.51,8.44L72-35.68Zm-15.84,0L71-35.68l-7.29,8.44-7.3-8.44Zm-15.84,0,7.51,8.68L48.3-27.24l-7.51-8.44ZM32-44.36l7.74,8.68-6.87,8.44-7.72-8.44ZM18-26.66l6.66-8.42,7.72,8.42-6.68,8.2Zm1.29,17.3,6.49-8,7.48,8-6.5,7.74ZM20.54,7,26.86-.54,34.13,7l-6.34,7.33Zm1.15,15.47,6.17-7.12,7.06,7.12-6.18,6.94Zm1.1,14.66,6-6.75,6.87,6.75-6,6.59Zm1,13.92,5.88-6.41L36.38,51l-5.89,6.26Zm6.73,7.13,6.51,6.1-5.75,6-6.5-6ZM18.81,70.63l5.6-5.94,6.5,5.94L25.3,76.45ZM26.2,88.46l-6.32-5.54,5.48-5.66,6.33,5.66Zm12.5,0-6.18-5.54,5.62-5.66,6.19,5.66Zm12.5,0-6-5.54,5.76-5.66,6,5.66Zm12.51,0L57.8,82.92l5.91-5.66,5.9,5.66Zm12.5,0-5.77-5.54,6-5.66,5.76,5.66Zm12.5,0-5.63-5.54,6.19-5.66,5.62,5.66Zm7-5.54,6.33-5.66,5.48,5.66-6.32,5.54Z" transform="translate(14.22 55.02)"/><path class="cls-3" d="M141.63,4.27C141.63,41.68,95.93,91,67.77,91s-82-49.31-82-86.72,53.84-57.64,82-57.64S141.63-33.15,141.63,4.27Z" transform="translate(14.22 55.02)"/><path class="cls-1" d="M13.28-53.37a2.78,2.78,0,0,0-2,.92,4.39,4.39,0,0,0-1,3.3L19.81,86.69a2.92,2.92,0,0,0,2.89,2.65h82a2.92,2.92,0,0,0,2.89-2.65l9.62-135.84a4.39,4.39,0,0,0-1-3.3,2.78,2.78,0,0,0-2.05-.92Z" transform="translate(14.22 55.02)"/><polygon class="cls-4" points="155.85 98.29 138.51 104.87 139.75 92.26 155.85 98.29"/><polygon class="cls-5" points="142.86 123.42 123.33 131.76 124.31 117.53 142.86 123.42"/><polygon class="cls-6" points="0 97.43 17.33 104.01 16.09 91.4 0 97.43"/><polygon class="cls-7" points="12.99 124.14 32.57 132.51 31.57 118.13 12.99 124.14"/><path class="cls-8" d="M104.71,91h-82a4.6,4.6,0,0,1-4.54-4.18L8.54-49A6,6,0,0,1,10-53.57,4.39,4.39,0,0,1,13.28-55H114.13a4.39,4.39,0,0,1,3.25,1.45A6,6,0,0,1,118.87-49L109.25,86.81A4.6,4.6,0,0,1,104.71,91ZM13.28-53.37a2.78,2.78,0,0,0-2,.92,4.39,4.39,0,0,0-1,3.3L19.81,86.69a2.92,2.92,0,0,0,2.89,2.65h82a2.92,2.92,0,0,0,2.89-2.65l9.62-135.84a4.39,4.39,0,0,0-1-3.3,2.78,2.78,0,0,0-2.05-.92Z" transform="translate(14.22 55.02)"/><path class="cls-9" d="M136.91,1.85l-9,5.61L-1.23,8.73l-9.11-6.88S21-12.64,65.86-12.06,136.91,1.85,136.91,1.85Z" transform="translate(14.22 55.02)"/><path class="cls-10" d="M132.59.45A224.2,224.2,0,0,0-6,.45l-4.32,1.4V-13.79l2.28-.74a231,231,0,0,1,142.69,0l2.28.74V1.85Z" transform="translate(14.22 55.02)"/><path class="cls-11" d="M127.09,38.61c1.68.49,3.33,1,5.57,1.74l9,2.92L137.17,35l-2.06-3.83c-.74-2-1.26-3.39-1.85-5A7.53,7.53,0,0,0,136,20.08V14.86a10.19,10.19,0,0,0-2.41-6.62c-1.12-1.31-1.68-2-2.81-3.26a11.23,11.23,0,0,0-5.46-3.74c-6-1.69-12.09-3.13-18.2-4.29l-5.75-1.09.92,3.84A182.29,182.29,0,0,0,75.05-3.6a208.54,208.54,0,0,0-30.2.5l1.4,4.93s0,0,0,0L43.54-.46A8.58,8.58,0,0,0,38.08-2.4a7.09,7.09,0,0,0-.92,0c-4,.42-6,.69-9.95,1.29a9.62,9.62,0,0,0-5.73,3.12L19.21,4.58a7.72,7.72,0,0,0-1.67-1.85c-1.15-.91-1.72-1.37-2.87-2.26A7.69,7.69,0,0,0,9.85-1.18a8.9,8.9,0,0,0-2,.25C1.74.49-4.33,2.2-10.24,4.15l-3.39,1.12,1.59,6V32.75l-2.18,9.66,6.34-2.06c2.44-.79,4.15-1.33,6-1.87L1,43.15V60.21l-2.25,8.9L5,67.4c2.54-.69,4.25-1.14,6.2-1.61v0A240.4,240.4,0,0,1,112,64.3l.7.15c1.67.36,3,.65,4.22.94,2.67.63,4.1,1.06,4.1,1.06v0l1.43.37,6.21,1.62-2.24-8.82V41Z" transform="translate(14.22 55.02)"/><path class="cls-12" d="M-1.39-8.27v0A3,3,0,0,0,0-9.35,2.43,2.43,0,0,0,.4-10.73a1.44,1.44,0,0,0-.75-1.46,3.35,3.35,0,0,0-2.3.1c-1.76.53-2.64.81-4.39,1.38v8.44c1.85-.6,2.78-.89,4.65-1.46A5,5,0,0,0-.14-5,2.66,2.66,0,0,0,.61-6.86,1.42,1.42,0,0,0,.12-8,1.87,1.87,0,0,0-1.39-8.27Zm-1.78-1.82c.63-.19.94,0,.94.47s-.31.85-.94,1l-1.42.44V-9.65Zm.92,4.36A1.55,1.55,0,0,1-3-5.31l-1.61.49V-6.34L-3-6.84a1,1,0,0,1,.73,0A.49.49,0,0,1-2-6.37.94.94,0,0,1-2.25-5.73ZM10.28-15.2a4.07,4.07,0,0,0-2.24,0,5.73,5.73,0,0,0-2.23,1.08,5.15,5.15,0,0,0-1.45,1.88,6,6,0,0,0-.5,2.47,4.3,4.3,0,0,0,.5,2.21A2.41,2.41,0,0,0,5.81-6.42,4.36,4.36,0,0,0,8-6.47a5.91,5.91,0,0,0,2.24-1.07,4.85,4.85,0,0,0,1.43-1.83,5.73,5.73,0,0,0,.51-2.46A4.29,4.29,0,0,0,11.71-14,2.44,2.44,0,0,0,10.28-15.2ZM9.4-9.85a2.12,2.12,0,0,1-.51.91A1.74,1.74,0,0,1,8-8.47a1.15,1.15,0,0,1-.85,0,1.12,1.12,0,0,1-.51-.65,3.93,3.93,0,0,1-.17-1.27,4.85,4.85,0,0,1,.17-1.36,2.31,2.31,0,0,1,.51-.9A1.79,1.79,0,0,1,8-13.18a1.2,1.2,0,0,1,.85,0,1.11,1.11,0,0,1,.51.65,4,4,0,0,1,.16,1.28A4.8,4.8,0,0,1,9.4-9.85ZM24-18.43V-10c-1.15.2-1.72.3-2.86.52l-2.3-3.74-.54-1h0c0,.67,0,1,.06,1.66v3.66c-.91.18-1.37.27-2.27.47v-8.45c1.13-.24,1.7-.36,2.84-.58l2.3,3.74.55,1h0l-.05-1.65V-18Zm6.75-1.08v8.45l-2.62.39v-8.44C29.13-19.28,29.65-19.36,30.7-19.51Zm11.71-1.38v1.95l-2.71.27v6.49c-1.05.11-1.58.16-2.63.29v-6.49L34.34-18V-20C37.57-20.42,39.18-20.6,42.41-20.89Zm4.68-.39c-1.15,3.46-1.72,5.2-2.87,8.67,1.06-.09,1.58-.13,2.64-.2.19-.69.34-1.26.49-1.79.93-.07,1.68-.12,2.6-.17.14.51.3,1.06.48,1.73,1.09-.07,1.63-.09,2.72-.14-1.16-3.33-1.73-5-2.89-8.3C49-21.41,48.36-21.37,47.09-21.28Zm.73,5L48.29-18l.35-1.4h0c.14.55.22.82.36,1.36s.32,1.15.46,1.65Zm16.73-3.4a.48.48,0,0,0-.11.3.38.38,0,0,0,.25.33,3.06,3.06,0,0,0,.71.24l1.3.31a4.4,4.4,0,0,1,1.93.9,2,2,0,0,1,.63,1.57,2.49,2.49,0,0,1-.49,1.59,2.79,2.79,0,0,1-1.32.93,5.47,5.47,0,0,1-1.91.29,7.43,7.43,0,0,1-1.64-.18,6.85,6.85,0,0,1-1.45-.47,4.69,4.69,0,0,1-1.14-.75l1.14-1.73a3.45,3.45,0,0,0,.85.59,5,5,0,0,0,1.08.42,3.9,3.9,0,0,0,1.1.16,2.13,2.13,0,0,0,.61-.06.68.68,0,0,0,.35-.19.55.55,0,0,0,.1-.31.44.44,0,0,0-.17-.35,1.61,1.61,0,0,0-.63-.25l-1.43-.33A6.1,6.1,0,0,1,63-17.14a2.41,2.41,0,0,1-1-.75,2.11,2.11,0,0,1-.35-1.26,2.51,2.51,0,0,1,.45-1.47,2.91,2.91,0,0,1,1.32-1A5.29,5.29,0,0,1,65.57-22a6.51,6.51,0,0,1,2.16.36,4.69,4.69,0,0,1,1.66,1l-1.15,1.65A5,5,0,0,0,67-19.72,3.61,3.61,0,0,0,65.55-20a2.27,2.27,0,0,0-.64.07A.69.69,0,0,0,64.55-19.73ZM79.1-21a4.63,4.63,0,0,0-1.87-.46c-1.69-.11-2.54-.15-4.24-.22v8.44c1.06,0,1.58.07,2.64.13v-2.64l1.6.09a4.49,4.49,0,0,0,1.87-.21,2.31,2.31,0,0,0,1.18-.9,2.77,2.77,0,0,0,.41-1.55,3.08,3.08,0,0,0-.41-1.61A2.8,2.8,0,0,0,79.1-21Zm-1.39,3.23a1.4,1.4,0,0,1-.9.2l-1.18-.07v-2l1.18.06a1.53,1.53,0,0,1,.9.31,1,1,0,0,1,.33.78A.83.83,0,0,1,77.71-17.73Zm13.6,2.29a2.18,2.18,0,0,0,.85-1.92,2.7,2.7,0,0,0-.87-2,4.15,4.15,0,0,0-2.46-1c-1.74-.2-2.61-.29-4.36-.45v8.44l2.58.26v-2.93l1.08.11,1.64,3.12,2.88.35-2.15-3.6A2.34,2.34,0,0,0,91.31-15.44ZM87.05-18.7l1.36.15a1.44,1.44,0,0,1,.83.31.94.94,0,0,1,.28.73.75.75,0,0,1-.28.67,1.23,1.23,0,0,1-.83.11l-1.36-.14Zm11.61-.39v8.45L96-11v-8.44Zm12.07,2.24v8.44L107.88-9l-2.3-4.63c-.22-.49-.32-.74-.54-1.24h0l0,1.67v3.66l-2.28-.41V-18.4c1.14.2,1.71.31,2.85.53.92,1.84,1.38,2.77,2.3,4.63l.55,1.25h0l0-1.67v-3.66Zm6.63,4.43a3.66,3.66,0,0,0-.18,1.26,4.54,4.54,0,0,0,.19,1.43,2.17,2.17,0,0,0,.61.94,2.42,2.42,0,0,0,1,.5,2.24,2.24,0,0,0,.55.07,1.06,1.06,0,0,0,.45-.1.66.66,0,0,0,.3-.27,1,1,0,0,0,.1-.47v-.06l-1.64-.42v-1.68c1.52.39,2.29.58,3.81,1v4.67L120.82-6l-.09-1a1.45,1.45,0,0,1-.62.5,2.78,2.78,0,0,1-1.78,0,5,5,0,0,1-2-1A4.68,4.68,0,0,1,115-9.27a5.92,5.92,0,0,1-.5-2.49A4.25,4.25,0,0,1,115-14a2.44,2.44,0,0,1,1.48-1.15,4.32,4.32,0,0,1,2.28,0A5.88,5.88,0,0,1,121.17-14a5,5,0,0,1,1.39,2.08l-2.39.27a1.88,1.88,0,0,0-.49-1,1.82,1.82,0,0,0-.88-.49,1.32,1.32,0,0,0-.91,0A1,1,0,0,0,117.36-12.42Zm15.51,5.61a2.7,2.7,0,0,1,.61,1.75A2,2,0,0,1,133-3.61a1.92,1.92,0,0,1-1.28.55,5.07,5.07,0,0,1-1.84-.25A9.38,9.38,0,0,1,128.31-4a8.76,8.76,0,0,1-1.42-.89,7.46,7.46,0,0,1-1.1-1.07l1.1-1.41a6,6,0,0,0,.83.84,8,8,0,0,0,1,.72,4.72,4.72,0,0,0,1.07.48,2.27,2.27,0,0,0,.59.11.51.51,0,0,0,.34-.09.41.41,0,0,0,.1-.28.6.6,0,0,0-.17-.4,2.19,2.19,0,0,0-.61-.43l-1.38-.74a8.29,8.29,0,0,1-1.25-.79,3.46,3.46,0,0,1-.93-1,2.59,2.59,0,0,1-.34-1.36,2,2,0,0,1,.44-1.34,2,2,0,0,1,1.28-.63,5,5,0,0,1,2,.25A8.22,8.22,0,0,1,132-11a6.93,6.93,0,0,1,1.6,1.51l-1.12,1.31a7,7,0,0,0-1.19-1.13,4.36,4.36,0,0,0-1.39-.71,2.26,2.26,0,0,0-.63-.12.56.56,0,0,0-.35.11.36.36,0,0,0-.1.27.56.56,0,0,0,.24.41,3.82,3.82,0,0,0,.69.43l1.25.68A6.24,6.24,0,0,1,132.87-6.81Z" transform="translate(14.22 55.02)"/><path class="cls-13" d="M23.09-35.49c0,.56-.05,1.16-.09,1.71a6.36,6.36,0,0,1-.39,1.85A4.54,4.54,0,0,1,19.84-29c-.54.18-1.08.32-1.62.47a.1.1,0,0,0-.09.12l-.06.41H29.23c0-.16-.08-.32-.13-.48s-.05,0-.07,0a12.49,12.49,0,0,1-1.87-.55A5.63,5.63,0,0,1,23.87-33a12.63,12.63,0,0,1-.43-2.38v-.1l.11.18a6.13,6.13,0,0,0,1.67,1.83,2.56,2.56,0,0,0,2.83.24,3,3,0,0,0,1.52-2.6,4.91,4.91,0,0,0-.85-3.1A14.85,14.85,0,0,0,27-41c-.68-.72-1.37-1.43-2-2.19a11.06,11.06,0,0,1-2.32-4.49l0-.1c-.07.32-.12.62-.19.92a9.3,9.3,0,0,1-1.52,3.45c-.6.84-1.27,1.61-1.92,2.38a13.17,13.17,0,0,0-1.56,2.12,4.69,4.69,0,0,0-.57,2.71,3.46,3.46,0,0,0,2.73,3.28,2.72,2.72,0,0,0,2.25-.79A5.64,5.64,0,0,0,23-35.29l.08-.15a0,0,0,0,0,0,0S23.08-35.49,23.09-35.49Z" transform="translate(14.22 55.02)"/><path class="cls-14" d="M110.45-38a69.17,69.17,0,0,1-5.53-9.83A77.62,77.62,0,0,1,98.33-38a62.54,62.54,0,0,1,5.55,9.61A72.79,72.79,0,0,1,110.45-38Z" transform="translate(14.22 55.02)"/><path class="cls-15" d="M97.88,77.72h0l0,.06A4.3,4.3,0,0,0,98.71,79a3.2,3.2,0,0,0,2.8,1.1,2.76,2.76,0,0,0,1.93-1.06,3.18,3.18,0,0,0,.64-2.86,2.39,2.39,0,0,0-2.5-1.91,2.32,2.32,0,0,0-1.42.5l0,0a.16.16,0,0,1,0-.07,4.64,4.64,0,0,0,.49-.87,2.68,2.68,0,0,0,0-2.25,2.72,2.72,0,0,0-3-1.59,3,3,0,0,0-1.94,1.13,2.81,2.81,0,0,0-.64,2.11,3.25,3.25,0,0,0,.4,1.22l.18.33-.3-.22a2.15,2.15,0,0,0-1.14-.31,2.6,2.6,0,0,0-2.4,1.32,3.11,3.11,0,0,0-.3,2.73,2.48,2.48,0,0,0,2.06,1.76A3.26,3.26,0,0,0,96,79.57a4.7,4.7,0,0,0,1.56-1.78l0-.07a.11.11,0,0,1,0,0,8.37,8.37,0,0,1-.28,1.65,4.12,4.12,0,0,1-1.87,2.52,4.34,4.34,0,0,1-1.19.47c-.33.09-.68.16-1,.24a.08.08,0,0,0-.07,0l-.09.32h8.78a1.26,1.26,0,0,1,0-.27c0-.06,0-.08-.1-.1-.44-.11-.89-.2-1.32-.34a3.44,3.44,0,0,1-2.24-2.2,4.41,4.41,0,0,1-.25-1.26C97.9,78.47,97.89,78.1,97.88,77.72Z" transform="translate(14.22 55.02)"/><path class="cls-16" d="M29.06,72.93a.45.45,0,0,0,0-.08,4.09,4.09,0,0,1,.57-1.36,2.49,2.49,0,0,1,1.71-1.08,2.66,2.66,0,0,1,2.79,1.52,2.57,2.57,0,0,1,.25,1.15,4.94,4.94,0,0,1-.69,2.45,16.47,16.47,0,0,1-1.21,1.86c-.62.85-1.22,1.72-1.75,2.62a9.53,9.53,0,0,0-1.14,2.78.36.36,0,0,1,0,.09c0-.11-.07-.22-.11-.33a9.93,9.93,0,0,0-1.25-2.42c-.7-1-1.46-2-2.23-2.93-.42-.54-.85-1.09-1.26-1.64a5.58,5.58,0,0,1-.8-1.43,3.14,3.14,0,0,1-.15-2,2.19,2.19,0,0,1,1.83-1.71,2.77,2.77,0,0,1,2.85,1.29A5.37,5.37,0,0,1,29,72.85Z" transform="translate(14.22 55.02)"/><path class="cls-12" d="M.69,27.32c3.18-.88,4.78-1.29,8-2.05a6.84,6.84,0,0,0,3.66-2.38c1.14-1.4,1.71-2.09,2.85-3.47a6.3,6.3,0,0,0,1.53-4V9.62a4.18,4.18,0,0,0-1.53-3.38L12.33,4a4.15,4.15,0,0,0-3.66-.69C2.72,4.7-3.25,6.38-9.06,8.3c.33,1.22.49,1.83.81,3V33.72c-.32,1.43-.48,2.15-.81,3.58,4.2-1.37,6.32-2,10.56-3.16C1.18,32.91,1,32.29.69,31.05Zm0-14.7c1.47-.41,2.2-.61,3.68-1a2.07,2.07,0,0,1,2,.35l.78.8a2,2,0,0,1,.45,1.34v1a2.7,2.7,0,0,1-.49,1.62l-.74,1a4,4,0,0,1-2,1.39c-1.48.38-2.21.58-3.68,1Z" transform="translate(14.22 55.02)"/><path class="cls-12" d="M21.63,25.75l2.65,2a4.39,4.39,0,0,0,3.49.81c3.91-.59,5.87-.85,9.8-1.27a5.77,5.77,0,0,0,3.51-1.72l2.68-2.72a4.58,4.58,0,0,0,1.46-3.3V8.31a4.05,4.05,0,0,0-1.46-3.08C42.69,4.32,42.15,3.87,41.08,3a4.77,4.77,0,0,0-3.51-1c-3.93.43-5.89.68-9.8,1.27a5.9,5.9,0,0,0-3.49,1.93L21.63,8.1a5.24,5.24,0,0,0-1.45,3.46V22.83A3.62,3.62,0,0,0,21.63,25.75Zm7.18-13.43a2.13,2.13,0,0,1,.88-1.58l.66-.51a3.89,3.89,0,0,1,1.75-.78l1.13-.14A2.81,2.81,0,0,1,35,9.63l.67.38a1.57,1.57,0,0,1,.88,1.31v6.92a2,2,0,0,1-.88,1.51l-.67.53a3.77,3.77,0,0,1-1.75.71l-1.13.15a3.2,3.2,0,0,1-1.75-.26l-.66-.36a1.46,1.46,0,0,1-.88-1.28Z" transform="translate(14.22 55.02)"/><path class="cls-12" d="M59.3,21.4c1.41-1.74,2.12-2.6,3.53-4.32,1.49,2.42,2.24,3.64,3.73,6.08,0,1.14-.07,1.72-.12,2.86,4.68.08,7,.18,11.69.5l-2.26-3.29c-2.8-4.84-4.2-7.24-7-12,2.35-2.73,3.52-4.09,5.87-6.76,1.37-1.34,2.06-2,3.43-3.31C73.36.84,71,.74,66.14.66l-.5,2.89c-2.54,3-3.8,4.51-6.34,7.58V3.51c.34-1.15.51-1.73.84-2.87C56,.68,53.93.74,49.79,1c.31,1.13.47,1.69.79,2.82V23.43c-.32,1.16-.48,1.74-.79,2.9C53.93,26.1,56,26,60.14,26c-.33-1.14-.5-1.71-.84-2.84Z" transform="translate(14.22 55.02)"/><path class="cls-12" d="M81.23,23.89l-.8,2.8c7.22.68,14.26,1.57,21.43,2.69l1.58-7.1c-1.46,0-2.19.06-3.66.12-3.93-.65-5.91-.93-9.86-1.4V18c3.2.39,4.8.61,8,1.11.85.33,1.28.49,2.12.83V12.7l-2.12.16c-3.19-.5-4.79-.72-8-1.1V8.9c3.82.46,5.73.73,9.53,1.35,1.18.49,1.77.73,3,1.24-.47-3-.7-4.55-1.16-7.58-7-1.07-13.8-1.92-20.81-2.58l.8,2.92Z" transform="translate(14.22 55.02)"/><path class="cls-12" d="M107.28,27.07l-.82,3.15c4.3.84,6.44,1.31,10.71,2.35l-.82-3.52V23.88c1.51.36,2.27.55,3.77.93l2.17,5.71c.21,1.4.32,2.1.53,3.5,4.43,1.2,6.63,1.86,11,3.28-.87-1.63-1.31-2.44-2.18-4-1.22-3.29-1.83-4.92-3-8.19l2.15-1.21a3.76,3.76,0,0,0,1.49-3.22V15.41a6.39,6.39,0,0,0-1.49-4.15C129.64,10,129.08,9.3,128,8a7.7,7.7,0,0,0-3.63-2.58c-5.87-1.65-11.88-3.07-17.87-4.21.33,1.39.49,2.09.82,3.48Zm9.07-16.91c1.48.36,2.22.54,3.69.92a3.41,3.41,0,0,1,2,1.41l.77,1.2a3,3,0,0,1,.45,1.57v.42a1.69,1.69,0,0,1-.49,1.35l-.73.59a2.39,2.39,0,0,1-2,.34c-1.47-.38-2.21-.57-3.69-.92Z" transform="translate(14.22 55.02)"/><path class="cls-12" d="M25.11,50.56l2-2a4.79,4.79,0,0,0,1.46-3.43V40.29a3.43,3.43,0,0,0-1.46-3l-2.65-1.57A4.84,4.84,0,0,0,20.93,35c-6.8,1.32-10.19,2.11-16.9,3.94l.78,2.65V61.23L4,64.3c4-1.1,6.06-1.61,10.13-2.52-.33-1.07-.49-1.61-.82-2.67v-4.4c1.45-.33,2.17-.49,3.62-.8l2,3.93.45,2.81c4.27-.85,6.41-1.23,10.7-1.88L28,56.21C26.83,53.94,26.26,52.81,25.11,50.56Zm-5.17-6.12a1.76,1.76,0,0,1-.46,1.25l-.74.73a4.09,4.09,0,0,1-1.94,1.15c-1.39.29-2.08.45-3.46.76V43.07c1.38-.32,2.07-.47,3.46-.76a2.34,2.34,0,0,1,1.94.3l.74.59a1.36,1.36,0,0,1,.46,1Z" transform="translate(14.22 55.02)"/><path class="cls-12" d="M56.13,34.8l-2.68-2.37a5,5,0,0,0-3.52-1.16c-3.94.25-5.91.42-9.83.85a5.56,5.56,0,0,0-3.51,1.77l-2.67,2.83a5,5,0,0,0-1.45,3.39V51.38a3.82,3.82,0,0,0,1.45,3l2.67,2.14a4.55,4.55,0,0,0,3.51,1c3.92-.42,5.89-.59,9.83-.85a5.48,5.48,0,0,0,3.52-1.57l2.68-2.6a4.37,4.37,0,0,0,1.47-3.24V37.94A4.25,4.25,0,0,0,56.13,34.8ZM48.88,47.5A1.89,1.89,0,0,1,48,49l-.67.5a3.55,3.55,0,0,1-1.76.64l-1.12.1a3.18,3.18,0,0,1-1.76-.34L42,49.48a1.51,1.51,0,0,1-.88-1.32V41.25A2,2,0,0,1,42,39.71l.67-.48a3.56,3.56,0,0,1,1.76-.7l1.12-.1a2.86,2.86,0,0,1,1.76.4l.67.4a1.68,1.68,0,0,1,.88,1.35Z" transform="translate(14.22 55.02)"/><path class="cls-12" d="M82.75,32.84a5.66,5.66,0,0,0-3.52-1.62c-3.93-.24-5.9-.32-9.85-.4a4.93,4.93,0,0,0-3.52,1.33l-2.69,2.49a4.37,4.37,0,0,0-1.46,3.21V49.12a4.33,4.33,0,0,0,1.46,3.17l2.69,2.48a5.08,5.08,0,0,0,3.52,1.41c4,.08,5.92.16,9.85.4a4.92,4.92,0,0,0,3.52-1.12c1.07-.91,1.61-1.37,2.68-2.26a3.82,3.82,0,0,0,1.46-3.06V38.87a4.82,4.82,0,0,0-1.46-3.32C84.36,34.46,83.82,33.91,82.75,32.84ZM78.19,47.32a1.62,1.62,0,0,1-.88,1.36l-.67.42a3.35,3.35,0,0,1-1.76.42l-1.14-.05A3.57,3.57,0,0,1,72,48.91l-.67-.47A1.78,1.78,0,0,1,70.43,47V40.09a1.73,1.73,0,0,1,.88-1.43l.67-.4a3.3,3.3,0,0,1,1.76-.47l1.14,0a3.34,3.34,0,0,1,1.76.62l.67.49a2,2,0,0,1,.88,1.46Z" transform="translate(14.22 55.02)"/><path class="cls-12" d="M123.39,38.3c-4.08-1.07-6.12-1.55-10.23-2.43-2.26,3.2-3.39,4.81-5.66,8.06-2.26-4.1-3.38-6.13-5.64-10.18-4.16-.67-6.24-1-10.42-1.44l.8,2.95V54.9l-.8,2.76c4,.47,6,.75,10,1.39-.31-1.2-.47-1.79-.79-3V45.58c2.43,3.91,3.64,5.88,6.06,9.86l1.49.28c2.42-3.07,3.62-4.59,6-7.59V58.61c-.31,1.07-.47,1.61-.78,2.69,4,.85,6,1.32,9.9,2.35-.31-1.22-.47-1.83-.78-3.06V41Z" transform="translate(14.22 55.02)"/><path class="cls-17" d="M112.63,2.73c0,37.49-29,86.9-46.85,86.9s-52-49.41-52-86.9S47.92-55,65.78-55,112.63-34.75,112.63,2.73Z" transform="translate(14.22 55.02)"/><path class="cls-18" d="M.69,25.67c3.18-.88,4.78-1.29,8-2.05a6.84,6.84,0,0,0,3.66-2.38c1.14-1.4,1.71-2.09,2.85-3.47a6.3,6.3,0,0,0,1.53-4V8a4.18,4.18,0,0,0-1.53-3.38L12.33,2.35a4.15,4.15,0,0,0-3.66-.69C2.72,3.05-3.25,4.73-9.06,6.65c.33,1.22.49,1.83.81,3V32.07c-.32,1.43-.48,2.15-.81,3.58,4.2-1.37,6.32-2,10.56-3.16C1.18,31.26,1,30.64.69,29.4ZM.69,11c1.47-.41,2.2-.61,3.68-1a2.07,2.07,0,0,1,2,.35l.78.8a2,2,0,0,1,.45,1.34v1a2.7,2.7,0,0,1-.49,1.62l-.74,1a4,4,0,0,1-2,1.39c-1.48.38-2.21.58-3.68,1ZM21.63,24.1l2.65,2a4.39,4.39,0,0,0,3.49.81c3.91-.59,5.87-.85,9.8-1.27A5.77,5.77,0,0,0,41.08,24l2.68-2.72a4.58,4.58,0,0,0,1.46-3.3V6.66a4.05,4.05,0,0,0-1.46-3.08c-1.07-.91-1.61-1.36-2.68-2.25a4.77,4.77,0,0,0-3.51-1c-3.93.43-5.89.68-9.8,1.27a5.9,5.9,0,0,0-3.49,1.93L21.63,6.45a5.24,5.24,0,0,0-1.45,3.46V21.18A3.62,3.62,0,0,0,21.63,24.1Zm7.18-13.43a2.13,2.13,0,0,1,.88-1.58l.66-.51A3.89,3.89,0,0,1,32.1,7.8l1.13-.14A2.81,2.81,0,0,1,35,8l.67.38a1.57,1.57,0,0,1,.88,1.31v6.92a2,2,0,0,1-.88,1.51l-.67.53a3.77,3.77,0,0,1-1.75.71l-1.13.15a3.2,3.2,0,0,1-1.75-.26l-.66-.36a1.46,1.46,0,0,1-.88-1.28ZM59.3,21.49c.34,1.14.51,1.71.84,2.85-4.14,0-6.21.11-10.35.34.31-1.16.47-1.74.79-2.9V2.14C50.26,1,50.1.45,49.79-.68,53.93-.91,56-1,60.14-1c-.33,1.14-.5,1.72-.84,2.87V9.48c2.54-3.07,3.8-4.58,6.34-7.58L66.14-1c4.82.08,7.22.18,12,.51-1.37,1.31-2.06,2-3.43,3.31-2.35,2.67-3.52,4-5.87,6.76,2.8,4.75,4.2,7.15,7,12l2.26,3.29c-4.67-.32-7-.42-11.69-.5,0-1.14.07-1.72.12-2.86-1.49-2.44-2.24-3.66-3.73-6.08-1.41,1.72-2.12,2.58-3.53,4.32ZM81.23,2.6l-.8-2.92c7,.66,13.85,1.51,20.81,2.58.46,3,.69,4.55,1.16,7.58-1.18-.51-1.77-.75-3-1.24-3.8-.62-5.71-.89-9.53-1.35v2.86c3.2.38,4.8.6,8,1.1l2.12-.16v7.21c-.84-.34-1.27-.5-2.12-.83-3.19-.5-4.79-.72-8-1.11v3c4,.47,5.93.75,9.86,1.4,1.47-.06,2.2-.08,3.66-.12l-1.58,7.1c-7.17-1.12-14.21-2-21.43-2.69l.8-2.8Zm26.05,22.82-.82,3.15c4.3.84,6.44,1.31,10.71,2.35l-.82-3.52V22.23c1.51.36,2.27.55,3.77.93l2.17,5.71c.21,1.4.32,2.1.53,3.5,4.43,1.2,6.63,1.86,11,3.28-.87-1.63-1.31-2.44-2.18-4-1.22-3.29-1.83-4.92-3-8.19l2.15-1.21A3.76,3.76,0,0,0,132.25,19V13.76a6.39,6.39,0,0,0-1.49-4.15c-1.12-1.31-1.68-2-2.8-3.25a7.7,7.7,0,0,0-3.63-2.58C118.46,2.13,112.45.71,106.46-.43c.33,1.39.49,2.09.82,3.48Zm9.07-16.91c1.48.36,2.22.54,3.69.92a3.41,3.41,0,0,1,2,1.41l.77,1.2a3,3,0,0,1,.45,1.57V14a1.7,1.7,0,0,1-.49,1.35l-.73.59a2.39,2.39,0,0,1-2,.34c-1.47-.38-2.21-.57-3.69-.92ZM25.11,48.91l2-2a4.79,4.79,0,0,0,1.46-3.43V38.64a3.43,3.43,0,0,0-1.46-3l-2.65-1.57a4.84,4.84,0,0,0-3.52-.72c-6.8,1.32-10.19,2.11-16.9,3.94l.78,2.65V59.58L4,62.65c4-1.1,6.06-1.61,10.13-2.52-.33-1.07-.49-1.61-.82-2.67v-4.4c1.45-.33,2.17-.49,3.62-.8l2,3.93L19.44,59c4.27-.85,6.41-1.23,10.7-1.88L28,54.56C26.83,52.29,26.26,51.16,25.11,48.91Zm-5.17-6.12A1.76,1.76,0,0,1,19.48,44l-.74.73a4.09,4.09,0,0,1-1.94,1.15c-1.39.29-2.08.45-3.46.76V41.42c1.38-.32,2.07-.47,3.46-.76a2.34,2.34,0,0,1,1.94.3l.74.59a1.36,1.36,0,0,1,.46,1Zm36.19-9.64-2.68-2.37a5,5,0,0,0-3.52-1.16c-3.94.25-5.91.42-9.83.85a5.56,5.56,0,0,0-3.51,1.77l-2.67,2.83a5,5,0,0,0-1.45,3.39V49.73a3.82,3.82,0,0,0,1.45,3l2.67,2.14a4.55,4.55,0,0,0,3.51,1C44,55.4,46,55.23,49.93,55a5.48,5.48,0,0,0,3.52-1.57l2.68-2.6a4.37,4.37,0,0,0,1.47-3.24V36.29A4.25,4.25,0,0,0,56.13,33.15Zm-7.25,12.7A1.89,1.89,0,0,1,48,47.32l-.67.5a3.65,3.65,0,0,1-1.76.64l-1.12.1a3.18,3.18,0,0,1-1.76-.34L42,47.83a1.51,1.51,0,0,1-.88-1.32V39.6A2,2,0,0,1,42,38.06l.67-.48a3.67,3.67,0,0,1,1.76-.71l1.12-.09a2.86,2.86,0,0,1,1.76.4l.67.4a1.68,1.68,0,0,1,.88,1.35ZM82.75,31.19a5.61,5.61,0,0,0-3.52-1.62c-3.93-.24-5.9-.32-9.85-.4a4.93,4.93,0,0,0-3.52,1.33L63.17,33a4.37,4.37,0,0,0-1.46,3.21V47.47a4.33,4.33,0,0,0,1.46,3.17l2.69,2.48a5.08,5.08,0,0,0,3.52,1.41c4,.08,5.92.16,9.85.4a4.92,4.92,0,0,0,3.52-1.12c1.07-.91,1.61-1.37,2.68-2.26a3.82,3.82,0,0,0,1.46-3.06V37.22a4.82,4.82,0,0,0-1.46-3.32C84.36,32.81,83.82,32.26,82.75,31.19ZM78.19,45.67A1.62,1.62,0,0,1,77.31,47l-.67.42a3.35,3.35,0,0,1-1.76.42l-1.14,0A3.57,3.57,0,0,1,72,47.26l-.67-.47a1.78,1.78,0,0,1-.88-1.44V38.44A1.73,1.73,0,0,1,71.31,37l.67-.4a3.3,3.3,0,0,1,1.76-.47l1.14,0a3.34,3.34,0,0,1,1.76.62l.67.49a2,2,0,0,1,.88,1.46Zm44.42-6.37V58.94c.31,1.23.47,1.84.78,3.06-3.94-1-5.93-1.5-9.9-2.35.31-1.08.47-1.62.78-2.69V46.48c-2.41,3-3.61,4.52-6,7.59l-1.49-.28c-2.42-4-3.63-5.95-6.06-9.86V54.41c.32,1.2.48,1.79.79,3-4-.64-6-.92-10-1.39l.8-2.76V33.61l-.8-2.95c4.18.48,6.26.77,10.42,1.44,2.26,4,3.38,6.08,5.64,10.18,2.27-3.25,3.4-4.86,5.66-8.06,4.11.88,6.15,1.36,10.23,2.43Z" transform="translate(14.22 55.02)"/><path class="cls-19" d="M-1.39-9.37v0A3,3,0,0,0,0-10.45,2.43,2.43,0,0,0,.4-11.83a1.44,1.44,0,0,0-.75-1.46,3.35,3.35,0,0,0-2.3.1c-1.76.53-2.64.81-4.39,1.38v8.44c1.85-.6,2.78-.89,4.65-1.46A5,5,0,0,0-.14-6.07,2.66,2.66,0,0,0,.61-8,1.42,1.42,0,0,0,.12-9.15,1.87,1.87,0,0,0-1.39-9.37Zm-1.78-1.82c.63-.19.94,0,.94.47s-.31.85-.94,1l-1.42.44v-1.51Zm.92,4.36A1.55,1.55,0,0,1-3-6.41l-1.61.49V-7.44L-3-7.94a1,1,0,0,1,.73,0A.49.49,0,0,1-2-7.47.94.94,0,0,1-2.25-6.83ZM10.28-16.3a4.07,4.07,0,0,0-2.24,0,5.73,5.73,0,0,0-2.23,1.08,5.15,5.15,0,0,0-1.45,1.88,6,6,0,0,0-.5,2.47,4.3,4.3,0,0,0,.5,2.21A2.41,2.41,0,0,0,5.81-7.52,4.36,4.36,0,0,0,8-7.57a5.91,5.91,0,0,0,2.24-1.07,4.85,4.85,0,0,0,1.43-1.83,5.73,5.73,0,0,0,.51-2.46,4.29,4.29,0,0,0-.51-2.22A2.44,2.44,0,0,0,10.28-16.3ZM9.4-10.95a2.12,2.12,0,0,1-.51.91A1.74,1.74,0,0,1,8-9.57a1.15,1.15,0,0,1-.85,0,1.12,1.12,0,0,1-.51-.65,3.93,3.93,0,0,1-.17-1.27,4.85,4.85,0,0,1,.17-1.36,2.31,2.31,0,0,1,.51-.9A1.79,1.79,0,0,1,8-14.28a1.2,1.2,0,0,1,.85,0,1.11,1.11,0,0,1,.51.65,4,4,0,0,1,.16,1.28A4.8,4.8,0,0,1,9.4-10.95ZM24-19.53v8.45c-1.15.2-1.72.3-2.86.52l-2.3-3.74-.54-1h0c0,.67,0,1,.06,1.66V-10c-.91.18-1.37.27-2.27.47V-18c1.13-.24,1.7-.36,2.84-.58l2.3,3.74.55,1h0l-.05-1.65v-3.66Zm6.75-1.08v8.45l-2.62.39v-8.44C29.13-20.38,29.65-20.46,30.7-20.61ZM42.41-22V-20l-2.71.27v6.49c-1.05.11-1.58.16-2.63.29v-6.49l-2.73.33v-2C37.57-21.52,39.18-21.7,42.41-22Zm4.68-.39c-1.15,3.46-1.72,5.2-2.87,8.67,1.06-.09,1.58-.13,2.64-.2.19-.69.34-1.26.49-1.79.93-.07,1.68-.12,2.6-.17.14.51.3,1.06.48,1.73,1.09-.07,1.63-.09,2.72-.14-1.16-3.33-1.73-5-2.89-8.3C49-22.51,48.36-22.47,47.09-22.38Zm.73,4.95.47-1.71.35-1.4h0c.14.55.22.82.36,1.36s.32,1.15.46,1.65Zm16.73-3.4a.48.48,0,0,0-.11.3.38.38,0,0,0,.25.33,3.06,3.06,0,0,0,.71.24l1.3.31a4.4,4.4,0,0,1,1.93.9,2,2,0,0,1,.63,1.57,2.49,2.49,0,0,1-.49,1.59,2.79,2.79,0,0,1-1.32.93,5.47,5.47,0,0,1-1.91.29,7.43,7.43,0,0,1-1.64-.18A6.85,6.85,0,0,1,62.45-15a4.69,4.69,0,0,1-1.14-.75l1.14-1.73a3.45,3.45,0,0,0,.85.59,5,5,0,0,0,1.08.42,3.9,3.9,0,0,0,1.1.16,2.13,2.13,0,0,0,.61-.06.76.76,0,0,0,.35-.19.55.55,0,0,0,.1-.31.44.44,0,0,0-.17-.35,1.61,1.61,0,0,0-.63-.25l-1.43-.33A6.1,6.1,0,0,1,63-18.24a2.41,2.41,0,0,1-1-.75,2.11,2.11,0,0,1-.35-1.26,2.51,2.51,0,0,1,.45-1.47,2.91,2.91,0,0,1,1.32-1,5.29,5.29,0,0,1,2.09-.35,6.51,6.51,0,0,1,2.16.36,4.69,4.69,0,0,1,1.66,1L68.24-20A5,5,0,0,0,67-20.82a3.61,3.61,0,0,0-1.45-.29,2.27,2.27,0,0,0-.64.07A.69.69,0,0,0,64.55-20.83ZM79.1-22.06a4.63,4.63,0,0,0-1.87-.46c-1.69-.11-2.54-.15-4.24-.23v8.45c1.06,0,1.58.07,2.64.13v-2.64l1.6.09a4.49,4.49,0,0,0,1.87-.21,2.31,2.31,0,0,0,1.18-.9,2.77,2.77,0,0,0,.41-1.55A3.08,3.08,0,0,0,80.28-21,2.8,2.8,0,0,0,79.1-22.06Zm-1.39,3.23a1.4,1.4,0,0,1-.9.2l-1.18-.07v-2l1.18.06a1.53,1.53,0,0,1,.9.31,1,1,0,0,1,.33.78A.83.83,0,0,1,77.71-18.83Zm13.6,2.29a2.18,2.18,0,0,0,.85-1.92,2.7,2.7,0,0,0-.87-2,4.15,4.15,0,0,0-2.46-1c-1.74-.2-2.61-.29-4.36-.45v8.44l2.58.26v-2.93l1.08.11L89.77-13l2.88.35-2.15-3.6A2.34,2.34,0,0,0,91.31-16.54ZM87.05-19.8l1.36.15a1.44,1.44,0,0,1,.83.31.94.94,0,0,1,.28.73.75.75,0,0,1-.28.67,1.23,1.23,0,0,1-.83.11L87.05-18Zm11.61-.39v8.45c-1-.17-1.57-.25-2.62-.4v-8.44Zm12.07,2.24v8.44l-2.85-.59-2.3-4.63c-.22-.49-.32-.74-.54-1.24h0l0,1.67v3.66L102.79-11V-19.5c1.14.2,1.71.31,2.85.53.92,1.84,1.38,2.77,2.3,4.63l.55,1.25h0l0-1.67v-3.66Zm6.63,4.43a3.66,3.66,0,0,0-.18,1.26,4.54,4.54,0,0,0,.19,1.43,2.17,2.17,0,0,0,.61.94,2.42,2.42,0,0,0,1,.5,2.24,2.24,0,0,0,.55.07,1.06,1.06,0,0,0,.45-.1.66.66,0,0,0,.3-.27,1,1,0,0,0,.1-.47v-.06l-1.64-.42v-1.68c1.52.39,2.29.58,3.81,1v4.67l-1.73-.46-.09-1a1.45,1.45,0,0,1-.62.5,2.78,2.78,0,0,1-1.78,0,5,5,0,0,1-2-1A4.68,4.68,0,0,1,115-10.37a5.92,5.92,0,0,1-.5-2.49A4.25,4.25,0,0,1,115-15.1a2.44,2.44,0,0,1,1.48-1.15,4.32,4.32,0,0,1,2.28,0,5.88,5.88,0,0,1,2.38,1.15A5,5,0,0,1,122.56-13l-2.39.27a1.88,1.88,0,0,0-.49-1,1.82,1.82,0,0,0-.88-.49,1.32,1.32,0,0,0-.91,0A1,1,0,0,0,117.36-13.52Zm15.51,5.61a2.7,2.7,0,0,1,.61,1.75A2,2,0,0,1,133-4.71a1.92,1.92,0,0,1-1.28.55,5.07,5.07,0,0,1-1.84-.25,9.38,9.38,0,0,1-1.58-.65,8.76,8.76,0,0,1-1.42-.89A7.46,7.46,0,0,1,125.79-7l1.1-1.41a6,6,0,0,0,.83.84,8,8,0,0,0,1,.72,4.72,4.72,0,0,0,1.07.48,2.27,2.27,0,0,0,.59.11.51.51,0,0,0,.34-.09.41.41,0,0,0,.1-.28.6.6,0,0,0-.17-.4,2.19,2.19,0,0,0-.61-.43l-1.38-.74A8.29,8.29,0,0,1,127.45-9a3.46,3.46,0,0,1-.93-1,2.59,2.59,0,0,1-.34-1.36,2,2,0,0,1,.44-1.34,2,2,0,0,1,1.28-.63,5,5,0,0,1,2,.25,7.89,7.89,0,0,1,2.09,1,6.93,6.93,0,0,1,1.6,1.51l-1.12,1.31a7,7,0,0,0-1.19-1.13,4.36,4.36,0,0,0-1.39-.71,2.26,2.26,0,0,0-.63-.12.56.56,0,0,0-.35.11.36.36,0,0,0-.1.27.56.56,0,0,0,.24.41,3.82,3.82,0,0,0,.69.43l1.25.68A6.24,6.24,0,0,1,132.87-7.91Z" transform="translate(14.22 55.02)"/><g class="cls-20"><path class="cls-21" d="M-10.34,13.21s29.55-11,73.17-11c44.59,0,69.42,11,69.42,11l.34-15S97.83-11,62.92-11C18.35-11-10.34-.25-10.34-.25Z" transform="translate(14.22 55.02)"/><path class="cls-22" d="M-10.34,44.5s29.55-11,73.17-11c44.59,0,69.42,11,69.42,11l.34-7.34s-34.76-9.29-69.67-9.29c-44.57,0-73.26,10.8-73.26,10.8Z" transform="translate(14.22 55.02)"/></g></svg>