<svg id="Layer_1" data-name="Layer 1" xmlns="http://www.w3.org/2000/svg" xmlns:xlink="http://www.w3.org/1999/xlink" viewBox="0 0 283.33 265.46"><defs><style>.cls-1{fill:url(#linear-gradient);}</style><linearGradient id="linear-gradient" x1="306" y1="333.87" x2="306" y2="68.41" gradientUnits="userSpaceOnUse"><stop offset="0" stop-color="#d1d3d4"/><stop offset="0.28" stop-color="#939598"/><stop offset="0.65" stop-color="#d1d3d4"/><stop offset="0.77" stop-color="#c0c2c3"/><stop offset="1" stop-color="#939598"/><stop offset="1" stop-color="#939598"/></linearGradient></defs><path class="cls-1" d="M256.59,188V200.6a3.58,3.58,0,0,1-1.6,2.74c-.48.39-.72.59-1.21,1a6.79,6.79,0,0,1-3.18,1.3l-2,.27a5.82,5.82,0,0,1-3.18-.47l-1.21-.66a2.63,2.63,0,0,1-1.59-2.33V189.84a3.82,3.82,0,0,1,1.59-2.87l1.21-.92a6.82,6.82,0,0,1,3.18-1.42l2-.26a5.15,5.15,0,0,1,3.18.59l1.21.68A2.85,2.85,0,0,1,256.59,188Zm63.24,67.48,1.22.87a6.5,6.5,0,0,0,3.2,1l2.06.09a6,6,0,0,0,3.2-.76l1.22-.76a2.94,2.94,0,0,0,1.6-2.48V240.9a3.54,3.54,0,0,0-1.6-2.65l-1.22-.9a5.94,5.94,0,0,0-3.2-1.13l-2.06-.08a5.92,5.92,0,0,0-3.2.87l-1.22.72a3.11,3.11,0,0,0-1.6,2.59V252.9A3.22,3.22,0,0,0,319.83,255.5ZM186.13,150c0-.91-.57-1.2-1.7-.85s-1.56.47-2.6.8v2.74l2.6-.8C185.56,151.49,186.13,150.87,186.13,150Zm39.62-41.4a4.9,4.9,0,0,0,4.08-1.43,10.28,10.28,0,0,0,2.1-2.83l.14-.27s0,0,0,0,0-.08.07-.07c0,1-.08,2.1-.16,3.09a12.18,12.18,0,0,1-.7,3.37,8.28,8.28,0,0,1-5.05,5.24c-1,.33-2,.59-2.95.86a.21.21,0,0,0-.16.21c0,.25-.07.49-.11.76h20.29c-.07-.3-.14-.6-.23-.89,0,0-.09-.06-.14-.07a22.86,22.86,0,0,1-3.38-1c-3-1.2-4.95-3.6-6-7.06a23.29,23.29,0,0,1-.78-4.32,1.67,1.67,0,0,0,0-.19l.22.33a11,11,0,0,0,3,3.32,4.64,4.64,0,0,0,5.15.44,5.49,5.49,0,0,0,2.76-4.73,8.81,8.81,0,0,0-1.55-5.63,27.29,27.29,0,0,0-3.19-3.81c-1.24-1.3-2.49-2.58-3.67-4a19.94,19.94,0,0,1-4.22-8.16,1.45,1.45,0,0,1-.06-.19c-.12.58-.22,1.14-.34,1.69a17,17,0,0,1-2.77,6.26c-1.09,1.53-2.3,2.92-3.5,4.33a24.75,24.75,0,0,0-2.82,3.85,8.55,8.55,0,0,0-1,4.93C221,105.67,223.14,108.21,225.75,108.55ZM391,99.42a124.15,124.15,0,0,1-10.05-17.88,145.07,145.07,0,0,1-12,17.88A113.3,113.3,0,0,1,379,116.89,131.85,131.85,0,0,1,391,99.42Zm-61.17,32.47-2.14-.12v3.67l2.14.13a2.56,2.56,0,0,0,1.65-.36,1.51,1.51,0,0,0,.58-1.34,1.74,1.74,0,0,0-.58-1.42A2.76,2.76,0,0,0,329.82,131.89ZM203.25,152a2.18,2.18,0,0,0,1.56.09,3.3,3.3,0,0,0,1.54-.86,3.89,3.89,0,0,0,.92-1.65,8.68,8.68,0,0,0,.3-2.45,7.28,7.28,0,0,0-.3-2.33,2,2,0,0,0-.92-1.18,2.09,2.09,0,0,0-1.54-.09,3.09,3.09,0,0,0-1.56.87,4.07,4.07,0,0,0-.92,1.64,8.75,8.75,0,0,0-.31,2.47,7.23,7.23,0,0,0,.31,2.31A2.07,2.07,0,0,0,203.25,152Zm76.07-17.38-.65-2.47h-.05c-.26,1-.38,1.52-.64,2.53-.32,1.19-.6,2.19-.85,3.12l3-.19C279.91,136.67,279.64,135.72,279.32,134.58Zm71.59-.87-2.46-.26v3.32l2.46.27a2.41,2.41,0,0,0,1.51-.21,1.32,1.32,0,0,0,.5-1.21,1.69,1.69,0,0,0-.5-1.34A2.72,2.72,0,0,0,350.91,133.71Zm-84.33,123.7,1.21.71a6.06,6.06,0,0,0,3.2.61l2.05-.18a6.57,6.57,0,0,0,3.19-1.16l1.22-.92a3.42,3.42,0,0,0,1.6-2.68V241.22a3,3,0,0,0-1.6-2.45l-1.22-.74a5.34,5.34,0,0,0-3.19-.72l-2.05.17a6.61,6.61,0,0,0-3.2,1.28l-1.21.87a3.65,3.65,0,0,0-1.6,2.8V255A2.77,2.77,0,0,0,266.58,257.41Zm93.81,56.7a6,6,0,0,0,4.34-1,8.44,8.44,0,0,0,2.83-3.24l.07-.12a.16.16,0,0,1,0,.09,17.11,17.11,0,0,1-.51,3,7.36,7.36,0,0,1-5.56,5.42c-.62.16-1.24.29-1.86.44a.21.21,0,0,0-.13.08c-.07.19-.11.38-.17.58h16c0-.17-.06-.33-.08-.49s-.06-.15-.17-.18c-.8-.2-1.61-.37-2.39-.62a6.22,6.22,0,0,1-4.08-4,8.39,8.39,0,0,1-.45-2.28c0-.68-.06-1.36-.09-2h.06s0,.07,0,.11a7.55,7.55,0,0,0,1.43,2.29,5.76,5.76,0,0,0,5.07,2,5,5,0,0,0,3.52-1.92,5.86,5.86,0,0,0,1.17-5.21,4.36,4.36,0,0,0-4.55-3.47,4.27,4.27,0,0,0-2.59.91l-.07.05a.47.47,0,0,1,.08-.14,8.82,8.82,0,0,0,.9-1.58,4.95,4.95,0,0,0-5.38-7,5.43,5.43,0,0,0-3.53,2.05,5.11,5.11,0,0,0-1.15,3.83,5.74,5.74,0,0,0,.72,2.23l.33.59-.54-.39a3.9,3.9,0,0,0-2.08-.57,4.73,4.73,0,0,0-4.36,2.4,5.71,5.71,0,0,0-.55,5A4.53,4.53,0,0,0,360.39,314.11Zm-134-65.88v-.37a2.44,2.44,0,0,0-.83-1.87l-1.35-1.08a4.29,4.29,0,0,0-3.53-.55c-2.52.54-3.78.81-6.29,1.39v9.57c2.51-.58,3.77-.86,6.29-1.39a7.41,7.41,0,0,0,3.53-2.09l1.35-1.33A3.15,3.15,0,0,0,226.43,248.23Zm20.76,48.23a4.46,4.46,0,0,0-3.1,2,7.23,7.23,0,0,0-1,2.46,1,1,0,0,0-.05.16l-.07-.16a9,9,0,0,0-1-2,5,5,0,0,0-5.17-2.35,4,4,0,0,0-3.34,3.11,5.69,5.69,0,0,0,.28,3.59,10.06,10.06,0,0,0,1.45,2.6c.75,1,1.53,2,2.3,3,1.39,1.75,2.78,3.5,4.05,5.32a18.84,18.84,0,0,1,2.28,4.41l.2.6A.67.67,0,0,0,244,319a17,17,0,0,1,2.07-5c1-1.65,2.06-3.22,3.18-4.77a30.68,30.68,0,0,0,2.21-3.38,9.1,9.1,0,0,0,1.25-4.44,4.7,4.7,0,0,0-.46-2.11A4.83,4.83,0,0,0,247.19,296.46ZM420,276.74l4.07,16-33.9,14.51-1.35,19a8.36,8.36,0,0,1-8.26,7.61H231.46a8.37,8.37,0,0,1-8.26-7.61L222,308.64l-34-14.55h0L192,277.9V256.06l-27.71-10.51h0l4-17.56V189l-2.9-11,6.16-2c1.25-.41,2.51-.8,3.77-1.2l-4-3V143.38l4.15-1.35q16.75-5.44,34-9.47l-3.77-53.25A10.94,10.94,0,0,1,208.41,71a8.06,8.06,0,0,1,5.92-2.63H397.67A8.06,8.06,0,0,1,403.59,71a10.94,10.94,0,0,1,2.69,8.27l-3.79,53.61q16.41,3.9,32.45,9.11l4.14,1.35v28.43l-10.36,6.49c1.6,1.85,2.61,3,4.41,5.13a18.53,18.53,0,0,1,4.38,12V205a13.68,13.68,0,0,1-5.05,11c1.07,2.87,2,5.4,3.35,9,1.44,2.67,2.24,4.14,3.75,7l8.11,15.1L420,257.61Zm7.92-88.83c-2-2.38-3-3.56-5.09-5.91a14.07,14.07,0,0,0-6.59-4.68c-10.67-3-21.6-5.59-32.5-7.66.6,2.53.91,3.79,1.51,6.32v40.68c-.6,2.29-.91,3.44-1.51,5.73,7.82,1.52,11.72,2.37,19.48,4.26-.59-2.55-.89-3.83-1.49-6.38v-9.42c2.75.66,4.12,1,6.86,1.71,1.58,4.14,2.37,6.22,3.94,10.38.39,2.54.58,3.81,1,6.36,8,2.18,12,3.37,20,6-1.58-3-2.38-4.43-4-7.37-2.21-6-3.31-8.95-5.53-14.88l3.91-2.2a6.83,6.83,0,0,0,2.72-5.85v-9.49A11.6,11.6,0,0,0,427.9,187.91Zm.18-30.55a.68.68,0,0,1-.18.5.83.83,0,0,1-.6.17,4,4,0,0,1-1.08-.2,9.09,9.09,0,0,1-1.94-.87,12.31,12.31,0,0,1-1.89-1.32,10.29,10.29,0,0,1-1.51-1.52l-2,2.56a12.4,12.4,0,0,0,2,1.94,15.83,15.83,0,0,0,2.57,1.63,17,17,0,0,0,2.88,1.17,9.1,9.1,0,0,0,3.35.46,3.46,3.46,0,0,0,2.32-1,3.68,3.68,0,0,0,.85-2.64,5,5,0,0,0-1.11-3.18,11.1,11.1,0,0,0-3.38-2.64l-2.28-1.24a8.75,8.75,0,0,1-1.24-.79,1,1,0,0,1-.44-.74.63.63,0,0,1,.19-.49.91.91,0,0,1,.63-.2,4.22,4.22,0,0,1,1.13.21,7.92,7.92,0,0,1,2.54,1.29,12.75,12.75,0,0,1,2.17,2.07l2-2.4a12.3,12.3,0,0,0-2.9-2.73,14.31,14.31,0,0,0-3.8-1.78,8.69,8.69,0,0,0-3.67-.45,3.52,3.52,0,0,0-2.33,1.13,3.62,3.62,0,0,0-.8,2.44,4.7,4.7,0,0,0,.63,2.47,6.4,6.4,0,0,0,1.68,1.85,15.51,15.51,0,0,0,2.28,1.45l2.5,1.34a4,4,0,0,1,1.12.78A1.09,1.09,0,0,1,428.08,157.36ZM402,139.9a4.52,4.52,0,0,0-2.68,2.09,7.79,7.79,0,0,0-.94,4.07,10.85,10.85,0,0,0,.9,4.54,8.69,8.69,0,0,0,2.47,3.23,9.19,9.19,0,0,0,3.57,1.76,5,5,0,0,0,3.24-.05,2.72,2.72,0,0,0,1.12-.92c.05.57.1,1.14.17,1.89l3.15.84v-8.49c-2.77-.75-4.16-1.11-6.94-1.81v3l3,.76V151a1.63,1.63,0,0,1-.19.84,1.12,1.12,0,0,1-.54.51,2.05,2.05,0,0,1-.81.17,3.73,3.73,0,0,1-1-.13,4.23,4.23,0,0,1-1.82-.91,3.78,3.78,0,0,1-1.1-1.7,8.15,8.15,0,0,1-.36-2.6,6.61,6.61,0,0,1,.33-2.29,2,2,0,0,1,1-1.19,2.42,2.42,0,0,1,1.64-.07,3.44,3.44,0,0,1,1.61.89,3.49,3.49,0,0,1,.88,1.84c1.74-.21,2.62-.31,4.36-.5a9.11,9.11,0,0,0-2.54-3.77,10.43,10.43,0,0,0-4.33-2.09A7.84,7.84,0,0,0,402,139.9Zm-189.54-8a419.27,419.27,0,0,1,187.08.36l3.76-53.13a8,8,0,0,0-1.89-6,5,5,0,0,0-3.73-1.68H214.33a5,5,0,0,0-3.73,1.68,8,8,0,0,0-1.89,6Zm168.66,8.54h0l1,2.25,4.18,8.42c2.08.42,3.12.63,5.19,1.07V136.81l-4.15-.86v6.65l.1,3h0c-.4-.91-.6-1.36-1-2.27L382.25,135c-2.08-.39-3.11-.58-5.19-.95v15.35c1.66.29,2.48.44,4.14.75v-6.65C381.16,142.23,381.14,141.63,381.11,140.41ZM364.79,132v15.35c1.91.28,2.86.42,4.76.72V132.75C367.65,132.45,366.7,132.3,364.79,132ZM354.71,140a4.33,4.33,0,0,0,1.47-.6,4,4,0,0,0,1.55-3.5,4.92,4.92,0,0,0-1.58-3.7,7.53,7.53,0,0,0-4.47-1.85c-3.17-.35-4.75-.52-7.93-.82v15.36c1.88.17,2.82.27,4.7.46V140l1.95.21c1,1.95,1.77,3.34,3,5.66,2.09.25,3.14.38,5.23.65Zm-18.58-8.7a5.05,5.05,0,0,0-2.14-1.94,8.45,8.45,0,0,0-3.39-.84c-3.09-.19-4.63-.27-7.72-.41v15.36c1.92.08,2.88.12,4.8.23v-4.79c1.17.06,1.75.09,2.92.17a8.24,8.24,0,0,0,3.39-.4,4.19,4.19,0,0,0,2.14-1.63,5,5,0,0,0,.74-2.82A5.52,5.52,0,0,0,336.13,131.28Zm-28.79.84a.83.83,0,0,1,.2-.55,1.38,1.38,0,0,1,.65-.38,4.15,4.15,0,0,1,1.17-.13,6.61,6.61,0,0,1,2.63.54,9.08,9.08,0,0,1,2.25,1.43l2.09-3a8.31,8.31,0,0,0-3-1.87,11.64,11.64,0,0,0-3.93-.65,9.52,9.52,0,0,0-3.8.63,5.3,5.3,0,0,0-2.4,1.82,4.5,4.5,0,0,0-.82,2.68,3.67,3.67,0,0,0,.65,2.28,4.29,4.29,0,0,0,1.73,1.36,12.45,12.45,0,0,0,2.35.77l2.59.6a3,3,0,0,1,1.16.45.79.79,0,0,1,.3.64.85.85,0,0,1-.18.55,1.2,1.2,0,0,1-.63.36,4,4,0,0,1-1.12.11,7.56,7.56,0,0,1-2-.29,9.75,9.75,0,0,1-2-.76,6.92,6.92,0,0,1-1.56-1.08l-2.07,3.15a8.61,8.61,0,0,0,2.07,1.35,11.77,11.77,0,0,0,2.65.87,14.7,14.7,0,0,0,3,.32,9.64,9.64,0,0,0,3.46-.53,5.23,5.23,0,0,0,2.42-1.69,4.65,4.65,0,0,0,.88-2.89,3.71,3.71,0,0,0-1.15-2.85,7.87,7.87,0,0,0-3.51-1.64l-2.36-.56a6.08,6.08,0,0,1-1.28-.43A.69.69,0,0,1,307.34,132.12Zm-25.78-3.72c-2.31.13-3.46.2-5.76.37-2.09,6.29-3.13,9.44-5.22,15.75,1.92-.16,2.88-.23,4.79-.37.35-1.25.63-2.28.9-3.25l4.72-.31.87,3.14,4.95-.25C284.71,137.43,283.66,134.42,281.56,128.4Zm-24,17.42c1.91-.22,2.87-.32,4.79-.52V133.5c2-.2,2.95-.3,4.92-.48v-3.56c-5.88.54-8.81.86-14.67,1.62v3.56c2-.26,3-.38,5-.61ZM246,132c-1.91.27-2.86.42-4.77.72,0,6.14,0,9.21,0,15.35,1.91-.3,2.86-.44,4.77-.72Zm-22.68,9.6h0l1,1.88,4.18,6.79c2.08-.39,3.12-.58,5.21-1V133.94l-4.17.76v6.65l.1,3h0l-1-1.88c-1.67-2.73-2.51-4.09-4.18-6.8-2.07.41-3.1.62-5.17,1.06v15.35c1.65-.35,2.48-.52,4.13-.85v-6.65C223.37,143.39,223.35,142.79,223.32,141.58Zm-26.12,8.17a7.73,7.73,0,0,0,.92,4,4.4,4.4,0,0,0,2.63,2,7.73,7.73,0,0,0,4.06-.1,10.42,10.42,0,0,0,4.06-1.93,9.05,9.05,0,0,0,2.61-3.33,10.53,10.53,0,0,0,.91-4.47,7.92,7.92,0,0,0-.91-4,4.53,4.53,0,0,0-2.61-2.1,7.48,7.48,0,0,0-4.06.06,10.21,10.21,0,0,0-4.06,2,9.24,9.24,0,0,0-2.63,3.4A10.82,10.82,0,0,0,197.2,149.75Zm-4,19.75-3.58,1.34s59.26-18.48,115.65-18.48c55.82,0,115.65,18.48,115.65,18.48l-3.58-1.34A320.58,320.58,0,0,0,343,151.24a312.62,312.62,0,0,0-75.54,0A320.58,320.58,0,0,0,193.16,169.5Zm104.84,40v-3.16c2.56-3.17,3.84-4.74,6.41-7.87,2.71,4.4,4.07,6.62,6.78,11.06-.09,2.08-.13,3.12-.23,5.2,8.52.15,12.77.33,21.27.91l-4.12-6c-5.08-8.79-7.63-13.15-12.72-21.79,4.27-5,6.4-7.43,10.67-12.29,2.5-2.43,3.75-3.63,6.24-6-8.74-.6-13.11-.79-21.87-.93-.37,2.1-.55,3.16-.91,5.26-4.61,5.45-6.91,8.2-11.52,13.78V173.82c.61-2.09.91-3.13,1.53-5.22-7.54.08-11.31.2-18.84.61l1.45,5.12V210l-1.45,5.28c7.53-.41,11.3-.53,18.84-.61C298.91,212.63,298.61,211.59,298,209.52Zm-48.79,51.34a6.88,6.88,0,0,0,2.65,5.43l4.85,3.89a8.21,8.21,0,0,0,6.37,1.75c7.14-.77,10.72-1.08,17.87-1.54a10.11,10.11,0,0,0,6.4-2.85c1.95-1.91,2.93-2.86,4.88-4.74a8,8,0,0,0,2.67-5.89V236.42a7.69,7.69,0,0,0-2.67-5.71c-2-1.73-2.93-2.59-4.88-4.3a9,9,0,0,0-6.4-2.12c-7.15.46-10.73.77-17.87,1.54a10.12,10.12,0,0,0-6.37,3.23c-1.94,2-2.91,3.07-4.85,5.14a9.09,9.09,0,0,0-2.65,6.17Zm9.28-43.75a10.52,10.52,0,0,0,6.38-3.12c1.94-2,2.92-3,4.87-5a8.31,8.31,0,0,0,2.66-6V182.55a7.34,7.34,0,0,0-2.66-5.59l-4.87-4.1a8.7,8.7,0,0,0-6.38-1.85c-7.14.77-10.7,1.24-17.81,2.31a10.65,10.65,0,0,0-6.35,3.5c-1.93,2.13-2.9,3.2-4.83,5.35a9.56,9.56,0,0,0-2.63,6.28v20.49a6.59,6.59,0,0,0,2.63,5.32c1.93,1.46,2.9,2.2,4.83,3.69a8,8,0,0,0,6.35,1.47C247.79,218.34,251.35,217.88,258.49,217.11Zm43.87,39.63a7.93,7.93,0,0,0,2.67,5.77c2,1.79,2.93,2.7,4.89,4.51a9.26,9.26,0,0,0,6.4,2.56c7.17.14,10.75.29,17.91.73a8.93,8.93,0,0,0,6.4-2c1.94-1.66,2.92-2.48,4.87-4.11a7,7,0,0,0,2.66-5.56V238.11a8.81,8.81,0,0,0-2.66-6c-1.95-2-2.92-3-4.87-4.93a10.25,10.25,0,0,0-6.4-2.93c-7.16-.44-10.74-.59-17.91-.73a8.94,8.94,0,0,0-6.4,2.41c-2,1.8-2.93,2.71-4.89,4.53a8,8,0,0,0-2.66,5.83C302.37,244.45,302.37,248.54,302.36,256.74Zm73-35.89c1.14-5.16,1.72-7.74,2.86-12.9-2.65.07-4,.11-6.64.22-7.15-1.18-10.74-1.69-17.93-2.55v-5.5c5.82.7,8.73,1.1,14.53,2,1.55.6,2.32.9,3.86,1.52V190.54c-1.54.11-2.31.16-3.86.29-5.8-.91-8.71-1.31-14.53-2v-5.19c6.94.83,10.41,1.32,17.33,2.44,2.14.89,3.22,1.35,5.36,2.26-.85-5.51-1.27-8.26-2.11-13.77-12.65-1.95-25.09-3.49-37.83-4.69.58,2.12.86,3.18,1.44,5.31v35.7c-.58,2-.86,3.05-1.44,5.09C349.53,217.21,362.34,218.82,375.37,220.85Zm2.86-52.25S352.52,158,304.47,158c-50,0-85.19,12.85-85.19,12.85s36.16-9.12,85.37-9.12S378.23,168.6,378.23,168.6Zm-200.85-5.28c3.38-1.1,5.07-1.63,8.46-2.65a9.12,9.12,0,0,0,4.09-2.26,4.81,4.81,0,0,0,1.36-3.44,2.59,2.59,0,0,0-.89-2.16,3.38,3.38,0,0,0-2.74-.41v0a5.65,5.65,0,0,0,2.46-1.93,4.47,4.47,0,0,0,.78-2.51,2.64,2.64,0,0,0-1.35-2.66c-.91-.43-2.31-.37-4.19.18-3.2,1-4.8,1.47-8,2.51Zm15.54,66.2c-.6-2.25-.89-3.37-1.49-5.62v-6.78c5.79-1.6,8.69-2.35,14.52-3.74a12.3,12.3,0,0,0,6.65-4.32c2.07-2.54,3.11-3.8,5.18-6.31a11.45,11.45,0,0,0,2.78-7.27V184.93a7.56,7.56,0,0,0-2.78-6.13c-2.07-1.65-3.11-2.47-5.18-4.09a7.57,7.57,0,0,0-6.65-1.25c-10.83,2.54-21.67,5.59-32.23,9.07l1.47,5.55v40.68c-.59,2.59-.88,3.89-1.47,6.5C181.36,232.77,185.2,231.63,192.92,229.52Zm31.78,43.09c.33,2,.5,3.06.83,5.1,7.75-1.55,11.64-2.24,19.45-3.42l-3.93-4.66c-2.09-4.12-3.13-6.18-5.21-10.27l3.62-3.63a8.75,8.75,0,0,0,2.64-6.23v-8.81a6.21,6.21,0,0,0-2.64-5.45c-1.93-1.15-2.9-1.73-4.83-2.86a8.7,8.7,0,0,0-6.4-1.3c-12.36,2.4-18.51,3.83-30.72,7.16.57,1.93.85,2.89,1.41,4.82v35.7c-.56,2.23-.84,3.35-1.41,5.58,7.34-2,11-2.92,18.42-4.58l-1.5-4.86v-8c2.63-.61,3.95-.9,6.59-1.46C222.49,268.31,223.23,269.74,224.7,272.61Zm164,13.06c-31.3-6-93.55-13.5-165.27,1l2.79,39.39a5.32,5.32,0,0,0,5.27,4.82H380.54a5.32,5.32,0,0,0,5.27-4.82Zm24.42-8.07V241.9l1.42-4.83c-7.41-1.94-11.13-2.82-18.6-4.41-4.11,5.81-6.17,8.74-10.3,14.66-4.09-7.46-6.14-11.16-10.25-18.52-7.55-1.22-11.34-1.74-18.93-2.62.58,2.15.87,3.22,1.44,5.37v35.7c-.57,2-.86,3-1.44,5,7.32.84,11,1.35,18.25,2.51-.58-2.17-.86-3.25-1.44-5.42V250.31c4.42,7.11,6.62,10.7,11,17.92l2.71.51c4.39-5.58,6.59-8.34,11-13.8V274l-1.42,4.88c7.23,1.56,10.83,2.41,18,4.29Zm-.95-87.45a6.21,6.21,0,0,0-3.72-2.56c-2.68-.69-4-1-6.71-1.67v12.5c2.69.65,4,1,6.71,1.67a4.33,4.33,0,0,0,3.72-.6l1.34-1.08a3.12,3.12,0,0,0,.89-2.46v-.76a5.43,5.43,0,0,0-.82-2.86ZM186.09,157a1.67,1.67,0,0,0,.43-1.16.89.89,0,0,0-.43-.89,1.83,1.83,0,0,0-1.32.05c-1.18.35-1.77.54-2.94.9v2.77c1.17-.37,1.76-.55,2.94-.9A2.8,2.8,0,0,0,186.09,157Zm15.75,42.6,1.35-1.76a4.89,4.89,0,0,0,.89-2.94v-1.8a3.56,3.56,0,0,0-.82-2.44l-1.42-1.46a3.78,3.78,0,0,0-3.72-.63c-2.68.69-4,1-6.69,1.79v13.56c2.67-.74,4-1.1,6.69-1.79A7.23,7.23,0,0,0,201.84,199.62Z" transform="translate(-164.33 -68.41)"/></svg>