<svg id="Layer_1" data-name="Layer 1" xmlns="http://www.w3.org/2000/svg" viewBox="0 0 600 600"><defs><style>.cls-1{fill:#224258;}</style></defs><path class="cls-1" d="M210.21.54a.12.12,0,0,1,.13-.12.12.12,0,0,1,.12.12.12.12,0,0,1-.12.12A.12.12,0,0,1,210.21.54Zm15.11.25a.25.25,0,1,0-.25-.25A.25.25,0,0,0,225.32.79Zm15,.12a.37.37,0,1,0-.38-.37A.37.37,0,0,0,240.31.91Zm15,.09a.46.46,0,1,0-.45-.46A.46.46,0,0,0,255.29,1Zm15,.08a.54.54,0,1,0-.54-.54A.54.54,0,0,0,270.28,1.08Zm15,0a.54.54,0,0,0,0-1.08.54.54,0,0,0-.54.54A.54.54,0,0,0,285.26,1.08Zm15,0a.54.54,0,1,0-.54-.54A.54.54,0,0,0,300.25,1.08Zm15,0a.54.54,0,0,0,0-1.08.54.54,0,0,0-.54.54A.54.54,0,0,0,315.23,1.08Zm15,0a.5.5,0,0,0,.5-.5.5.5,0,0,0-1,0A.5.5,0,0,0,330.22,1Zm15-.08a.41.41,0,0,0,.41-.42.41.41,0,0,0-.41-.42.42.42,0,0,0,0,.84Zm15-.17a.25.25,0,1,0-.25-.25A.25.25,0,0,0,360.19.79Zm15-.13a.12.12,0,0,0,.12-.12.12.12,0,0,0-.12-.12.12.12,0,0,0-.13.12A.12.12,0,0,0,375.18.66Zm-209.8,15a.08.08,0,0,0,.08-.08.08.08,0,1,0-.16,0A.08.08,0,0,0,165.38,15.61Zm15,.25a.34.34,0,0,0,0-.67.34.34,0,1,0,0,.67Zm15,.16a.5.5,0,1,0,0-1,.5.5,0,1,0,0,1Zm15,.17a.67.67,0,1,0-.67-.66A.67.67,0,0,0,210.34,16.19Zm15,.13a.79.79,0,1,0-.79-.79A.79.79,0,0,0,225.32,16.32Zm15,.12a.92.92,0,1,0-.92-.91A.91.91,0,0,0,240.31,16.44Zm15,.08a1,1,0,1,0-1-1A1,1,0,0,0,255.29,16.52Zm15,0a1,1,0,1,0-1-1A1,1,0,0,0,270.28,16.56Zm15,.05a1.08,1.08,0,1,0-1.08-1.08A1.08,1.08,0,0,0,285.26,16.61Zm15,0a1.08,1.08,0,1,0-1.08-1.08A1.08,1.08,0,0,0,300.25,16.61Zm15-.05a1,1,0,1,0-1-1A1,1,0,0,0,315.23,16.56Zm15,0a1,1,0,1,0-1-1A1,1,0,0,0,330.22,16.52Zm15-.08a.92.92,0,1,0-.92-.91A.91.91,0,0,0,345.21,16.44Zm15-.12a.79.79,0,1,0-.79-.79A.79.79,0,0,0,360.19,16.32Zm15-.13a.67.67,0,1,0-.67-.66A.67.67,0,0,0,375.18,16.19Zm15-.17a.5.5,0,1,0,0-1,.5.5,0,1,0,0,1Zm15-.16a.34.34,0,0,0,0-.67.34.34,0,0,0,0,.67Zm15-.25a.09.09,0,0,0,.09-.08.09.09,0,0,0-.09-.09.09.09,0,0,0-.08.09A.09.09,0,0,0,420.13,15.61ZM135.41,30.55a0,0,0,0,0,0-.08,0,0,0,0,0,0,.08A0,0,0,0,0,135.41,30.55Zm15,.29a.33.33,0,1,0-.33-.33A.34.34,0,0,0,150.39,30.84Zm15,.25a.58.58,0,1,0-.58-.58A.58.58,0,0,0,165.38,31.09Zm15,.21a.79.79,0,1,0-.79-.79A.79.79,0,0,0,180.37,31.3Zm15,.21a1,1,0,1,0-1-1A1,1,0,0,0,195.35,31.51Zm15,.16a1.16,1.16,0,1,0-1.17-1.16A1.16,1.16,0,0,0,210.34,31.67Zm15,.13A1.29,1.29,0,1,0,224,30.51,1.29,1.29,0,0,0,225.32,31.8Zm15,.12a1.41,1.41,0,1,0-1.42-1.41A1.41,1.41,0,0,0,240.31,31.92Zm15,.09a1.5,1.5,0,1,0-1.49-1.5A1.5,1.5,0,0,0,255.29,32Zm15,0a1.54,1.54,0,1,0-1.54-1.54A1.54,1.54,0,0,0,270.28,32.05Zm15,0a1.58,1.58,0,1,0-1.58-1.58A1.58,1.58,0,0,0,285.26,32.09Zm15,0a1.58,1.58,0,1,0-1.58-1.58A1.58,1.58,0,0,0,300.25,32.09Zm15,0a1.54,1.54,0,1,0-1.53-1.54A1.54,1.54,0,0,0,315.23,32.05Zm15,0a1.5,1.5,0,1,0-1.5-1.5A1.5,1.5,0,0,0,330.22,32Zm15-.09a1.41,1.41,0,1,0-1.42-1.41A1.41,1.41,0,0,0,345.21,31.92Zm15-.12a1.29,1.29,0,1,0-1.29-1.29A1.29,1.29,0,0,0,360.19,31.8Zm15-.13A1.16,1.16,0,1,0,374,30.51,1.16,1.16,0,0,0,375.18,31.67Zm15-.16a1,1,0,1,0-1-1A1,1,0,0,0,390.16,31.51Zm15-.21a.79.79,0,1,0-.79-.79A.79.79,0,0,0,405.15,31.3Zm15-.21a.58.58,0,1,0-.58-.58A.58.58,0,0,0,420.13,31.09Zm15-.2a.37.37,0,0,0,.37-.38.36.36,0,0,0-.37-.37.37.37,0,0,0-.38.37A.38.38,0,0,0,435.12,30.89Zm15-.34a0,0,0,1,0,0-.08,0,0,0,0,0,0,.08ZM120.42,45.7a.2.2,0,0,0,.21-.2.21.21,0,0,0-.21-.21.2.2,0,0,0-.2.21A.2.2,0,0,0,120.42,45.7Zm15,.34a.54.54,0,0,0,.54-.54.54.54,0,1,0-1.08,0A.54.54,0,0,0,135.41,46Zm15,.25a.79.79,0,0,0,0-1.58.79.79,0,0,0,0,1.58Zm15,.25a1,1,0,1,0-1-1A1,1,0,0,0,165.38,46.54Zm15,.2a1.25,1.25,0,1,0-1.25-1.24A1.25,1.25,0,0,0,180.37,46.74Zm15,.21a1.46,1.46,0,1,0-1.45-1.45A1.46,1.46,0,0,0,195.35,47Zm15,.17a1.62,1.62,0,1,0-1.62-1.62A1.63,1.63,0,0,0,210.34,47.12Zm15,.16a1.79,1.79,0,1,0-1.78-1.78A1.79,1.79,0,0,0,225.32,47.28Zm15,.13a1.91,1.91,0,1,0-1.91-1.91A1.92,1.92,0,0,0,240.31,47.41Zm15,.08a2,2,0,1,0-2-2A2,2,0,0,0,255.29,47.49Zm15,.08a2.08,2.08,0,1,0-2.08-2.07A2.08,2.08,0,0,0,270.28,47.57Zm15,0a2.12,2.12,0,1,0-2.12-2.12A2.12,2.12,0,0,0,285.26,47.62Zm15,0a2.12,2.12,0,1,0-2.12-2.12A2.12,2.12,0,0,0,300.25,47.62Zm15,0a2.08,2.08,0,1,0-2.07-2.07A2.08,2.08,0,0,0,315.23,47.57Zm15-.08a2,2,0,1,0-2-2A2,2,0,0,0,330.22,47.49Zm15-.08a1.91,1.91,0,1,0-1.92-1.91A1.92,1.92,0,0,0,345.21,47.41Zm15-.13a1.79,1.79,0,1,0-1.79-1.78A1.79,1.79,0,0,0,360.19,47.28Zm15-.12a1.67,1.67,0,1,0-1.67-1.66A1.67,1.67,0,0,0,375.18,47.16Zm15-.17a1.5,1.5,0,1,0-1.49-1.49A1.5,1.5,0,0,0,390.16,47Zm15-.21a1.29,1.29,0,1,0-1.29-1.28A1.28,1.28,0,0,0,405.15,46.78Zm15-.24a1,1,0,1,0-1-1A1,1,0,0,0,420.13,46.54Zm15-.25a.79.79,0,1,0,0-1.58.79.79,0,0,0,0,1.58Zm15-.25a.54.54,0,0,0,.54-.54.54.54,0,0,0-.54-.54.54.54,0,0,0-.54.54A.55.55,0,0,0,450.1,46Zm15-.34a.21.21,0,1,0,0-.41.21.21,0,0,0-.21.21A.2.2,0,0,0,465.09,45.7ZM105.44,60.81a.33.33,0,0,0,.33-.33.33.33,0,0,0-.33-.33.33.33,0,0,0-.33.33A.32.32,0,0,0,105.44,60.81Zm15,.34a.67.67,0,0,0,.67-.67.67.67,0,1,0-.67.67Zm15,.29a1,1,0,1,0-1-1A1,1,0,0,0,135.41,61.44Zm15,.29a1.25,1.25,0,1,0-1.24-1.25A1.25,1.25,0,0,0,150.39,61.73Zm15,.25a1.5,1.5,0,1,0-1.5-1.5A1.5,1.5,0,0,0,165.38,62Zm15,.25a1.75,1.75,0,1,0-1.75-1.75A1.74,1.74,0,0,0,180.37,62.23Zm15,.21a2,2,0,1,0-1.95-2A2,2,0,0,0,195.35,62.44Zm15,.16a2.12,2.12,0,1,0-2.12-2.12A2.12,2.12,0,0,0,210.34,62.6Zm15,.17A2.29,2.29,0,1,0,223,60.48,2.3,2.3,0,0,0,225.32,62.77Zm15,.08a2.37,2.37,0,1,0-2.37-2.37A2.37,2.37,0,0,0,240.31,62.85Zm15,.13a2.5,2.5,0,1,0-2.49-2.5A2.5,2.5,0,0,0,255.29,63Zm15,0a2.54,2.54,0,1,0-2.54-2.54A2.54,2.54,0,0,0,270.28,63Zm15,0a2.58,2.58,0,1,0-2.57-2.58A2.58,2.58,0,0,0,285.26,63.06Zm15,0a2.58,2.58,0,1,0-2.58-2.58A2.59,2.59,0,0,0,300.25,63.06Zm15,0a2.54,2.54,0,1,0-2.53-2.54A2.54,2.54,0,0,0,315.23,63Zm15,0a2.5,2.5,0,1,0-2.49-2.5A2.49,2.49,0,0,0,330.22,63Zm15-.13a2.37,2.37,0,1,0-2.37-2.37A2.37,2.37,0,0,0,345.21,62.85Zm15-.08a2.29,2.29,0,1,0-2.28-2.29A2.3,2.3,0,0,0,360.19,62.77Zm15-.13A2.16,2.16,0,1,0,373,60.48,2.16,2.16,0,0,0,375.18,62.64Zm15-.2a2,2,0,1,0-2-2A2,2,0,0,0,390.16,62.44Zm15-.21a1.75,1.75,0,1,0-1.75-1.75A1.74,1.74,0,0,0,405.15,62.23Zm15-.25a1.5,1.5,0,1,0-1.49-1.5A1.5,1.5,0,0,0,420.13,62Zm15-.25a1.25,1.25,0,1,0-1.25-1.25A1.25,1.25,0,0,0,435.12,61.73Zm15-.29a1,1,0,1,0,0-1.91,1,1,0,0,0,0,1.91Zm15-.29a.66.66,0,0,0,.66-.67.65.65,0,0,0-.66-.66.66.66,0,0,0-.67.66A.67.67,0,0,0,465.09,61.15Zm15-.29a.38.38,0,1,0,0-.75.38.38,0,0,0,0,.75Zm-389.62,15a.38.38,0,1,0-.37-.37A.38.38,0,0,0,90.45,75.84Zm15,.38a.75.75,0,1,0-.75-.75A.76.76,0,0,0,105.44,76.22Zm15,.33a1.08,1.08,0,1,0-1.08-1.08A1.08,1.08,0,0,0,120.42,76.55Zm15,.29A1.37,1.37,0,1,0,134,75.47,1.37,1.37,0,0,0,135.41,76.84Zm15,.29a1.66,1.66,0,1,0-1.66-1.66A1.66,1.66,0,0,0,150.39,77.13Zm15,.29a2,2,0,1,0-1.95-2A1.95,1.95,0,0,0,165.38,77.42Zm15,.25a2.2,2.2,0,1,0-2.21-2.2A2.21,2.21,0,0,0,180.37,77.67Zm15,.17A2.37,2.37,0,1,0,193,75.47,2.37,2.37,0,0,0,195.35,77.84Zm15,.2a2.58,2.58,0,1,0-2.58-2.57A2.57,2.57,0,0,0,210.34,78Zm15,.17a2.75,2.75,0,1,0-2.74-2.74A2.74,2.74,0,0,0,225.32,78.21Zm15,.08a2.83,2.83,0,1,0-2.83-2.82A2.82,2.82,0,0,0,240.31,78.29Zm15,.13a3,3,0,1,0-2.95-3A2.95,2.95,0,0,0,255.29,78.42Zm15,0a3,3,0,1,0-3-3A3,3,0,0,0,270.28,78.46Zm15,0a3,3,0,1,0-3-3A3,3,0,0,0,285.26,78.5Zm15,0a3,3,0,1,0-3-3A3,3,0,0,0,300.25,78.5Zm15,0a3,3,0,1,0-3-3A3,3,0,0,0,315.23,78.5Zm15-.08a3,3,0,1,0-3-3A2.95,2.95,0,0,0,330.22,78.42Zm15-.13a2.83,2.83,0,1,0-2.83-2.82A2.82,2.82,0,0,0,345.21,78.29Zm15-.08a2.75,2.75,0,1,0-2.74-2.74A2.74,2.74,0,0,0,360.19,78.21Zm15-.17a2.58,2.58,0,1,0-2.58-2.57A2.57,2.57,0,0,0,375.18,78Zm15-.2a2.37,2.37,0,1,0-2.37-2.37A2.37,2.37,0,0,0,390.16,77.84Zm15-.17a2.2,2.2,0,1,0-2.2-2.2A2.21,2.21,0,0,0,405.15,77.67Zm15-.25a2,2,0,1,0-1.95-2A2,2,0,0,0,420.13,77.42Zm15-.25a1.71,1.71,0,0,0,0-3.41,1.71,1.71,0,1,0,0,3.41Zm15-.29a1.42,1.42,0,1,0-1.41-1.41A1.42,1.42,0,0,0,450.1,76.88Zm15-.33A1.08,1.08,0,1,0,464,75.47,1.08,1.08,0,0,0,465.09,76.55Zm15-.33a.75.75,0,0,0,0-1.5.75.75,0,0,0,0,1.5Zm15-.34a.41.41,0,0,0,.42-.41.42.42,0,0,0-.84,0A.41.41,0,0,0,495.06,75.88Zm-419.59,15a.38.38,0,1,0-.38-.38A.38.38,0,0,0,75.47,90.83Zm15,.37a.75.75,0,1,0-.74-.75A.74.74,0,0,0,90.45,91.2Zm15,.37a1.12,1.12,0,1,0-1.12-1.12A1.12,1.12,0,0,0,105.44,91.57Zm15,.34A1.46,1.46,0,1,0,119,90.45,1.46,1.46,0,0,0,120.42,91.91Zm15,.33a1.79,1.79,0,1,0-1.79-1.79A1.79,1.79,0,0,0,135.41,92.24Zm15,.29a2.08,2.08,0,1,0-2.07-2.08A2.08,2.08,0,0,0,150.39,92.53Zm15,.29A2.37,2.37,0,1,0,163,90.45,2.37,2.37,0,0,0,165.38,92.82Zm15,.25a2.62,2.62,0,1,0-2.62-2.62A2.61,2.61,0,0,0,180.37,93.07Zm15,.17a2.79,2.79,0,1,0-2.78-2.79A2.79,2.79,0,0,0,195.35,93.24Zm15,.2a3,3,0,1,0-3-3A3,3,0,0,0,210.34,93.44Zm15,.17a3.16,3.16,0,1,0-3.16-3.16A3.15,3.15,0,0,0,225.32,93.61Zm15,.13A3.29,3.29,0,1,0,237,90.45,3.28,3.28,0,0,0,240.31,93.74Zm15,.08a3.37,3.37,0,1,0-3.36-3.37A3.37,3.37,0,0,0,255.29,93.82Zm15,.08a3.45,3.45,0,1,0-3.45-3.45A3.45,3.45,0,0,0,270.28,93.9Zm15,0a3.49,3.49,0,1,0-3.49-3.49A3.49,3.49,0,0,0,285.26,93.94Zm15,0a3.49,3.49,0,1,0-3.49-3.49A3.49,3.49,0,0,0,300.25,93.94Zm15,0a3.45,3.45,0,1,0-3.44-3.45A3.44,3.44,0,0,0,315.23,93.9Zm15-.08a3.37,3.37,0,1,0-3.37-3.37A3.37,3.37,0,0,0,330.22,93.82Zm15,0a3.33,3.33,0,1,0-3.33-3.33A3.33,3.33,0,0,0,345.21,93.78Zm15-.17A3.16,3.16,0,1,0,357,90.45,3.15,3.15,0,0,0,360.19,93.61Zm15-.12a3,3,0,1,0-3-3A3,3,0,0,0,375.18,93.49Zm15-.21a2.83,2.83,0,1,0-2.82-2.83A2.83,2.83,0,0,0,390.16,93.28Zm15-.21a2.62,2.62,0,1,0-2.62-2.62A2.62,2.62,0,0,0,405.15,93.07Zm15-.25a2.37,2.37,0,1,0-2.37-2.37A2.37,2.37,0,0,0,420.13,92.82Zm15-.25A2.12,2.12,0,1,0,433,90.45,2.12,2.12,0,0,0,435.12,92.57Zm15-.29a1.83,1.83,0,1,0-1.82-1.83A1.83,1.83,0,0,0,450.1,92.28Zm15-.33a1.5,1.5,0,1,0-1.5-1.5A1.5,1.5,0,0,0,465.09,92Zm15-.33a1.17,1.17,0,1,0-1.16-1.17A1.17,1.17,0,0,0,480.07,91.62Zm15-.38a.79.79,0,1,0-.79-.79A.79.79,0,0,0,495.06,91.24Zm15-.37a.41.41,0,0,0,.41-.42.41.41,0,0,0-.41-.41.41.41,0,0,0-.42.41A.42.42,0,0,0,510.05,90.87ZM60.48,105.77a.33.33,0,0,0,.33-.33.32.32,0,0,0-.33-.33.33.33,0,0,0-.33.33A.33.33,0,0,0,60.48,105.77Zm15,.42a.75.75,0,1,0-.75-.75A.76.76,0,0,0,75.47,106.19Zm15,.37a1.12,1.12,0,1,0-1.12-1.12A1.12,1.12,0,0,0,90.45,106.56Zm15,.37a1.5,1.5,0,1,0-1.5-1.49A1.49,1.49,0,0,0,105.44,106.93Zm15,.34a1.83,1.83,0,1,0-1.82-1.83A1.83,1.83,0,0,0,120.42,107.27Zm15,.37a2.2,2.2,0,1,0-2.2-2.2A2.2,2.2,0,0,0,135.41,107.64Zm15,.25a2.45,2.45,0,1,0-2.45-2.45A2.46,2.46,0,0,0,150.39,107.89Zm15,.33a2.79,2.79,0,1,0-2.78-2.78A2.77,2.77,0,0,0,165.38,108.22Zm15,.21a3,3,0,1,0-3-3A3,3,0,0,0,180.37,108.43Zm15,.21a3.2,3.2,0,1,0-3.2-3.2A3.2,3.2,0,0,0,195.35,108.64Zm15,.21a3.41,3.41,0,1,0-3.41-3.41A3.41,3.41,0,0,0,210.34,108.85Zm15,.12a3.53,3.53,0,1,0-3.53-3.53A3.53,3.53,0,0,0,225.32,109Zm15,.17a3.7,3.7,0,1,0-3.7-3.7A3.7,3.7,0,0,0,240.31,109.14Zm15,.08a3.78,3.78,0,1,0-3.78-3.78A3.78,3.78,0,0,0,255.29,109.22Zm15,.08a3.87,3.87,0,1,0-3.87-3.86A3.86,3.86,0,0,0,270.28,109.3Zm15,0a3.87,3.87,0,1,0-3.86-3.86A3.86,3.86,0,0,0,285.26,109.3Zm15,0a3.87,3.87,0,1,0-3.87-3.86A3.86,3.86,0,0,0,300.25,109.3Zm15,0a3.87,3.87,0,1,0-3.86-3.86A3.86,3.86,0,0,0,315.23,109.3Zm15-.08a3.78,3.78,0,1,0-3.78-3.78A3.78,3.78,0,0,0,330.22,109.22Zm15-.08a3.7,3.7,0,1,0-3.7-3.7A3.7,3.7,0,0,0,345.21,109.14Zm15-.13a3.58,3.58,0,1,0-3.57-3.57A3.57,3.57,0,0,0,360.19,109Zm15-.16a3.41,3.41,0,1,0-3.41-3.41A3.41,3.41,0,0,0,375.18,108.85Zm15-.17a3.24,3.24,0,1,0-3.24-3.24A3.24,3.24,0,0,0,390.16,108.68Zm15-.21a3,3,0,1,0-3-3A3,3,0,0,0,405.15,108.47Zm15-.25a2.79,2.79,0,1,0-2.78-2.78A2.78,2.78,0,0,0,420.13,108.22Zm15-.29a2.49,2.49,0,1,0-2.49-2.49A2.48,2.48,0,0,0,435.12,107.93Zm15-.29a2.2,2.2,0,1,0-2.2-2.2A2.21,2.21,0,0,0,450.1,107.64Zm15-.33a1.87,1.87,0,1,0-1.87-1.87A1.87,1.87,0,0,0,465.09,107.31Zm15-.33a1.54,1.54,0,1,0-1.53-1.54A1.54,1.54,0,0,0,480.07,107Zm15-.38a1.17,1.17,0,1,0-1.16-1.16A1.16,1.16,0,0,0,495.06,106.6Zm15-.41a.75.75,0,1,0-.75-.75A.75.75,0,0,0,510.05,106.19Zm15-.38a.38.38,0,1,0,0-.75.38.38,0,0,0,0,.75ZM45.5,120.63a.2.2,0,0,0,.2-.21.2.2,0,0,0-.2-.2.2.2,0,0,0-.21.2A.21.21,0,0,0,45.5,120.63Zm15,.46a.67.67,0,1,0,0-1.33.67.67,0,0,0,0,1.33Zm15,.41a1.08,1.08,0,1,0-1.08-1.08A1.08,1.08,0,0,0,75.47,121.5Zm15,.38A1.46,1.46,0,1,0,89,120.42,1.46,1.46,0,0,0,90.45,121.88Zm15,.37a1.83,1.83,0,1,0-1.83-1.83A1.83,1.83,0,0,0,105.44,122.25Zm15,.38a2.21,2.21,0,1,0-2.2-2.21A2.21,2.21,0,0,0,120.42,122.63Zm15,.33a2.54,2.54,0,1,0-2.54-2.54A2.54,2.54,0,0,0,135.41,123Zm15,.29a2.83,2.83,0,1,0-2.82-2.83A2.83,2.83,0,0,0,150.39,123.25Zm15,.29a3.12,3.12,0,1,0-3.12-3.12A3.12,3.12,0,0,0,165.38,123.54Zm15,.25a3.37,3.37,0,1,0-3.37-3.37A3.37,3.37,0,0,0,180.37,123.79Zm15,.21a3.58,3.58,0,1,0-3.57-3.58A3.57,3.57,0,0,0,195.35,124Zm15,.21a3.79,3.79,0,1,0-3.78-3.79A3.79,3.79,0,0,0,210.34,124.21Zm15,.16a3.95,3.95,0,1,0-3.95-4A4,4,0,0,0,225.32,124.37Zm15,.13a4.08,4.08,0,1,0-4.07-4.08A4.08,4.08,0,0,0,240.31,124.5Zm15,.08a4.16,4.16,0,1,0-4.15-4.16A4.16,4.16,0,0,0,255.29,124.58Zm15,.08a4.24,4.24,0,1,0-4.24-4.24A4.24,4.24,0,0,0,270.28,124.66Zm15,0a4.28,4.28,0,1,0-4.28-4.28A4.27,4.27,0,0,0,285.26,124.7Zm15,0a4.28,4.28,0,1,0-4.28-4.28A4.28,4.28,0,0,0,300.25,124.7Zm15,0a4.28,4.28,0,1,0-4.28-4.28A4.27,4.27,0,0,0,315.23,124.7Zm15-.08a4.2,4.2,0,1,0-4.2-4.2A4.2,4.2,0,0,0,330.22,124.62Zm15-.12a4.08,4.08,0,1,0-4.08-4.08A4.08,4.08,0,0,0,345.21,124.5Zm15-.13a3.95,3.95,0,1,0-3.95-4A4,4,0,0,0,360.19,124.37Zm15-.12a3.83,3.83,0,1,0-3.83-3.83A3.82,3.82,0,0,0,375.18,124.25Zm15-.21a3.62,3.62,0,1,0-3.61-3.62A3.62,3.62,0,0,0,390.16,124Zm15-.25a3.37,3.37,0,1,0-3.37-3.37A3.36,3.36,0,0,0,405.15,123.79Zm15-.25a3.12,3.12,0,1,0-3.11-3.12A3.12,3.12,0,0,0,420.13,123.54Zm15-.25a2.87,2.87,0,1,0-2.87-2.87A2.87,2.87,0,0,0,435.12,123.29Zm15-.29a2.58,2.58,0,1,0-2.57-2.58A2.57,2.57,0,0,0,450.1,123Zm15-.33a2.25,2.25,0,1,0-2.24-2.25A2.24,2.24,0,0,0,465.09,122.67Zm15-.38a1.87,1.87,0,1,0-1.87-1.87A1.86,1.86,0,0,0,480.07,122.29Zm15-.37a1.5,1.5,0,1,0-1.5-1.5A1.5,1.5,0,0,0,495.06,121.92Zm15-.42a1.08,1.08,0,1,0-1.08-1.08A1.08,1.08,0,0,0,510.05,121.5Zm15-.37a.71.71,0,0,0,.71-.71.71.71,0,0,0-1.42,0A.71.71,0,0,0,525,121.13Zm15-.5a.2.2,0,0,0,.2-.21.2.2,0,0,0-.2-.2.2.2,0,0,0-.21.2A.21.21,0,0,0,540,120.63ZM30.51,135.45a0,0,0,1,0,0-.08,0,0,0,0,0,0,.08A0,0,0,0,0,30.51,135.45Zm15,.5a.54.54,0,1,0,0-1.08.54.54,0,0,0,0,1.08Zm15,.42a1,1,0,1,0-.95-1A1,1,0,0,0,60.48,136.37Zm15,.41a1.37,1.37,0,1,0-1.37-1.37A1.37,1.37,0,0,0,75.47,136.78Zm15,.42a1.79,1.79,0,1,0-1.78-1.79A1.79,1.79,0,0,0,90.45,137.2Zm15,.41a2.2,2.2,0,1,0-2.2-2.2A2.2,2.2,0,0,0,105.44,137.61Zm15,.33a2.54,2.54,0,1,0-2.53-2.53A2.54,2.54,0,0,0,120.42,137.94Zm15,.34a2.87,2.87,0,1,0-2.87-2.87A2.88,2.88,0,0,0,135.41,138.28Zm15,.29a3.16,3.16,0,1,0-3.15-3.16A3.16,3.16,0,0,0,150.39,138.57Zm15,.33a3.49,3.49,0,1,0-3.49-3.49A3.49,3.49,0,0,0,165.38,138.9Zm15,.21a3.7,3.7,0,1,0-3.7-3.7A3.7,3.7,0,0,0,180.37,139.11Zm15,.25a3.95,3.95,0,1,0-3.95-4A4,4,0,0,0,195.35,139.36Zm15,.2a4.16,4.16,0,1,0-4.16-4.15A4.15,4.15,0,0,0,210.34,139.56Zm15,.17a4.32,4.32,0,1,0-4.32-4.32A4.31,4.31,0,0,0,225.32,139.73Zm15,.13a4.45,4.45,0,1,0-4.45-4.45A4.45,4.45,0,0,0,240.31,139.86Zm15,.08a4.53,4.53,0,1,0-4.53-4.53A4.53,4.53,0,0,0,255.29,139.94Zm15,.08a4.61,4.61,0,1,0-4.61-4.61A4.6,4.6,0,0,0,270.28,140Zm15,0a4.65,4.65,0,1,0-4.65-4.65A4.66,4.66,0,0,0,285.26,140.06Zm15,0a4.65,4.65,0,1,0-4.65-4.65A4.65,4.65,0,0,0,300.25,140.06Zm15,0a4.61,4.61,0,1,0-4.61-4.61A4.61,4.61,0,0,0,315.23,140Zm15,0a4.57,4.57,0,1,0-4.57-4.57A4.58,4.58,0,0,0,330.22,140Zm15-.12a4.45,4.45,0,1,0-4.45-4.45A4.45,4.45,0,0,0,345.21,139.86Zm15-.13a4.32,4.32,0,1,0-4.32-4.32A4.31,4.31,0,0,0,360.19,139.73Zm15-.17a4.16,4.16,0,1,0-4.16-4.15A4.15,4.15,0,0,0,375.18,139.56Zm15-.16a4,4,0,1,0-4-4A4,4,0,0,0,390.16,139.4Zm15-.25a3.74,3.74,0,1,0-3.74-3.74A3.75,3.75,0,0,0,405.15,139.15Zm15-.25a3.49,3.49,0,1,0-3.49-3.49A3.49,3.49,0,0,0,420.13,138.9Zm15-.29a3.2,3.2,0,1,0-3.2-3.2A3.2,3.2,0,0,0,435.12,138.61Zm15-.29a2.91,2.91,0,1,0-2.9-2.91A2.91,2.91,0,0,0,450.1,138.32Zm15-.33a2.58,2.58,0,1,0-2.58-2.58A2.59,2.59,0,0,0,465.09,138Zm15-.38a2.2,2.2,0,1,0-2.2-2.2A2.2,2.2,0,0,0,480.07,137.61Zm15-.37a1.83,1.83,0,1,0-1.83-1.83A1.83,1.83,0,0,0,495.06,137.24Zm15-.42a1.41,1.41,0,1,0-1.42-1.41A1.41,1.41,0,0,0,510.05,136.82Zm15-.41a1,1,0,1,0-1-1A1,1,0,0,0,525,136.41Zm15-.46a.54.54,0,1,0-.54-.54A.54.54,0,0,0,540,136Zm15-.46a.08.08,0,1,0,0-.16.08.08,0,0,0,0,.16ZM30.51,150.73a.34.34,0,1,0-.33-.34A.34.34,0,0,0,30.51,150.73Zm15,.45a.79.79,0,1,0,0-1.57.79.79,0,1,0,0,1.57Zm15,.46a1.25,1.25,0,1,0-1.24-1.25A1.25,1.25,0,0,0,60.48,151.64Zm15,.42a1.67,1.67,0,1,0-1.66-1.67A1.66,1.66,0,0,0,75.47,152.06Zm15,.41a2.08,2.08,0,1,0-2.07-2.08A2.08,2.08,0,0,0,90.45,152.47Zm15,.38a2.46,2.46,0,1,0-2.45-2.46A2.46,2.46,0,0,0,105.44,152.85Zm15,.37a2.83,2.83,0,1,0-2.82-2.83A2.83,2.83,0,0,0,120.42,153.22Zm15,.33a3.16,3.16,0,1,0-3.16-3.16A3.16,3.16,0,0,0,135.41,153.55Zm15,.34a3.5,3.5,0,1,0-3.49-3.5A3.5,3.5,0,0,0,150.39,153.89Zm15,.29a3.79,3.79,0,1,0-3.78-3.79A3.79,3.79,0,0,0,165.38,154.18Zm15,.25a4,4,0,1,0-4-4A4,4,0,0,0,180.37,154.43Zm15,.24a4.28,4.28,0,1,0-4.28-4.28A4.28,4.28,0,0,0,195.35,154.67Zm15,.21a4.49,4.49,0,1,0-4.49-4.49A4.48,4.48,0,0,0,210.34,154.88Zm15,.17a4.66,4.66,0,1,0-4.65-4.66A4.66,4.66,0,0,0,225.32,155.05Zm15,.12a4.78,4.78,0,1,0-4.78-4.78A4.78,4.78,0,0,0,240.31,155.17Zm15,.09a4.87,4.87,0,1,0-4.86-4.87A4.86,4.86,0,0,0,255.29,155.26Zm15,.08a4.95,4.95,0,1,0-4.95-5A4.94,4.94,0,0,0,270.28,155.34Zm15,0a5,5,0,1,0-5-5A5,5,0,0,0,285.26,155.38Zm15,0a5,5,0,1,0-5-5A5,5,0,0,0,300.25,155.38Zm15,0a4.95,4.95,0,1,0-4.94-5A4.94,4.94,0,0,0,315.23,155.34Zm15,0a4.91,4.91,0,1,0-4.9-4.91A4.9,4.9,0,0,0,330.22,155.3Zm15-.13a4.78,4.78,0,1,0-4.78-4.78A4.78,4.78,0,0,0,345.21,155.17Zm15-.12a4.66,4.66,0,1,0-4.65-4.66A4.66,4.66,0,0,0,360.19,155.05Zm15-.17a4.49,4.49,0,1,0-4.49-4.49A4.48,4.48,0,0,0,375.18,154.88Zm15-.21a4.28,4.28,0,1,0-4.28-4.28A4.27,4.27,0,0,0,390.16,154.67Zm15-.2a4.08,4.08,0,1,0-4.07-4.08A4.08,4.08,0,0,0,405.15,154.47Zm15-.25a3.83,3.83,0,1,0-3.82-3.83A3.83,3.83,0,0,0,420.13,154.22Zm15-.29a3.54,3.54,0,1,0-3.53-3.54A3.53,3.53,0,0,0,435.12,153.93Zm15-.34a3.2,3.2,0,1,0-3.2-3.2A3.2,3.2,0,0,0,450.1,153.59Zm15-.33a2.87,2.87,0,1,0-2.87-2.87A2.87,2.87,0,0,0,465.09,153.26Zm15-.37a2.5,2.5,0,1,0-2.49-2.5A2.5,2.5,0,0,0,480.07,152.89Zm15-.38a2.12,2.12,0,1,0-2.12-2.12A2.11,2.11,0,0,0,495.06,152.51Zm15-.41a1.71,1.71,0,1,0-1.71-1.71A1.7,1.7,0,0,0,510.05,152.1Zm15-.46a1.25,1.25,0,1,0-1.25-1.25A1.25,1.25,0,0,0,525,151.64Zm15-.41a.84.84,0,1,0-.83-.84A.84.84,0,0,0,540,151.23Zm15-.46a.38.38,0,1,0,0-.75.38.38,0,0,0,0,.75ZM15.53,165.46a.08.08,0,0,0,0-.16.08.08,0,1,0,0,.16Zm15,.5a.58.58,0,1,0-.58-.58A.58.58,0,0,0,30.51,166Zm15,.46a1,1,0,1,0-1-1A1,1,0,0,0,45.5,166.42Zm15,.46a1.5,1.5,0,1,0-1.49-1.5A1.5,1.5,0,0,0,60.48,166.88Zm15,.45a2,2,0,1,0-2-2A1.95,1.95,0,0,0,75.47,167.33Zm15,.42a2.37,2.37,0,1,0-2.37-2.37A2.37,2.37,0,0,0,90.45,167.75Zm15,.41a2.78,2.78,0,1,0-2.79-2.78A2.77,2.77,0,0,0,105.44,168.16Zm15,.34a3.12,3.12,0,1,0-3.11-3.12A3.12,3.12,0,0,0,120.42,168.5Zm15,.37a3.49,3.49,0,1,0-3.49-3.49A3.49,3.49,0,0,0,135.41,168.87Zm15,.29a3.78,3.78,0,1,0-3.78-3.78A3.79,3.79,0,0,0,150.39,169.16Zm15,.29a4.07,4.07,0,1,0-4.07-4.07A4.07,4.07,0,0,0,165.38,169.45Zm15,.29a4.36,4.36,0,1,0-4.37-4.36A4.36,4.36,0,0,0,180.37,169.74Zm15,.21a4.57,4.57,0,1,0-4.57-4.57A4.57,4.57,0,0,0,195.35,170Zm15,.21a4.78,4.78,0,1,0-4.78-4.78A4.78,4.78,0,0,0,210.34,170.16Zm15,.17a4.95,4.95,0,1,0-4.94-5A5,5,0,0,0,225.32,170.33Zm15,.16a5.11,5.11,0,1,0-5.11-5.11A5.11,5.11,0,0,0,240.31,170.49Zm15,.08a5.19,5.19,0,1,0-5.19-5.19A5.19,5.19,0,0,0,255.29,170.57Zm15,.09a5.28,5.28,0,1,0-5.28-5.28A5.29,5.29,0,0,0,270.28,170.66Zm15,0a5.32,5.32,0,1,0-5.32-5.32A5.32,5.32,0,0,0,285.26,170.7Zm15,0a5.32,5.32,0,1,0-5.32-5.32A5.32,5.32,0,0,0,300.25,170.7Zm15,0a5.28,5.28,0,1,0-5.27-5.28A5.28,5.28,0,0,0,315.23,170.66Zm15,0a5.24,5.24,0,1,0-5.24-5.24A5.25,5.25,0,0,0,330.22,170.62Zm15-.13a5.11,5.11,0,1,0-5.12-5.11A5.11,5.11,0,0,0,345.21,170.49Zm15-.16a4.95,4.95,0,1,0-4.94-5A5,5,0,0,0,360.19,170.33Zm15-.17a4.78,4.78,0,1,0-4.78-4.78A4.78,4.78,0,0,0,375.18,170.16Zm15-.17a4.61,4.61,0,1,0-4.61-4.61A4.6,4.6,0,0,0,390.16,170Zm15-.25a4.36,4.36,0,1,0-4.37-4.36A4.36,4.36,0,0,0,405.15,169.74Zm15-.25a4.11,4.11,0,1,0-4.11-4.11A4.11,4.11,0,0,0,420.13,169.49Zm15-.29a3.82,3.82,0,1,0-3.82-3.82A3.82,3.82,0,0,0,435.12,169.2Zm15-.33a3.49,3.49,0,1,0-3.49-3.49A3.49,3.49,0,0,0,450.1,168.87Zm15-.33a3.16,3.16,0,1,0-3.16-3.16A3.17,3.17,0,0,0,465.09,168.54Zm15-.38a2.78,2.78,0,1,0-2.78-2.78A2.78,2.78,0,0,0,480.07,168.16Zm15-.41a2.37,2.37,0,1,0-2.37-2.37A2.37,2.37,0,0,0,495.06,167.75Zm15-.38a2,2,0,1,0-2-2A2,2,0,0,0,510.05,167.37Zm15-.45a1.54,1.54,0,1,0-1.54-1.54A1.54,1.54,0,0,0,525,166.92Zm15-.46a1.08,1.08,0,1,0-1.08-1.08A1.08,1.08,0,0,0,540,166.46Zm15-.46a.62.62,0,1,0-.62-.62A.63.63,0,0,0,555,166Zm15-.5a.12.12,0,0,0,0-.24.12.12,0,1,0,0,.24ZM15.53,180.7a.34.34,0,0,0,0-.67.34.34,0,1,0,0,.67Zm15,.46a.79.79,0,1,0-.79-.79A.79.79,0,0,0,30.51,181.16Zm15,.45a1.25,1.25,0,1,0-1.25-1.24A1.24,1.24,0,0,0,45.5,181.61Zm15,.5a1.75,1.75,0,1,0-1.74-1.74A1.74,1.74,0,0,0,60.48,182.11Zm15,.46a2.21,2.21,0,1,0-2.2-2.2A2.21,2.21,0,0,0,75.47,182.57Zm15,.41a2.62,2.62,0,1,0-2.61-2.61A2.61,2.61,0,0,0,90.45,183Zm15,.38a3,3,0,1,0-3-3A3,3,0,0,0,105.44,183.36Zm15,.37a3.37,3.37,0,1,0-3.36-3.36A3.37,3.37,0,0,0,120.42,183.73Zm15,.33a3.7,3.7,0,1,0-3.7-3.69A3.7,3.7,0,0,0,135.41,184.06Zm15,.34a4,4,0,1,0-4-4A4,4,0,0,0,150.39,184.4Zm15,.33a4.37,4.37,0,1,0-4.36-4.36A4.36,4.36,0,0,0,165.38,184.73Zm15,.25a4.62,4.62,0,1,0-4.62-4.61A4.62,4.62,0,0,0,180.37,185Zm15,.25a4.87,4.87,0,1,0-4.86-4.86A4.86,4.86,0,0,0,195.35,185.23Zm15,.21a5.07,5.07,0,1,0-5.07-5.07A5.07,5.07,0,0,0,210.34,185.44Zm15,.16a5.24,5.24,0,1,0-5.23-5.23A5.24,5.24,0,0,0,225.32,185.6Zm15,.17a5.41,5.41,0,1,0-5.4-5.4A5.4,5.4,0,0,0,240.31,185.77Zm15,.08a5.49,5.49,0,1,0-5.48-5.48A5.48,5.48,0,0,0,255.29,185.85Zm15,.08a5.57,5.57,0,1,0-5.57-5.56A5.57,5.57,0,0,0,270.28,185.93Zm15,0a5.61,5.61,0,1,0-5.61-5.61A5.61,5.61,0,0,0,285.26,186Zm15,0a5.61,5.61,0,1,0-5.61-5.61A5.61,5.61,0,0,0,300.25,186Zm15,0a5.61,5.61,0,1,0-5.61-5.61A5.61,5.61,0,0,0,315.23,186Zm15-.09a5.53,5.53,0,1,0-5.53-5.52A5.53,5.53,0,0,0,330.22,185.89Zm15-.12a5.41,5.41,0,1,0-5.41-5.4A5.4,5.4,0,0,0,345.21,185.77Zm15-.17a5.24,5.24,0,1,0-5.23-5.23A5.24,5.24,0,0,0,360.19,185.6Zm15-.16a5.07,5.07,0,1,0-5.07-5.07A5.07,5.07,0,0,0,375.18,185.44Zm15-.21a4.87,4.87,0,1,0-4.86-4.86A4.86,4.86,0,0,0,390.16,185.23Zm15-.25a4.62,4.62,0,1,0-4.61-4.61A4.62,4.62,0,0,0,405.15,185Zm15-.25a4.37,4.37,0,1,0-4.36-4.36A4.37,4.37,0,0,0,420.13,184.73Zm15-.29a4.08,4.08,0,1,0-4.07-4.07A4.07,4.07,0,0,0,435.12,184.44Zm15-.33a3.74,3.74,0,1,0-3.74-3.74A3.74,3.74,0,0,0,450.1,184.11Zm15-.34a3.41,3.41,0,1,0-3.41-3.4A3.41,3.41,0,0,0,465.09,183.77Zm15-.37a3,3,0,1,0-3-3A3,3,0,0,0,480.07,183.4Zm15-.42a2.62,2.62,0,1,0-2.62-2.61A2.61,2.61,0,0,0,495.06,183Zm15-.37a2.25,2.25,0,1,0-2.25-2.24A2.24,2.24,0,0,0,510.05,182.61Zm15-.5a1.75,1.75,0,1,0-1.74-1.74A1.74,1.74,0,0,0,525,182.11Zm15-.46a1.29,1.29,0,1,0-1.29-1.28A1.28,1.28,0,0,0,540,181.65Zm15-.45a.84.84,0,1,0-.83-.83A.83.83,0,0,0,555,181.2Zm15-.5a.34.34,0,0,0,0-.67.34.34,0,0,0,0,.67ZM15.53,195.85a.49.49,0,0,0,.49-.5.5.5,0,1,0-.49.5Zm15,.5a1,1,0,1,0-1-1A1,1,0,0,0,30.51,196.35Zm15,.46A1.46,1.46,0,1,0,44,195.35,1.46,1.46,0,0,0,45.5,196.81Zm15,.49a1.95,1.95,0,1,0-1.95-2A2,2,0,0,0,60.48,197.3Zm15,.42a2.37,2.37,0,1,0-2.37-2.37A2.37,2.37,0,0,0,75.47,197.72Zm15,.42a2.79,2.79,0,1,0-2.78-2.79A2.79,2.79,0,0,0,90.45,198.14Zm15,.41a3.2,3.2,0,1,0-3.2-3.2A3.2,3.2,0,0,0,105.44,198.55Zm15,.37a3.57,3.57,0,1,0-3.57-3.57A3.57,3.57,0,0,0,120.42,198.92Zm15,.38a3.95,3.95,0,1,0-3.95-4A4,4,0,0,0,135.41,199.3Zm15,.33a4.28,4.28,0,1,0-4.28-4.28A4.28,4.28,0,0,0,150.39,199.63Zm15,.29a4.57,4.57,0,1,0-4.57-4.57A4.57,4.57,0,0,0,165.38,199.92Zm15,.29a4.86,4.86,0,1,0-4.87-4.86A4.86,4.86,0,0,0,180.37,200.21Zm15,.25a5.11,5.11,0,1,0-5.11-5.11A5.11,5.11,0,0,0,195.35,200.46Zm15,.21a5.32,5.32,0,1,0-5.32-5.32A5.32,5.32,0,0,0,210.34,200.67Zm15,.17a5.49,5.49,0,1,0-5.48-5.49A5.49,5.49,0,0,0,225.32,200.84Zm15,.16a5.65,5.65,0,1,0-5.65-5.65A5.65,5.65,0,0,0,240.31,201Zm15,.13a5.78,5.78,0,1,0-5.77-5.78A5.78,5.78,0,0,0,255.29,201.13Zm15,.08a5.86,5.86,0,1,0-5.86-5.86A5.86,5.86,0,0,0,270.28,201.21Zm15,0a5.9,5.9,0,1,0-5.9-5.9A5.9,5.9,0,0,0,285.26,201.25Zm15,0a5.9,5.9,0,1,0-5.9-5.9A5.9,5.9,0,0,0,300.25,201.25Zm15,0a5.86,5.86,0,1,0-5.85-5.86A5.86,5.86,0,0,0,315.23,201.21Zm15-.08a5.78,5.78,0,1,0-5.78-5.78A5.78,5.78,0,0,0,330.22,201.13Zm15-.13a5.65,5.65,0,1,0-5.66-5.65A5.65,5.65,0,0,0,345.21,201Zm15-.12a5.53,5.53,0,1,0-5.53-5.53A5.54,5.54,0,0,0,360.19,200.88Zm15-.21a5.32,5.32,0,1,0-5.32-5.32A5.32,5.32,0,0,0,375.18,200.67Zm15-.21a5.11,5.11,0,1,0-5.11-5.11A5.11,5.11,0,0,0,390.16,200.46Zm15-.25a4.86,4.86,0,1,0-4.86-4.86A4.86,4.86,0,0,0,405.15,200.21Zm15-.25a4.61,4.61,0,1,0-4.61-4.61A4.61,4.61,0,0,0,420.13,200Zm15-.33a4.28,4.28,0,1,0-4.28-4.28A4.28,4.28,0,0,0,435.12,199.63Zm15-.29a4,4,0,1,0-4-4A4,4,0,0,0,450.1,199.34Zm15-.37a3.62,3.62,0,1,0-3.62-3.62A3.61,3.61,0,0,0,465.09,199Zm15-.38a3.24,3.24,0,1,0-3.24-3.24A3.25,3.25,0,0,0,480.07,198.59Zm15-.41a2.83,2.83,0,1,0-2.83-2.83A2.83,2.83,0,0,0,495.06,198.18Zm15-.42a2.41,2.41,0,1,0-2.41-2.41A2.41,2.41,0,0,0,510.05,197.76Zm15-.41a2,2,0,1,0-2-2A2,2,0,0,0,525,197.35Zm15-.5a1.5,1.5,0,1,0-1.5-1.5A1.5,1.5,0,0,0,540,196.85Zm15-.46a1,1,0,1,0-1-1A1,1,0,0,0,555,196.39Zm15-.5a.54.54,0,1,0-.54-.54A.54.54,0,0,0,570,195.89ZM.54,210.46a.12.12,0,0,0,.12-.12.12.12,0,0,0-.12-.13.12.12,0,0,0-.12.13A.12.12,0,0,0,.54,210.46Zm15,.54a.67.67,0,1,0-.67-.66A.67.67,0,0,0,15.53,211Zm15,.5a1.17,1.17,0,1,0-1.16-1.16A1.16,1.16,0,0,0,30.51,211.5Zm15,.46a1.62,1.62,0,1,0-1.62-1.62A1.63,1.63,0,0,0,45.5,212Zm15,.5a2.12,2.12,0,1,0-2.12-2.12A2.12,2.12,0,0,0,60.48,212.46Zm15,.45a2.58,2.58,0,1,0-2.58-2.57A2.57,2.57,0,0,0,75.47,212.91Zm15,.42a3,3,0,1,0-3-3A3,3,0,0,0,90.45,213.33Zm15,.41a3.41,3.41,0,1,0-3.41-3.4A3.41,3.41,0,0,0,105.44,213.74Zm15,.38a3.78,3.78,0,1,0-3.78-3.78A3.79,3.79,0,0,0,120.42,214.12Zm15,.37a4.16,4.16,0,1,0-4.16-4.15A4.15,4.15,0,0,0,135.41,214.49Zm15,.33a4.49,4.49,0,1,0-4.48-4.48A4.48,4.48,0,0,0,150.39,214.82Zm15,.3a4.78,4.78,0,1,0-4.78-4.78A4.78,4.78,0,0,0,165.38,215.12Zm15,.29a5.07,5.07,0,1,0-5.07-5.07A5.07,5.07,0,0,0,180.37,215.41Zm15,.25a5.32,5.32,0,1,0-5.32-5.32A5.32,5.32,0,0,0,195.35,215.66Zm15,.24a5.57,5.57,0,1,0-5.57-5.56A5.56,5.56,0,0,0,210.34,215.9Zm15,.17a5.74,5.74,0,1,0-5.73-5.73A5.74,5.74,0,0,0,225.32,216.07Zm15,.17a5.9,5.9,0,1,0-5.9-5.9A5.9,5.9,0,0,0,240.31,216.24Zm15,.12a6,6,0,1,0-6-6A6,6,0,0,0,255.29,216.36Zm15,.09a6.11,6.11,0,1,0-6.11-6.11A6.12,6.12,0,0,0,270.28,216.45Zm15,0a6.15,6.15,0,1,0-6.15-6.15A6.15,6.15,0,0,0,285.26,216.49Zm15,0a6.15,6.15,0,1,0-6.15-6.15A6.15,6.15,0,0,0,300.25,216.49Zm15,0a6.11,6.11,0,1,0-6.1-6.11A6.11,6.11,0,0,0,315.23,216.45Zm15-.09a6,6,0,1,0-6-6A6,6,0,0,0,330.22,216.36Zm15-.12a5.9,5.9,0,1,0-5.9-5.9A5.9,5.9,0,0,0,345.21,216.24Zm15-.13a5.78,5.78,0,1,0-5.77-5.77A5.77,5.77,0,0,0,360.19,216.11Zm15-.21a5.57,5.57,0,1,0-5.57-5.56A5.56,5.56,0,0,0,375.18,215.9Zm15-.24a5.32,5.32,0,1,0-5.32-5.32A5.32,5.32,0,0,0,390.16,215.66Zm15-.21a5.11,5.11,0,1,0-5.11-5.11A5.11,5.11,0,0,0,405.15,215.45Zm15-.33a4.78,4.78,0,1,0-4.78-4.78A4.78,4.78,0,0,0,420.13,215.12Zm15-.3a4.49,4.49,0,1,0-4.49-4.48A4.48,4.48,0,0,0,435.12,214.82Zm15-.33a4.16,4.16,0,1,0-4.15-4.15A4.15,4.15,0,0,0,450.1,214.49Zm15-.33a3.83,3.83,0,1,0-3.82-3.82A3.82,3.82,0,0,0,465.09,214.16Zm15-.37a3.45,3.45,0,1,0-3.44-3.45A3.45,3.45,0,0,0,480.07,213.79Zm15-.42a3,3,0,1,0-3-3A3,3,0,0,0,495.06,213.37Zm15-.42a2.62,2.62,0,1,0-2.62-2.61A2.61,2.61,0,0,0,510.05,213Zm15-.45a2.16,2.16,0,1,0-2.16-2.16A2.16,2.16,0,0,0,525,212.5Zm15-.5a1.67,1.67,0,1,0-1.67-1.66A1.67,1.67,0,0,0,540,212Zm15-.46a1.21,1.21,0,1,0-1.2-1.2A1.21,1.21,0,0,0,555,211.54Zm15-.5a.7.7,0,0,0,.7-.7.7.7,0,0,0-.7-.71.71.71,0,0,0-.71.71A.7.7,0,0,0,570,211Zm15-.54a.17.17,0,0,0,.17-.16.17.17,0,0,0-.17-.17.16.16,0,0,0-.16.17A.16.16,0,0,0,585,210.5ZM.54,225.57a.25.25,0,1,0-.25-.25A.25.25,0,0,0,.54,225.57Zm15,.54a.79.79,0,1,0-.79-.79A.79.79,0,0,0,15.53,226.11Zm15,.5a1.29,1.29,0,1,0-1.29-1.29A1.29,1.29,0,0,0,30.51,226.61Zm15,.5a1.79,1.79,0,1,0-1.79-1.79A1.79,1.79,0,0,0,45.5,227.11Zm15,.5a2.29,2.29,0,1,0-2.28-2.29A2.3,2.3,0,0,0,60.48,227.61Zm15,.45a2.74,2.74,0,1,0-2.75-2.74A2.74,2.74,0,0,0,75.47,228.06Zm15,.42a3.16,3.16,0,1,0-3.16-3.16A3.15,3.15,0,0,0,90.45,228.48Zm15,.37a3.53,3.53,0,1,0-3.53-3.53A3.53,3.53,0,0,0,105.44,228.85Zm15,.42a4,4,0,1,0-3.94-4A4,4,0,0,0,120.42,229.27Zm15,.37a4.32,4.32,0,1,0-4.32-4.32A4.31,4.31,0,0,0,135.41,229.64Zm15,.34a4.66,4.66,0,1,0-4.65-4.66A4.66,4.66,0,0,0,150.39,230Zm15,.29a4.95,4.95,0,1,0-4.94-5A5,5,0,0,0,165.38,230.27Zm15,.29a5.24,5.24,0,1,0-5.24-5.24A5.24,5.24,0,0,0,180.37,230.56Zm15,.25a5.49,5.49,0,1,0-5.48-5.49A5.49,5.49,0,0,0,195.35,230.81Zm15,.25a5.74,5.74,0,1,0-5.74-5.74A5.74,5.74,0,0,0,210.34,231.06Zm15,.2a5.94,5.94,0,1,0-5.94-5.94A5.94,5.94,0,0,0,225.32,231.26Zm15,.17a6.11,6.11,0,1,0-6.11-6.11A6.11,6.11,0,0,0,240.31,231.43Zm15,.13a6.24,6.24,0,1,0-6.23-6.24A6.24,6.24,0,0,0,255.29,231.56Zm15,.08a6.32,6.32,0,1,0-6.32-6.32A6.31,6.31,0,0,0,270.28,231.64Zm15,0a6.36,6.36,0,1,0-6.35-6.36A6.36,6.36,0,0,0,285.26,231.68Zm15,0a6.36,6.36,0,1,0-6.36-6.36A6.36,6.36,0,0,0,300.25,231.68Zm15,0a6.32,6.32,0,1,0-6.31-6.32A6.32,6.32,0,0,0,315.23,231.64Zm15-.08a6.24,6.24,0,1,0-6.23-6.24A6.24,6.24,0,0,0,330.22,231.56Zm15-.13a6.11,6.11,0,1,0-6.11-6.11A6.1,6.1,0,0,0,345.21,231.43Zm15-.17a5.94,5.94,0,1,0-5.94-5.94A5.94,5.94,0,0,0,360.19,231.26Zm15-.16a5.78,5.78,0,1,0-5.78-5.78A5.77,5.77,0,0,0,375.18,231.1Zm15-.25a5.53,5.53,0,1,0-5.52-5.53A5.54,5.54,0,0,0,390.16,230.85Zm15-.25a5.28,5.28,0,1,0-5.28-5.28A5.27,5.27,0,0,0,405.15,230.6Zm15-.29a5,5,0,1,0-5-5A5,5,0,0,0,420.13,230.31Zm15-.29a4.7,4.7,0,1,0-4.7-4.7A4.69,4.69,0,0,0,435.12,230Zm15-.38a4.32,4.32,0,1,0-4.32-4.32A4.32,4.32,0,0,0,450.1,229.64Zm15-.33a4,4,0,1,0-4-4A4,4,0,0,0,465.09,229.31Zm15-.41a3.58,3.58,0,1,0-3.57-3.58A3.58,3.58,0,0,0,480.07,228.9Zm15-.38a3.2,3.2,0,1,0-3.2-3.2A3.2,3.2,0,0,0,495.06,228.52Zm15-.41a2.79,2.79,0,1,0-2.79-2.79A2.79,2.79,0,0,0,510.05,228.11Zm15-.46a2.33,2.33,0,1,0-2.33-2.33A2.33,2.33,0,0,0,525,227.65Zm15-.5a1.83,1.83,0,1,0-1.83-1.83A1.83,1.83,0,0,0,540,227.15Zm15-.5a1.33,1.33,0,1,0-1.33-1.33A1.32,1.32,0,0,0,555,226.65Zm15-.5a.83.83,0,1,0-.83-.83A.83.83,0,0,0,570,226.15Zm15-.5a.33.33,0,0,0,.34-.33.34.34,0,0,0-.67,0A.33.33,0,0,0,585,225.65ZM.54,240.68a.38.38,0,1,0-.37-.37A.37.37,0,0,0,.54,240.68Zm15,.54a.92.92,0,1,0-.92-.91A.91.91,0,0,0,15.53,241.22Zm15,.5a1.42,1.42,0,1,0-1.41-1.41A1.41,1.41,0,0,0,30.51,241.72Zm15,.5a1.91,1.91,0,1,0-1.91-1.91A1.92,1.92,0,0,0,45.5,242.22Zm15,.46a2.37,2.37,0,1,0-2.37-2.37A2.37,2.37,0,0,0,60.48,242.68Zm15,.45a2.83,2.83,0,1,0-2.83-2.82A2.82,2.82,0,0,0,75.47,243.13Zm15,.46a3.29,3.29,0,1,0-3.28-3.28A3.28,3.28,0,0,0,90.45,243.59Zm15,.42a3.7,3.7,0,1,0-3.7-3.7A3.7,3.7,0,0,0,105.44,244Zm15,.37a4.07,4.07,0,1,0-4.07-4.07A4.08,4.08,0,0,0,120.42,244.38Zm15,.37a4.45,4.45,0,1,0-4.45-4.44A4.45,4.45,0,0,0,135.41,244.75Zm15,.34a4.78,4.78,0,1,0-4.77-4.78A4.78,4.78,0,0,0,150.39,245.09Zm15,.33a5.11,5.11,0,1,0-5.11-5.11A5.11,5.11,0,0,0,165.38,245.42Zm15,.29a5.4,5.4,0,1,0-5.41-5.4A5.4,5.4,0,0,0,180.37,245.71Zm15,.25a5.65,5.65,0,1,0-5.65-5.65A5.65,5.65,0,0,0,195.35,246Zm15,.25a5.9,5.9,0,1,0-5.9-5.9A5.9,5.9,0,0,0,210.34,246.21Zm15,.21a6.11,6.11,0,1,0-6.11-6.11A6.11,6.11,0,0,0,225.32,246.42Zm15,.16a6.28,6.28,0,1,0-6.28-6.27A6.27,6.27,0,0,0,240.31,246.58Zm15,.13a6.4,6.4,0,1,0-6.4-6.4A6.4,6.4,0,0,0,255.29,246.71Zm15,.12a6.53,6.53,0,1,0-6.53-6.52A6.52,6.52,0,0,0,270.28,246.83Zm15,0a6.57,6.57,0,1,0-6.56-6.56A6.57,6.57,0,0,0,285.26,246.87Zm15,0a6.57,6.57,0,1,0-6.57-6.56A6.56,6.56,0,0,0,300.25,246.87Zm15,0a6.53,6.53,0,1,0-6.52-6.52A6.52,6.52,0,0,0,315.23,246.83Zm15-.12a6.4,6.4,0,1,0-6.4-6.4A6.41,6.41,0,0,0,330.22,246.71Zm15-.09a6.32,6.32,0,1,0-6.32-6.31A6.31,6.31,0,0,0,345.21,246.62Zm15-.2a6.11,6.11,0,1,0-6.11-6.11A6.12,6.12,0,0,0,360.19,246.42Zm15-.21a5.9,5.9,0,1,0-5.9-5.9A5.9,5.9,0,0,0,375.18,246.21Zm15-.21a5.7,5.7,0,1,0-5.69-5.69A5.7,5.7,0,0,0,390.16,246Zm15-.25a5.45,5.45,0,1,0-5.45-5.44A5.45,5.45,0,0,0,405.15,245.75Zm15-.33a5.11,5.11,0,1,0-5.11-5.11A5.11,5.11,0,0,0,420.13,245.42Zm15-.29a4.82,4.82,0,1,0-4.82-4.82A4.82,4.82,0,0,0,435.12,245.13Zm15-.33a4.49,4.49,0,1,0-4.48-4.49A4.49,4.49,0,0,0,450.1,244.8Zm15-.38a4.12,4.12,0,1,0-4.11-4.11A4.11,4.11,0,0,0,465.09,244.42Zm15-.41a3.7,3.7,0,1,0-3.69-3.7A3.7,3.7,0,0,0,480.07,244Zm15-.38a3.33,3.33,0,1,0-3.32-3.32A3.32,3.32,0,0,0,495.06,243.63Zm15-.46a2.87,2.87,0,1,0-2.87-2.86A2.86,2.86,0,0,0,510.05,243.17Zm15-.45a2.41,2.41,0,1,0-2.41-2.41A2.41,2.41,0,0,0,525,242.72Zm15-.46a2,2,0,1,0-2-1.95A1.95,1.95,0,0,0,540,242.26Zm15-.5a1.46,1.46,0,1,0-1.45-1.45A1.45,1.45,0,0,0,555,241.76Zm15-.5a1,1,0,0,0,0-1.91,1,1,0,1,0,0,1.91Zm15-.54a.41.41,0,0,0,.42-.41.42.42,0,0,0-.42-.42.41.41,0,0,0-.41.42A.41.41,0,0,0,585,240.72ZM.54,255.75a.46.46,0,1,0-.46-.46A.46.46,0,0,0,.54,255.75Zm15,.54a1,1,0,1,0-1-1A1,1,0,0,0,15.53,256.29Zm15,.5a1.5,1.5,0,1,0-1.49-1.5A1.5,1.5,0,0,0,30.51,256.79Zm15,.5a2,2,0,1,0-2-2A2,2,0,0,0,45.5,257.29Zm15,.5a2.5,2.5,0,1,0-2.49-2.5A2.5,2.5,0,0,0,60.48,257.79Zm15,.45a2.95,2.95,0,1,0-3-3A2.95,2.95,0,0,0,75.47,258.24Zm15,.42a3.37,3.37,0,1,0-3.36-3.37A3.37,3.37,0,0,0,90.45,258.66Zm15,.41a3.78,3.78,0,1,0-3.78-3.78A3.78,3.78,0,0,0,105.44,259.07Zm15,.38a4.16,4.16,0,1,0-4.15-4.16A4.16,4.16,0,0,0,120.42,259.45Zm15,.37a4.53,4.53,0,1,0-4.53-4.53A4.53,4.53,0,0,0,135.41,259.82Zm15,.33a4.86,4.86,0,1,0-4.86-4.86A4.86,4.86,0,0,0,150.39,260.15Zm15,.34a5.2,5.2,0,1,0-5.19-5.2A5.19,5.19,0,0,0,165.38,260.49Zm15,.29a5.49,5.49,0,1,0-5.49-5.49A5.48,5.48,0,0,0,180.37,260.78Zm15,.29a5.78,5.78,0,1,0-5.77-5.78A5.78,5.78,0,0,0,195.35,261.07Zm15,.25a6,6,0,1,0-6-6A6,6,0,0,0,210.34,261.32Zm15,.21a6.24,6.24,0,1,0-6.23-6.24A6.24,6.24,0,0,0,225.32,261.53Zm15,.16a6.4,6.4,0,1,0-6.4-6.4A6.4,6.4,0,0,0,240.31,261.69Zm15,.17a6.57,6.57,0,1,0-6.56-6.57A6.57,6.57,0,0,0,255.29,261.86Zm15,.08a6.65,6.65,0,1,0-6.65-6.65A6.65,6.65,0,0,0,270.28,261.94Zm15,.08a6.73,6.73,0,1,0-6.73-6.73A6.73,6.73,0,0,0,285.26,262Zm15,0a6.73,6.73,0,1,0-6.73-6.73A6.73,6.73,0,0,0,300.25,262Zm15,0a6.69,6.69,0,1,0-6.69-6.69A6.69,6.69,0,0,0,315.23,262Zm15-.12a6.57,6.57,0,1,0-6.57-6.57A6.57,6.57,0,0,0,330.22,261.86Zm15-.13a6.44,6.44,0,1,0-6.45-6.44A6.44,6.44,0,0,0,345.21,261.73Zm15-.2a6.24,6.24,0,1,0-6.23-6.24A6.23,6.23,0,0,0,360.19,261.53Zm15-.21a6,6,0,1,0-6-6A6,6,0,0,0,375.18,261.32Zm15-.21a5.82,5.82,0,1,0-5.82-5.82A5.81,5.81,0,0,0,390.16,261.11Zm15-.29a5.53,5.53,0,1,0-5.53-5.53A5.52,5.52,0,0,0,405.15,260.82Zm15-.29a5.24,5.24,0,1,0-5.23-5.24A5.25,5.25,0,0,0,420.13,260.53Zm15-.33a4.91,4.91,0,1,0-4.9-4.91A4.9,4.9,0,0,0,435.12,260.2Zm15-.34a4.57,4.57,0,1,0-4.57-4.57A4.56,4.56,0,0,0,450.1,259.86Zm15-.37a4.2,4.2,0,1,0-4.2-4.2A4.2,4.2,0,0,0,465.09,259.49Zm15-.37a3.83,3.83,0,1,0-3.82-3.83A3.83,3.83,0,0,0,480.07,259.12Zm15-.42a3.41,3.41,0,1,0-3.41-3.41A3.41,3.41,0,0,0,495.06,258.7Zm15-.42a3,3,0,1,0-3-3A3,3,0,0,0,510.05,258.28Zm15-.45a2.54,2.54,0,1,0-2.53-2.54A2.54,2.54,0,0,0,525,257.83Zm15-.5a2,2,0,1,0-2-2A2,2,0,0,0,540,257.33Zm15-.5a1.54,1.54,0,1,0-1.54-1.54A1.54,1.54,0,0,0,555,256.83Zm15-.5a1,1,0,1,0-1-1A1,1,0,0,0,570,256.33Zm15-.54a.5.5,0,0,0,.5-.5.5.5,0,0,0-.5-.5.51.51,0,0,0-.5.5A.5.5,0,0,0,585,255.79ZM.54,270.82a.54.54,0,1,0-.54-.54A.54.54,0,0,0,.54,270.82Zm15,.5a1,1,0,1,0-1-1A1,1,0,0,0,15.53,271.32Zm15,.5A1.54,1.54,0,1,0,29,270.28,1.54,1.54,0,0,0,30.51,271.82Zm15,.54a2.08,2.08,0,1,0-2.08-2.08A2.08,2.08,0,0,0,45.5,272.36Zm15,.45A2.54,2.54,0,1,0,58,270.28,2.54,2.54,0,0,0,60.48,272.81Zm15,.46a3,3,0,1,0-3-3A3,3,0,0,0,75.47,273.27Zm15,.46A3.45,3.45,0,1,0,87,270.28,3.45,3.45,0,0,0,90.45,273.73Zm15,.41a3.87,3.87,0,1,0-3.87-3.86A3.86,3.86,0,0,0,105.44,274.14Zm15,.38a4.24,4.24,0,1,0-4.23-4.24A4.24,4.24,0,0,0,120.42,274.52Zm15,.37a4.61,4.61,0,1,0-4.61-4.61A4.6,4.6,0,0,0,135.41,274.89Zm15,.33a4.95,4.95,0,1,0-4.94-4.94A4.94,4.94,0,0,0,150.39,275.22Zm15,.34a5.28,5.28,0,1,0-5.28-5.28A5.29,5.29,0,0,0,165.38,275.56Zm15,.29a5.57,5.57,0,1,0-5.57-5.57A5.57,5.57,0,0,0,180.37,275.85Zm15,.29a5.86,5.86,0,1,0-5.86-5.86A5.86,5.86,0,0,0,195.35,276.14Zm15,.25a6.11,6.11,0,1,0-6.11-6.11A6.12,6.12,0,0,0,210.34,276.39Zm15,.2a6.32,6.32,0,1,0-6.31-6.31A6.31,6.31,0,0,0,225.32,276.59Zm15,.21a6.53,6.53,0,1,0-6.53-6.52A6.52,6.52,0,0,0,240.31,276.8Zm15,.13a6.65,6.65,0,1,0-6.65-6.65A6.65,6.65,0,0,0,255.29,276.93Zm15,.12a6.77,6.77,0,1,0-6.77-6.77A6.77,6.77,0,0,0,270.28,277.05Zm15,.08a6.86,6.86,0,1,0-6.85-6.85A6.85,6.85,0,0,0,285.26,277.13Zm15,0a6.86,6.86,0,1,0-6.86-6.85A6.85,6.85,0,0,0,300.25,277.13Zm15-.08a6.77,6.77,0,1,0-6.77-6.77A6.77,6.77,0,0,0,315.23,277.05Zm15-.08a6.69,6.69,0,1,0-6.69-6.69A6.69,6.69,0,0,0,330.22,277Zm15-.17a6.53,6.53,0,1,0-6.53-6.52A6.52,6.52,0,0,0,345.21,276.8Zm15-.21a6.32,6.32,0,1,0-6.32-6.31A6.31,6.31,0,0,0,360.19,276.59Zm15-.16a6.15,6.15,0,1,0-6.15-6.15A6.16,6.16,0,0,0,375.18,276.43Zm15-.25a5.9,5.9,0,1,0-5.9-5.9A5.9,5.9,0,0,0,390.16,276.18Zm15-.29a5.61,5.61,0,1,0-5.61-5.61A5.61,5.61,0,0,0,405.15,275.89Zm15-.29a5.32,5.32,0,1,0-5.32-5.32A5.32,5.32,0,0,0,420.13,275.6Zm15-.34a5,5,0,1,0-5-5A5,5,0,0,0,435.12,275.26Zm15-.33a4.66,4.66,0,1,0-4.65-4.65A4.66,4.66,0,0,0,450.1,274.93Zm15-.37a4.28,4.28,0,1,0-4.28-4.28A4.28,4.28,0,0,0,465.09,274.56Zm15-.42a3.87,3.87,0,1,0-3.86-3.86A3.86,3.86,0,0,0,480.07,274.14Zm15-.37a3.49,3.49,0,1,0-3.49-3.49A3.49,3.49,0,0,0,495.06,273.77Zm15-.46a3,3,0,1,0-3-3A3,3,0,0,0,510.05,273.31Zm15-.46a2.58,2.58,0,1,0-2.58-2.57A2.58,2.58,0,0,0,525,272.85Zm15-.45a2.12,2.12,0,1,0-2.12-2.12A2.12,2.12,0,0,0,540,272.4Zm15-.54a1.58,1.58,0,1,0-1.58-1.58A1.58,1.58,0,0,0,555,271.86Zm15-.5a1.08,1.08,0,1,0-1.08-1.08A1.08,1.08,0,0,0,570,271.36Zm15-.5a.58.58,0,1,0-.58-.58A.58.58,0,0,0,585,270.86ZM.54,285.8a.54.54,0,0,0,.54-.54.54.54,0,0,0-.54-.54.54.54,0,0,0-.54.54A.54.54,0,0,0,.54,285.8Zm15,.54a1.08,1.08,0,1,0-1.08-1.08A1.08,1.08,0,0,0,15.53,286.34Zm15,.5a1.58,1.58,0,1,0-1.58-1.58A1.58,1.58,0,0,0,30.51,286.84Zm15,.54a2.12,2.12,0,1,0-2.12-2.12A2.12,2.12,0,0,0,45.5,287.38Zm15,.46a2.58,2.58,0,1,0-2.57-2.58A2.58,2.58,0,0,0,60.48,287.84Zm15,.46a3,3,0,1,0-3-3A3,3,0,0,0,75.47,288.3Zm15,.45A3.49,3.49,0,1,0,87,285.26,3.49,3.49,0,0,0,90.45,288.75Zm15,.38a3.87,3.87,0,1,0-3.87-3.87A3.86,3.86,0,0,0,105.44,289.13Zm15,.41a4.28,4.28,0,1,0-4.28-4.28A4.27,4.27,0,0,0,120.42,289.54Zm15,.38a4.66,4.66,0,1,0-4.65-4.66A4.66,4.66,0,0,0,135.41,289.92Zm15,.33a5,5,0,1,0-5-5A5,5,0,0,0,150.39,290.25Zm15,.33a5.32,5.32,0,1,0-5.32-5.32A5.32,5.32,0,0,0,165.38,290.58Zm15,.29a5.61,5.61,0,1,0-5.61-5.61A5.61,5.61,0,0,0,180.37,290.87Zm15,.29a5.9,5.9,0,1,0-5.9-5.9A5.9,5.9,0,0,0,195.35,291.16Zm15,.25a6.15,6.15,0,1,0-6.15-6.15A6.15,6.15,0,0,0,210.34,291.41Zm15,.21a6.36,6.36,0,1,0-6.36-6.36A6.36,6.36,0,0,0,225.32,291.62Zm15,.21a6.57,6.57,0,1,0-6.57-6.57A6.57,6.57,0,0,0,240.31,291.83Zm15,.17a6.74,6.74,0,1,0-6.73-6.74A6.73,6.73,0,0,0,255.29,292Zm15,.12a6.86,6.86,0,1,0-6.86-6.86A6.85,6.85,0,0,0,270.28,292.12Zm15,0a6.9,6.9,0,1,0-6.89-6.9A6.9,6.9,0,0,0,285.26,292.16Zm15,0a6.9,6.9,0,1,0-6.9-6.9A6.9,6.9,0,0,0,300.25,292.16Zm15,0a6.86,6.86,0,1,0-6.85-6.86A6.86,6.86,0,0,0,315.23,292.12Zm15-.12a6.74,6.74,0,1,0-6.73-6.74A6.73,6.73,0,0,0,330.22,292Zm15-.17a6.57,6.57,0,1,0-6.57-6.57A6.57,6.57,0,0,0,345.21,291.83Zm15-.17a6.4,6.4,0,1,0-6.4-6.4A6.39,6.39,0,0,0,360.19,291.66Zm15-.2a6.2,6.2,0,1,0-6.19-6.2A6.2,6.2,0,0,0,375.18,291.46Zm15-.25a5.95,5.95,0,1,0-5.94-5.95A5.94,5.94,0,0,0,390.16,291.21Zm15-.29a5.66,5.66,0,1,0-5.65-5.66A5.65,5.65,0,0,0,405.15,290.92Zm15-.3a5.36,5.36,0,1,0-5.36-5.36A5.36,5.36,0,0,0,420.13,290.62Zm15-.33a5,5,0,1,0-5-5A5,5,0,0,0,435.12,290.29Zm15-.33a4.7,4.7,0,1,0-4.69-4.7A4.69,4.69,0,0,0,450.1,290Zm15-.37a4.33,4.33,0,1,0-4.32-4.33A4.32,4.32,0,0,0,465.09,289.59Zm15-.42a3.91,3.91,0,1,0-3.9-3.91A3.91,3.91,0,0,0,480.07,289.17Zm15-.37a3.54,3.54,0,1,0-3.53-3.54A3.54,3.54,0,0,0,495.06,288.8Zm15-.46a3.08,3.08,0,1,0-3.08-3.08A3.08,3.08,0,0,0,510.05,288.34Zm15-.46a2.62,2.62,0,1,0-2.62-2.62A2.62,2.62,0,0,0,525,287.88Zm15-.46a2.16,2.16,0,1,0-2.16-2.16A2.16,2.16,0,0,0,540,287.42Zm15-.54a1.62,1.62,0,1,0-1.62-1.62A1.61,1.61,0,0,0,555,286.88Zm15-.49a1.13,1.13,0,1,0-1.12-1.13A1.13,1.13,0,0,0,570,286.39Zm15-.54a.59.59,0,1,0-.58-.59A.58.58,0,0,0,585,285.85Zm15-.54a0,0,0,0,0,0-.05,0,0,0,0,0-.08,0A0,0,0,0,0,600,285.31ZM.54,300.79a.54.54,0,1,0-.54-.54A.54.54,0,0,0,.54,300.79Zm15,.54a1.08,1.08,0,1,0-1.08-1.08A1.08,1.08,0,0,0,15.53,301.33Zm15,.5a1.58,1.58,0,1,0-1.58-1.58A1.58,1.58,0,0,0,30.51,301.83Zm15,.54a2.12,2.12,0,1,0-2.12-2.12A2.12,2.12,0,0,0,45.5,302.37Zm15,.46a2.58,2.58,0,1,0-2.57-2.58A2.59,2.59,0,0,0,60.48,302.83Zm15,.45a3,3,0,1,0-3-3A3,3,0,0,0,75.47,303.28Zm15,.46A3.49,3.49,0,1,0,87,300.25,3.49,3.49,0,0,0,90.45,303.74Zm15,.37a3.87,3.87,0,1,0-3.87-3.86A3.86,3.86,0,0,0,105.44,304.11Zm15,.42a4.28,4.28,0,1,0-4.28-4.28A4.28,4.28,0,0,0,120.42,304.53Zm15,.37a4.65,4.65,0,1,0-4.65-4.65A4.65,4.65,0,0,0,135.41,304.9Zm15,.34a5,5,0,1,0-5-5A5,5,0,0,0,150.39,305.24Zm15,.33a5.32,5.32,0,1,0-5.32-5.32A5.32,5.32,0,0,0,165.38,305.57Zm15,.29a5.61,5.61,0,1,0-5.61-5.61A5.61,5.61,0,0,0,180.37,305.86Zm15,.29a5.9,5.9,0,1,0-5.9-5.9A5.9,5.9,0,0,0,195.35,306.15Zm15,.25a6.15,6.15,0,1,0-6.15-6.15A6.15,6.15,0,0,0,210.34,306.4Zm15,.21a6.36,6.36,0,1,0-6.36-6.36A6.36,6.36,0,0,0,225.32,306.61Zm15,.2a6.57,6.57,0,1,0-6.57-6.56A6.56,6.56,0,0,0,240.31,306.81Zm15,.17a6.73,6.73,0,1,0-6.73-6.73A6.73,6.73,0,0,0,255.29,307Zm15,.13a6.86,6.86,0,1,0-6.86-6.86A6.85,6.85,0,0,0,270.28,307.11Zm15,0a6.9,6.9,0,1,0-6.89-6.9A6.9,6.9,0,0,0,285.26,307.15Zm15,0a6.9,6.9,0,1,0-6.9-6.9A6.9,6.9,0,0,0,300.25,307.15Zm15,0a6.86,6.86,0,1,0-6.85-6.86A6.86,6.86,0,0,0,315.23,307.11Zm15-.13a6.73,6.73,0,1,0-6.73-6.73A6.73,6.73,0,0,0,330.22,307Zm15-.17a6.57,6.57,0,1,0-6.57-6.56A6.56,6.56,0,0,0,345.21,306.81Zm15-.16a6.4,6.4,0,1,0-6.4-6.4A6.4,6.4,0,0,0,360.19,306.65Zm15-.21a6.19,6.19,0,1,0-6.19-6.19A6.19,6.19,0,0,0,375.18,306.44Zm15-.25a5.94,5.94,0,1,0-5.94-5.94A5.94,5.94,0,0,0,390.16,306.19Zm15-.29a5.65,5.65,0,1,0-5.65-5.65A5.65,5.65,0,0,0,405.15,305.9Zm15-.29a5.36,5.36,0,1,0-5.36-5.36A5.36,5.36,0,0,0,420.13,305.61Zm15-.33a5,5,0,1,0-5-5A5,5,0,0,0,435.12,305.28Zm15-.34a4.7,4.7,0,1,0-4.69-4.69A4.69,4.69,0,0,0,450.1,304.94Zm15-.37a4.32,4.32,0,1,0-4.32-4.32A4.31,4.31,0,0,0,465.09,304.57Zm15-.41a3.91,3.91,0,1,0-3.9-3.91A3.91,3.91,0,0,0,480.07,304.16Zm15-.38a3.53,3.53,0,1,0-3.53-3.53A3.53,3.53,0,0,0,495.06,303.78Zm15-.46a3.08,3.08,0,1,0-3.08-3.07A3.07,3.07,0,0,0,510.05,303.32Zm15-.45a2.62,2.62,0,1,0-2.62-2.62A2.62,2.62,0,0,0,525,302.87Zm15-.46a2.16,2.16,0,1,0-2.16-2.16A2.16,2.16,0,0,0,540,302.41Zm15-.54a1.62,1.62,0,1,0-1.62-1.62A1.62,1.62,0,0,0,555,301.87Zm15-.5a1.12,1.12,0,1,0-1.12-1.12A1.12,1.12,0,0,0,570,301.37Zm15-.54a.58.58,0,1,0-.58-.58A.58.58,0,0,0,585,300.83Zm15-.54a0,0,0,0,0,0-.08,0,0,0,0,0,0,.08A0,0,0,0,0,600,300.29ZM.54,315.77a.54.54,0,0,0,.54-.54.54.54,0,0,0-.54-.54.54.54,0,0,0-.54.54A.54.54,0,0,0,.54,315.77Zm15,.5a1,1,0,1,0-1-1A1,1,0,0,0,15.53,316.27Zm15,.5A1.54,1.54,0,1,0,29,315.23,1.54,1.54,0,0,0,30.51,316.77Zm15,.54a2.08,2.08,0,1,0-2.08-2.08A2.08,2.08,0,0,0,45.5,317.31Zm15,.46A2.54,2.54,0,1,0,58,315.23,2.54,2.54,0,0,0,60.48,317.77Zm15,.5a3,3,0,1,0-3-3A3,3,0,0,0,75.47,318.27Zm15,.41A3.45,3.45,0,1,0,87,315.23,3.44,3.44,0,0,0,90.45,318.68Zm15,.42a3.87,3.87,0,1,0-3.87-3.87A3.86,3.86,0,0,0,105.44,319.1Zm15,.41a4.28,4.28,0,1,0-4.28-4.28A4.27,4.27,0,0,0,120.42,319.51Zm15,.34a4.62,4.62,0,1,0-4.61-4.62A4.61,4.61,0,0,0,135.41,319.85Zm15,.33a4.95,4.95,0,1,0-4.94-4.95A4.94,4.94,0,0,0,150.39,320.18Zm15,.33a5.28,5.28,0,1,0-5.28-5.28A5.28,5.28,0,0,0,165.38,320.51Zm15,.33a5.61,5.61,0,1,0-5.61-5.61A5.61,5.61,0,0,0,180.37,320.84Zm15,.25a5.86,5.86,0,1,0-5.86-5.86A5.86,5.86,0,0,0,195.35,321.09Zm15,.25a6.11,6.11,0,1,0-6.11-6.11A6.11,6.11,0,0,0,210.34,321.34Zm15,.21a6.32,6.32,0,1,0-6.31-6.32A6.32,6.32,0,0,0,225.32,321.55Zm15,.21a6.53,6.53,0,1,0-6.53-6.53A6.52,6.52,0,0,0,240.31,321.76Zm15,.17a6.7,6.7,0,1,0-6.69-6.7A6.69,6.69,0,0,0,255.29,321.93Zm15,.08a6.78,6.78,0,1,0-6.77-6.78A6.77,6.77,0,0,0,270.28,322Zm15,.08a6.86,6.86,0,1,0-6.85-6.86A6.86,6.86,0,0,0,285.26,322.09Zm15,0a6.86,6.86,0,1,0-6.86-6.86A6.86,6.86,0,0,0,300.25,322.09Zm15-.08a6.78,6.78,0,1,0-6.77-6.78A6.77,6.77,0,0,0,315.23,322Zm15-.08a6.7,6.7,0,1,0-6.69-6.7A6.69,6.69,0,0,0,330.22,321.93Zm15-.17a6.53,6.53,0,1,0-6.53-6.53A6.52,6.52,0,0,0,345.21,321.76Zm15-.17a6.36,6.36,0,1,0-6.36-6.36A6.36,6.36,0,0,0,360.19,321.59Zm15-.21a6.15,6.15,0,1,0-6.15-6.15A6.15,6.15,0,0,0,375.18,321.38Zm15-.24a5.91,5.91,0,1,0-5.9-5.91A5.91,5.91,0,0,0,390.16,321.14Zm15-.3a5.61,5.61,0,1,0-5.61-5.61A5.61,5.61,0,0,0,405.15,320.84Zm15-.29a5.32,5.32,0,1,0-5.32-5.32A5.32,5.32,0,0,0,420.13,320.55Zm15-.33a5,5,0,1,0-5-5A5,5,0,0,0,435.12,320.22Zm15-.33a4.66,4.66,0,1,0-4.65-4.66A4.66,4.66,0,0,0,450.1,319.89Zm15-.38a4.28,4.28,0,1,0-4.28-4.28A4.28,4.28,0,0,0,465.09,319.51Zm15-.41a3.87,3.87,0,1,0-3.86-3.87A3.87,3.87,0,0,0,480.07,319.1Zm15-.37a3.5,3.5,0,1,0-3.49-3.5A3.5,3.5,0,0,0,495.06,318.73Zm15-.42a3.08,3.08,0,1,0-3.08-3.08A3.08,3.08,0,0,0,510.05,318.31Zm15-.5a2.58,2.58,0,1,0-2.58-2.58A2.58,2.58,0,0,0,525,317.81Zm15-.46a2.12,2.12,0,1,0-2.12-2.12A2.11,2.11,0,0,0,540,317.35Zm15-.49a1.63,1.63,0,1,0-1.62-1.63A1.62,1.62,0,0,0,555,316.86Zm15-.54a1.09,1.09,0,1,0-1.08-1.09A1.09,1.09,0,0,0,570,316.32Zm15-.5a.59.59,0,1,0-.58-.59A.58.58,0,0,0,585,315.82ZM.54,330.72a.5.5,0,1,0,0-1,.5.5,0,0,0,0,1Zm15,.5a1,1,0,1,0-1-1A1,1,0,0,0,15.53,331.22Zm15,.5a1.5,1.5,0,1,0-1.49-1.5A1.5,1.5,0,0,0,30.51,331.72Zm15,.49a2,2,0,1,0-2-2A2,2,0,0,0,45.5,332.21Zm15,.5A2.49,2.49,0,1,0,58,330.22,2.49,2.49,0,0,0,60.48,332.71Zm15,.46a2.95,2.95,0,1,0-3-2.95A2.95,2.95,0,0,0,75.47,333.17Zm15,.42a3.37,3.37,0,1,0-3.36-3.37A3.37,3.37,0,0,0,90.45,333.59Zm15,.41a3.78,3.78,0,1,0-3.78-3.78A3.78,3.78,0,0,0,105.44,334Zm15,.42a4.2,4.2,0,1,0-4.19-4.2A4.2,4.2,0,0,0,120.42,334.42Zm15,.37a4.57,4.57,0,1,0-4.57-4.57A4.58,4.58,0,0,0,135.41,334.79Zm15,.33a4.9,4.9,0,1,0-4.9-4.9A4.9,4.9,0,0,0,150.39,335.12Zm15,.34a5.24,5.24,0,1,0-5.24-5.24A5.25,5.25,0,0,0,165.38,335.46Zm15,.29a5.53,5.53,0,1,0-5.53-5.53A5.53,5.53,0,0,0,180.37,335.75Zm15,.25a5.78,5.78,0,1,0-5.77-5.78A5.78,5.78,0,0,0,195.35,336Zm15,.25a6,6,0,1,0-6-6A6,6,0,0,0,210.34,336.25Zm15,.2a6.23,6.23,0,1,0-6.23-6.23A6.24,6.24,0,0,0,225.32,336.45Zm15,.17a6.4,6.4,0,1,0-6.4-6.4A6.41,6.41,0,0,0,240.31,336.62Zm15,.17a6.57,6.57,0,1,0-6.56-6.57A6.57,6.57,0,0,0,255.29,336.79Zm15,.12a6.69,6.69,0,1,0-6.69-6.69A6.69,6.69,0,0,0,270.28,336.91Zm15,0a6.73,6.73,0,1,0-6.73-6.73A6.73,6.73,0,0,0,285.26,337Zm15,0a6.73,6.73,0,1,0-6.73-6.73A6.73,6.73,0,0,0,300.25,337Zm15,0a6.69,6.69,0,1,0-6.69-6.69A6.69,6.69,0,0,0,315.23,336.91Zm15-.12a6.57,6.57,0,1,0-6.57-6.57A6.57,6.57,0,0,0,330.22,336.79Zm15-.13a6.44,6.44,0,1,0-6.45-6.44A6.44,6.44,0,0,0,345.21,336.66Zm15-.17a6.27,6.27,0,1,0-6.27-6.27A6.27,6.27,0,0,0,360.19,336.49Zm15-.2a6.07,6.07,0,1,0-6.07-6.07A6.06,6.06,0,0,0,375.18,336.29Zm15-.25a5.82,5.82,0,1,0-5.82-5.82A5.82,5.82,0,0,0,390.16,336Zm15-.25a5.57,5.57,0,1,0-5.57-5.57A5.57,5.57,0,0,0,405.15,335.79Zm15-.33a5.24,5.24,0,1,0-5.23-5.24A5.25,5.25,0,0,0,420.13,335.46Zm15-.29a4.95,4.95,0,1,0-4.95-4.95A4.95,4.95,0,0,0,435.12,335.17Zm15-.34a4.61,4.61,0,1,0-4.61-4.61A4.61,4.61,0,0,0,450.1,334.83Zm15-.37a4.24,4.24,0,1,0-4.24-4.24A4.24,4.24,0,0,0,465.09,334.46Zm15-.42a3.82,3.82,0,1,0-3.82-3.82A3.82,3.82,0,0,0,480.07,334Zm15-.41a3.41,3.41,0,1,0-3.41-3.41A3.41,3.41,0,0,0,495.06,333.63Zm15-.42a3,3,0,1,0-3-3A3,3,0,0,0,510.05,333.21Zm15-.45a2.54,2.54,0,1,0-2.53-2.54A2.54,2.54,0,0,0,525,332.76Zm15-.5a2,2,0,1,0-2-2A2,2,0,0,0,540,332.26Zm15-.5a1.54,1.54,0,1,0-1.54-1.54A1.54,1.54,0,0,0,555,331.76Zm15-.5a1,1,0,1,0-1-1A1,1,0,0,0,570,331.26Zm15-.5a.54.54,0,1,0-.54-.54A.54.54,0,0,0,585,330.76ZM.54,345.62a.41.41,0,0,0,.42-.41.42.42,0,0,0-.84,0A.41.41,0,0,0,.54,345.62Zm15,.5a.92.92,0,1,0-.92-.91A.91.91,0,0,0,15.53,346.12Zm15,.5a1.42,1.42,0,1,0-1.41-1.41A1.41,1.41,0,0,0,30.51,346.62Zm15,.5a1.92,1.92,0,1,0-1.91-1.91A1.92,1.92,0,0,0,45.5,347.12Zm15,.45a2.37,2.37,0,1,0-2.37-2.36A2.37,2.37,0,0,0,60.48,347.57Zm15,.46a2.83,2.83,0,1,0-2.83-2.82A2.82,2.82,0,0,0,75.47,348Zm15,.5a3.33,3.33,0,1,0-3.32-3.32A3.33,3.33,0,0,0,90.45,348.53Zm15,.37a3.7,3.7,0,1,0-3.7-3.69A3.7,3.7,0,0,0,105.44,348.9Zm15,.38a4.08,4.08,0,1,0-4.07-4.07A4.08,4.08,0,0,0,120.42,349.28Zm15,.37a4.45,4.45,0,1,0-4.45-4.44A4.45,4.45,0,0,0,135.41,349.65Zm15,.33a4.78,4.78,0,1,0-4.77-4.77A4.78,4.78,0,0,0,150.39,350Zm15,.34a5.12,5.12,0,1,0-5.11-5.11A5.11,5.11,0,0,0,165.38,350.32Zm15,.29a5.41,5.41,0,1,0-5.41-5.4A5.4,5.4,0,0,0,180.37,350.61Zm15,.25a5.66,5.66,0,1,0-5.65-5.65A5.65,5.65,0,0,0,195.35,350.86Zm15,.25a5.9,5.9,0,1,0-5.9-5.9A5.9,5.9,0,0,0,210.34,351.11Zm15,.2a6.11,6.11,0,1,0-6.11-6.1A6.1,6.1,0,0,0,225.32,351.31Zm15,.21a6.32,6.32,0,1,0-6.32-6.31A6.31,6.31,0,0,0,240.31,351.52Zm15,.13a6.45,6.45,0,1,0-6.44-6.44A6.44,6.44,0,0,0,255.29,351.65Zm15,.08a6.53,6.53,0,1,0-6.53-6.52A6.52,6.52,0,0,0,270.28,351.73Zm15,0a6.57,6.57,0,1,0-6.56-6.56A6.57,6.57,0,0,0,285.26,351.77Zm15,0a6.57,6.57,0,1,0-6.57-6.56A6.56,6.56,0,0,0,300.25,351.77Zm15,0a6.53,6.53,0,1,0-6.52-6.52A6.52,6.52,0,0,0,315.23,351.73Zm15-.08a6.45,6.45,0,1,0-6.44-6.44A6.44,6.44,0,0,0,330.22,351.65Zm15-.13a6.32,6.32,0,1,0-6.32-6.31A6.32,6.32,0,0,0,345.21,351.52Zm15-.16a6.15,6.15,0,1,0-6.15-6.15A6.15,6.15,0,0,0,360.19,351.36Zm15-.21a5.95,5.95,0,1,0-5.95-5.94A5.94,5.94,0,0,0,375.18,351.15Zm15-.25a5.7,5.7,0,1,0-5.69-5.69A5.7,5.7,0,0,0,390.16,350.9Zm15-.25a5.45,5.45,0,1,0-5.45-5.44A5.45,5.45,0,0,0,405.15,350.65Zm15-.29a5.16,5.16,0,1,0-5.15-5.15A5.16,5.16,0,0,0,420.13,350.36Zm15-.33a4.82,4.82,0,1,0-4.82-4.82A4.82,4.82,0,0,0,435.12,350Zm15-.34a4.49,4.49,0,1,0-4.48-4.48A4.49,4.49,0,0,0,450.1,349.69Zm15-.37a4.12,4.12,0,1,0-4.11-4.11A4.11,4.11,0,0,0,465.09,349.32Zm15-.42a3.7,3.7,0,1,0-3.69-3.69A3.69,3.69,0,0,0,480.07,348.9Zm15-.37a3.33,3.33,0,1,0-3.32-3.32A3.32,3.32,0,0,0,495.06,348.53Zm15-.46a2.87,2.87,0,1,0-2.87-2.86A2.86,2.86,0,0,0,510.05,348.07Zm15-.45a2.41,2.41,0,1,0-2.41-2.41A2.41,2.41,0,0,0,525,347.62Zm15-.46a2,2,0,1,0-2-2A2,2,0,0,0,540,347.16Zm15-.5a1.46,1.46,0,1,0-1.45-1.45A1.45,1.45,0,0,0,555,346.66Zm15-.5a1,1,0,0,0,0-1.91,1,1,0,1,0,0,1.91Zm15-.5a.46.46,0,1,0-.45-.45A.45.45,0,0,0,585,345.66ZM.54,360.44a.25.25,0,1,0-.25-.25A.25.25,0,0,0,.54,360.44Zm15,.54a.79.79,0,1,0-.79-.79A.79.79,0,0,0,15.53,361Zm15,.5a1.29,1.29,0,1,0-1.29-1.29A1.29,1.29,0,0,0,30.51,361.48Zm15,.5a1.79,1.79,0,1,0-1.79-1.79A1.79,1.79,0,0,0,45.5,362Zm15,.5a2.29,2.29,0,1,0-2.28-2.29A2.3,2.3,0,0,0,60.48,362.48Zm15,.45a2.74,2.74,0,1,0-2.75-2.74A2.74,2.74,0,0,0,75.47,362.93Zm15,.42a3.16,3.16,0,1,0-3.16-3.16A3.15,3.15,0,0,0,90.45,363.35Zm15,.41a3.57,3.57,0,1,0-3.58-3.57A3.57,3.57,0,0,0,105.44,363.76Zm15,.38a4,4,0,1,0-3.94-3.95A4,4,0,0,0,120.42,364.14Zm15,.37a4.32,4.32,0,1,0-4.32-4.32A4.31,4.31,0,0,0,135.41,364.51Zm15,.34a4.66,4.66,0,1,0-4.65-4.66A4.66,4.66,0,0,0,150.39,364.85Zm15,.29a4.95,4.95,0,1,0-4.94-4.95A5,5,0,0,0,165.38,365.14Zm15,.29a5.24,5.24,0,1,0-5.24-5.24A5.24,5.24,0,0,0,180.37,365.43Zm15,.29a5.53,5.53,0,1,0-5.53-5.53A5.54,5.54,0,0,0,195.35,365.72Zm15,.25a5.78,5.78,0,1,0-5.78-5.78A5.77,5.77,0,0,0,210.34,366Zm15,.16a5.94,5.94,0,1,0-5.94-5.94A5.94,5.94,0,0,0,225.32,366.13Zm15,.17a6.11,6.11,0,1,0-6.11-6.11A6.12,6.12,0,0,0,240.31,366.3Zm15,.12a6.23,6.23,0,1,0-6.23-6.23A6.23,6.23,0,0,0,255.29,366.42Zm15,.09a6.32,6.32,0,1,0-6.32-6.32A6.31,6.31,0,0,0,270.28,366.51Zm15,.08a6.4,6.4,0,1,0-6.4-6.4A6.39,6.39,0,0,0,285.26,366.59Zm15,0a6.4,6.4,0,1,0-6.4-6.4A6.4,6.4,0,0,0,300.25,366.59Zm15,0a6.36,6.36,0,1,0-6.35-6.36A6.36,6.36,0,0,0,315.23,366.55Zm15-.08a6.28,6.28,0,1,0-6.27-6.28A6.27,6.27,0,0,0,330.22,366.47Zm15-.13a6.15,6.15,0,1,0-6.15-6.15A6.15,6.15,0,0,0,345.21,366.34Zm15-.17a6,6,0,1,0-6-6A6,6,0,0,0,360.19,366.17Zm15-.2a5.78,5.78,0,1,0-5.78-5.78A5.77,5.77,0,0,0,375.18,366Zm15-.21a5.57,5.57,0,1,0-5.57-5.57A5.57,5.57,0,0,0,390.16,365.76Zm15-.29a5.28,5.28,0,1,0-5.28-5.28A5.27,5.27,0,0,0,405.15,365.47Zm15-.29a5,5,0,1,0-5-5A5,5,0,0,0,420.13,365.18Zm15-.29a4.7,4.7,0,1,0-4.7-4.7A4.7,4.7,0,0,0,435.12,364.89Zm15-.34a4.36,4.36,0,1,0-4.36-4.36A4.37,4.37,0,0,0,450.1,364.55Zm15-.37a4,4,0,1,0-4-4A4,4,0,0,0,465.09,364.18Zm15-.37a3.62,3.62,0,1,0-3.61-3.62A3.62,3.62,0,0,0,480.07,363.81Zm15-.42a3.2,3.2,0,1,0-3.2-3.2A3.2,3.2,0,0,0,495.06,363.39Zm15-.41a2.79,2.79,0,1,0-2.79-2.79A2.79,2.79,0,0,0,510.05,363Zm15-.46a2.33,2.33,0,1,0-2.33-2.33A2.33,2.33,0,0,0,525,362.52Zm15-.5a1.83,1.83,0,1,0-1.83-1.83A1.83,1.83,0,0,0,540,362Zm15-.5a1.33,1.33,0,1,0-1.33-1.33A1.32,1.32,0,0,0,555,361.52Zm15-.5a.83.83,0,1,0-.83-.83A.83.83,0,0,0,570,361Zm15-.5a.33.33,0,1,0-.33-.33A.34.34,0,0,0,585,360.52ZM.54,375.3a.12.12,0,0,0,.12-.12.12.12,0,0,0-.12-.13.12.12,0,0,0-.12.13A.12.12,0,0,0,.54,375.3Zm15,.54a.67.67,0,1,0-.67-.66A.67.67,0,0,0,15.53,375.84Zm15,.5a1.17,1.17,0,1,0-1.16-1.16A1.16,1.16,0,0,0,30.51,376.34Zm15,.5a1.67,1.67,0,1,0-1.67-1.66A1.67,1.67,0,0,0,45.5,376.84Zm15,.5a2.16,2.16,0,1,0-2.16-2.16A2.16,2.16,0,0,0,60.48,377.34Zm15,.41a2.58,2.58,0,1,0-2.58-2.57A2.57,2.57,0,0,0,75.47,377.75Zm15,.46a3,3,0,1,0-3-3A3,3,0,0,0,90.45,378.21Zm15,.37a3.41,3.41,0,1,0-3.41-3.4A3.41,3.41,0,0,0,105.44,378.58Zm15,.42a3.83,3.83,0,1,0-3.82-3.82A3.82,3.82,0,0,0,120.42,379Zm15,.33a4.16,4.16,0,1,0-4.16-4.15A4.15,4.15,0,0,0,135.41,379.33Zm15,.33a4.49,4.49,0,1,0-4.48-4.48A4.48,4.48,0,0,0,150.39,379.66Zm15,.3a4.78,4.78,0,1,0-4.78-4.78A4.78,4.78,0,0,0,165.38,380Zm15,.29a5.07,5.07,0,1,0-5.07-5.07A5.07,5.07,0,0,0,180.37,380.25Zm15,.25a5.32,5.32,0,1,0-5.32-5.32A5.32,5.32,0,0,0,195.35,380.5Zm15,.24a5.57,5.57,0,1,0-5.57-5.56A5.56,5.56,0,0,0,210.34,380.74Zm15,.21a5.78,5.78,0,1,0-5.77-5.77A5.77,5.77,0,0,0,225.32,381Zm15,.13a5.9,5.9,0,1,0-5.9-5.9A5.9,5.9,0,0,0,240.31,381.08Zm15,.12a6,6,0,1,0-6-6A6,6,0,0,0,255.29,381.2Zm15,.13a6.15,6.15,0,1,0-6.15-6.15A6.16,6.16,0,0,0,270.28,381.33Zm15,0a6.19,6.19,0,1,0-6.19-6.19A6.2,6.2,0,0,0,285.26,381.37Zm15,0a6.19,6.19,0,1,0-6.19-6.19A6.19,6.19,0,0,0,300.25,381.37Zm15,0a6.15,6.15,0,1,0-6.15-6.15A6.15,6.15,0,0,0,315.23,381.33Zm15-.09a6.07,6.07,0,1,0-6.07-6.06A6.06,6.06,0,0,0,330.22,381.24Zm15-.12a5.95,5.95,0,1,0-5.95-5.94A5.94,5.94,0,0,0,345.21,381.12Zm15-.17a5.78,5.78,0,1,0-5.77-5.77A5.77,5.77,0,0,0,360.19,381Zm15-.21a5.57,5.57,0,1,0-5.57-5.56A5.56,5.56,0,0,0,375.18,380.74Zm15-.2a5.36,5.36,0,1,0-5.36-5.36A5.36,5.36,0,0,0,390.16,380.54Zm15-.25a5.11,5.11,0,1,0-5.11-5.11A5.11,5.11,0,0,0,405.15,380.29Zm15-.29a4.82,4.82,0,1,0-4.82-4.82A4.82,4.82,0,0,0,420.13,380Zm15-.34a4.49,4.49,0,1,0-4.49-4.48A4.48,4.48,0,0,0,435.12,379.66Zm15-.29a4.2,4.2,0,1,0-4.19-4.19A4.2,4.2,0,0,0,450.1,379.37Zm15-.37a3.83,3.83,0,1,0-3.82-3.82A3.82,3.82,0,0,0,465.09,379Zm15-.37a3.45,3.45,0,1,0-3.44-3.45A3.45,3.45,0,0,0,480.07,378.63Zm15-.38a3.08,3.08,0,1,0-3.07-3.07A3.08,3.08,0,0,0,495.06,378.25Zm15-.46a2.62,2.62,0,1,0-2.62-2.61A2.61,2.61,0,0,0,510.05,377.79Zm15-.45a2.16,2.16,0,1,0-2.16-2.16A2.16,2.16,0,0,0,525,377.34Zm15-.46a1.71,1.71,0,0,0,0-3.41,1.71,1.71,0,1,0,0,3.41Zm15-.5a1.21,1.21,0,1,0-1.2-1.2A1.21,1.21,0,0,0,555,376.38Zm15-.5a.7.7,0,0,0,.7-.7.7.7,0,0,0-.7-.71.71.71,0,0,0-.71.71A.7.7,0,0,0,570,375.88Zm15-.54a.17.17,0,0,0,.17-.16A.17.17,0,0,0,585,375a.16.16,0,0,0-.16.17A.16.16,0,0,0,585,375.34ZM15.53,390.66a.49.49,0,0,0,.49-.5.5.5,0,1,0-.49.5Zm15,.5a1,1,0,1,0-1-1A1,1,0,0,0,30.51,391.16Zm15,.5a1.5,1.5,0,1,0-1.5-1.5A1.5,1.5,0,0,0,45.5,391.66Zm15,.46a2,2,0,1,0-1.95-2A2,2,0,0,0,60.48,392.12Zm15,.41a2.37,2.37,0,1,0-2.37-2.37A2.37,2.37,0,0,0,75.47,392.53Zm15,.46a2.83,2.83,0,1,0-2.82-2.83A2.83,2.83,0,0,0,90.45,393Zm15,.41a3.24,3.24,0,1,0-3.24-3.24A3.24,3.24,0,0,0,105.44,393.4Zm15,.38a3.62,3.62,0,1,0-3.61-3.62A3.62,3.62,0,0,0,120.42,393.78Zm15,.37a4,4,0,1,0-4-4A4,4,0,0,0,135.41,394.15Zm15,.29a4.28,4.28,0,1,0-4.28-4.28A4.27,4.27,0,0,0,150.39,394.44Zm15,.33a4.61,4.61,0,1,0-4.61-4.61A4.6,4.6,0,0,0,165.38,394.77Zm15,.25a4.86,4.86,0,1,0-4.87-4.86A4.86,4.86,0,0,0,180.37,395Zm15,.25a5.11,5.11,0,1,0-5.11-5.11A5.11,5.11,0,0,0,195.35,395.27Zm15,.21a5.32,5.32,0,1,0-5.32-5.32A5.32,5.32,0,0,0,210.34,395.48Zm15,.21a5.53,5.53,0,1,0-5.52-5.53A5.54,5.54,0,0,0,225.32,395.69Zm15,.17a5.7,5.7,0,1,0-5.7-5.7A5.7,5.7,0,0,0,240.31,395.86Zm15,.12a5.82,5.82,0,1,0-5.81-5.82A5.81,5.81,0,0,0,255.29,396Zm15,.08a5.9,5.9,0,1,0-5.9-5.9A5.9,5.9,0,0,0,270.28,396.06Zm15,0a5.94,5.94,0,1,0-5.94-5.94A5.94,5.94,0,0,0,285.26,396.1Zm15,0a5.94,5.94,0,1,0-5.94-5.94A5.94,5.94,0,0,0,300.25,396.1Zm15,0a5.9,5.9,0,1,0-5.9-5.9A5.91,5.91,0,0,0,315.23,396.06Zm15-.08a5.82,5.82,0,1,0-5.82-5.82A5.82,5.82,0,0,0,330.22,396Zm15-.12a5.7,5.7,0,1,0-5.7-5.7A5.7,5.7,0,0,0,345.21,395.86Zm15-.13a5.57,5.57,0,1,0-5.57-5.57A5.57,5.57,0,0,0,360.19,395.73Zm15-.21a5.36,5.36,0,1,0-5.36-5.36A5.36,5.36,0,0,0,375.18,395.52Zm15-.21a5.15,5.15,0,1,0-5.15-5.15A5.14,5.14,0,0,0,390.16,395.31Zm15-.24a4.91,4.91,0,1,0-4.91-4.91A4.9,4.9,0,0,0,405.15,395.07Zm15-.3a4.61,4.61,0,1,0-4.61-4.61A4.61,4.61,0,0,0,420.13,394.77Zm15-.29a4.32,4.32,0,1,0-4.32-4.32A4.31,4.31,0,0,0,435.12,394.48Zm15-.33a4,4,0,1,0-4-4A4,4,0,0,0,450.1,394.15Zm15-.33a3.66,3.66,0,1,0-3.66-3.66A3.66,3.66,0,0,0,465.09,393.82Zm15-.38a3.28,3.28,0,1,0-3.28-3.28A3.28,3.28,0,0,0,480.07,393.44Zm15-.41a2.87,2.87,0,1,0-2.87-2.87A2.87,2.87,0,0,0,495.06,393Zm15-.46a2.41,2.41,0,1,0-2.41-2.41A2.41,2.41,0,0,0,510.05,392.57Zm15-.41a2,2,0,1,0-2-2A2,2,0,0,0,525,392.16Zm15-.46a1.54,1.54,0,1,0-1.54-1.54A1.53,1.53,0,0,0,540,391.7Zm15-.5a1,1,0,0,0,0-2.08,1,1,0,0,0,0,2.08Zm15-.5a.54.54,0,1,0-.54-.54A.54.54,0,0,0,570,390.7ZM15.53,405.48a.33.33,0,0,0,.33-.33.34.34,0,0,0-.67,0A.34.34,0,0,0,15.53,405.48Zm15,.46a.79.79,0,1,0-.79-.79A.79.79,0,0,0,30.51,405.94Zm15,.5a1.29,1.29,0,1,0-1.29-1.29A1.28,1.28,0,0,0,45.5,406.44Zm15,.45a1.75,1.75,0,1,0-1.74-1.74A1.74,1.74,0,0,0,60.48,406.89Zm15,.46a2.2,2.2,0,1,0-2.2-2.2A2.21,2.21,0,0,0,75.47,407.35Zm15,.42a2.62,2.62,0,1,0-2.61-2.62A2.62,2.62,0,0,0,90.45,407.77Zm15,.41a3,3,0,1,0-3-3A3,3,0,0,0,105.44,408.18Zm15,.33a3.37,3.37,0,1,0-3.36-3.36A3.36,3.36,0,0,0,120.42,408.51Zm15,.38a3.74,3.74,0,1,0-3.74-3.74A3.75,3.75,0,0,0,135.41,408.89Zm15,.33a4.07,4.07,0,1,0-4.07-4.07A4.08,4.08,0,0,0,150.39,409.22Zm15,.29a4.37,4.37,0,1,0-4.36-4.36A4.36,4.36,0,0,0,165.38,409.51Zm15,.25a4.61,4.61,0,1,0-4.62-4.61A4.62,4.62,0,0,0,180.37,409.76Zm15,.25a4.86,4.86,0,1,0-4.86-4.86A4.86,4.86,0,0,0,195.35,410Zm15,.25a5.11,5.11,0,1,0-5.11-5.11A5.11,5.11,0,0,0,210.34,410.26Zm15,.16a5.28,5.28,0,1,0-5.28-5.27A5.27,5.27,0,0,0,225.32,410.42Zm15,.17a5.45,5.45,0,1,0-5.45-5.44A5.45,5.45,0,0,0,240.31,410.59Zm15,.08a5.53,5.53,0,1,0-5.52-5.52A5.52,5.52,0,0,0,255.29,410.67Zm15,.09a5.61,5.61,0,1,0-5.61-5.61A5.61,5.61,0,0,0,270.28,410.76Zm15,0a5.65,5.65,0,1,0-5.65-5.65A5.65,5.65,0,0,0,285.26,410.8Zm15,0a5.65,5.65,0,1,0-5.65-5.65A5.65,5.65,0,0,0,300.25,410.8Zm15,0a5.61,5.61,0,1,0-5.61-5.61A5.61,5.61,0,0,0,315.23,410.76Zm15,0a5.57,5.57,0,1,0-5.57-5.57A5.57,5.57,0,0,0,330.22,410.72Zm15-.13a5.45,5.45,0,1,0-5.45-5.44A5.45,5.45,0,0,0,345.21,410.59Zm15-.17a5.28,5.28,0,1,0-5.28-5.27A5.27,5.27,0,0,0,360.19,410.42Zm15-.16a5.11,5.11,0,1,0-5.11-5.11A5.11,5.11,0,0,0,375.18,410.26Zm15-.21a4.91,4.91,0,1,0-4.9-4.9A4.9,4.9,0,0,0,390.16,410.05Zm15-.25a4.66,4.66,0,1,0-4.66-4.65A4.65,4.65,0,0,0,405.15,409.8Zm15-.25a4.41,4.41,0,1,0-4.4-4.4A4.4,4.4,0,0,0,420.13,409.55Zm15-.33a4.07,4.07,0,1,0-4.07-4.07A4.07,4.07,0,0,0,435.12,409.22Zm15-.29a3.78,3.78,0,1,0-3.78-3.78A3.79,3.79,0,0,0,450.1,408.93Zm15-.37a3.41,3.41,0,1,0-3.41-3.41A3.41,3.41,0,0,0,465.09,408.56Zm15-.34a3.08,3.08,0,1,0-3.07-3.07A3.07,3.07,0,0,0,480.07,408.22Zm15-.41a2.66,2.66,0,1,0-2.66-2.66A2.66,2.66,0,0,0,495.06,407.81Zm15-.42a2.25,2.25,0,1,0-2.25-2.24A2.24,2.24,0,0,0,510.05,407.39Zm15-.46a1.79,1.79,0,1,0-1.79-1.78A1.79,1.79,0,0,0,525,406.93Zm15-.45a1.33,1.33,0,1,0-1.33-1.33A1.34,1.34,0,0,0,540,406.48Zm15-.5a.83.83,0,1,0-.83-.83A.83.83,0,0,0,555,406Zm15-.46a.38.38,0,0,0,0-.75.38.38,0,1,0,0,.75ZM15.53,420.22a.09.09,0,0,0,.08-.09.09.09,0,0,0-.08-.08.09.09,0,0,0-.09.08A.09.09,0,0,0,15.53,420.22Zm15,.49a.58.58,0,1,0-.58-.58A.58.58,0,0,0,30.51,420.71Zm15,.46a1,1,0,1,0-1-1A1,1,0,0,0,45.5,421.17Zm15,.46a1.5,1.5,0,1,0-1.49-1.5A1.5,1.5,0,0,0,60.48,421.63Zm15,.46a2,2,0,1,0-2-2A2,2,0,0,0,75.47,422.09Zm15,.41a2.37,2.37,0,1,0-2.37-2.37A2.37,2.37,0,0,0,90.45,422.5Zm15,.42a2.79,2.79,0,1,0-2.79-2.79A2.78,2.78,0,0,0,105.44,422.92Zm15,.33a3.12,3.12,0,1,0-3.11-3.12A3.12,3.12,0,0,0,120.42,423.25Zm15,.37a3.49,3.49,0,1,0-3.49-3.49A3.49,3.49,0,0,0,135.41,423.62Zm15,.34a3.83,3.83,0,1,0-3.82-3.83A3.83,3.83,0,0,0,150.39,424Zm15,.29a4.12,4.12,0,1,0-4.11-4.12A4.11,4.11,0,0,0,165.38,424.25Zm15,.25a4.37,4.37,0,1,0-4.37-4.37A4.37,4.37,0,0,0,180.37,424.5Zm15,.25a4.62,4.62,0,1,0-4.61-4.62A4.61,4.61,0,0,0,195.35,424.75Zm15,.16a4.78,4.78,0,1,0-4.78-4.78A4.78,4.78,0,0,0,210.34,424.91Zm15,.21a5,5,0,1,0-5-5A5,5,0,0,0,225.32,425.12Zm15,.12a5.11,5.11,0,1,0-5.11-5.11A5.11,5.11,0,0,0,240.31,425.24Zm15,.13a5.24,5.24,0,1,0-5.23-5.24A5.25,5.25,0,0,0,255.29,425.37Zm15,.08a5.32,5.32,0,1,0-5.32-5.32A5.32,5.32,0,0,0,270.28,425.45Zm15,0a5.36,5.36,0,1,0-5.36-5.36A5.36,5.36,0,0,0,285.26,425.49Zm15,0a5.36,5.36,0,1,0-5.36-5.36A5.36,5.36,0,0,0,300.25,425.49Zm15,0a5.32,5.32,0,1,0-5.31-5.32A5.32,5.32,0,0,0,315.23,425.45Zm15-.08a5.24,5.24,0,1,0-5.24-5.24A5.25,5.25,0,0,0,330.22,425.37Zm15-.08a5.16,5.16,0,1,0-5.16-5.16A5.16,5.16,0,0,0,345.21,425.29Zm15-.17a5,5,0,1,0-5-5A5,5,0,0,0,360.19,425.12Zm15-.17a4.82,4.82,0,1,0-4.82-4.82A4.82,4.82,0,0,0,375.18,425Zm15-.2a4.62,4.62,0,1,0-4.61-4.62A4.61,4.61,0,0,0,390.16,424.75Zm15-.21a4.41,4.41,0,1,0-4.41-4.41A4.4,4.4,0,0,0,405.15,424.54Zm15-.25a4.16,4.16,0,1,0-4.15-4.16A4.16,4.16,0,0,0,420.13,424.29Zm15-.33a3.83,3.83,0,1,0-3.82-3.83A3.83,3.83,0,0,0,435.12,424Zm15-.29a3.54,3.54,0,1,0-3.53-3.54A3.55,3.55,0,0,0,450.1,423.67Zm15-.38a3.16,3.16,0,1,0-3.16-3.16A3.16,3.16,0,0,0,465.09,423.29Zm15-.37a2.79,2.79,0,1,0-2.78-2.79A2.79,2.79,0,0,0,480.07,422.92Zm15-.38a2.41,2.41,0,1,0-2.41-2.41A2.41,2.41,0,0,0,495.06,422.54Zm15-.41a2,2,0,1,0-2-2A2,2,0,0,0,510.05,422.13Zm15-.46a1.54,1.54,0,1,0-1.54-1.54A1.54,1.54,0,0,0,525,421.67Zm15-.46a1.08,1.08,0,1,0-1.08-1.08A1.08,1.08,0,0,0,540,421.21Zm15-.45a.63.63,0,1,0-.62-.63A.63.63,0,0,0,555,420.76Zm15-.5a.12.12,0,0,0,.12-.13A.12.12,0,0,0,570,420a.12.12,0,0,0-.13.12A.13.13,0,0,0,570,420.26ZM30.51,435.49a.37.37,0,0,0,.38-.37.38.38,0,0,0-.38-.38.37.37,0,0,0-.37.38A.36.36,0,0,0,30.51,435.49Zm15,.42a.79.79,0,0,0,0-1.58.79.79,0,1,0,0,1.58Zm15,.46a1.25,1.25,0,1,0-1.24-1.25A1.25,1.25,0,0,0,60.48,436.37Zm15,.45a1.71,1.71,0,0,0,0-3.41,1.71,1.71,0,1,0,0,3.41Zm15,.42a2.12,2.12,0,1,0-2.12-2.12A2.12,2.12,0,0,0,90.45,437.24Zm15,.37a2.49,2.49,0,1,0-2.49-2.49A2.48,2.48,0,0,0,105.44,437.61Zm15,.38a2.87,2.87,0,1,0-2.86-2.87A2.87,2.87,0,0,0,120.42,438Zm15,.33a3.2,3.2,0,1,0-3.2-3.2A3.2,3.2,0,0,0,135.41,438.32Zm15,.33a3.53,3.53,0,1,0-3.53-3.53A3.53,3.53,0,0,0,150.39,438.65Zm15,.29a3.82,3.82,0,1,0-3.82-3.82A3.82,3.82,0,0,0,165.38,438.94Zm15,.25a4.07,4.07,0,1,0-4.08-4.07A4.07,4.07,0,0,0,180.37,439.19Zm15,.21a4.28,4.28,0,1,0-4.28-4.28A4.28,4.28,0,0,0,195.35,439.4Zm15,.21a4.49,4.49,0,1,0-4.49-4.49A4.48,4.48,0,0,0,210.34,439.61Zm15,.2a4.7,4.7,0,1,0-4.69-4.69A4.69,4.69,0,0,0,225.32,439.81Zm15,.13a4.82,4.82,0,1,0-4.82-4.82A4.82,4.82,0,0,0,240.31,439.94Zm15,.08a4.9,4.9,0,1,0-4.9-4.9A4.9,4.9,0,0,0,255.29,440Zm15,.08a5,5,0,1,0-5-5A5,5,0,0,0,270.28,440.1Zm15,0a5,5,0,1,0-5-5A5,5,0,0,0,285.26,440.15Zm15,0a5,5,0,1,0-5-5A5,5,0,0,0,300.25,440.15Zm15,0a5,5,0,1,0-5-5A5,5,0,0,0,315.23,440.1Zm15,0a4.95,4.95,0,1,0-4.94-4.94A4.95,4.95,0,0,0,330.22,440.06Zm15-.12a4.82,4.82,0,1,0-4.82-4.82A4.82,4.82,0,0,0,345.21,439.94Zm15-.13a4.7,4.7,0,1,0-4.69-4.69A4.7,4.7,0,0,0,360.19,439.81Zm15-.2a4.49,4.49,0,1,0-4.49-4.49A4.48,4.48,0,0,0,375.18,439.61Zm15-.17a4.32,4.32,0,1,0-4.32-4.32A4.31,4.31,0,0,0,390.16,439.44Zm15-.25a4.07,4.07,0,1,0-4.07-4.07A4.07,4.07,0,0,0,405.15,439.19Zm15-.25a3.82,3.82,0,1,0-3.82-3.82A3.83,3.83,0,0,0,420.13,438.94Zm15-.29a3.53,3.53,0,1,0-3.53-3.53A3.53,3.53,0,0,0,435.12,438.65Zm15-.29a3.24,3.24,0,1,0-3.24-3.24A3.25,3.25,0,0,0,450.1,438.36Zm15-.33a2.91,2.91,0,1,0-2.91-2.91A2.91,2.91,0,0,0,465.09,438Zm15-.38a2.54,2.54,0,1,0-2.53-2.53A2.54,2.54,0,0,0,480.07,437.65Zm15-.37a2.16,2.16,0,1,0-2.16-2.16A2.16,2.16,0,0,0,495.06,437.28Zm15-.42a1.75,1.75,0,1,0-1.75-1.74A1.74,1.74,0,0,0,510.05,436.86Zm15-.45a1.29,1.29,0,1,0-1.29-1.29A1.29,1.29,0,0,0,525,436.41Zm15-.46a.83.83,0,1,0-.83-.83A.83.83,0,0,0,540,436Zm15-.42a.41.41,0,0,0,.42-.41.42.42,0,0,0-.42-.42.41.41,0,0,0-.41.42A.41.41,0,0,0,555,435.53ZM30.51,450.15a0,0,0,0,0,0,0,0,0,0,1,0-.08,0A0,0,0,0,0,30.51,450.15Zm15,.49a.54.54,0,0,0,.54-.54.55.55,0,0,0-.54-.54.54.54,0,0,0-.54.54A.54.54,0,0,0,45.5,450.64Zm15,.42a1,1,0,1,0,0-1.91,1,1,0,0,0,0,1.91Zm15,.46a1.42,1.42,0,1,0-1.42-1.42A1.42,1.42,0,0,0,75.47,451.52Zm15,.41a1.83,1.83,0,1,0-1.83-1.83A1.83,1.83,0,0,0,90.45,451.93Zm15,.38a2.21,2.21,0,1,0-2.2-2.21A2.21,2.21,0,0,0,105.44,452.31Zm15,.37a2.58,2.58,0,1,0-2.57-2.58A2.57,2.57,0,0,0,120.42,452.68Zm15,.33a2.91,2.91,0,1,0-2.91-2.91A2.91,2.91,0,0,0,135.41,453Zm15,.29a3.2,3.2,0,1,0-3.19-3.2A3.2,3.2,0,0,0,150.39,453.3Zm15,.29a3.49,3.49,0,1,0-3.49-3.49A3.49,3.49,0,0,0,165.38,453.59Zm15,.25a3.74,3.74,0,1,0-3.74-3.74A3.74,3.74,0,0,0,180.37,453.84Zm15,.25a4,4,0,1,0-4-4A4,4,0,0,0,195.35,454.09Zm15,.17a4.16,4.16,0,1,0-4.16-4.16A4.15,4.15,0,0,0,210.34,454.26Zm15,.17A4.33,4.33,0,1,0,221,450.1,4.32,4.32,0,0,0,225.32,454.43Zm15,.16a4.49,4.49,0,1,0-4.49-4.49A4.49,4.49,0,0,0,240.31,454.59Zm15,.08a4.57,4.57,0,1,0-4.57-4.57A4.56,4.56,0,0,0,255.29,454.67Zm15,.09a4.66,4.66,0,1,0-4.66-4.66A4.66,4.66,0,0,0,270.28,454.76Zm15,0a4.7,4.7,0,1,0-4.69-4.7A4.69,4.69,0,0,0,285.26,454.8Zm15,0a4.7,4.7,0,1,0-4.7-4.7A4.69,4.69,0,0,0,300.25,454.8Zm15,0a4.66,4.66,0,1,0-4.65-4.66A4.66,4.66,0,0,0,315.23,454.76Zm15,0a4.62,4.62,0,1,0-4.61-4.62A4.61,4.61,0,0,0,330.22,454.72Zm15-.13a4.49,4.49,0,1,0-4.49-4.49A4.49,4.49,0,0,0,345.21,454.59Zm15-.12a4.37,4.37,0,1,0-4.36-4.37A4.37,4.37,0,0,0,360.19,454.47Zm15-.17a4.2,4.2,0,1,0-4.2-4.2A4.2,4.2,0,0,0,375.18,454.3Zm15-.21a4,4,0,1,0-4-4A4,4,0,0,0,390.16,454.09Zm15-.2a3.79,3.79,0,1,0-3.78-3.79A3.79,3.79,0,0,0,405.15,453.89Zm15-.25a3.54,3.54,0,1,0-3.53-3.54A3.55,3.55,0,0,0,420.13,453.64Zm15-.29a3.25,3.25,0,1,0-3.24-3.25A3.25,3.25,0,0,0,435.12,453.35Zm15-.34a2.91,2.91,0,1,0-2.9-2.91A2.91,2.91,0,0,0,450.1,453Zm15-.33a2.58,2.58,0,1,0-2.58-2.58A2.58,2.58,0,0,0,465.09,452.68Zm15-.33a2.25,2.25,0,1,0-2.24-2.25A2.25,2.25,0,0,0,480.07,452.35Zm15-.42a1.83,1.83,0,1,0-1.83-1.83A1.83,1.83,0,0,0,495.06,451.93Zm15-.41a1.42,1.42,0,1,0-1.42-1.42A1.42,1.42,0,0,0,510.05,451.52Zm15-.42a1,1,0,1,0-1-1A1,1,0,0,0,525,451.1Zm15-.41a.59.59,0,0,0,0-1.17.59.59,0,1,0,0,1.17Zm15-.5a.09.09,0,0,0,.09-.09A.09.09,0,0,0,555,450a.09.09,0,0,0-.08.08A.09.09,0,0,0,555,450.19ZM45.5,465.3a.21.21,0,0,0,.2-.21.2.2,0,0,0-.2-.21.21.21,0,0,0-.21.21A.21.21,0,0,0,45.5,465.3Zm15,.45a.66.66,0,0,0,.67-.66.67.67,0,0,0-.67-.67.66.66,0,0,0-.66.67A.65.65,0,0,0,60.48,465.75Zm15,.42a1.08,1.08,0,1,0-1.08-1.08A1.08,1.08,0,0,0,75.47,466.17Zm15,.42a1.5,1.5,0,1,0-1.49-1.5A1.5,1.5,0,0,0,90.45,466.59Zm15,.37a1.87,1.87,0,1,0-1.87-1.87A1.87,1.87,0,0,0,105.44,467Zm15,.37a2.24,2.24,0,1,0-2.24-2.24A2.24,2.24,0,0,0,120.42,467.33Zm15,.34a2.58,2.58,0,1,0-2.58-2.58A2.59,2.59,0,0,0,135.41,467.67Zm15,.29a2.87,2.87,0,1,0-2.86-2.87A2.87,2.87,0,0,0,150.39,468Zm15,.29a3.16,3.16,0,1,0-3.16-3.16A3.17,3.17,0,0,0,165.38,468.25Zm15,.25a3.41,3.41,0,1,0-3.41-3.41A3.41,3.41,0,0,0,180.37,468.5Zm15,.2a3.62,3.62,0,1,0-3.61-3.61A3.61,3.61,0,0,0,195.35,468.7Zm15,.21a3.82,3.82,0,1,0-3.83-3.82A3.82,3.82,0,0,0,210.34,468.91Zm15,.17a4,4,0,1,0-4-4A4,4,0,0,0,225.32,469.08Zm15,.12a4.11,4.11,0,1,0-4.12-4.11A4.11,4.11,0,0,0,240.31,469.2Zm15,.09a4.2,4.2,0,1,0-4.19-4.2A4.2,4.2,0,0,0,255.29,469.29Zm15,.08a4.28,4.28,0,1,0-4.28-4.28A4.28,4.28,0,0,0,270.28,469.37Zm15,0a4.32,4.32,0,1,0-4.32-4.32A4.32,4.32,0,0,0,285.26,469.41Zm15,0a4.32,4.32,0,1,0-4.32-4.32A4.31,4.31,0,0,0,300.25,469.41Zm15,0a4.28,4.28,0,1,0-4.28-4.28A4.28,4.28,0,0,0,315.23,469.37Zm15,0a4.24,4.24,0,1,0-4.24-4.24A4.24,4.24,0,0,0,330.22,469.33Zm15-.13a4.11,4.11,0,1,0-4.12-4.11A4.11,4.11,0,0,0,345.21,469.2Zm15-.12a4,4,0,1,0-4-4A4,4,0,0,0,360.19,469.08Zm15-.17a3.82,3.82,0,1,0-3.83-3.82A3.82,3.82,0,0,0,375.18,468.91Zm15-.16a3.66,3.66,0,1,0-3.65-3.66A3.66,3.66,0,0,0,390.16,468.75Zm15-.25a3.41,3.41,0,1,0-3.41-3.41A3.41,3.41,0,0,0,405.15,468.5Zm15-.25a3.16,3.16,0,1,0-3.16-3.16A3.16,3.16,0,0,0,420.13,468.25Zm15-.25a2.91,2.91,0,1,0-2.91-2.91A2.91,2.91,0,0,0,435.12,468Zm15-.33a2.58,2.58,0,1,0-2.57-2.58A2.58,2.58,0,0,0,450.1,467.67Zm15-.3a2.29,2.29,0,1,0-2.29-2.28A2.28,2.28,0,0,0,465.09,467.37Zm15-.37a1.91,1.91,0,1,0-1.91-1.91A1.91,1.91,0,0,0,480.07,467Zm15-.37a1.54,1.54,0,1,0-1.54-1.54A1.54,1.54,0,0,0,495.06,466.63Zm15-.42a1.12,1.12,0,1,0-1.13-1.12A1.12,1.12,0,0,0,510.05,466.21Zm15-.41a.71.71,0,1,0-.71-.71A.71.71,0,0,0,525,465.8Zm15-.46a.25.25,0,0,0,0-.5.25.25,0,0,0,0,.5ZM60.48,480.45a.38.38,0,1,0,0-.75.38.38,0,0,0,0,.75Zm15,.37a.75.75,0,1,0,0-1.49.75.75,0,1,0,0,1.49Zm15,.42a1.17,1.17,0,1,0-1.16-1.17A1.17,1.17,0,0,0,90.45,481.24Zm15,.37a1.54,1.54,0,1,0-1.54-1.54A1.54,1.54,0,0,0,105.44,481.61Zm15,.33a1.87,1.87,0,1,0-1.87-1.87A1.86,1.86,0,0,0,120.42,481.94Zm15,.34a2.21,2.21,0,1,0-2.2-2.21A2.2,2.2,0,0,0,135.41,482.28Zm15,.29a2.5,2.5,0,1,0-2.49-2.5A2.5,2.5,0,0,0,150.39,482.57Zm15,.29a2.79,2.79,0,1,0-2.78-2.79A2.78,2.78,0,0,0,165.38,482.86Zm15,.25a3,3,0,1,0-3-3A3,3,0,0,0,180.37,483.11Zm15,.21a3.25,3.25,0,1,0-3.24-3.25A3.25,3.25,0,0,0,195.35,483.32Zm15,.2a3.45,3.45,0,1,0-3.45-3.45A3.45,3.45,0,0,0,210.34,483.52Zm15,.13a3.58,3.58,0,1,0-3.57-3.58A3.58,3.58,0,0,0,225.32,483.65Zm15,.12a3.7,3.7,0,1,0-3.7-3.7A3.7,3.7,0,0,0,240.31,483.77Zm15,.13a3.83,3.83,0,1,0-3.82-3.83A3.83,3.83,0,0,0,255.29,483.9Zm15,0a3.87,3.87,0,1,0-3.87-3.87A3.86,3.86,0,0,0,270.28,483.94Zm15,0a3.91,3.91,0,1,0-3.9-3.91A3.91,3.91,0,0,0,285.26,484Zm15,0a3.91,3.91,0,1,0-3.91-3.91A3.91,3.91,0,0,0,300.25,484Zm15,0a3.87,3.87,0,1,0-3.86-3.87A3.87,3.87,0,0,0,315.23,483.94Zm15,0a3.83,3.83,0,1,0-3.82-3.83A3.82,3.82,0,0,0,330.22,483.9Zm15-.13a3.7,3.7,0,1,0-3.7-3.7A3.69,3.69,0,0,0,345.21,483.77Zm15-.08a3.62,3.62,0,1,0-3.61-3.62A3.62,3.62,0,0,0,360.19,483.69Zm15-.17a3.45,3.45,0,1,0-3.45-3.45A3.45,3.45,0,0,0,375.18,483.52Zm15-.16a3.29,3.29,0,1,0-3.28-3.29A3.28,3.28,0,0,0,390.16,483.36Zm15-.21a3.08,3.08,0,1,0-3.08-3.08A3.07,3.07,0,0,0,405.15,483.15Zm15-.29a2.79,2.79,0,1,0-2.78-2.79A2.79,2.79,0,0,0,420.13,482.86Zm15-.25a2.54,2.54,0,1,0-2.54-2.54A2.54,2.54,0,0,0,435.12,482.61Zm15-.29a2.25,2.25,0,1,0-2.24-2.25A2.25,2.25,0,0,0,450.1,482.32Zm15-.33a1.92,1.92,0,1,0-1.91-1.92A1.91,1.91,0,0,0,465.09,482Zm15-.38a1.54,1.54,0,1,0-1.53-1.54A1.54,1.54,0,0,0,480.07,481.61Zm15-.37a1.17,1.17,0,1,0-1.16-1.17A1.16,1.16,0,0,0,495.06,481.24Zm15-.38a.79.79,0,1,0,0-1.57.79.79,0,1,0,0,1.57Zm15-.37a.42.42,0,1,0,0-.83.42.42,0,0,0,0,.83Zm-449.56,15a.42.42,0,0,0,0-.84.42.42,0,1,0,0,.84Zm15,.37a.79.79,0,1,0-.79-.79A.79.79,0,0,0,90.45,495.85Zm15,.37a1.16,1.16,0,1,0-1.17-1.16A1.16,1.16,0,0,0,105.44,496.22Zm15,.34a1.5,1.5,0,1,0-1.49-1.5A1.5,1.5,0,0,0,120.42,496.56Zm15,.33a1.83,1.83,0,1,0-1.83-1.83A1.83,1.83,0,0,0,135.41,496.89Zm15,.29a2.12,2.12,0,1,0-2.11-2.12A2.11,2.11,0,0,0,150.39,497.18Zm15,.25a2.37,2.37,0,1,0-2.37-2.37A2.37,2.37,0,0,0,165.38,497.43Zm15,.25a2.62,2.62,0,1,0-2.62-2.62A2.61,2.61,0,0,0,180.37,497.68Zm15,.21a2.83,2.83,0,1,0-2.82-2.83A2.83,2.83,0,0,0,195.35,497.89Zm15,.2a3,3,0,1,0-3-3A3,3,0,0,0,210.34,498.09Zm15,.17a3.2,3.2,0,1,0-3.2-3.2A3.2,3.2,0,0,0,225.32,498.26Zm15,.12a3.32,3.32,0,1,0-3.33-3.32A3.32,3.32,0,0,0,240.31,498.38Zm15,.09a3.41,3.41,0,1,0-3.4-3.41A3.41,3.41,0,0,0,255.29,498.47Zm15,.08a3.49,3.49,0,1,0-3.49-3.49A3.49,3.49,0,0,0,270.28,498.55Zm15,0a3.53,3.53,0,1,0-3.53-3.53A3.54,3.54,0,0,0,285.26,498.59Zm15,0a3.53,3.53,0,1,0-3.53-3.53A3.53,3.53,0,0,0,300.25,498.59Zm15,0a3.49,3.49,0,1,0-3.49-3.49A3.5,3.5,0,0,0,315.23,498.55Zm15-.08a3.41,3.41,0,1,0-3.41-3.41A3.41,3.41,0,0,0,330.22,498.47Zm15-.09a3.32,3.32,0,1,0-3.33-3.32A3.32,3.32,0,0,0,345.21,498.38Zm15-.12a3.2,3.2,0,1,0-3.2-3.2A3.2,3.2,0,0,0,360.19,498.26Zm15-.12a3.08,3.08,0,1,0-3.08-3.08A3.08,3.08,0,0,0,375.18,498.14Zm15-.21a2.87,2.87,0,1,0-2.87-2.87A2.87,2.87,0,0,0,390.16,497.93Zm15-.21a2.66,2.66,0,1,0-2.66-2.66A2.66,2.66,0,0,0,405.15,497.72Zm15-.25a2.41,2.41,0,1,0-2.41-2.41A2.41,2.41,0,0,0,420.13,497.47Zm15-.25a2.16,2.16,0,1,0-2.16-2.16A2.16,2.16,0,0,0,435.12,497.22Zm15-.33a1.83,1.83,0,1,0-1.82-1.83A1.83,1.83,0,0,0,450.1,496.89Zm15-.29a1.54,1.54,0,1,0-1.54-1.54A1.54,1.54,0,0,0,465.09,496.6Zm15-.38a1.16,1.16,0,1,0-1.16-1.16A1.16,1.16,0,0,0,480.07,496.22Zm15-.33a.83.83,0,1,0-.83-.83A.83.83,0,0,0,495.06,495.89Zm15-.37a.46.46,0,1,0-.46-.46A.46.46,0,0,0,510.05,495.52Zm15-.42a0,0,0,0,0,0-.08,0,0,0,0,0,0,.08A0,0,0,0,0,525,495.1ZM90.45,510.46a.41.41,0,0,0,.42-.41.42.42,0,0,0-.42-.42.41.41,0,0,0-.41.42A.41.41,0,0,0,90.45,510.46Zm15,.33a.75.75,0,1,0-.75-.74A.75.75,0,0,0,105.44,510.79Zm15,.34a1.08,1.08,0,1,0-1.08-1.08A1.08,1.08,0,0,0,120.42,511.13Zm15,.33a1.42,1.42,0,1,0-1.41-1.41A1.41,1.41,0,0,0,135.41,511.46Zm15,.29a1.71,1.71,0,1,0-1.7-1.7A1.7,1.7,0,0,0,150.39,511.75Zm15,.29a2,2,0,1,0-2-2A2,2,0,0,0,165.38,512Zm15,.25a2.25,2.25,0,1,0-2.25-2.24A2.24,2.24,0,0,0,180.37,512.29Zm15,.17a2.41,2.41,0,1,0-2.41-2.41A2.41,2.41,0,0,0,195.35,512.46Zm15,.2a2.62,2.62,0,1,0-2.62-2.61A2.61,2.61,0,0,0,210.34,512.66Zm15,.17a2.79,2.79,0,1,0-2.78-2.78A2.79,2.79,0,0,0,225.32,512.83Zm15,.08a2.87,2.87,0,1,0-2.87-2.86A2.86,2.86,0,0,0,240.31,512.91Zm15,.13a3,3,0,1,0-3-3A3,3,0,0,0,255.29,513Zm15,0a3,3,0,1,0-3-3A3,3,0,0,0,270.28,513.08Zm15,0a3.08,3.08,0,1,0-3.07-3.07A3.08,3.08,0,0,0,285.26,513.12Zm15,0a3.08,3.08,0,1,0-3.08-3.07A3.07,3.07,0,0,0,300.25,513.12Zm15,0a3.08,3.08,0,1,0-3.07-3.07A3.08,3.08,0,0,0,315.23,513.12Zm15-.08a3,3,0,1,0-3-3A3,3,0,0,0,330.22,513Zm15-.13a2.87,2.87,0,1,0-2.87-2.86A2.86,2.86,0,0,0,345.21,512.91Zm15-.08a2.79,2.79,0,1,0-2.78-2.78A2.79,2.79,0,0,0,360.19,512.83Zm15-.17a2.62,2.62,0,1,0-2.62-2.61A2.61,2.61,0,0,0,375.18,512.66Zm15-.2a2.41,2.41,0,1,0-2.41-2.41A2.41,2.41,0,0,0,390.16,512.46Zm15-.17a2.25,2.25,0,1,0-2.25-2.24A2.24,2.24,0,0,0,405.15,512.29Zm15-.25a2,2,0,1,0-2-2A2,2,0,0,0,420.13,512Zm15-.25a1.75,1.75,0,1,0-1.75-1.74A1.74,1.74,0,0,0,435.12,511.79Zm15-.33a1.42,1.42,0,1,0-1.41-1.41A1.42,1.42,0,0,0,450.1,511.46Zm15-.29a1.13,1.13,0,1,0-1.12-1.12A1.12,1.12,0,0,0,465.09,511.17Zm15-.33a.79.79,0,1,0,0-1.58.79.79,0,0,0,0,1.58Zm15-.34a.46.46,0,1,0-.46-.45A.46.46,0,0,0,495.06,510.5Zm15-.41a0,0,0,0,0,0,0,0,0,0,0,0,0-.05,0,0,0,0,0-.05.05A0,0,0,0,0,510.05,510.09ZM105.44,525.41a.38.38,0,0,0,.37-.38.38.38,0,0,0-.75,0A.38.38,0,0,0,105.44,525.41Zm15,.33a.71.71,0,0,0,0-1.42.71.71,0,0,0,0,1.42Zm15,.29a1,1,0,1,0-1-1A1,1,0,0,0,135.41,526Zm15,.25a1.25,1.25,0,1,0-1.24-1.25A1.25,1.25,0,0,0,150.39,526.28Zm15,.29a1.54,1.54,0,1,0-1.54-1.54A1.54,1.54,0,0,0,165.38,526.57Zm15,.21a1.75,1.75,0,1,0-1.75-1.75A1.74,1.74,0,0,0,180.37,526.78Zm15,.25a2,2,0,1,0-2-2A2,2,0,0,0,195.35,527Zm15,.16a2.16,2.16,0,1,0-2.16-2.16A2.16,2.16,0,0,0,210.34,527.19Zm15,.17A2.33,2.33,0,1,0,223,525,2.33,2.33,0,0,0,225.32,527.36Zm15,.08A2.41,2.41,0,1,0,237.9,525,2.41,2.41,0,0,0,240.31,527.44Zm15,.13a2.54,2.54,0,1,0-2.53-2.54A2.54,2.54,0,0,0,255.29,527.57Zm15,0A2.58,2.58,0,1,0,267.7,525,2.58,2.58,0,0,0,270.28,527.61Zm15,0a2.62,2.62,0,1,0-2.61-2.62A2.62,2.62,0,0,0,285.26,527.65Zm15,0a2.62,2.62,0,1,0-2.62-2.62A2.62,2.62,0,0,0,300.25,527.65Zm15,0a2.58,2.58,0,1,0-2.57-2.58A2.58,2.58,0,0,0,315.23,527.61Zm15,0a2.54,2.54,0,1,0-2.53-2.54A2.54,2.54,0,0,0,330.22,527.57Zm15-.13A2.41,2.41,0,1,0,342.8,525,2.41,2.41,0,0,0,345.21,527.44Zm15-.08a2.33,2.33,0,1,0-2.33-2.33A2.33,2.33,0,0,0,360.19,527.36Zm15-.17A2.16,2.16,0,1,0,373,525,2.16,2.16,0,0,0,375.18,527.19Zm15-.16a2,2,0,1,0-2-2A2,2,0,0,0,390.16,527Zm15-.21a1.79,1.79,0,1,0-1.79-1.79A1.79,1.79,0,0,0,405.15,526.82Zm15-.25A1.54,1.54,0,1,0,418.6,525,1.54,1.54,0,0,0,420.13,526.57Zm15-.25a1.29,1.29,0,1,0-1.29-1.29A1.29,1.29,0,0,0,435.12,526.32Zm15-.29a1,1,0,1,0-1-1A1,1,0,0,0,450.1,526Zm15-.29a.71.71,0,1,0-.71-.71A.71.71,0,0,0,465.09,525.74Zm15-.29a.42.42,0,0,0,.42-.42.42.42,0,0,0-.83,0A.42.42,0,0,0,480.07,525.45Zm15-.38a0,0,0,1,0,0-.08,0,0,0,0,0,0,.08A0,0,0,0,0,495.06,525.07ZM120.42,540.22a.2.2,0,0,0,.21-.2.21.21,0,0,0-.21-.21.2.2,0,0,0-.2.21A.2.2,0,0,0,120.42,540.22Zm15,.34a.54.54,0,1,0-.54-.54A.54.54,0,0,0,135.41,540.56Zm15,.29a.83.83,0,1,0-.83-.83A.84.84,0,0,0,150.39,540.85Zm15,.25A1.08,1.08,0,1,0,164.3,540,1.08,1.08,0,0,0,165.38,541.1Zm15,.2a1.29,1.29,0,1,0-1.29-1.28A1.28,1.28,0,0,0,180.37,541.3Zm15,.21a1.5,1.5,0,1,0-1.49-1.49A1.5,1.5,0,0,0,195.35,541.51Zm15,.17a1.67,1.67,0,1,0-1.67-1.66A1.67,1.67,0,0,0,210.34,541.68Zm15,.17a1.83,1.83,0,1,0-1.83-1.83A1.83,1.83,0,0,0,225.32,541.85Zm15,.12a2,2,0,1,0-2-2A1.95,1.95,0,0,0,240.31,542Zm15,.08a2,2,0,1,0-2-2A2,2,0,0,0,255.29,542.05Zm15,.09a2.12,2.12,0,1,0-2.12-2.12A2.12,2.12,0,0,0,270.28,542.14Zm15,0A2.16,2.16,0,1,0,283.1,540,2.16,2.16,0,0,0,285.26,542.18Zm15,0a2.16,2.16,0,1,0-2.16-2.16A2.16,2.16,0,0,0,300.25,542.18Zm15,0a2.12,2.12,0,1,0-2.11-2.12A2.11,2.11,0,0,0,315.23,542.14Zm15-.09a2,2,0,1,0-2-2A2,2,0,0,0,330.22,542.05Zm15-.08a2,2,0,1,0-2-2A2,2,0,0,0,345.21,542Zm15-.12a1.83,1.83,0,1,0-1.83-1.83A1.83,1.83,0,0,0,360.19,541.85Zm15-.13a1.71,1.71,0,0,0,0-3.41,1.71,1.71,0,1,0,0,3.41Zm15-.17a1.54,1.54,0,1,0-1.54-1.53A1.53,1.53,0,0,0,390.16,541.55Zm15-.2a1.33,1.33,0,1,0-1.33-1.33A1.34,1.34,0,0,0,405.15,541.35Zm15-.25a1.08,1.08,0,1,0-1.08-1.08A1.08,1.08,0,0,0,420.13,541.1Zm15-.25a.83.83,0,1,0-.83-.83A.83.83,0,0,0,435.12,540.85Zm15-.25a.58.58,0,0,0,.59-.58.59.59,0,1,0-1.17,0A.58.58,0,0,0,450.1,540.6Zm15-.33a.25.25,0,0,0,.25-.25.25.25,0,0,0-.5,0A.25.25,0,0,0,465.09,540.27ZM135.41,555.09a.08.08,0,0,0,.08-.09.08.08,0,0,0-.16,0A.08.08,0,0,0,135.41,555.09Zm15,.29a.38.38,0,1,0,0-.75.38.38,0,0,0,0,.75Zm15,.25a.63.63,0,1,0-.62-.63A.63.63,0,0,0,165.38,555.63Zm15,.2a.83.83,0,1,0-.84-.83A.83.83,0,0,0,180.37,555.83Zm15,.21a1,1,0,1,0-1-1A1,1,0,0,0,195.35,556Zm15,.17a1.21,1.21,0,1,0-1.21-1.21A1.21,1.21,0,0,0,210.34,556.21Zm15,.12A1.33,1.33,0,1,0,224,555,1.32,1.32,0,0,0,225.32,556.33Zm15,.13a1.46,1.46,0,1,0-1.46-1.46A1.45,1.45,0,0,0,240.31,556.46Zm15,.08a1.54,1.54,0,1,0-1.53-1.54A1.54,1.54,0,0,0,255.29,556.54Zm15,0A1.58,1.58,0,1,0,268.7,555,1.58,1.58,0,0,0,270.28,556.58Zm15,0a1.62,1.62,0,1,0-1.62-1.62A1.61,1.61,0,0,0,285.26,556.62Zm15,0a1.62,1.62,0,1,0-1.62-1.62A1.62,1.62,0,0,0,300.25,556.62Zm15,0a1.62,1.62,0,1,0-1.62-1.62A1.62,1.62,0,0,0,315.23,556.62Zm15-.08a1.54,1.54,0,1,0-1.54-1.54A1.54,1.54,0,0,0,330.22,556.54Zm15-.08a1.46,1.46,0,1,0-1.46-1.46A1.45,1.45,0,0,0,345.21,556.46Zm15-.13a1.33,1.33,0,1,0-1.33-1.33A1.32,1.32,0,0,0,360.19,556.33Zm15-.12A1.21,1.21,0,1,0,374,555,1.21,1.21,0,0,0,375.18,556.21Zm15-.17a1,1,0,1,0,0-2.08,1,1,0,0,0,0,2.08Zm15-.21a.83.83,0,1,0-.83-.83A.83.83,0,0,0,405.15,555.83Zm15-.2a.63.63,0,1,0-.62-.63A.63.63,0,0,0,420.13,555.63Zm15-.21a.41.41,0,0,0,.41-.42.41.41,0,0,0-.41-.41.41.41,0,0,0-.42.41A.42.42,0,0,0,435.12,555.42Zm15-.33a.09.09,0,0,0,.09-.09.09.09,0,0,0-.09-.08.09.09,0,0,0-.08.08A.09.09,0,0,0,450.1,555.09Zm-284.72,15a.12.12,0,0,0,.12-.12.12.12,0,1,0-.24,0A.12.12,0,0,0,165.38,570.11Zm15,.21a.33.33,0,0,0,.33-.33.34.34,0,0,0-.67,0A.34.34,0,0,0,180.37,570.32Zm15,.21a.54.54,0,1,0-.54-.54A.54.54,0,0,0,195.35,570.53Zm15,.16a.7.7,0,0,0,.7-.7.7.7,0,0,0-.7-.71.71.71,0,0,0-.71.71A.7.7,0,0,0,210.34,570.69Zm15,.13a.83.83,0,1,0-.83-.83A.83.83,0,0,0,225.32,570.82Zm15,.12a1,1,0,0,0,0-1.91,1,1,0,1,0,0,1.91Zm15,.09a1,1,0,1,0-1-1A1,1,0,0,0,255.29,571Zm15,0A1.08,1.08,0,1,0,269.2,570,1.08,1.08,0,0,0,270.28,571.07Zm15,0a1.12,1.12,0,1,0-1.12-1.12A1.13,1.13,0,0,0,285.26,571.11Zm15,0a1.12,1.12,0,1,0-1.12-1.12A1.12,1.12,0,0,0,300.25,571.11Zm15,0a1.08,1.08,0,1,0-1.08-1.08A1.09,1.09,0,0,0,315.23,571.07Zm15,0a1,1,0,1,0-1-1A1,1,0,0,0,330.22,571Zm15-.09a1,1,0,0,0,0-1.91,1,1,0,1,0,0,1.91Zm15-.12a.83.83,0,1,0-.83-.83A.83.83,0,0,0,360.19,570.82Zm15-.13a.7.7,0,0,0,.7-.7.7.7,0,0,0-.7-.71.71.71,0,0,0-.71.71A.7.7,0,0,0,375.18,570.69Zm15-.16a.54.54,0,1,0-.54-.54A.54.54,0,0,0,390.16,570.53Zm15-.17a.38.38,0,0,0,0-.75.38.38,0,1,0,0,.75Zm15-.25a.12.12,0,0,0,.13-.12.13.13,0,0,0-.13-.13.12.12,0,0,0-.12.13A.12.12,0,0,0,420.13,570.11Zm-209.79,15a.17.17,0,0,0,.16-.17.16.16,0,0,0-.16-.16.16.16,0,0,0-.17.16A.17.17,0,0,0,210.34,585.14Zm15,.17a.34.34,0,0,0,0-.67.34.34,0,0,0,0,.67Zm15,.08a.41.41,0,0,0,.41-.42.41.41,0,0,0-.41-.41.41.41,0,0,0-.42.41A.42.42,0,0,0,240.31,585.39Zm15,.08a.5.5,0,0,0,.5-.5.5.5,0,0,0-.5-.5.51.51,0,0,0-.5.5A.5.5,0,0,0,255.29,585.47Zm15,.08a.58.58,0,1,0-.58-.58A.58.58,0,0,0,270.28,585.55Zm15,0a.58.58,0,1,0-.58-.58A.58.58,0,0,0,285.26,585.55Zm15,0a.58.58,0,1,0-.58-.58A.58.58,0,0,0,300.25,585.55Zm15,0a.58.58,0,1,0-.58-.58A.58.58,0,0,0,315.23,585.55Zm15,0a.54.54,0,1,0-.54-.54A.54.54,0,0,0,330.22,585.51Zm15-.08a.46.46,0,1,0-.46-.46A.45.45,0,0,0,345.21,585.43Zm15-.12a.34.34,0,1,0-.33-.34A.34.34,0,0,0,360.19,585.31Zm15-.17a.17.17,0,0,0,.16-.17.16.16,0,0,0-.16-.16.16.16,0,0,0-.17.16A.17.17,0,0,0,375.18,585.14ZM285.26,600a0,0,0,1,0,0-.08,0,0,0,0,0,0,.08Zm15,0a0,0,0,0,0,0-.08,0,0,0,0,0,0,.08A0,0,0,0,0,300.25,600Z" transform="translate(0)"/></svg>